<svg width="342" height="32" viewBox="0 0 342 32" fill="none" xmlns="http://www.w3.org/2000/svg">
<path d="M0 16C0 7.16344 7.16344 0 16 0H326C334.837 0 342 7.16344 342 16C342 24.8366 334.837 32 326 32H16C7.16344 32 0 24.8366 0 16Z" fill="#FFF1F1"/>
<path d="M13.6037 14.1719C13.5639 13.7997 13.3963 13.5099 13.1009 13.3026C12.8082 13.0952 12.4276 12.9915 11.9588 12.9915C11.6293 12.9915 11.3466 13.0412 11.1108 13.1406C10.875 13.2401 10.6946 13.375 10.5696 13.5455C10.4446 13.7159 10.3807 13.9105 10.3778 14.1293C10.3778 14.3111 10.419 14.4687 10.5014 14.6023C10.5866 14.7358 10.7017 14.8494 10.8466 14.9432C10.9915 15.0341 11.152 15.1108 11.3281 15.1733C11.5043 15.2358 11.6818 15.2884 11.8608 15.331L12.679 15.5355C13.0085 15.6122 13.3253 15.7159 13.6293 15.8466C13.9361 15.9773 14.2102 16.142 14.4517 16.3409C14.696 16.5398 14.8892 16.7798 15.0312 17.0611C15.1733 17.3423 15.2443 17.6719 15.2443 18.0497C15.2443 18.5611 15.1136 19.0114 14.8523 19.4006C14.5909 19.7869 14.2131 20.0895 13.7188 20.3082C13.2273 20.5241 12.6321 20.6321 11.9332 20.6321C11.2543 20.6321 10.6648 20.527 10.1648 20.3168C9.66761 20.1065 9.27841 19.7997 8.99716 19.3963C8.71875 18.9929 8.56818 18.5014 8.54545 17.9219H10.1009C10.1236 18.2259 10.2173 18.4787 10.3821 18.6804C10.5469 18.8821 10.7614 19.0327 11.0256 19.1321C11.2926 19.2315 11.5909 19.2812 11.9205 19.2812C12.2642 19.2812 12.5653 19.2301 12.8239 19.1278C13.0852 19.0227 13.2898 18.8778 13.4375 18.6932C13.5852 18.5057 13.6605 18.2869 13.6634 18.0369C13.6605 17.8097 13.5938 17.6222 13.4631 17.4744C13.3324 17.3239 13.1491 17.1989 12.9134 17.0994C12.6804 16.9972 12.4077 16.9062 12.0952 16.8267L11.1023 16.571C10.3835 16.3864 9.81534 16.1065 9.39773 15.7315C8.98295 15.3537 8.77557 14.8523 8.77557 14.2273C8.77557 13.7131 8.91477 13.2628 9.19318 12.8764C9.47443 12.4901 9.85653 12.1903 10.3395 11.9773C10.8224 11.7614 11.3693 11.6534 11.9801 11.6534C12.5994 11.6534 13.142 11.7614 13.608 11.9773C14.0767 12.1903 14.4446 12.4872 14.7116 12.8679C14.9787 13.2457 15.1165 13.6804 15.125 14.1719H13.6037ZM18.1282 16.6648V20.5H16.5856V11.7727H18.0941V15.0668H18.1708C18.3242 14.6974 18.5614 14.4062 18.8825 14.1932C19.2063 13.9773 19.6183 13.8693 20.1183 13.8693C20.5728 13.8693 20.9691 13.9645 21.3072 14.1548C21.6452 14.3452 21.9066 14.6236 22.0913 14.9901C22.2788 15.3565 22.3725 15.804 22.3725 16.3324V20.5H20.8299V16.571C20.8299 16.1307 20.7163 15.7884 20.489 15.544C20.2646 15.2969 19.9492 15.1733 19.543 15.1733C19.2702 15.1733 19.0259 15.233 18.81 15.3523C18.5969 15.4687 18.4293 15.6378 18.3072 15.8594C18.1879 16.081 18.1282 16.3494 18.1282 16.6648ZM24.6694 22.9545C24.4592 22.9545 24.2646 22.9375 24.0856 22.9034C23.9094 22.8722 23.7688 22.8352 23.6637 22.7926L24.0217 21.5909C24.2461 21.6563 24.4464 21.6875 24.6225 21.6847C24.7987 21.6818 24.9535 21.6264 25.087 21.5185C25.2234 21.4134 25.3384 21.2372 25.4322 20.9901L25.5643 20.6364L23.1907 13.9545H24.8271L26.3356 18.8977H26.4038L27.9165 13.9545H29.5572L26.9364 21.2926C26.8143 21.6392 26.6523 21.9361 26.4506 22.1832C26.2489 22.4332 26.0018 22.6236 25.7092 22.7543C25.4194 22.8878 25.0728 22.9545 24.6694 22.9545ZM32.3207 20.6321C31.9059 20.6321 31.5323 20.5582 31.1999 20.4105C30.8704 20.2599 30.609 20.0384 30.4158 19.7457C30.2255 19.4531 30.1303 19.0923 30.1303 18.6634C30.1303 18.294 30.1985 17.9886 30.3349 17.7472C30.4712 17.5057 30.6573 17.3125 30.8931 17.1676C31.1289 17.0227 31.3945 16.9134 31.69 16.8395C31.9883 16.7628 32.2965 16.7074 32.6147 16.6733C32.9982 16.6335 33.3093 16.598 33.5479 16.5668C33.7866 16.5327 33.9599 16.4815 34.0678 16.4134C34.1786 16.3423 34.234 16.233 34.234 16.0852V16.0597C34.234 15.7386 34.1388 15.4901 33.9485 15.3139C33.7582 15.1378 33.484 15.0497 33.1261 15.0497C32.7482 15.0497 32.4485 15.1321 32.2269 15.2969C32.0082 15.4616 31.8604 15.6562 31.7837 15.8807L30.3434 15.6761C30.457 15.2784 30.6445 14.946 30.9059 14.679C31.1673 14.4091 31.4869 14.2074 31.8647 14.0739C32.2425 13.9375 32.6602 13.8693 33.1175 13.8693C33.4329 13.8693 33.7468 13.9062 34.0593 13.9801C34.3718 14.054 34.6573 14.1761 34.9158 14.3466C35.1744 14.5142 35.3817 14.7429 35.538 15.0327C35.6971 15.3224 35.7766 15.6847 35.7766 16.1193V20.5H34.2937V19.6009H34.2425C34.1488 19.7827 34.0167 19.9531 33.8462 20.1122C33.6786 20.2685 33.467 20.3949 33.2113 20.4915C32.9585 20.5852 32.6616 20.6321 32.3207 20.6321ZM32.7212 19.4986C33.0309 19.4986 33.2994 19.4375 33.5266 19.3153C33.7539 19.1903 33.9286 19.0256 34.0508 18.821C34.1758 18.6165 34.2383 18.3935 34.2383 18.152V17.3807C34.19 17.4205 34.1076 17.4574 33.9911 17.4915C33.8775 17.5256 33.7496 17.5554 33.6076 17.581C33.4656 17.6065 33.3249 17.6293 33.1857 17.6491C33.0465 17.669 32.9258 17.6861 32.8235 17.7003C32.5934 17.7315 32.3874 17.7827 32.2056 17.8537C32.0238 17.9247 31.8803 18.0241 31.7752 18.152C31.6701 18.277 31.6175 18.4389 31.6175 18.6378C31.6175 18.9219 31.7212 19.1364 31.9286 19.2812C32.136 19.4261 32.4002 19.4986 32.7212 19.4986ZM37.3278 20.5V13.9545H38.8022V15.0668H38.8789C39.0153 14.6918 39.2411 14.3991 39.5565 14.1889C39.8718 13.9759 40.2482 13.8693 40.6857 13.8693C41.1289 13.8693 41.5025 13.9773 41.8065 14.1932C42.1133 14.4062 42.3292 14.6974 42.4542 15.0668H42.5224C42.6673 14.7031 42.9116 14.4134 43.2553 14.1974C43.6019 13.9787 44.0124 13.8693 44.4869 13.8693C45.0891 13.8693 45.5806 14.0597 45.9613 14.4403C46.342 14.821 46.5323 15.3764 46.5323 16.1065V20.5H44.9854V16.3452C44.9854 15.9389 44.8775 15.642 44.6616 15.4545C44.4457 15.2642 44.1815 15.169 43.869 15.169C43.4968 15.169 43.2056 15.2855 42.9954 15.5185C42.788 15.7486 42.6843 16.0483 42.6843 16.4176V20.5H41.1715V16.2812C41.1715 15.9432 41.0692 15.6733 40.8647 15.4716C40.663 15.2699 40.3988 15.169 40.0721 15.169C39.8505 15.169 39.6488 15.2259 39.467 15.3395C39.2852 15.4503 39.1403 15.608 39.0323 15.8125C38.9244 16.0142 38.8704 16.25 38.8704 16.5199V20.5H37.3278ZM58.3139 11.7727V20.5H56.9077L52.7955 14.5554H52.723V20.5H51.142V11.7727H52.5568L56.6648 17.7216H56.7415V11.7727H58.3139ZM61.8519 20.6321C61.4371 20.6321 61.0636 20.5582 60.7312 20.4105C60.4016 20.2599 60.1403 20.0384 59.9471 19.7457C59.7567 19.4531 59.6616 19.0923 59.6616 18.6634C59.6616 18.294 59.7298 17.9886 59.8661 17.7472C60.0025 17.5057 60.1886 17.3125 60.4244 17.1676C60.6602 17.0227 60.9258 16.9134 61.2212 16.8395C61.5195 16.7628 61.8278 16.7074 62.146 16.6733C62.5295 16.6335 62.8406 16.598 63.0792 16.5668C63.3178 16.5327 63.4911 16.4815 63.5991 16.4134C63.7099 16.3423 63.7653 16.233 63.7653 16.0852V16.0597C63.7653 15.7386 63.6701 15.4901 63.4798 15.3139C63.2894 15.1378 63.0153 15.0497 62.6573 15.0497C62.2795 15.0497 61.9798 15.1321 61.7582 15.2969C61.5394 15.4616 61.3917 15.6562 61.315 15.8807L59.8746 15.6761C59.9883 15.2784 60.1758 14.946 60.4371 14.679C60.6985 14.4091 61.0181 14.2074 61.396 14.0739C61.7738 13.9375 62.1914 13.8693 62.6488 13.8693C62.9641 13.8693 63.2781 13.9062 63.5906 13.9801C63.9031 14.054 64.1886 14.1761 64.4471 14.3466C64.7056 14.5142 64.913 14.7429 65.0692 15.0327C65.2283 15.3224 65.3079 15.6847 65.3079 16.1193V20.5H63.8249V19.6009H63.7738C63.68 19.7827 63.5479 19.9531 63.3775 20.1122C63.2099 20.2685 62.9982 20.3949 62.7425 20.4915C62.4897 20.5852 62.1928 20.6321 61.8519 20.6321ZM62.2525 19.4986C62.5621 19.4986 62.8306 19.4375 63.0579 19.3153C63.2852 19.1903 63.4599 19.0256 63.582 18.821C63.707 18.6165 63.7695 18.3935 63.7695 18.152V17.3807C63.7212 17.4205 63.6388 17.4574 63.5224 17.4915C63.4087 17.5256 63.2809 17.5554 63.1388 17.581C62.9968 17.6065 62.8562 17.6293 62.717 17.6491C62.5778 17.669 62.457 17.6861 62.3548 17.7003C62.1246 17.7315 61.9187 17.7827 61.7369 17.8537C61.555 17.9247 61.4116 18.0241 61.3065 18.152C61.2013 18.277 61.1488 18.4389 61.1488 18.6378C61.1488 18.9219 61.2525 19.1364 61.4599 19.2812C61.6673 19.4261 61.9315 19.4986 62.2525 19.4986ZM69.7056 23.0909C69.1516 23.0909 68.6758 23.0156 68.2781 22.8651C67.8803 22.7173 67.5607 22.5185 67.3192 22.2685C67.0778 22.0185 66.9102 21.7415 66.8164 21.4375L68.2056 21.1009C68.2681 21.2287 68.359 21.3551 68.4783 21.4801C68.5977 21.608 68.7582 21.7131 68.9599 21.7955C69.1644 21.8807 69.4215 21.9233 69.7312 21.9233C70.1687 21.9233 70.5309 21.8168 70.8178 21.6037C71.1048 21.3935 71.2482 21.0469 71.2482 20.5639V19.3239H71.1715C71.092 19.483 70.9755 19.6463 70.8221 19.8139C70.6715 19.9815 70.4712 20.1222 70.2212 20.2358C69.9741 20.3494 69.663 20.4062 69.288 20.4062C68.7852 20.4062 68.3292 20.2884 67.9201 20.0526C67.5138 19.8139 67.19 19.4588 66.9485 18.9872C66.7099 18.5128 66.5906 17.919 66.5906 17.206C66.5906 16.4872 66.7099 15.8807 66.9485 15.3864C67.19 14.8892 67.5153 14.5128 67.9244 14.2571C68.3335 13.9986 68.7894 13.8693 69.2923 13.8693C69.6758 13.8693 69.9911 13.9347 70.2383 14.0653C70.4883 14.1932 70.6871 14.348 70.8349 14.5298C70.9826 14.7088 71.0948 14.8778 71.1715 15.0369H71.2567V13.9545H72.7781V20.6065C72.7781 21.1662 72.6445 21.6293 72.3775 21.9957C72.1104 22.3622 71.7454 22.6364 71.2823 22.8182C70.8192 23 70.2937 23.0909 69.7056 23.0909ZM69.7184 19.196C70.0451 19.196 70.3235 19.1165 70.5536 18.9574C70.7837 18.7983 70.9585 18.5696 71.0778 18.2713C71.1971 17.973 71.2567 17.6151 71.2567 17.1974C71.2567 16.7855 71.1971 16.4247 71.0778 16.1151C70.9613 15.8054 70.788 15.5653 70.5579 15.3949C70.3306 15.2216 70.0508 15.1349 69.7184 15.1349C69.3746 15.1349 69.0877 15.2244 68.8576 15.4034C68.6275 15.5824 68.4542 15.8281 68.3377 16.1406C68.2212 16.4503 68.163 16.8026 68.163 17.1974C68.163 17.598 68.2212 17.9489 68.3377 18.25C68.457 18.5483 68.6317 18.7812 68.8619 18.9489C69.0948 19.1136 69.3803 19.196 69.7184 19.196ZM76.2425 20.6321C75.8278 20.6321 75.4542 20.5582 75.1218 20.4105C74.7923 20.2599 74.5309 20.0384 74.3377 19.7457C74.1474 19.4531 74.0522 19.0923 74.0522 18.6634C74.0522 18.294 74.1204 17.9886 74.2567 17.7472C74.3931 17.5057 74.5792 17.3125 74.815 17.1676C75.0508 17.0227 75.3164 16.9134 75.6119 16.8395C75.9102 16.7628 76.2184 16.7074 76.5366 16.6733C76.9201 16.6335 77.2312 16.598 77.4698 16.5668C77.7085 16.5327 77.8817 16.4815 77.9897 16.4134C78.1005 16.3423 78.1559 16.233 78.1559 16.0852V16.0597C78.1559 15.7386 78.0607 15.4901 77.8704 15.3139C77.68 15.1378 77.4059 15.0497 77.0479 15.0497C76.6701 15.0497 76.3704 15.1321 76.1488 15.2969C75.93 15.4616 75.7823 15.6562 75.7056 15.8807L74.2653 15.6761C74.3789 15.2784 74.5664 14.946 74.8278 14.679C75.0891 14.4091 75.4087 14.2074 75.7866 14.0739C76.1644 13.9375 76.582 13.8693 77.0394 13.8693C77.3548 13.8693 77.6687 13.9062 77.9812 13.9801C78.2937 14.054 78.5792 14.1761 78.8377 14.3466C79.0962 14.5142 79.3036 14.7429 79.4599 15.0327C79.619 15.3224 79.6985 15.6847 79.6985 16.1193V20.5H78.2156V19.6009H78.1644C78.0707 19.7827 77.9386 19.9531 77.7681 20.1122C77.6005 20.2685 77.3888 20.3949 77.1332 20.4915C76.8803 20.5852 76.5835 20.6321 76.2425 20.6321ZM76.6431 19.4986C76.9528 19.4986 77.2212 19.4375 77.4485 19.3153C77.6758 19.1903 77.8505 19.0256 77.9727 18.821C78.0977 18.6165 78.1602 18.3935 78.1602 18.152V17.3807C78.1119 17.4205 78.0295 17.4574 77.913 17.4915C77.7994 17.5256 77.6715 17.5554 77.5295 17.581C77.3874 17.6065 77.2468 17.6293 77.1076 17.6491C76.9684 17.669 76.8477 17.6861 76.7454 17.7003C76.5153 17.7315 76.3093 17.7827 76.1275 17.8537C75.9457 17.9247 75.8022 18.0241 75.6971 18.152C75.592 18.277 75.5394 18.4389 75.5394 18.6378C75.5394 18.9219 75.6431 19.1364 75.8505 19.2812C76.0579 19.4261 76.3221 19.4986 76.6431 19.4986ZM81.2496 20.5V13.9545H82.7454V15.0455H82.8136C82.9329 14.6676 83.1374 14.3764 83.4272 14.1719C83.7198 13.9645 84.0536 13.8608 84.4286 13.8608C84.5138 13.8608 84.609 13.8651 84.7141 13.8736C84.8221 13.8793 84.9116 13.8892 84.9826 13.9034V15.3224C84.9173 15.2997 84.8136 15.2798 84.6715 15.2628C84.5323 15.2429 84.3974 15.233 84.2667 15.233C83.9854 15.233 83.7326 15.294 83.5082 15.4162C83.2866 15.5355 83.1119 15.7017 82.984 15.9148C82.8562 16.1278 82.7923 16.3736 82.7923 16.652V20.5H81.2496Z" fill="black"/>
<g filter="url(#filter0_i_704_9126)">
<path d="M331.334 14.6663C331.334 17.6119 326 22.6663 326 22.6663C326 22.6663 320.667 17.6119 320.667 14.6663C320.667 11.7208 323.055 9.33301 326 9.33301C328.946 9.33301 331.334 11.7208 331.334 14.6663Z" fill="#D9444D"/>
</g>
<path d="M326 15.3333C326.368 15.3333 326.666 15.0349 326.666 14.6667C326.666 14.2985 326.368 14 326 14C325.631 14 325.333 14.2985 325.333 14.6667C325.333 15.0349 325.631 15.3333 326 15.3333Z" fill="white" stroke="white" stroke-linecap="round" stroke-linejoin="round"/>
<defs>
<filter id="filter0_i_704_9126" x="320.667" y="9.33301" width="12.667" height="15.3335" filterUnits="userSpaceOnUse" color-interpolation-filters="sRGB">
<feFlood flood-opacity="0" result="BackgroundImageFix"/>
<feBlend mode="normal" in="SourceGraphic" in2="BackgroundImageFix" result="shape"/>
<feColorMatrix in="SourceAlpha" type="matrix" values="0 0 0 0 0 0 0 0 0 0 0 0 0 0 0 0 0 0 127 0" result="hardAlpha"/>
<feOffset dx="2" dy="2"/>
<feGaussianBlur stdDeviation="2"/>
<feComposite in2="hardAlpha" operator="arithmetic" k2="-1" k3="1"/>
<feColorMatrix type="matrix" values="0 0 0 0 1 0 0 0 0 1 0 0 0 0 1 0 0 0 0.25 0"/>
<feBlend mode="normal" in2="shape" result="effect1_innerShadow_704_9126"/>
</filter>
</defs>
</svg>
