<svg width="342" height="32" viewBox="0 0 342 32" fill="none" xmlns="http://www.w3.org/2000/svg">
<rect width="342" height="32" rx="16" fill="#FFF1F1"/>
<path d="M8.47727 13.098V11.7727H15.4403V13.098H12.7429V20.5H11.1747V13.098H8.47727ZM18.6204 20.6278C17.9812 20.6278 17.4272 20.4872 16.9585 20.206C16.4897 19.9247 16.1261 19.5312 15.8675 19.0256C15.6119 18.5199 15.484 17.929 15.484 17.2528C15.484 16.5767 15.6119 15.9844 15.8675 15.4759C16.1261 14.9673 16.4897 14.5724 16.9585 14.2912C17.4272 14.0099 17.9812 13.8693 18.6204 13.8693C19.2596 13.8693 19.8136 14.0099 20.2823 14.2912C20.7511 14.5724 21.1133 14.9673 21.369 15.4759C21.6275 15.9844 21.7567 16.5767 21.7567 17.2528C21.7567 17.929 21.6275 18.5199 21.369 19.0256C21.1133 19.5312 20.7511 19.9247 20.2823 20.206C19.8136 20.4872 19.2596 20.6278 18.6204 20.6278ZM18.6289 19.392C18.9755 19.392 19.2653 19.2969 19.4982 19.1065C19.7312 18.9134 19.9045 18.6548 20.0181 18.331C20.1346 18.0071 20.1928 17.6463 20.1928 17.2486C20.1928 16.848 20.1346 16.4858 20.0181 16.1619C19.9045 15.8352 19.7312 15.5753 19.4982 15.3821C19.2653 15.1889 18.9755 15.0923 18.6289 15.0923C18.2738 15.0923 17.9783 15.1889 17.7425 15.3821C17.5096 15.5753 17.3349 15.8352 17.2184 16.1619C17.1048 16.4858 17.0479 16.848 17.0479 17.2486C17.0479 17.6463 17.1048 18.0071 17.2184 18.331C17.3349 18.6548 17.5096 18.9134 17.7425 19.1065C17.9783 19.2969 18.2738 19.392 18.6289 19.392ZM24.6087 16.6648V20.5H23.0661V13.9545H24.5405V15.0668H24.6172C24.7678 14.7003 25.0078 14.4091 25.3374 14.1932C25.6697 13.9773 26.0803 13.8693 26.5689 13.8693C27.0206 13.8693 27.4141 13.9659 27.7493 14.1591C28.0874 14.3523 28.3487 14.6321 28.5334 14.9986C28.7209 15.3651 28.8132 15.8097 28.8104 16.3324V20.5H27.2678V16.571C27.2678 16.1335 27.1541 15.7912 26.9268 15.544C26.7024 15.2969 26.3913 15.1733 25.9936 15.1733C25.7237 15.1733 25.4837 15.233 25.2734 15.3523C25.0661 15.4687 24.9027 15.6378 24.7834 15.8594C24.6669 16.081 24.6087 16.3494 24.6087 16.6648ZM31.7848 18.446L31.7805 16.5838H32.0277L34.38 13.9545H36.1825L33.2891 17.1761H32.9695L31.7848 18.446ZM30.3786 20.5V11.7727H31.9212V20.5H30.3786ZM34.4865 20.5L32.3558 17.5213L33.3956 16.4347L36.3317 20.5H34.4865ZM40.2553 20.5V11.7727H43.5281C44.1985 11.7727 44.761 11.8892 45.2156 12.1222C45.6729 12.3551 46.0181 12.6818 46.2511 13.1023C46.4869 13.5199 46.6048 14.0071 46.6048 14.5639C46.6048 15.1236 46.4854 15.6094 46.2468 16.0213C46.011 16.4304 45.663 16.7472 45.2028 16.9716C44.7425 17.1932 44.1772 17.304 43.5067 17.304H41.1758V15.9915H43.2937C43.6857 15.9915 44.0067 15.9375 44.2567 15.8295C44.5067 15.7187 44.6914 15.5582 44.8107 15.348C44.9329 15.1349 44.994 14.8736 44.994 14.5639C44.994 14.2543 44.9329 13.9901 44.8107 13.7713C44.6886 13.5497 44.5025 13.3821 44.2525 13.2685C44.0025 13.152 43.68 13.0938 43.2852 13.0938H41.8363V20.5H40.2553ZM44.7638 16.5455L46.9244 20.5H45.1602L43.038 16.5455H44.7638ZM50.7532 20.6278C50.114 20.6278 49.56 20.4872 49.0913 20.206C48.6225 19.9247 48.2589 19.5312 48.0004 19.0256C47.7447 18.5199 47.6168 17.929 47.6168 17.2528C47.6168 16.5767 47.7447 15.9844 48.0004 15.4759C48.2589 14.9673 48.6225 14.5724 49.0913 14.2912C49.56 14.0099 50.114 13.8693 50.7532 13.8693C51.3924 13.8693 51.9464 14.0099 52.4151 14.2912C52.8839 14.5724 53.2461 14.9673 53.5018 15.4759C53.7603 15.9844 53.8896 16.5767 53.8896 17.2528C53.8896 17.929 53.7603 18.5199 53.5018 19.0256C53.2461 19.5312 52.8839 19.9247 52.4151 20.206C51.9464 20.4872 51.3924 20.6278 50.7532 20.6278ZM50.7617 19.392C51.1083 19.392 51.3981 19.2969 51.631 19.1065C51.864 18.9134 52.0373 18.6548 52.1509 18.331C52.2674 18.0071 52.3256 17.6463 52.3256 17.2486C52.3256 16.848 52.2674 16.4858 52.1509 16.1619C52.0373 15.8352 51.864 15.5753 51.631 15.3821C51.3981 15.1889 51.1083 15.0923 50.7617 15.0923C50.4066 15.0923 50.1112 15.1889 49.8754 15.3821C49.6424 15.5753 49.4677 15.8352 49.3512 16.1619C49.2376 16.4858 49.1808 16.848 49.1808 17.2486C49.1808 17.6463 49.2376 18.0071 49.3512 18.331C49.4677 18.6548 49.6424 18.9134 49.8754 19.1065C50.1112 19.2969 50.4066 19.392 50.7617 19.392ZM57.0824 20.6321C56.6676 20.6321 56.294 20.5582 55.9616 20.4105C55.6321 20.2599 55.3707 20.0384 55.1776 19.7457C54.9872 19.4531 54.892 19.0923 54.892 18.6634C54.892 18.294 54.9602 17.9886 55.0966 17.7472C55.233 17.5057 55.419 17.3125 55.6548 17.1676C55.8906 17.0227 56.1563 16.9134 56.4517 16.8395C56.75 16.7628 57.0582 16.7074 57.3764 16.6733C57.7599 16.6335 58.071 16.598 58.3097 16.5668C58.5483 16.5327 58.7216 16.4815 58.8295 16.4134C58.9403 16.3423 58.9957 16.233 58.9957 16.0852V16.0597C58.9957 15.7386 58.9006 15.4901 58.7102 15.3139C58.5199 15.1378 58.2457 15.0497 57.8878 15.0497C57.5099 15.0497 57.2102 15.1321 56.9886 15.2969C56.7699 15.4616 56.6222 15.6562 56.5455 15.8807L55.1051 15.6761C55.2188 15.2784 55.4063 14.946 55.6676 14.679C55.929 14.4091 56.2486 14.2074 56.6264 14.0739C57.0043 13.9375 57.4219 13.8693 57.8793 13.8693C58.1946 13.8693 58.5085 13.9062 58.821 13.9801C59.1335 14.054 59.419 14.1761 59.6776 14.3466C59.9361 14.5142 60.1435 14.7429 60.2997 15.0327C60.4588 15.3224 60.5384 15.6847 60.5384 16.1193V20.5H59.0554V19.6009H59.0043C58.9105 19.7827 58.7784 19.9531 58.608 20.1122C58.4403 20.2685 58.2287 20.3949 57.973 20.4915C57.7202 20.5852 57.4233 20.6321 57.0824 20.6321ZM57.483 19.4986C57.7926 19.4986 58.0611 19.4375 58.2884 19.3153C58.5156 19.1903 58.6903 19.0256 58.8125 18.821C58.9375 18.6165 59 18.3935 59 18.152V17.3807C58.9517 17.4205 58.8693 17.4574 58.7528 17.4915C58.6392 17.5256 58.5114 17.5554 58.3693 17.581C58.2273 17.6065 58.0866 17.6293 57.9474 17.6491C57.8082 17.669 57.6875 17.6861 57.5852 17.7003C57.3551 17.7315 57.1491 17.7827 56.9673 17.8537C56.7855 17.9247 56.642 18.0241 56.5369 18.152C56.4318 18.277 56.3793 18.4389 56.3793 18.6378C56.3793 18.9219 56.483 19.1364 56.6903 19.2812C56.8977 19.4261 57.1619 19.4986 57.483 19.4986ZM64.5185 20.6151C64.0043 20.6151 63.544 20.483 63.1378 20.2188C62.7315 19.9545 62.4105 19.571 62.1747 19.0682C61.9389 18.5653 61.821 17.9545 61.821 17.2358C61.821 16.5085 61.9403 15.8949 62.179 15.3949C62.4205 14.892 62.7457 14.5128 63.1548 14.2571C63.5639 13.9986 64.0199 13.8693 64.5227 13.8693C64.9063 13.8693 65.2216 13.9347 65.4688 14.0653C65.7159 14.1932 65.9119 14.348 66.0568 14.5298C66.2017 14.7088 66.3139 14.8778 66.3935 15.0369H66.4574V11.7727H68.0043V20.5H66.4872V19.4688H66.3935C66.3139 19.6278 66.1989 19.7969 66.0483 19.9759C65.8977 20.152 65.6989 20.3026 65.4517 20.4276C65.2045 20.5526 64.8935 20.6151 64.5185 20.6151ZM64.9489 19.3494C65.2756 19.3494 65.554 19.2614 65.7841 19.0852C66.0142 18.9062 66.1889 18.6577 66.3082 18.3395C66.4276 18.0213 66.4872 17.6506 66.4872 17.2273C66.4872 16.804 66.4276 16.4361 66.3082 16.1236C66.1918 15.8111 66.0185 15.5682 65.7884 15.3949C65.5611 15.2216 65.2813 15.1349 64.9489 15.1349C64.6051 15.1349 64.3182 15.2244 64.0881 15.4034C63.858 15.5824 63.6847 15.8295 63.5682 16.1449C63.4517 16.4602 63.3935 16.821 63.3935 17.2273C63.3935 17.6364 63.4517 18.0014 63.5682 18.3224C63.6875 18.6406 63.8622 18.892 64.0923 19.0767C64.3253 19.2585 64.6108 19.3494 64.9489 19.3494Z" fill="black"/>
<g filter="url(#filter0_i_644_2731)">
<path d="M331.334 14.6663C331.334 17.6119 326 22.6663 326 22.6663C326 22.6663 320.667 17.6119 320.667 14.6663C320.667 11.7208 323.055 9.33301 326 9.33301C328.946 9.33301 331.334 11.7208 331.334 14.6663Z" fill="#D9444D"/>
</g>
<path d="M326 15.3333C326.368 15.3333 326.666 15.0349 326.666 14.6667C326.666 14.2985 326.368 14 326 14C325.631 14 325.333 14.2985 325.333 14.6667C325.333 15.0349 325.631 15.3333 326 15.3333Z" fill="white" stroke="white" stroke-linecap="round" stroke-linejoin="round"/>
<defs>
<filter id="filter0_i_644_2731" x="320.667" y="9.33301" width="12.667" height="15.3335" filterUnits="userSpaceOnUse" color-interpolation-filters="sRGB">
<feFlood flood-opacity="0" result="BackgroundImageFix"/>
<feBlend mode="normal" in="SourceGraphic" in2="BackgroundImageFix" result="shape"/>
<feColorMatrix in="SourceAlpha" type="matrix" values="0 0 0 0 0 0 0 0 0 0 0 0 0 0 0 0 0 0 127 0" result="hardAlpha"/>
<feOffset dx="2" dy="2"/>
<feGaussianBlur stdDeviation="2"/>
<feComposite in2="hardAlpha" operator="arithmetic" k2="-1" k3="1"/>
<feColorMatrix type="matrix" values="0 0 0 0 1 0 0 0 0 1 0 0 0 0 1 0 0 0 0.25 0"/>
<feBlend mode="normal" in2="shape" result="effect1_innerShadow_644_2731"/>
</filter>
</defs>
</svg>
