<svg width="342" height="32" viewBox="0 0 342 32" fill="none" xmlns="http://www.w3.org/2000/svg">
<path d="M0 16C0 7.16344 7.16344 0 16 0H326C334.837 0 342 7.16344 342 16C342 24.8366 334.837 32 326 32H16C7.16344 32 0 24.8366 0 16Z" fill="#FFF1F1"/>
<path d="M11.8182 20.5H8.8608V11.7727H11.8778C12.7443 11.7727 13.4886 11.9474 14.1108 12.2969C14.7358 12.6435 15.2159 13.142 15.5511 13.7926C15.8864 14.4432 16.054 15.2216 16.054 16.1278C16.054 17.0369 15.8849 17.8182 15.5469 18.4716C15.2116 19.125 14.7273 19.6264 14.0938 19.9759C13.4631 20.3253 12.7045 20.5 11.8182 20.5ZM10.4418 19.1321H11.7415C12.3494 19.1321 12.8565 19.0213 13.2628 18.7997C13.669 18.5753 13.9744 18.2415 14.179 17.7983C14.3835 17.3523 14.4858 16.7955 14.4858 16.1278C14.4858 15.4602 14.3835 14.9062 14.179 14.4659C13.9744 14.0227 13.6719 13.6918 13.2713 13.473C12.8736 13.2514 12.3793 13.1406 11.7884 13.1406H10.4418V19.1321ZM18.8388 20.5L16.9893 13.9545H18.5618L19.7124 18.5568H19.772L20.9482 13.9545H22.5036L23.6797 18.5312H23.7436L24.8771 13.9545H26.4538L24.6001 20.5H22.9936L21.7663 16.0767H21.6768L20.4496 20.5H18.8388ZM29.4144 20.6321C28.9996 20.6321 28.6261 20.5582 28.2937 20.4105C27.9641 20.2599 27.7028 20.0384 27.5096 19.7457C27.3192 19.4531 27.2241 19.0923 27.2241 18.6634C27.2241 18.294 27.2923 17.9886 27.4286 17.7472C27.565 17.5057 27.7511 17.3125 27.9869 17.1676C28.2227 17.0227 28.4883 16.9134 28.7837 16.8395C29.082 16.7628 29.3903 16.7074 29.7085 16.6733C30.092 16.6335 30.4031 16.598 30.6417 16.5668C30.8803 16.5327 31.0536 16.4815 31.1616 16.4134C31.2724 16.3423 31.3278 16.233 31.3278 16.0852V16.0597C31.3278 15.7386 31.2326 15.4901 31.0423 15.3139C30.8519 15.1378 30.5778 15.0497 30.2198 15.0497C29.842 15.0497 29.5423 15.1321 29.3207 15.2969C29.1019 15.4616 28.9542 15.6562 28.8775 15.8807L27.4371 15.6761C27.5508 15.2784 27.7383 14.946 27.9996 14.679C28.261 14.4091 28.5806 14.2074 28.9585 14.0739C29.3363 13.9375 29.7539 13.8693 30.2113 13.8693C30.5266 13.8693 30.8406 13.9062 31.1531 13.9801C31.4656 14.054 31.7511 14.1761 32.0096 14.3466C32.2681 14.5142 32.4755 14.7429 32.6317 15.0327C32.7908 15.3224 32.8704 15.6847 32.8704 16.1193V20.5H31.3874V19.6009H31.3363C31.2425 19.7827 31.1104 19.9531 30.94 20.1122C30.7724 20.2685 30.5607 20.3949 30.305 20.4915C30.0522 20.5852 29.7553 20.6321 29.4144 20.6321ZM29.815 19.4986C30.1246 19.4986 30.3931 19.4375 30.6204 19.3153C30.8477 19.1903 31.0224 19.0256 31.1445 18.821C31.2695 18.6165 31.332 18.3935 31.332 18.152V17.3807C31.2837 17.4205 31.2013 17.4574 31.0849 17.4915C30.9712 17.5256 30.8434 17.5554 30.7013 17.581C30.5593 17.6065 30.4187 17.6293 30.2795 17.6491C30.1403 17.669 30.0195 17.6861 29.9173 17.7003C29.6871 17.7315 29.4812 17.7827 29.2994 17.8537C29.1175 17.9247 28.9741 18.0241 28.869 18.152C28.7638 18.277 28.7113 18.4389 28.7113 18.6378C28.7113 18.9219 28.815 19.1364 29.0224 19.2812C29.2298 19.4261 29.494 19.4986 29.815 19.4986ZM34.4215 20.5V13.9545H35.9173V15.0455H35.9854C36.1048 14.6676 36.3093 14.3764 36.5991 14.1719C36.8917 13.9645 37.2255 13.8608 37.6005 13.8608C37.6857 13.8608 37.7809 13.8651 37.886 13.8736C37.994 13.8793 38.0835 13.8892 38.1545 13.9034V15.3224C38.0891 15.2997 37.9854 15.2798 37.8434 15.2628C37.7042 15.2429 37.5692 15.233 37.4386 15.233C37.1573 15.233 36.9045 15.294 36.68 15.4162C36.4585 15.5355 36.2837 15.7017 36.1559 15.9148C36.0281 16.1278 35.9641 16.3736 35.9641 16.652V20.5H34.4215ZM40.5856 18.446L40.5813 16.5838H40.8285L43.1808 13.9545H44.9833L42.0898 17.1761H41.7702L40.5856 18.446ZM39.1793 20.5V11.7727H40.7219V20.5H39.1793ZM43.2873 20.5L41.1566 17.5213L42.1964 16.4347L45.1325 20.5H43.2873ZM47.8949 20.6321C47.4801 20.6321 47.1065 20.5582 46.7741 20.4105C46.4446 20.2599 46.1832 20.0384 45.9901 19.7457C45.7997 19.4531 45.7045 19.0923 45.7045 18.6634C45.7045 18.294 45.7727 17.9886 45.9091 17.7472C46.0455 17.5057 46.2315 17.3125 46.4673 17.1676C46.7031 17.0227 46.9688 16.9134 47.2642 16.8395C47.5625 16.7628 47.8707 16.7074 48.1889 16.6733C48.5724 16.6335 48.8835 16.598 49.1222 16.5668C49.3608 16.5327 49.5341 16.4815 49.642 16.4134C49.7528 16.3423 49.8082 16.233 49.8082 16.0852V16.0597C49.8082 15.7386 49.7131 15.4901 49.5227 15.3139C49.3324 15.1378 49.0582 15.0497 48.7003 15.0497C48.3224 15.0497 48.0227 15.1321 47.8011 15.2969C47.5824 15.4616 47.4347 15.6562 47.358 15.8807L45.9176 15.6761C46.0313 15.2784 46.2188 14.946 46.4801 14.679C46.7415 14.4091 47.0611 14.2074 47.4389 14.0739C47.8168 13.9375 48.2344 13.8693 48.6918 13.8693C49.0071 13.8693 49.321 13.9062 49.6335 13.9801C49.946 14.054 50.2315 14.1761 50.4901 14.3466C50.7486 14.5142 50.956 14.7429 51.1122 15.0327C51.2713 15.3224 51.3509 15.6847 51.3509 16.1193V20.5H49.8679V19.6009H49.8168C49.723 19.7827 49.5909 19.9531 49.4205 20.1122C49.2528 20.2685 49.0412 20.3949 48.7855 20.4915C48.5327 20.5852 48.2358 20.6321 47.8949 20.6321ZM48.2955 19.4986C48.6051 19.4986 48.8736 19.4375 49.1009 19.3153C49.3281 19.1903 49.5028 19.0256 49.625 18.821C49.75 18.6165 49.8125 18.3935 49.8125 18.152V17.3807C49.7642 17.4205 49.6818 17.4574 49.5653 17.4915C49.4517 17.5256 49.3239 17.5554 49.1818 17.581C49.0398 17.6065 48.8991 17.6293 48.7599 17.6491C48.6207 17.669 48.5 17.6861 48.3977 17.7003C48.1676 17.7315 47.9616 17.7827 47.7798 17.8537C47.598 17.9247 47.4545 18.0241 47.3494 18.152C47.2443 18.277 47.1918 18.4389 47.1918 18.6378C47.1918 18.9219 47.2955 19.1364 47.5028 19.2812C47.7102 19.4261 47.9744 19.4986 48.2955 19.4986ZM55.9276 20.5H52.9702V11.7727H55.9872C56.8537 11.7727 57.598 11.9474 58.2202 12.2969C58.8452 12.6435 59.3253 13.142 59.6605 13.7926C59.9957 14.4432 60.1634 15.2216 60.1634 16.1278C60.1634 17.0369 59.9943 17.8182 59.6562 18.4716C59.321 19.125 58.8366 19.6264 58.2031 19.9759C57.5724 20.3253 56.8139 20.5 55.9276 20.5ZM54.5511 19.1321H55.8509C56.4588 19.1321 56.9659 19.0213 57.3722 18.7997C57.7784 18.5753 58.0838 18.2415 58.2884 17.7983C58.4929 17.3523 58.5952 16.7955 58.5952 16.1278C58.5952 15.4602 58.4929 14.9062 58.2884 14.4659C58.0838 14.0227 57.7813 13.6918 57.3807 13.473C56.983 13.2514 56.4886 13.1406 55.8977 13.1406H54.5511V19.1321ZM63.4808 20.6321C63.0661 20.6321 62.6925 20.5582 62.3601 20.4105C62.0305 20.2599 61.7692 20.0384 61.576 19.7457C61.3857 19.4531 61.2905 19.0923 61.2905 18.6634C61.2905 18.294 61.3587 17.9886 61.495 17.7472C61.6314 17.5057 61.8175 17.3125 62.0533 17.1676C62.2891 17.0227 62.5547 16.9134 62.8501 16.8395C63.1484 16.7628 63.4567 16.7074 63.7749 16.6733C64.1584 16.6335 64.4695 16.598 64.7081 16.5668C64.9467 16.5327 65.12 16.4815 65.228 16.4134C65.3388 16.3423 65.3942 16.233 65.3942 16.0852V16.0597C65.3942 15.7386 65.299 15.4901 65.1087 15.3139C64.9183 15.1378 64.6442 15.0497 64.2862 15.0497C63.9084 15.0497 63.6087 15.1321 63.3871 15.2969C63.1683 15.4616 63.0206 15.6562 62.9439 15.8807L61.5036 15.6761C61.6172 15.2784 61.8047 14.946 62.0661 14.679C62.3274 14.4091 62.647 14.2074 63.0249 14.0739C63.4027 13.9375 63.8203 13.8693 64.2777 13.8693C64.593 13.8693 64.907 13.9062 65.2195 13.9801C65.532 14.054 65.8175 14.1761 66.076 14.3466C66.3345 14.5142 66.5419 14.7429 66.6982 15.0327C66.8572 15.3224 66.9368 15.6847 66.9368 16.1193V20.5H65.4538V19.6009H65.4027C65.3089 19.7827 65.1768 19.9531 65.0064 20.1122C64.8388 20.2685 64.6271 20.3949 64.3714 20.4915C64.1186 20.5852 63.8217 20.6321 63.4808 20.6321ZM63.8814 19.4986C64.1911 19.4986 64.4595 19.4375 64.6868 19.3153C64.9141 19.1903 65.0888 19.0256 65.2109 18.821C65.3359 18.6165 65.3984 18.3935 65.3984 18.152V17.3807C65.3501 17.4205 65.2678 17.4574 65.1513 17.4915C65.0376 17.5256 64.9098 17.5554 64.7678 17.581C64.6257 17.6065 64.4851 17.6293 64.3459 17.6491C64.2067 17.669 64.0859 17.6861 63.9837 17.7003C63.7536 17.7315 63.5476 17.7827 63.3658 17.8537C63.1839 17.9247 63.0405 18.0241 62.9354 18.152C62.8303 18.277 62.7777 18.4389 62.7777 18.6378C62.7777 18.9219 62.8814 19.1364 63.0888 19.2812C63.2962 19.4261 63.5604 19.4986 63.8814 19.4986ZM73.6612 15.6847L72.255 15.8381C72.2152 15.696 72.1456 15.5625 72.0462 15.4375C71.9496 15.3125 71.8189 15.2116 71.6541 15.1349C71.4893 15.0582 71.2876 15.0199 71.049 15.0199C70.728 15.0199 70.4581 15.0895 70.2393 15.2287C70.0234 15.3679 69.9169 15.5483 69.9197 15.7699C69.9169 15.9602 69.9865 16.1151 70.1286 16.2344C70.2734 16.3537 70.5121 16.4517 70.8445 16.5284L71.9609 16.767C72.5803 16.9006 73.0405 17.1122 73.3416 17.402C73.6456 17.6918 73.799 18.071 73.8018 18.5398C73.799 18.9517 73.6783 19.3153 73.4396 19.6307C73.2038 19.9432 72.8757 20.1875 72.4553 20.3636C72.0348 20.5398 71.5518 20.6278 71.0064 20.6278C70.2053 20.6278 69.5604 20.4602 69.0717 20.125C68.5831 19.7869 68.2919 19.3168 68.1982 18.7145L69.7024 18.5696C69.7706 18.8651 69.9155 19.0881 70.1371 19.2386C70.3587 19.3892 70.647 19.4645 71.0021 19.4645C71.3686 19.4645 71.6626 19.3892 71.8842 19.2386C72.1087 19.0881 72.2209 18.902 72.2209 18.6804C72.2209 18.4929 72.1484 18.3381 72.0036 18.2159C71.8615 18.0937 71.6399 18 71.3388 17.9347L70.2223 17.7003C69.5945 17.5696 69.13 17.3494 68.8288 17.0398C68.5277 16.7273 68.3786 16.3324 68.3814 15.8551C68.3786 15.4517 68.4879 15.1023 68.7095 14.8068C68.9339 14.5085 69.245 14.2784 69.6428 14.1165C70.0433 13.9517 70.505 13.8693 71.0277 13.8693C71.7947 13.8693 72.3984 14.0327 72.8388 14.3594C73.282 14.6861 73.5561 15.1278 73.6612 15.6847ZM77.9567 20.5V19.5156L82.4311 13.098H77.9311V11.7727H84.3913V12.7571L79.9212 19.1747H84.4169V20.5H77.9567ZM88.7337 20.6278C88.0945 20.6278 87.5405 20.4872 87.0717 20.206C86.603 19.9247 86.2393 19.5312 85.9808 19.0256C85.7251 18.5199 85.5973 17.929 85.5973 17.2528C85.5973 16.5767 85.7251 15.9844 85.9808 15.4759C86.2393 14.9673 86.603 14.5724 87.0717 14.2912C87.5405 14.0099 88.0945 13.8693 88.7337 13.8693C89.3729 13.8693 89.9268 14.0099 90.3956 14.2912C90.8643 14.5724 91.2266 14.9673 91.4822 15.4759C91.7408 15.9844 91.87 16.5767 91.87 17.2528C91.87 17.929 91.7408 18.5199 91.4822 19.0256C91.2266 19.5312 90.8643 19.9247 90.3956 20.206C89.9268 20.4872 89.3729 20.6278 88.7337 20.6278ZM88.7422 19.392C89.0888 19.392 89.3786 19.2969 89.6115 19.1065C89.8445 18.9134 90.0178 18.6548 90.1314 18.331C90.2479 18.0071 90.3061 17.6463 90.3061 17.2486C90.3061 16.848 90.2479 16.4858 90.1314 16.1619C90.0178 15.8352 89.8445 15.5753 89.6115 15.3821C89.3786 15.1889 89.0888 15.0923 88.7422 15.0923C88.3871 15.0923 88.0916 15.1889 87.8558 15.3821C87.6229 15.5753 87.4482 15.8352 87.3317 16.1619C87.218 16.4858 87.1612 16.848 87.1612 17.2486C87.1612 17.6463 87.218 18.0071 87.3317 18.331C87.4482 18.6548 87.6229 18.9134 87.8558 19.1065C88.0916 19.2969 88.3871 19.392 88.7422 19.392ZM94.7219 16.6648V20.5H93.1793V13.9545H94.6538V15.0668H94.7305C94.881 14.7003 95.1211 14.4091 95.4506 14.1932C95.783 13.9773 96.1935 13.8693 96.6822 13.8693C97.1339 13.8693 97.5273 13.9659 97.8626 14.1591C98.2006 14.3523 98.462 14.6321 98.6467 14.9986C98.8342 15.3651 98.9265 15.8097 98.9237 16.3324V20.5H97.381V16.571C97.381 16.1335 97.2674 15.7912 97.0401 15.544C96.8157 15.2969 96.5046 15.1733 96.1069 15.1733C95.837 15.1733 95.5969 15.233 95.3867 15.3523C95.1793 15.4687 95.016 15.6378 94.8967 15.8594C94.7802 16.081 94.7219 16.3494 94.7219 16.6648ZM103.39 20.6278C102.733 20.6278 102.167 20.4915 101.689 20.2188C101.215 19.9432 100.85 19.554 100.594 19.0511C100.338 18.5455 100.211 17.9503 100.211 17.2656C100.211 16.5923 100.338 16.0014 100.594 15.4929C100.853 14.9815 101.213 14.5838 101.676 14.2997C102.14 14.0128 102.684 13.8693 103.309 13.8693C103.712 13.8693 104.093 13.9347 104.451 14.0653C104.811 14.1932 105.13 14.392 105.405 14.6619C105.684 14.9318 105.902 15.2756 106.061 15.6932C106.221 16.108 106.3 16.6023 106.3 17.1761V17.6491H100.935V16.6094H104.821C104.819 16.3139 104.755 16.0511 104.63 15.821C104.505 15.5881 104.33 15.4048 104.105 15.2713C103.884 15.1378 103.625 15.071 103.33 15.071C103.015 15.071 102.738 15.1477 102.499 15.3011C102.26 15.4517 102.074 15.6506 101.941 15.8977C101.81 16.142 101.743 16.4105 101.74 16.7031V17.6108C101.74 17.9915 101.81 18.3182 101.949 18.5909C102.088 18.8608 102.283 19.0682 102.533 19.2131C102.783 19.3551 103.076 19.4261 103.411 19.4261C103.635 19.4261 103.838 19.3949 104.02 19.3324C104.202 19.267 104.36 19.1719 104.493 19.0469C104.627 18.9219 104.728 18.767 104.796 18.5824L106.236 18.7443C106.145 19.125 105.972 19.4574 105.716 19.7415C105.463 20.0227 105.14 20.2415 104.745 20.3977C104.35 20.5511 103.898 20.6278 103.39 20.6278ZM109.416 19.3068L109.361 19.7756C109.321 20.1335 109.25 20.4972 109.148 20.8665C109.048 21.2386 108.943 21.581 108.832 21.8935C108.722 22.206 108.632 22.4517 108.564 22.6307H107.524C107.564 22.4574 107.618 22.2216 107.686 21.9233C107.757 21.625 107.825 21.2898 107.891 20.9176C107.956 20.5455 108 20.1676 108.023 19.7841L108.053 19.3068H109.416ZM113.919 11.7727H115.854L118.445 18.0966H118.547L121.138 11.7727H123.073V20.5H121.556V14.5043H121.475L119.063 20.4744H117.929L115.517 14.4915H115.436V20.5H113.919V11.7727ZM126.61 20.6321C126.195 20.6321 125.821 20.5582 125.489 20.4105C125.159 20.2599 124.898 20.0384 124.705 19.7457C124.515 19.4531 124.419 19.0923 124.419 18.6634C124.419 18.294 124.488 17.9886 124.624 17.7472C124.76 17.5057 124.946 17.3125 125.182 17.1676C125.418 17.0227 125.684 16.9134 125.979 16.8395C126.277 16.7628 126.586 16.7074 126.904 16.6733C127.287 16.6335 127.598 16.598 127.837 16.5668C128.076 16.5327 128.249 16.4815 128.357 16.4134C128.468 16.3423 128.523 16.233 128.523 16.0852V16.0597C128.523 15.7386 128.428 15.4901 128.238 15.3139C128.047 15.1378 127.773 15.0497 127.415 15.0497C127.037 15.0497 126.738 15.1321 126.516 15.2969C126.297 15.4616 126.15 15.6562 126.073 15.8807L124.632 15.6761C124.746 15.2784 124.934 14.946 125.195 14.679C125.456 14.4091 125.776 14.2074 126.154 14.0739C126.532 13.9375 126.949 13.8693 127.407 13.8693C127.722 13.8693 128.036 13.9062 128.348 13.9801C128.661 14.054 128.946 14.1761 129.205 14.3466C129.463 14.5142 129.671 14.7429 129.827 15.0327C129.986 15.3224 130.066 15.6847 130.066 16.1193V20.5H128.583V19.6009H128.532C128.438 19.7827 128.306 19.9531 128.135 20.1122C127.968 20.2685 127.756 20.3949 127.5 20.4915C127.248 20.5852 126.951 20.6321 126.61 20.6321ZM127.01 19.4986C127.32 19.4986 127.588 19.4375 127.816 19.3153C128.043 19.1903 128.218 19.0256 128.34 18.821C128.465 18.6165 128.527 18.3935 128.527 18.152V17.3807C128.479 17.4205 128.397 17.4574 128.28 17.4915C128.167 17.5256 128.039 17.5554 127.897 17.581C127.755 17.6065 127.614 17.6293 127.475 17.6491C127.336 17.669 127.215 17.6861 127.113 17.7003C126.882 17.7315 126.676 17.7827 126.495 17.8537C126.313 17.9247 126.169 18.0241 126.064 18.152C125.959 18.277 125.907 18.4389 125.907 18.6378C125.907 18.9219 126.01 19.1364 126.218 19.2812C126.425 19.4261 126.689 19.4986 127.01 19.4986ZM133.159 16.6648V20.5H131.617V13.9545H133.091V15.0668H133.168C133.319 14.7003 133.559 14.4091 133.888 14.1932C134.221 13.9773 134.631 13.8693 135.12 13.8693C135.571 13.8693 135.965 13.9659 136.3 14.1591C136.638 14.3523 136.9 14.6321 137.084 14.9986C137.272 15.3651 137.364 15.8097 137.361 16.3324V20.5H135.819V16.571C135.819 16.1335 135.705 15.7912 135.478 15.544C135.253 15.2969 134.942 15.1733 134.544 15.1733C134.275 15.1733 134.034 15.233 133.824 15.3523C133.617 15.4687 133.453 15.6378 133.334 15.8594C133.218 16.081 133.159 16.3494 133.159 16.6648ZM144.103 15.6847L142.696 15.8381C142.657 15.696 142.587 15.5625 142.488 15.4375C142.391 15.3125 142.26 15.2116 142.096 15.1349C141.931 15.0582 141.729 15.0199 141.49 15.0199C141.169 15.0199 140.9 15.0895 140.681 15.2287C140.465 15.3679 140.358 15.5483 140.361 15.7699C140.358 15.9602 140.428 16.1151 140.57 16.2344C140.715 16.3537 140.953 16.4517 141.286 16.5284L142.402 16.767C143.022 16.9006 143.482 17.1122 143.783 17.402C144.087 17.6918 144.24 18.071 144.243 18.5398C144.24 18.9517 144.12 19.3153 143.881 19.6307C143.645 19.9432 143.317 20.1875 142.897 20.3636C142.476 20.5398 141.993 20.6278 141.448 20.6278C140.647 20.6278 140.002 20.4602 139.513 20.125C139.025 19.7869 138.733 19.3168 138.64 18.7145L140.144 18.5696C140.212 18.8651 140.357 19.0881 140.578 19.2386C140.8 19.3892 141.088 19.4645 141.444 19.4645C141.81 19.4645 142.104 19.3892 142.326 19.2386C142.55 19.0881 142.662 18.902 142.662 18.6804C142.662 18.4929 142.59 18.3381 142.445 18.2159C142.303 18.0937 142.081 18 141.78 17.9347L140.664 17.7003C140.036 17.5696 139.571 17.3494 139.27 17.0398C138.969 16.7273 138.82 16.3324 138.823 15.8551C138.82 15.4517 138.929 15.1023 139.151 14.8068C139.375 14.5085 139.686 14.2784 140.084 14.1165C140.485 13.9517 140.946 13.8693 141.469 13.8693C142.236 13.8693 142.84 14.0327 143.28 14.3594C143.723 14.6861 143.998 15.1278 144.103 15.6847ZM147.399 20.6321C146.984 20.6321 146.61 20.5582 146.278 20.4105C145.949 20.2599 145.687 20.0384 145.494 19.7457C145.304 19.4531 145.208 19.0923 145.208 18.6634C145.208 18.294 145.277 17.9886 145.413 17.7472C145.549 17.5057 145.735 17.3125 145.971 17.1676C146.207 17.0227 146.473 16.9134 146.768 16.8395C147.066 16.7628 147.375 16.7074 147.693 16.6733C148.076 16.6335 148.387 16.598 148.626 16.5668C148.865 16.5327 149.038 16.4815 149.146 16.4134C149.257 16.3423 149.312 16.233 149.312 16.0852V16.0597C149.312 15.7386 149.217 15.4901 149.027 15.3139C148.836 15.1378 148.562 15.0497 148.204 15.0497C147.826 15.0497 147.527 15.1321 147.305 15.2969C147.086 15.4616 146.939 15.6562 146.862 15.8807L145.422 15.6761C145.535 15.2784 145.723 14.946 145.984 14.679C146.245 14.4091 146.565 14.2074 146.943 14.0739C147.321 13.9375 147.738 13.8693 148.196 13.8693C148.511 13.8693 148.825 13.9062 149.137 13.9801C149.45 14.054 149.735 14.1761 149.994 14.3466C150.252 14.5142 150.46 14.7429 150.616 15.0327C150.775 15.3224 150.855 15.6847 150.855 16.1193V20.5H149.372V19.6009H149.321C149.227 19.7827 149.095 19.9531 148.924 20.1122C148.757 20.2685 148.545 20.3949 148.289 20.4915C148.037 20.5852 147.74 20.6321 147.399 20.6321ZM147.799 19.4986C148.109 19.4986 148.377 19.4375 148.605 19.3153C148.832 19.1903 149.007 19.0256 149.129 18.821C149.254 18.6165 149.316 18.3935 149.316 18.152V17.3807C149.268 17.4205 149.186 17.4574 149.069 17.4915C148.956 17.5256 148.828 17.5554 148.686 17.581C148.544 17.6065 148.403 17.6293 148.264 17.6491C148.125 17.669 148.004 17.6861 147.902 17.7003C147.672 17.7315 147.466 17.7827 147.284 17.8537C147.102 17.9247 146.958 18.0241 146.853 18.152C146.748 18.277 146.696 18.4389 146.696 18.6378C146.696 18.9219 146.799 19.1364 147.007 19.2812C147.214 19.4261 147.478 19.4986 147.799 19.4986ZM152.406 20.5V13.9545H153.902V15.0455H153.97C154.089 14.6676 154.294 14.3764 154.583 14.1719C154.876 13.9645 155.21 13.8608 155.585 13.8608C155.67 13.8608 155.765 13.8651 155.87 13.8736C155.978 13.8793 156.068 13.8892 156.139 13.9034V15.3224C156.074 15.2997 155.97 15.2798 155.828 15.2628C155.689 15.2429 155.554 15.233 155.423 15.233C155.142 15.233 154.889 15.294 154.664 15.4162C154.443 15.5355 154.268 15.7017 154.14 15.9148C154.012 16.1278 153.949 16.3736 153.949 16.652V20.5H152.406ZM159.749 20.6278C159.11 20.6278 158.556 20.4872 158.087 20.206C157.619 19.9247 157.255 19.5312 156.996 19.0256C156.741 18.5199 156.613 17.929 156.613 17.2528C156.613 16.5767 156.741 15.9844 156.996 15.4759C157.255 14.9673 157.619 14.5724 158.087 14.2912C158.556 14.0099 159.11 13.8693 159.749 13.8693C160.388 13.8693 160.942 14.0099 161.411 14.2912C161.88 14.5724 162.242 14.9673 162.498 15.4759C162.756 15.9844 162.886 16.5767 162.886 17.2528C162.886 17.929 162.756 18.5199 162.498 19.0256C162.242 19.5312 161.88 19.9247 161.411 20.206C160.942 20.4872 160.388 20.6278 159.749 20.6278ZM159.758 19.392C160.104 19.392 160.394 19.2969 160.627 19.1065C160.86 18.9134 161.033 18.6548 161.147 18.331C161.263 18.0071 161.322 17.6463 161.322 17.2486C161.322 16.848 161.263 16.4858 161.147 16.1619C161.033 15.8352 160.86 15.5753 160.627 15.3821C160.394 15.1889 160.104 15.0923 159.758 15.0923C159.403 15.0923 159.107 15.1889 158.871 15.3821C158.638 15.5753 158.464 15.8352 158.347 16.1619C158.234 16.4858 158.177 16.848 158.177 17.2486C158.177 17.6463 158.234 18.0071 158.347 18.331C158.464 18.6548 158.638 18.9134 158.871 19.1065C159.107 19.2969 159.403 19.392 159.758 19.392ZM169.819 13.9545L167.488 20.5H165.783L163.452 13.9545H165.097L166.602 18.8168H166.67L168.178 13.9545H169.819ZM172.582 20.6321C172.168 20.6321 171.794 20.5582 171.462 20.4105C171.132 20.2599 170.871 20.0384 170.678 19.7457C170.487 19.4531 170.392 19.0923 170.392 18.6634C170.392 18.294 170.46 17.9886 170.597 17.7472C170.733 17.5057 170.919 17.3125 171.155 17.1676C171.391 17.0227 171.656 16.9134 171.952 16.8395C172.25 16.7628 172.558 16.7074 172.876 16.6733C173.26 16.6335 173.571 16.598 173.81 16.5668C174.048 16.5327 174.222 16.4815 174.33 16.4134C174.44 16.3423 174.496 16.233 174.496 16.0852V16.0597C174.496 15.7386 174.401 15.4901 174.21 15.3139C174.02 15.1378 173.746 15.0497 173.388 15.0497C173.01 15.0497 172.71 15.1321 172.489 15.2969C172.27 15.4616 172.122 15.6562 172.045 15.8807L170.605 15.6761C170.719 15.2784 170.906 14.946 171.168 14.679C171.429 14.4091 171.749 14.2074 172.126 14.0739C172.504 13.9375 172.922 13.8693 173.379 13.8693C173.695 13.8693 174.009 13.9062 174.321 13.9801C174.634 14.054 174.919 14.1761 175.178 14.3466C175.436 14.5142 175.643 14.7429 175.8 15.0327C175.959 15.3224 176.038 15.6847 176.038 16.1193V20.5H174.555V19.6009H174.504C174.411 19.7827 174.278 19.9531 174.108 20.1122C173.94 20.2685 173.729 20.3949 173.473 20.4915C173.22 20.5852 172.923 20.6321 172.582 20.6321ZM172.983 19.4986C173.293 19.4986 173.561 19.4375 173.788 19.3153C174.016 19.1903 174.19 19.0256 174.312 18.821C174.438 18.6165 174.5 18.3935 174.5 18.152V17.3807C174.452 17.4205 174.369 17.4574 174.253 17.4915C174.139 17.5256 174.011 17.5554 173.869 17.581C173.727 17.6065 173.587 17.6293 173.447 17.6491C173.308 17.669 173.188 17.6861 173.085 17.7003C172.855 17.7315 172.649 17.7827 172.467 17.8537C172.286 17.9247 172.142 18.0241 172.037 18.152C171.932 18.277 171.879 18.4389 171.879 18.6378C171.879 18.9219 171.983 19.1364 172.19 19.2812C172.398 19.4261 172.662 19.4986 172.983 19.4986ZM177.589 20.5V13.9545H179.085V15.0455H179.153C179.273 14.6676 179.477 14.3764 179.767 14.1719C180.06 13.9645 180.393 13.8608 180.768 13.8608C180.854 13.8608 180.949 13.8651 181.054 13.8736C181.162 13.8793 181.251 13.8892 181.322 13.9034V15.3224C181.257 15.2997 181.153 15.2798 181.011 15.2628C180.872 15.2429 180.737 15.233 180.607 15.233C180.325 15.233 180.072 15.294 179.848 15.4162C179.626 15.5355 179.452 15.7017 179.324 15.9148C179.196 16.1278 179.132 16.3736 179.132 16.652V20.5H177.589Z" fill="black"/>
<g filter="url(#filter0_i_704_9136)">
<path d="M331.334 14.6663C331.334 17.6119 326 22.6663 326 22.6663C326 22.6663 320.667 17.6119 320.667 14.6663C320.667 11.7208 323.055 9.33301 326 9.33301C328.946 9.33301 331.334 11.7208 331.334 14.6663Z" fill="#D9444D"/>
</g>
<path d="M326 15.3333C326.368 15.3333 326.666 15.0349 326.666 14.6667C326.666 14.2985 326.368 14 326 14C325.631 14 325.333 14.2985 325.333 14.6667C325.333 15.0349 325.631 15.3333 326 15.3333Z" fill="white" stroke="white" stroke-linecap="round" stroke-linejoin="round"/>
<defs>
<filter id="filter0_i_704_9136" x="320.667" y="9.33301" width="12.667" height="15.3335" filterUnits="userSpaceOnUse" color-interpolation-filters="sRGB">
<feFlood flood-opacity="0" result="BackgroundImageFix"/>
<feBlend mode="normal" in="SourceGraphic" in2="BackgroundImageFix" result="shape"/>
<feColorMatrix in="SourceAlpha" type="matrix" values="0 0 0 0 0 0 0 0 0 0 0 0 0 0 0 0 0 0 127 0" result="hardAlpha"/>
<feOffset dx="2" dy="2"/>
<feGaussianBlur stdDeviation="2"/>
<feComposite in2="hardAlpha" operator="arithmetic" k2="-1" k3="1"/>
<feColorMatrix type="matrix" values="0 0 0 0 1 0 0 0 0 1 0 0 0 0 1 0 0 0 0.25 0"/>
<feBlend mode="normal" in2="shape" result="effect1_innerShadow_704_9136"/>
</filter>
</defs>
</svg>
