<svg width="342" height="32" viewBox="0 0 342 32" fill="none" xmlns="http://www.w3.org/2000/svg">
<path d="M0 16C0 7.16344 7.16344 0 16 0H326C334.837 0 342 7.16344 342 16C342 24.8366 334.837 32 326 32H16C7.16344 32 0 24.8366 0 16Z" fill="#FFF1F1"/>
<path d="M8.8608 20.5V11.7727H12.1335C12.804 11.7727 13.3665 11.8892 13.821 12.1222C14.2784 12.3551 14.6236 12.6818 14.8565 13.1023C15.0923 13.5199 15.2102 14.0071 15.2102 14.5639C15.2102 15.1236 15.0909 15.6094 14.8523 16.0213C14.6165 16.4304 14.2685 16.7472 13.8082 16.9716C13.348 17.1932 12.7827 17.304 12.1122 17.304H9.78125V15.9915H11.8991C12.2912 15.9915 12.6122 15.9375 12.8622 15.8295C13.1122 15.7187 13.2969 15.5582 13.4162 15.348C13.5384 15.1349 13.5994 14.8736 13.5994 14.5639C13.5994 14.2543 13.5384 13.9901 13.4162 13.7713C13.294 13.5497 13.108 13.3821 12.858 13.2685C12.608 13.152 12.2855 13.0938 11.8906 13.0938H10.4418V20.5H8.8608ZM13.3693 16.5455L15.5298 20.5H13.7656L11.6435 16.5455H13.3693ZM18.4808 20.6321C18.0661 20.6321 17.6925 20.5582 17.3601 20.4105C17.0305 20.2599 16.7692 20.0384 16.576 19.7457C16.3857 19.4531 16.2905 19.0923 16.2905 18.6634C16.2905 18.294 16.3587 17.9886 16.495 17.7472C16.6314 17.5057 16.8175 17.3125 17.0533 17.1676C17.2891 17.0227 17.5547 16.9134 17.8501 16.8395C18.1484 16.7628 18.4567 16.7074 18.7749 16.6733C19.1584 16.6335 19.4695 16.598 19.7081 16.5668C19.9467 16.5327 20.12 16.4815 20.228 16.4134C20.3388 16.3423 20.3942 16.233 20.3942 16.0852V16.0597C20.3942 15.7386 20.299 15.4901 20.1087 15.3139C19.9183 15.1378 19.6442 15.0497 19.2862 15.0497C18.9084 15.0497 18.6087 15.1321 18.3871 15.2969C18.1683 15.4616 18.0206 15.6562 17.9439 15.8807L16.5036 15.6761C16.6172 15.2784 16.8047 14.946 17.0661 14.679C17.3274 14.4091 17.647 14.2074 18.0249 14.0739C18.4027 13.9375 18.8203 13.8693 19.2777 13.8693C19.593 13.8693 19.907 13.9062 20.2195 13.9801C20.532 14.054 20.8175 14.1761 21.076 14.3466C21.3345 14.5142 21.5419 14.7429 21.6982 15.0327C21.8572 15.3224 21.9368 15.6847 21.9368 16.1193V20.5H20.4538V19.6009H20.4027C20.3089 19.7827 20.1768 19.9531 20.0064 20.1122C19.8388 20.2685 19.6271 20.3949 19.3714 20.4915C19.1186 20.5852 18.8217 20.6321 18.4808 20.6321ZM18.8814 19.4986C19.1911 19.4986 19.4595 19.4375 19.6868 19.3153C19.9141 19.1903 20.0888 19.0256 20.2109 18.821C20.3359 18.6165 20.3984 18.3935 20.3984 18.152V17.3807C20.3501 17.4205 20.2678 17.4574 20.1513 17.4915C20.0376 17.5256 19.9098 17.5554 19.7678 17.581C19.6257 17.6065 19.4851 17.6293 19.3459 17.6491C19.2067 17.669 19.0859 17.6861 18.9837 17.7003C18.7536 17.7315 18.5476 17.7827 18.3658 17.8537C18.1839 17.9247 18.0405 18.0241 17.9354 18.152C17.8303 18.277 17.7777 18.4389 17.7777 18.6378C17.7777 18.9219 17.8814 19.1364 18.0888 19.2812C18.2962 19.4261 18.5604 19.4986 18.8814 19.4986ZM23.4879 20.5V13.9545H24.9624V15.0668H25.0391C25.1754 14.6918 25.4013 14.3991 25.7166 14.1889C26.032 13.9759 26.4084 13.8693 26.8459 13.8693C27.2891 13.8693 27.6626 13.9773 27.9666 14.1932C28.2734 14.4062 28.4893 14.6974 28.6143 15.0668H28.6825C28.8274 14.7031 29.0717 14.4134 29.4155 14.1974C29.7621 13.9787 30.1726 13.8693 30.647 13.8693C31.2493 13.8693 31.7408 14.0597 32.1214 14.4403C32.5021 14.821 32.6925 15.3764 32.6925 16.1065V20.5H31.1456V16.3452C31.1456 15.9389 31.0376 15.642 30.8217 15.4545C30.6058 15.2642 30.3416 15.169 30.0291 15.169C29.657 15.169 29.3658 15.2855 29.1555 15.5185C28.9482 15.7486 28.8445 16.0483 28.8445 16.4176V20.5H27.3317V16.2812C27.3317 15.9432 27.2294 15.6733 27.0249 15.4716C26.8232 15.2699 26.5589 15.169 26.2322 15.169C26.0107 15.169 25.8089 15.2259 25.6271 15.3395C25.4453 15.4503 25.3004 15.608 25.1925 15.8125C25.0845 16.0142 25.0305 16.25 25.0305 16.5199V20.5H23.4879ZM38.4698 11.7727L40.7411 18.642H40.8306L43.0977 11.7727H44.8363L41.7596 20.5H39.8079L36.7354 11.7727H38.4698ZM45.9176 20.5V13.9545H47.4602V20.5H45.9176ZM46.6932 13.0256C46.4489 13.0256 46.2386 12.9446 46.0625 12.7827C45.8864 12.6179 45.7983 12.4205 45.7983 12.1903C45.7983 11.9574 45.8864 11.7599 46.0625 11.598C46.2386 11.4332 46.4489 11.3509 46.6932 11.3509C46.9403 11.3509 47.1506 11.4332 47.3239 11.598C47.5 11.7599 47.5881 11.9574 47.5881 12.1903C47.5881 12.4205 47.5 12.6179 47.3239 12.7827C47.1506 12.9446 46.9403 13.0256 46.6932 13.0256ZM50.5891 16.6648V20.5H49.0465V11.7727H50.555V15.0668H50.6317C50.7852 14.6974 51.0224 14.4062 51.3434 14.1932C51.6673 13.9773 52.0792 13.8693 52.5792 13.8693C53.0337 13.8693 53.43 13.9645 53.7681 14.1548C54.1062 14.3452 54.3675 14.6236 54.5522 14.9901C54.7397 15.3565 54.8335 15.804 54.8335 16.3324V20.5H53.2908V16.571C53.2908 16.1307 53.1772 15.7884 52.9499 15.544C52.7255 15.2969 52.4102 15.1733 52.0039 15.1733C51.7312 15.1733 51.4869 15.233 51.271 15.3523C51.0579 15.4687 50.8903 15.6378 50.7681 15.8594C50.6488 16.081 50.5891 16.3494 50.5891 16.6648ZM58.2894 20.6321C57.8746 20.6321 57.5011 20.5582 57.1687 20.4105C56.8391 20.2599 56.5778 20.0384 56.3846 19.7457C56.1942 19.4531 56.0991 19.0923 56.0991 18.6634C56.0991 18.294 56.1673 17.9886 56.3036 17.7472C56.44 17.5057 56.6261 17.3125 56.8619 17.1676C57.0977 17.0227 57.3633 16.9134 57.6587 16.8395C57.957 16.7628 58.2653 16.7074 58.5835 16.6733C58.967 16.6335 59.2781 16.598 59.5167 16.5668C59.7553 16.5327 59.9286 16.4815 60.0366 16.4134C60.1474 16.3423 60.2028 16.233 60.2028 16.0852V16.0597C60.2028 15.7386 60.1076 15.4901 59.9173 15.3139C59.7269 15.1378 59.4528 15.0497 59.0948 15.0497C58.717 15.0497 58.4173 15.1321 58.1957 15.2969C57.9769 15.4616 57.8292 15.6562 57.7525 15.8807L56.3121 15.6761C56.4258 15.2784 56.6133 14.946 56.8746 14.679C57.136 14.4091 57.4556 14.2074 57.8335 14.0739C58.2113 13.9375 58.6289 13.8693 59.0863 13.8693C59.4016 13.8693 59.7156 13.9062 60.0281 13.9801C60.3406 14.054 60.6261 14.1761 60.8846 14.3466C61.1431 14.5142 61.3505 14.7429 61.5067 15.0327C61.6658 15.3224 61.7454 15.6847 61.7454 16.1193V20.5H60.2624V19.6009H60.2113C60.1175 19.7827 59.9854 19.9531 59.815 20.1122C59.6474 20.2685 59.4357 20.3949 59.18 20.4915C58.9272 20.5852 58.6303 20.6321 58.2894 20.6321ZM58.69 19.4986C58.9996 19.4986 59.2681 19.4375 59.4954 19.3153C59.7227 19.1903 59.8974 19.0256 60.0195 18.821C60.1445 18.6165 60.207 18.3935 60.207 18.152V17.3807C60.1587 17.4205 60.0763 17.4574 59.9599 17.4915C59.8462 17.5256 59.7184 17.5554 59.5763 17.581C59.4343 17.6065 59.2937 17.6293 59.1545 17.6491C59.0153 17.669 58.8945 17.6861 58.7923 17.7003C58.5621 17.7315 58.3562 17.7827 58.1744 17.8537C57.9925 17.9247 57.8491 18.0241 57.744 18.152C57.6388 18.277 57.5863 18.4389 57.5863 18.6378C57.5863 18.9219 57.69 19.1364 57.8974 19.2812C58.1048 19.4261 58.369 19.4986 58.69 19.4986ZM63.2965 20.5V13.9545H64.7923V15.0455H64.8604C64.9798 14.6676 65.1843 14.3764 65.4741 14.1719C65.7667 13.9645 66.1005 13.8608 66.4755 13.8608C66.5607 13.8608 66.6559 13.8651 66.761 13.8736C66.869 13.8793 66.9585 13.8892 67.0295 13.9034V15.3224C66.9641 15.2997 66.8604 15.2798 66.7184 15.2628C66.5792 15.2429 66.4442 15.233 66.3136 15.233C66.0323 15.233 65.7795 15.294 65.555 15.4162C65.3335 15.5355 65.1587 15.7017 65.0309 15.9148C64.9031 16.1278 64.8391 16.3736 64.8391 16.652V20.5H63.2965ZM71.0991 20.5V11.7727H76.7752V13.098H72.68V15.4673H76.4812V16.7926H72.68V19.1747H76.8093V20.5H71.0991ZM79.5813 13.9545L80.9023 16.3707L82.2447 13.9545H83.8768L81.9038 17.2273L83.9109 20.5H82.2873L80.9023 18.1435L79.5302 20.5H77.8938L79.8881 17.2273L77.945 13.9545H79.5813ZM88.3384 13.9545V15.1477H84.5756V13.9545H88.3384ZM85.5046 12.3864H87.0472V18.5312C87.0472 18.7386 87.0785 18.8977 87.141 19.0085C87.2063 19.1165 87.2915 19.1903 87.3967 19.2301C87.5018 19.2699 87.6183 19.2898 87.7461 19.2898C87.8427 19.2898 87.9308 19.2827 88.0103 19.2685C88.0927 19.2543 88.1552 19.2415 88.1978 19.2301L88.4577 20.4361C88.3754 20.4645 88.2575 20.4957 88.104 20.5298C87.9535 20.5639 87.7688 20.5838 87.5501 20.5895C87.1637 20.6009 86.8157 20.5426 86.506 20.4148C86.1964 20.2841 85.9506 20.0824 85.7688 19.8097C85.5898 19.5369 85.5018 19.196 85.5046 18.7869V12.3864ZM90.5788 20.5938C90.3203 20.5938 90.0987 20.5028 89.9141 20.321C89.7294 20.1392 89.6385 19.9176 89.6413 19.6562C89.6385 19.4006 89.7294 19.1818 89.9141 19C90.0987 18.8182 90.3203 18.7273 90.5788 18.7273C90.8288 18.7273 91.0462 18.8182 91.2308 19C91.4183 19.1818 91.5135 19.4006 91.5163 19.6562C91.5135 19.8295 91.468 19.9872 91.38 20.1293C91.2947 20.2713 91.1811 20.3849 91.0391 20.4702C90.8999 20.5526 90.7464 20.5938 90.5788 20.5938ZM94.9201 19.3068L94.8647 19.7756C94.8249 20.1335 94.7539 20.4972 94.6516 20.8665C94.5522 21.2386 94.4471 21.581 94.3363 21.8935C94.2255 22.206 94.136 22.4517 94.0678 22.6307H93.0281C93.0678 22.4574 93.1218 22.2216 93.19 21.9233C93.261 21.625 93.3292 21.2898 93.3945 20.9176C93.4599 20.5455 93.5039 20.1676 93.5266 19.7841L93.5565 19.3068H94.9201ZM99.4233 11.7727H101.358L103.949 18.0966H104.051L106.642 11.7727H108.577V20.5H107.06V14.5043H106.979L104.567 20.4744H103.433L101.021 14.4915H100.94V20.5H99.4233V11.7727ZM112.114 20.6321C111.699 20.6321 111.325 20.5582 110.993 20.4105C110.663 20.2599 110.402 20.0384 110.209 19.7457C110.018 19.4531 109.923 19.0923 109.923 18.6634C109.923 18.294 109.991 17.9886 110.128 17.7472C110.264 17.5057 110.45 17.3125 110.686 17.1676C110.922 17.0227 111.188 16.9134 111.483 16.8395C111.781 16.7628 112.089 16.7074 112.408 16.6733C112.791 16.6335 113.102 16.598 113.341 16.5668C113.58 16.5327 113.753 16.4815 113.861 16.4134C113.972 16.3423 114.027 16.233 114.027 16.0852V16.0597C114.027 15.7386 113.932 15.4901 113.741 15.3139C113.551 15.1378 113.277 15.0497 112.919 15.0497C112.541 15.0497 112.241 15.1321 112.02 15.2969C111.801 15.4616 111.653 15.6562 111.577 15.8807L110.136 15.6761C110.25 15.2784 110.438 14.946 110.699 14.679C110.96 14.4091 111.28 14.2074 111.658 14.0739C112.036 13.9375 112.453 13.8693 112.911 13.8693C113.226 13.8693 113.54 13.9062 113.852 13.9801C114.165 14.054 114.45 14.1761 114.709 14.3466C114.967 14.5142 115.175 14.7429 115.331 15.0327C115.49 15.3224 115.57 15.6847 115.57 16.1193V20.5H114.087V19.6009H114.036C113.942 19.7827 113.81 19.9531 113.639 20.1122C113.472 20.2685 113.26 20.3949 113.004 20.4915C112.751 20.5852 112.455 20.6321 112.114 20.6321ZM112.514 19.4986C112.824 19.4986 113.092 19.4375 113.32 19.3153C113.547 19.1903 113.722 19.0256 113.844 18.821C113.969 18.6165 114.031 18.3935 114.031 18.152V17.3807C113.983 17.4205 113.901 17.4574 113.784 17.4915C113.67 17.5256 113.543 17.5554 113.401 17.581C113.259 17.6065 113.118 17.6293 112.979 17.6491C112.839 17.669 112.719 17.6861 112.616 17.7003C112.386 17.7315 112.18 17.7827 111.999 17.8537C111.817 17.9247 111.673 18.0241 111.568 18.152C111.463 18.277 111.411 18.4389 111.411 18.6378C111.411 18.9219 111.514 19.1364 111.722 19.2812C111.929 19.4261 112.193 19.4986 112.514 19.4986ZM118.663 16.6648V20.5H117.121V13.9545H118.595V15.0668H118.672C118.822 14.7003 119.063 14.4091 119.392 14.1932C119.724 13.9773 120.135 13.8693 120.624 13.8693C121.075 13.8693 121.469 13.9659 121.804 14.1591C122.142 14.3523 122.403 14.6321 122.588 14.9986C122.776 15.3651 122.868 15.8097 122.865 16.3324V20.5H121.322V16.571C121.322 16.1335 121.209 15.7912 120.982 15.544C120.757 15.2969 120.446 15.1733 120.048 15.1733C119.778 15.1733 119.538 15.233 119.328 15.3523C119.121 15.4687 118.957 15.6378 118.838 15.8594C118.722 16.081 118.663 16.3494 118.663 16.6648ZM129.607 15.6847L128.2 15.8381C128.161 15.696 128.091 15.5625 127.991 15.4375C127.895 15.3125 127.764 15.2116 127.599 15.1349C127.435 15.0582 127.233 15.0199 126.994 15.0199C126.673 15.0199 126.403 15.0895 126.185 15.2287C125.969 15.3679 125.862 15.5483 125.865 15.7699C125.862 15.9602 125.932 16.1151 126.074 16.2344C126.219 16.3537 126.457 16.4517 126.79 16.5284L127.906 16.767C128.526 16.9006 128.986 17.1122 129.287 17.402C129.591 17.6918 129.744 18.071 129.747 18.5398C129.744 18.9517 129.624 19.3153 129.385 19.6307C129.149 19.9432 128.821 20.1875 128.401 20.3636C127.98 20.5398 127.497 20.6278 126.952 20.6278C126.151 20.6278 125.506 20.4602 125.017 20.125C124.528 19.7869 124.237 19.3168 124.143 18.7145L125.648 18.5696C125.716 18.8651 125.861 19.0881 126.082 19.2386C126.304 19.3892 126.592 19.4645 126.947 19.4645C127.314 19.4645 127.608 19.3892 127.83 19.2386C128.054 19.0881 128.166 18.902 128.166 18.6804C128.166 18.4929 128.094 18.3381 127.949 18.2159C127.807 18.0937 127.585 18 127.284 17.9347L126.168 17.7003C125.54 17.5696 125.075 17.3494 124.774 17.0398C124.473 16.7273 124.324 16.3324 124.327 15.8551C124.324 15.4517 124.433 15.1023 124.655 14.8068C124.879 14.5085 125.19 14.2784 125.588 14.1165C125.989 13.9517 126.45 13.8693 126.973 13.8693C127.74 13.8693 128.344 14.0327 128.784 14.3594C129.227 14.6861 129.501 15.1278 129.607 15.6847ZM132.903 20.6321C132.488 20.6321 132.114 20.5582 131.782 20.4105C131.452 20.2599 131.191 20.0384 130.998 19.7457C130.808 19.4531 130.712 19.0923 130.712 18.6634C130.712 18.294 130.781 17.9886 130.917 17.7472C131.053 17.5057 131.239 17.3125 131.475 17.1676C131.711 17.0227 131.977 16.9134 132.272 16.8395C132.57 16.7628 132.879 16.7074 133.197 16.6733C133.58 16.6335 133.891 16.598 134.13 16.5668C134.369 16.5327 134.542 16.4815 134.65 16.4134C134.761 16.3423 134.816 16.233 134.816 16.0852V16.0597C134.816 15.7386 134.721 15.4901 134.531 15.3139C134.34 15.1378 134.066 15.0497 133.708 15.0497C133.33 15.0497 133.031 15.1321 132.809 15.2969C132.59 15.4616 132.442 15.6562 132.366 15.8807L130.925 15.6761C131.039 15.2784 131.227 14.946 131.488 14.679C131.749 14.4091 132.069 14.2074 132.447 14.0739C132.825 13.9375 133.242 13.8693 133.7 13.8693C134.015 13.8693 134.329 13.9062 134.641 13.9801C134.954 14.054 135.239 14.1761 135.498 14.3466C135.756 14.5142 135.964 14.7429 136.12 15.0327C136.279 15.3224 136.359 15.6847 136.359 16.1193V20.5H134.876V19.6009H134.825C134.731 19.7827 134.599 19.9531 134.428 20.1122C134.261 20.2685 134.049 20.3949 133.793 20.4915C133.54 20.5852 133.244 20.6321 132.903 20.6321ZM133.303 19.4986C133.613 19.4986 133.881 19.4375 134.109 19.3153C134.336 19.1903 134.511 19.0256 134.633 18.821C134.758 18.6165 134.82 18.3935 134.82 18.152V17.3807C134.772 17.4205 134.69 17.4574 134.573 17.4915C134.46 17.5256 134.332 17.5554 134.19 17.581C134.048 17.6065 133.907 17.6293 133.768 17.6491C133.629 17.669 133.508 17.6861 133.406 17.7003C133.175 17.7315 132.969 17.7827 132.788 17.8537C132.606 17.9247 132.462 18.0241 132.357 18.152C132.252 18.277 132.2 18.4389 132.2 18.6378C132.2 18.9219 132.303 19.1364 132.511 19.2812C132.718 19.4261 132.982 19.4986 133.303 19.4986ZM137.91 20.5V13.9545H139.406V15.0455H139.474C139.593 14.6676 139.798 14.3764 140.087 14.1719C140.38 13.9645 140.714 13.8608 141.089 13.8608C141.174 13.8608 141.269 13.8651 141.374 13.8736C141.482 13.8793 141.572 13.8892 141.643 13.9034V15.3224C141.577 15.2997 141.474 15.2798 141.332 15.2628C141.192 15.2429 141.058 15.233 140.927 15.233C140.646 15.233 140.393 15.294 140.168 15.4162C139.947 15.5355 139.772 15.7017 139.644 15.9148C139.516 16.1278 139.452 16.3736 139.452 16.652V20.5H137.91ZM145.253 20.6278C144.614 20.6278 144.06 20.4872 143.591 20.206C143.123 19.9247 142.759 19.5312 142.5 19.0256C142.245 18.5199 142.117 17.929 142.117 17.2528C142.117 16.5767 142.245 15.9844 142.5 15.4759C142.759 14.9673 143.123 14.5724 143.591 14.2912C144.06 14.0099 144.614 13.8693 145.253 13.8693C145.892 13.8693 146.446 14.0099 146.915 14.2912C147.384 14.5724 147.746 14.9673 148.002 15.4759C148.26 15.9844 148.39 16.5767 148.39 17.2528C148.39 17.929 148.26 18.5199 148.002 19.0256C147.746 19.5312 147.384 19.9247 146.915 20.206C146.446 20.4872 145.892 20.6278 145.253 20.6278ZM145.262 19.392C145.608 19.392 145.898 19.2969 146.131 19.1065C146.364 18.9134 146.537 18.6548 146.651 18.331C146.767 18.0071 146.826 17.6463 146.826 17.2486C146.826 16.848 146.767 16.4858 146.651 16.1619C146.537 15.8352 146.364 15.5753 146.131 15.3821C145.898 15.1889 145.608 15.0923 145.262 15.0923C144.907 15.0923 144.611 15.1889 144.375 15.3821C144.142 15.5753 143.968 15.8352 143.851 16.1619C143.738 16.4858 143.681 16.848 143.681 17.2486C143.681 17.6463 143.738 18.0071 143.851 18.331C143.968 18.6548 144.142 18.9134 144.375 19.1065C144.611 19.2969 144.907 19.392 145.262 19.392ZM155.323 13.9545L152.992 20.5H151.287L148.956 13.9545H150.601L152.105 18.8168H152.174L153.682 13.9545H155.323ZM158.086 20.6321C157.672 20.6321 157.298 20.5582 156.966 20.4105C156.636 20.2599 156.375 20.0384 156.181 19.7457C155.991 19.4531 155.896 19.0923 155.896 18.6634C155.896 18.294 155.964 17.9886 156.1 17.7472C156.237 17.5057 156.423 17.3125 156.659 17.1676C156.895 17.0227 157.16 16.9134 157.456 16.8395C157.754 16.7628 158.062 16.7074 158.38 16.6733C158.764 16.6335 159.075 16.598 159.314 16.5668C159.552 16.5327 159.725 16.4815 159.833 16.4134C159.944 16.3423 160 16.233 160 16.0852V16.0597C160 15.7386 159.904 15.4901 159.714 15.3139C159.524 15.1378 159.25 15.0497 158.892 15.0497C158.514 15.0497 158.214 15.1321 157.993 15.2969C157.774 15.4616 157.626 15.6562 157.549 15.8807L156.109 15.6761C156.223 15.2784 156.41 14.946 156.672 14.679C156.933 14.4091 157.252 14.2074 157.63 14.0739C158.008 13.9375 158.426 13.8693 158.883 13.8693C159.199 13.8693 159.512 13.9062 159.825 13.9801C160.137 14.054 160.423 14.1761 160.681 14.3466C160.94 14.5142 161.147 14.7429 161.304 15.0327C161.463 15.3224 161.542 15.6847 161.542 16.1193V20.5H160.059V19.6009H160.008C159.914 19.7827 159.782 19.9531 159.612 20.1122C159.444 20.2685 159.233 20.3949 158.977 20.4915C158.724 20.5852 158.427 20.6321 158.086 20.6321ZM158.487 19.4986C158.797 19.4986 159.065 19.4375 159.292 19.3153C159.52 19.1903 159.694 19.0256 159.816 18.821C159.941 18.6165 160.004 18.3935 160.004 18.152V17.3807C159.956 17.4205 159.873 17.4574 159.757 17.4915C159.643 17.5256 159.515 17.5554 159.373 17.581C159.231 17.6065 159.091 17.6293 158.951 17.6491C158.812 17.669 158.691 17.6861 158.589 17.7003C158.359 17.7315 158.153 17.7827 157.971 17.8537C157.789 17.9247 157.646 18.0241 157.541 18.152C157.436 18.277 157.383 18.4389 157.383 18.6378C157.383 18.9219 157.487 19.1364 157.694 19.2812C157.902 19.4261 158.166 19.4986 158.487 19.4986ZM163.093 20.5V13.9545H164.589V15.0455H164.657C164.777 14.6676 164.981 14.3764 165.271 14.1719C165.564 13.9645 165.897 13.8608 166.272 13.8608C166.358 13.8608 166.453 13.8651 166.558 13.8736C166.666 13.8793 166.755 13.8892 166.826 13.9034V15.3224C166.761 15.2997 166.657 15.2798 166.515 15.2628C166.376 15.2429 166.241 15.233 166.11 15.233C165.829 15.233 165.576 15.294 165.352 15.4162C165.13 15.5355 164.956 15.7017 164.828 15.9148C164.7 16.1278 164.636 16.3736 164.636 16.652V20.5H163.093Z" fill="black"/>
<g filter="url(#filter0_i_704_9131)">
<path d="M331.334 14.6663C331.334 17.6119 326 22.6663 326 22.6663C326 22.6663 320.667 17.6119 320.667 14.6663C320.667 11.7208 323.055 9.33301 326 9.33301C328.946 9.33301 331.334 11.7208 331.334 14.6663Z" fill="#D9444D"/>
</g>
<path d="M326 15.3333C326.368 15.3333 326.666 15.0349 326.666 14.6667C326.666 14.2985 326.368 14 326 14C325.631 14 325.333 14.2985 325.333 14.6667C325.333 15.0349 325.631 15.3333 326 15.3333Z" fill="white" stroke="white" stroke-linecap="round" stroke-linejoin="round"/>
<defs>
<filter id="filter0_i_704_9131" x="320.667" y="9.33301" width="12.667" height="15.3335" filterUnits="userSpaceOnUse" color-interpolation-filters="sRGB">
<feFlood flood-opacity="0" result="BackgroundImageFix"/>
<feBlend mode="normal" in="SourceGraphic" in2="BackgroundImageFix" result="shape"/>
<feColorMatrix in="SourceAlpha" type="matrix" values="0 0 0 0 0 0 0 0 0 0 0 0 0 0 0 0 0 0 127 0" result="hardAlpha"/>
<feOffset dx="2" dy="2"/>
<feGaussianBlur stdDeviation="2"/>
<feComposite in2="hardAlpha" operator="arithmetic" k2="-1" k3="1"/>
<feColorMatrix type="matrix" values="0 0 0 0 1 0 0 0 0 1 0 0 0 0 1 0 0 0 0.25 0"/>
<feBlend mode="normal" in2="shape" result="effect1_innerShadow_704_9131"/>
</filter>
</defs>
</svg>
