<svg width="350" height="108" viewBox="0 0 350 108" fill="none" xmlns="http://www.w3.org/2000/svg">
<rect y="0.0390625" width="350" height="107" rx="12" fill="#E7F6ED"/>
<path d="M13.9815 24.0391H12.294L15.3665 15.3118H17.3182L20.3949 24.0391H18.7074L16.3764 17.1016H16.3082L13.9815 24.0391ZM14.0369 20.6172H18.6392V21.8871H14.0369V20.6172ZM23.706 24.1541C23.1918 24.1541 22.7315 24.022 22.3253 23.7578C21.919 23.4936 21.598 23.1101 21.3622 22.6072C21.1264 22.1044 21.0085 21.4936 21.0085 20.7749C21.0085 20.0476 21.1278 19.4339 21.3665 18.9339C21.608 18.4311 21.9332 18.0518 22.3423 17.7962C22.7514 17.5376 23.2074 17.4084 23.7102 17.4084C24.0938 17.4084 24.4091 17.4737 24.6562 17.6044C24.9034 17.7322 25.0994 17.8871 25.2443 18.0689C25.3892 18.2479 25.5014 18.4169 25.581 18.576H25.6449V15.3118H27.1918V24.0391H25.6747V23.0078H25.581C25.5014 23.1669 25.3864 23.3359 25.2358 23.5149C25.0852 23.6911 24.8864 23.8416 24.6392 23.9666C24.392 24.0916 24.081 24.1541 23.706 24.1541ZM24.1364 22.8885C24.4631 22.8885 24.7415 22.8004 24.9716 22.6243C25.2017 22.4453 25.3764 22.1967 25.4957 21.8786C25.6151 21.5604 25.6747 21.1896 25.6747 20.7663C25.6747 20.343 25.6151 19.9751 25.4957 19.6626C25.3793 19.3501 25.206 19.1072 24.9759 18.9339C24.7486 18.7607 24.4688 18.674 24.1364 18.674C23.7926 18.674 23.5057 18.7635 23.2756 18.9425C23.0455 19.1214 22.8722 19.3686 22.7557 19.6839C22.6392 19.9993 22.581 20.3601 22.581 20.7663C22.581 21.1754 22.6392 21.5405 22.7557 21.8615C22.875 22.1797 23.0497 22.4311 23.2798 22.6158C23.5128 22.7976 23.7983 22.8885 24.1364 22.8885ZM33.0075 21.2862V17.4936H34.5501V24.0391H33.0543V22.8757H32.9862C32.8384 23.2422 32.5955 23.5419 32.2575 23.7749C31.9222 24.0078 31.5089 24.1243 31.0174 24.1243C30.5884 24.1243 30.2092 24.0291 29.8796 23.8388C29.5529 23.6456 29.2972 23.3658 29.1126 22.9993C28.9279 22.63 28.8356 22.1839 28.8356 21.6612V17.4936H30.3782V21.4226C30.3782 21.8374 30.4918 22.1669 30.7191 22.4112C30.9464 22.6555 31.2447 22.7777 31.614 22.7777C31.8413 22.7777 32.0614 22.7223 32.2745 22.6115C32.4876 22.5007 32.6623 22.3359 32.7987 22.1172C32.9379 21.8956 33.0075 21.6186 33.0075 21.2862ZM37.679 15.3118V24.0391H36.1364V15.3118H37.679ZM42.5337 17.4936V18.6868H38.771V17.4936H42.5337ZM39.6999 15.9254H41.2425V22.0703C41.2425 22.2777 41.2738 22.4368 41.3363 22.5476C41.4016 22.6555 41.4869 22.7294 41.592 22.7692C41.6971 22.8089 41.8136 22.8288 41.9414 22.8288C42.038 22.8288 42.1261 22.8217 42.2056 22.8075C42.288 22.7933 42.3505 22.7805 42.3931 22.7692L42.6531 23.9751C42.5707 24.0036 42.4528 24.0348 42.2994 24.0689C42.1488 24.103 41.9641 24.1229 41.7454 24.1286C41.359 24.1399 41.011 24.0817 40.7013 23.9538C40.3917 23.8232 40.146 23.6214 39.9641 23.3487C39.7852 23.076 39.6971 22.7351 39.6999 22.326V15.9254ZM47.5803 19.7692V21.0391H43.6513V19.7692H47.5803ZM56.7411 18.2564H55.1474C55.1019 17.995 55.0181 17.7635 54.896 17.5618C54.7738 17.3572 54.6218 17.1839 54.44 17.0419C54.2582 16.8999 54.0508 16.7933 53.8178 16.7223C53.5877 16.6484 53.3391 16.6115 53.0721 16.6115C52.5977 16.6115 52.1772 16.7308 51.8107 16.9695C51.4442 17.2053 51.1573 17.5518 50.9499 18.0092C50.7425 18.4638 50.6388 19.0192 50.6388 19.6754C50.6388 20.343 50.7425 20.9055 50.9499 21.3629C51.1602 21.8175 51.4471 22.1612 51.8107 22.3942C52.1772 22.6243 52.5962 22.7393 53.0678 22.7393C53.3292 22.7393 53.5735 22.7053 53.8008 22.6371C54.0309 22.5661 54.2369 22.4624 54.4187 22.326C54.6033 22.1896 54.7582 22.022 54.8832 21.8232C55.011 21.6243 55.0991 21.397 55.1474 21.1413L56.7411 21.1499C56.6815 21.5646 56.5522 21.9538 56.3533 22.3175C56.1573 22.6811 55.9002 23.0021 55.582 23.2805C55.2638 23.5561 54.8917 23.772 54.4656 23.9283C54.0394 24.0817 53.5664 24.1584 53.0465 24.1584C52.2795 24.1584 51.5948 23.9808 50.9925 23.6257C50.3903 23.2706 49.9158 22.7578 49.5692 22.0874C49.2227 21.4169 49.0494 20.6129 49.0494 19.6754C49.0494 18.7351 49.2241 17.9311 49.5735 17.2635C49.9229 16.593 50.3988 16.0803 51.0011 15.7251C51.6033 15.37 52.2852 15.1925 53.0465 15.1925C53.5323 15.1925 53.984 15.2607 54.4016 15.397C54.8192 15.5334 55.1914 15.7337 55.5181 15.9979C55.8448 16.2592 56.1133 16.5803 56.3235 16.9609C56.5366 17.3388 56.6758 17.7706 56.7411 18.2564ZM59.6634 20.2038V24.0391H58.1207V15.3118H59.6293V18.6058H59.706C59.8594 18.2365 60.0966 17.9453 60.4176 17.7322C60.7415 17.5163 61.1534 17.4084 61.6534 17.4084C62.108 17.4084 62.5043 17.5036 62.8423 17.6939C63.1804 17.8842 63.4418 18.1626 63.6264 18.5291C63.8139 18.8956 63.9077 19.343 63.9077 19.8714V24.0391H62.3651V20.1101C62.3651 19.6697 62.2514 19.3274 62.0241 19.0831C61.7997 18.8359 61.4844 18.7124 61.0781 18.7124C60.8054 18.7124 60.5611 18.772 60.3452 18.8913C60.1321 19.0078 59.9645 19.1768 59.8423 19.3984C59.723 19.62 59.6634 19.8885 59.6634 20.2038ZM65.4801 24.0391V17.4936H67.0227V24.0391H65.4801ZM66.2557 16.5646C66.0114 16.5646 65.8011 16.4837 65.625 16.3217C65.4489 16.157 65.3608 15.9595 65.3608 15.7294C65.3608 15.4964 65.4489 15.299 65.625 15.1371C65.8011 14.9723 66.0114 14.8899 66.2557 14.8899C66.5028 14.8899 66.7131 14.9723 66.8864 15.1371C67.0625 15.299 67.1506 15.4964 67.1506 15.7294C67.1506 15.9595 67.0625 16.157 66.8864 16.3217C66.7131 16.4837 66.5028 16.5646 66.2557 16.5646ZM70.1516 15.3118V24.0391H68.609V15.3118H70.1516ZM74.1669 24.1541C73.6527 24.1541 73.1925 24.022 72.7862 23.7578C72.38 23.4936 72.0589 23.1101 71.8232 22.6072C71.5874 22.1044 71.4695 21.4936 71.4695 20.7749C71.4695 20.0476 71.5888 19.4339 71.8274 18.9339C72.0689 18.4311 72.3942 18.0518 72.8033 17.7962C73.2124 17.5376 73.6683 17.4084 74.1712 17.4084C74.5547 17.4084 74.87 17.4737 75.1172 17.6044C75.3643 17.7322 75.5604 17.8871 75.7053 18.0689C75.8501 18.2479 75.9624 18.4169 76.0419 18.576H76.1058V15.3118H77.6527V24.0391H76.1357V23.0078H76.0419C75.9624 23.1669 75.8473 23.3359 75.6967 23.5149C75.5462 23.6911 75.3473 23.8416 75.1001 23.9666C74.853 24.0916 74.5419 24.1541 74.1669 24.1541ZM74.5973 22.8885C74.924 22.8885 75.2024 22.8004 75.4325 22.6243C75.6626 22.4453 75.8374 22.1967 75.9567 21.8786C76.076 21.5604 76.1357 21.1896 76.1357 20.7663C76.1357 20.343 76.076 19.9751 75.9567 19.6626C75.8402 19.3501 75.6669 19.1072 75.4368 18.9339C75.2095 18.7607 74.9297 18.674 74.5973 18.674C74.2536 18.674 73.9666 18.7635 73.7365 18.9425C73.5064 19.1214 73.3331 19.3686 73.2166 19.6839C73.1001 19.9993 73.0419 20.3601 73.0419 20.7663C73.0419 21.1754 73.1001 21.5405 73.2166 21.8615C73.3359 22.1797 73.5107 22.4311 73.7408 22.6158C73.9737 22.7976 74.2592 22.8885 74.5973 22.8885ZM82.3413 24.0391V15.3118H85.614C86.2844 15.3118 86.8469 15.4283 87.3015 15.6612C87.7589 15.8942 88.104 16.2209 88.337 16.6413C88.5728 17.0589 88.6907 17.5462 88.6907 18.103C88.6907 18.6626 88.5714 19.1484 88.3327 19.5604C88.0969 19.9695 87.7489 20.2862 87.2887 20.5107C86.8285 20.7322 86.2631 20.843 85.5927 20.843H83.2617V19.5305H85.3796C85.7717 19.5305 86.0927 19.4766 86.3427 19.3686C86.5927 19.2578 86.7773 19.0973 86.8967 18.8871C87.0188 18.674 87.0799 18.4126 87.0799 18.103C87.0799 17.7933 87.0188 17.5291 86.8967 17.3104C86.7745 17.0888 86.5884 16.9212 86.3384 16.8075C86.0884 16.6911 85.766 16.6328 85.3711 16.6328H83.9222V24.0391H82.3413ZM86.8498 20.0845L89.0103 24.0391H87.2461L85.1239 20.0845H86.8498ZM91.9613 24.1712C91.5465 24.1712 91.1729 24.0973 90.8406 23.9496C90.511 23.799 90.2496 23.5774 90.0565 23.2848C89.8661 22.9922 89.771 22.6314 89.771 22.2024C89.771 21.8331 89.8391 21.5277 89.9755 21.2862C90.1119 21.0447 90.2979 20.8516 90.5337 20.7067C90.7695 20.5618 91.0352 20.4524 91.3306 20.3786C91.6289 20.3018 91.9371 20.2464 92.2553 20.2124C92.6388 20.1726 92.9499 20.1371 93.1886 20.1058C93.4272 20.0717 93.6005 20.0206 93.7085 19.9524C93.8192 19.8814 93.8746 19.772 93.8746 19.6243V19.5987C93.8746 19.2777 93.7795 19.0291 93.5891 18.853C93.3988 18.6768 93.1246 18.5888 92.7667 18.5888C92.3888 18.5888 92.0891 18.6712 91.8675 18.8359C91.6488 19.0007 91.5011 19.1953 91.4244 19.4197L89.984 19.2152C90.0977 18.8175 90.2852 18.4851 90.5465 18.218C90.8079 17.9482 91.1275 17.7464 91.5053 17.6129C91.8832 17.4766 92.3008 17.4084 92.7582 17.4084C93.0735 17.4084 93.3874 17.4453 93.6999 17.5192C94.0124 17.593 94.2979 17.7152 94.5565 17.8857C94.815 18.0533 95.0224 18.282 95.1786 18.5717C95.3377 18.8615 95.4173 19.2237 95.4173 19.6584V24.0391H93.9343V23.1399H93.8832C93.7894 23.3217 93.6573 23.4922 93.4869 23.6513C93.3192 23.8075 93.1076 23.9339 92.8519 24.0305C92.5991 24.1243 92.3022 24.1712 91.9613 24.1712ZM92.3619 23.0376C92.6715 23.0376 92.94 22.9766 93.1673 22.8544C93.3945 22.7294 93.5692 22.5646 93.6914 22.3601C93.8164 22.1555 93.8789 21.9325 93.8789 21.6911V20.9197C93.8306 20.9595 93.7482 20.9964 93.6317 21.0305C93.5181 21.0646 93.3903 21.0945 93.2482 21.12C93.1062 21.1456 92.9656 21.1683 92.8263 21.1882C92.6871 21.2081 92.5664 21.2251 92.4641 21.2393C92.234 21.2706 92.0281 21.3217 91.8462 21.3928C91.6644 21.4638 91.521 21.5632 91.4158 21.6911C91.3107 21.8161 91.2582 21.978 91.2582 22.1768C91.2582 22.4609 91.3619 22.6754 91.5692 22.8203C91.7766 22.9652 92.0408 23.0376 92.3619 23.0376ZM100.237 17.4936V18.6868H96.4741V17.4936H100.237ZM97.4031 15.9254H98.9457V22.0703C98.9457 22.2777 98.9769 22.4368 99.0394 22.5476C99.1048 22.6555 99.19 22.7294 99.2951 22.7692C99.4002 22.8089 99.5167 22.8288 99.6445 22.8288C99.7411 22.8288 99.8292 22.8217 99.9087 22.8075C99.9911 22.7933 100.054 22.7805 100.096 22.7692L100.356 23.9751C100.274 24.0036 100.156 24.0348 100.002 24.0689C99.8519 24.103 99.6673 24.1229 99.4485 24.1286C99.0621 24.1399 98.7141 24.0817 98.4045 23.9538C98.0948 23.8232 97.8491 23.6214 97.6673 23.3487C97.4883 23.076 97.4002 22.7351 97.4031 22.326V15.9254ZM101.527 24.0391V17.4936H103.07V24.0391H101.527ZM102.303 16.5646C102.058 16.5646 101.848 16.4837 101.672 16.3217C101.496 16.157 101.408 15.9595 101.408 15.7294C101.408 15.4964 101.496 15.299 101.672 15.1371C101.848 14.9723 102.058 14.8899 102.303 14.8899C102.55 14.8899 102.76 14.9723 102.933 15.1371C103.109 15.299 103.197 15.4964 103.197 15.7294C103.197 15.9595 103.109 16.157 102.933 16.3217C102.76 16.4837 102.55 16.5646 102.303 16.5646ZM107.511 24.1669C106.872 24.1669 106.318 24.0263 105.849 23.745C105.38 23.4638 105.017 23.0703 104.758 22.5646C104.502 22.0589 104.375 21.468 104.375 20.7919C104.375 20.1158 104.502 19.5234 104.758 19.0149C105.017 18.5064 105.38 18.1115 105.849 17.8303C106.318 17.549 106.872 17.4084 107.511 17.4084C108.15 17.4084 108.704 17.549 109.173 17.8303C109.642 18.1115 110.004 18.5064 110.26 19.0149C110.518 19.5234 110.647 20.1158 110.647 20.7919C110.647 21.468 110.518 22.0589 110.26 22.5646C110.004 23.0703 109.642 23.4638 109.173 23.745C108.704 24.0263 108.15 24.1669 107.511 24.1669ZM107.52 22.9311C107.866 22.9311 108.156 22.8359 108.389 22.6456C108.622 22.4524 108.795 22.1939 108.909 21.87C109.025 21.5462 109.083 21.1854 109.083 20.7876C109.083 20.3871 109.025 20.0249 108.909 19.701C108.795 19.3743 108.622 19.1143 108.389 18.9212C108.156 18.728 107.866 18.6314 107.52 18.6314C107.164 18.6314 106.869 18.728 106.633 18.9212C106.4 19.1143 106.225 19.3743 106.109 19.701C105.995 20.0249 105.939 20.3871 105.939 20.7876C105.939 21.1854 105.995 21.5462 106.109 21.87C106.225 22.1939 106.4 22.4524 106.633 22.6456C106.869 22.8359 107.164 22.9311 107.52 22.9311ZM115.924 19.7692V21.0391H111.995V19.7692H115.924ZM124.056 15.3118V24.0391H122.475V16.8501H122.424L120.382 18.1541V16.7053L122.551 15.3118H124.056ZM127.239 22.9908C126.98 22.9908 126.759 22.8999 126.574 22.718C126.39 22.5334 126.299 22.3118 126.301 22.0533C126.299 21.7976 126.39 21.5788 126.574 21.397C126.759 21.2152 126.98 21.1243 127.239 21.1243C127.489 21.1243 127.706 21.2152 127.891 21.397C128.078 21.5788 128.174 21.7976 128.176 22.0533C128.174 22.2266 128.128 22.3842 128.04 22.5263C127.955 22.6683 127.841 22.782 127.699 22.8672C127.56 22.9496 127.407 22.9908 127.239 22.9908ZM127.239 18.6655C126.98 18.6655 126.759 18.5746 126.574 18.3928C126.39 18.2081 126.299 17.9865 126.301 17.728C126.299 17.4723 126.39 17.2536 126.574 17.0717C126.759 16.8871 126.98 16.7947 127.239 16.7947C127.489 16.7947 127.706 16.8871 127.891 17.0717C128.078 17.2536 128.174 17.4723 128.176 17.728C128.174 17.8984 128.128 18.0547 128.04 18.1967C127.955 18.3388 127.841 18.4524 127.699 18.5376C127.56 18.6229 127.407 18.6655 127.239 18.6655ZM132.786 24.1584C132.218 24.1584 131.71 24.0518 131.261 23.8388C130.812 23.6229 130.455 23.3274 130.191 22.9524C129.93 22.5774 129.79 22.1484 129.773 21.6655H131.308C131.336 22.0234 131.491 22.3161 131.772 22.5433C132.053 22.7678 132.391 22.88 132.786 22.88C133.096 22.88 133.371 22.8089 133.613 22.6669C133.854 22.5249 134.045 22.3274 134.184 22.0746C134.323 21.8217 134.391 21.5334 134.388 21.2095C134.391 20.88 134.322 20.5874 134.18 20.3317C134.038 20.076 133.843 19.8757 133.596 19.7308C133.349 19.5831 133.065 19.5092 132.744 19.5092C132.482 19.5064 132.225 19.5547 131.972 19.6541C131.719 19.7536 131.519 19.8842 131.371 20.0462L129.944 19.8118L130.4 15.3118H135.462V16.6328H131.708L131.457 18.9467H131.508C131.67 18.7564 131.898 18.5987 132.194 18.4737C132.489 18.3459 132.813 18.282 133.165 18.282C133.694 18.282 134.165 18.407 134.58 18.657C134.995 18.9041 135.322 19.245 135.56 19.6797C135.799 20.1143 135.918 20.6115 135.918 21.1712C135.918 21.7479 135.785 22.2621 135.518 22.7138C135.254 23.1626 134.886 23.5163 134.414 23.7749C133.945 24.0305 133.403 24.1584 132.786 24.1584Z" fill="black"/>
<g style="mix-blend-mode:multiply">
<path d="M23.9822 56.7206C26.2063 55.5386 27.8034 52.5848 27.8034 49.1066C27.8034 45.4611 26.3775 42.3754 23.9734 41.3366C21.5693 42.3754 20.16 45.4611 20.16 49.1066C20.16 52.6191 21.7888 55.5968 24.048 56.7583M30.3656 44.496C29.1653 45.7191 26.7551 46.5531 23.976 46.5531C21.197 46.5531 18.7955 45.7217 17.5917 44.5011M31.7283 47.5217C30.0556 48.8451 27.2099 49.7168 23.9795 49.7168C20.7624 49.7168 17.9254 48.852 16.2527 47.5371M31.7406 50.4617C30.2032 51.8914 27.3021 52.8557 23.976 52.8557C20.65 52.8557 17.7674 51.8974 16.2264 50.4746M29.5947 54.4637C31.9584 54.9077 33.4914 55.6208 33.4914 56.4257C33.4914 57.7714 29.2031 58.8626 23.9137 58.8626C18.6243 58.8626 14.3359 57.7714 14.3359 56.4257C14.3359 55.6328 15.8286 54.9283 18.1326 54.4826M16.2466 57.8828L16.0367 60.792M31.7828 57.8828L31.9926 60.792M16.0701 49.0406C16.0697 53.3018 19.6082 56.7564 23.9734 56.7564C28.3386 56.7564 31.8771 53.3018 31.8767 49.0406C31.8771 44.7793 28.3386 41.3247 23.9734 41.3247C19.6082 41.3247 16.0697 44.7793 16.0701 49.0406ZM28.2794 60.8777H19.8176L21.9381 56.7557H26.1589L28.2794 60.8777Z" stroke="#E3CD09" stroke-width="1.14286" stroke-linecap="round" stroke-linejoin="round"/>
</g>
<path d="M49.8295 48.9936C49.7784 48.5618 49.571 48.2266 49.2074 47.9879C48.8438 47.7493 48.3977 47.63 47.8693 47.63C47.483 47.63 47.1449 47.6925 46.8551 47.8175C46.5682 47.9425 46.3438 48.1143 46.1818 48.3331C46.0227 48.5518 45.9432 48.8004 45.9432 49.0788C45.9432 49.3118 45.9986 49.5121 46.1094 49.6797C46.223 49.8445 46.3679 49.9822 46.544 50.093C46.7202 50.201 46.9048 50.2905 47.098 50.3615C47.2912 50.4297 47.4688 50.4851 47.6307 50.5277L48.517 50.7663C48.7443 50.826 48.9972 50.9084 49.2756 51.0135C49.5568 51.1186 49.8253 51.2621 50.081 51.4439C50.3395 51.6229 50.5526 51.853 50.7202 52.1342C50.8878 52.4155 50.9716 52.7607 50.9716 53.1697C50.9716 53.6413 50.848 54.0675 50.6009 54.4482C50.3565 54.8288 49.9986 55.1314 49.527 55.3558C49.0582 55.5803 48.4886 55.6925 47.8182 55.6925C47.1932 55.6925 46.652 55.5916 46.1946 55.3899C45.7401 55.1882 45.3821 54.907 45.1207 54.5462C44.8622 54.1854 44.7159 53.7663 44.6818 53.2891H45.7727C45.8011 53.6186 45.9119 53.8913 46.1051 54.1072C46.3011 54.3203 46.5483 54.4794 46.8466 54.5845C47.1477 54.6868 47.4716 54.7379 47.8182 54.7379C48.2216 54.7379 48.5838 54.6726 48.9048 54.5419C49.2259 54.4084 49.4801 54.2237 49.6676 53.9879C49.8551 53.7493 49.9489 53.4709 49.9489 53.1527C49.9489 52.8629 49.8679 52.6271 49.706 52.4453C49.544 52.2635 49.331 52.1158 49.0668 52.0021C48.8026 51.8885 48.517 51.7891 48.2102 51.7038L47.1364 51.397C46.4545 51.201 45.9148 50.9212 45.517 50.5575C45.1193 50.1939 44.9205 49.718 44.9205 49.13C44.9205 48.6413 45.0526 48.2152 45.3168 47.8516C45.5838 47.4851 45.9418 47.201 46.3906 46.9993C46.8423 46.7947 47.3466 46.6925 47.9034 46.6925C48.4659 46.6925 48.9659 46.7933 49.4034 46.995C49.8409 47.1939 50.1875 47.4666 50.4432 47.8132C50.7017 48.1598 50.8381 48.5533 50.8523 48.9936H49.8295ZM55.2319 55.6754C54.641 55.6754 54.1225 55.5348 53.6765 55.2536C53.2333 54.9723 52.8867 54.5788 52.6367 54.0732C52.3896 53.5675 52.266 52.9766 52.266 52.3004C52.266 51.6186 52.3896 51.0234 52.6367 50.5149C52.8867 50.0064 53.2333 49.6115 53.6765 49.3303C54.1225 49.049 54.641 48.9084 55.2319 48.9084C55.8228 48.9084 56.3398 49.049 56.783 49.3303C57.229 49.6115 57.5756 50.0064 57.8228 50.5149C58.0728 51.0234 58.1978 51.6186 58.1978 52.3004C58.1978 52.9766 58.0728 53.5675 57.8228 54.0732C57.5756 54.5788 57.229 54.9723 56.783 55.2536C56.3398 55.5348 55.8228 55.6754 55.2319 55.6754ZM55.2319 54.772C55.6808 54.772 56.0501 54.657 56.3398 54.4268C56.6296 54.1967 56.8441 53.8942 56.9833 53.5192C57.1225 53.1442 57.1921 52.7379 57.1921 52.3004C57.1921 51.8629 57.1225 51.4553 56.9833 51.0774C56.8441 50.6996 56.6296 50.3942 56.3398 50.1612C56.0501 49.9283 55.6808 49.8118 55.2319 49.8118C54.783 49.8118 54.4137 49.9283 54.1239 50.1612C53.8342 50.3942 53.6197 50.6996 53.4805 51.0774C53.3413 51.4553 53.2717 51.8629 53.2717 52.3004C53.2717 52.7379 53.3413 53.1442 53.4805 53.5192C53.6197 53.8942 53.8342 54.1967 54.1239 54.4268C54.4137 54.657 54.783 54.772 55.2319 54.772ZM62.392 55.6754C61.7784 55.6754 61.25 55.5305 60.8068 55.2408C60.3636 54.951 60.0227 54.5518 59.7841 54.0433C59.5455 53.5348 59.4261 52.9538 59.4261 52.3004C59.4261 51.6357 59.5483 51.049 59.7926 50.5405C60.0398 50.0291 60.3835 49.63 60.8239 49.343C61.267 49.0533 61.7841 48.9084 62.375 48.9084C62.8352 48.9084 63.25 48.9936 63.6193 49.1641C63.9886 49.3345 64.2912 49.5732 64.527 49.88C64.7628 50.1868 64.9091 50.5447 64.9659 50.9538H63.9602C63.8835 50.6555 63.7131 50.3913 63.4489 50.1612C63.1875 49.9283 62.8352 49.8118 62.392 49.8118C62 49.8118 61.6563 49.9141 61.3608 50.1186C61.0682 50.3203 60.8395 50.6058 60.6747 50.9751C60.5128 51.3416 60.4318 51.772 60.4318 52.2663C60.4318 52.772 60.5114 53.2124 60.6705 53.5874C60.8324 53.9624 61.0597 54.2536 61.3523 54.4609C61.6477 54.6683 61.9943 54.772 62.392 54.772C62.6534 54.772 62.8906 54.7266 63.1037 54.6357C63.3168 54.5447 63.4972 54.4141 63.6449 54.2436C63.7926 54.0732 63.8977 53.8686 63.9602 53.63H64.9659C64.9091 54.0163 64.7685 54.3643 64.544 54.674C64.3224 54.9808 64.0284 55.2251 63.6619 55.407C63.2983 55.5859 62.875 55.6754 62.392 55.6754ZM66.4361 55.5391V48.9936H67.4418V55.5391H66.4361ZM66.9474 47.9027C66.7514 47.9027 66.5824 47.8359 66.4403 47.7024C66.3011 47.5689 66.2315 47.4084 66.2315 47.2209C66.2315 47.0334 66.3011 46.8729 66.4403 46.7393C66.5824 46.6058 66.7514 46.5391 66.9474 46.5391C67.1435 46.5391 67.3111 46.6058 67.4503 46.7393C67.5923 46.8729 67.6634 47.0334 67.6634 47.2209C67.6634 47.4084 67.5923 47.5689 67.4503 47.7024C67.3111 47.8359 67.1435 47.9027 66.9474 47.9027ZM71.2099 55.6925C70.7951 55.6925 70.4187 55.6143 70.0806 55.4581C69.7425 55.299 69.4741 55.0703 69.2752 54.772C69.0763 54.4709 68.9769 54.1072 68.9769 53.6811C68.9769 53.3061 69.0508 53.0021 69.1985 52.7692C69.3462 52.5334 69.5437 52.3487 69.7908 52.2152C70.038 52.0817 70.3107 51.9822 70.609 51.9169C70.9102 51.8487 71.2127 51.7947 71.5167 51.755C71.9144 51.7038 72.2369 51.6655 72.484 51.6399C72.734 51.6115 72.9158 51.5646 73.0295 51.4993C73.146 51.4339 73.2042 51.3203 73.2042 51.1584V51.1243C73.2042 50.7038 73.0891 50.3771 72.859 50.1442C72.6317 49.9112 72.2866 49.7947 71.8235 49.7947C71.3434 49.7947 70.967 49.8999 70.6942 50.1101C70.4215 50.3203 70.2298 50.5447 70.119 50.7834L69.1644 50.4425C69.3349 50.0447 69.5621 49.7351 69.8462 49.5135C70.1332 49.2891 70.4457 49.1328 70.7837 49.0447C71.1246 48.9538 71.4599 48.9084 71.7894 48.9084C71.9996 48.9084 72.2411 48.9339 72.5138 48.9851C72.7894 49.0334 73.055 49.1342 73.3107 49.2876C73.5692 49.4411 73.7837 49.6726 73.9542 49.9822C74.1246 50.2919 74.2099 50.7067 74.2099 51.2266V55.5391H73.2042V54.6527H73.1531C73.0849 54.7947 72.9712 54.9467 72.8121 55.1087C72.6531 55.2706 72.4414 55.4084 72.1772 55.522C71.913 55.6357 71.5906 55.6925 71.2099 55.6925ZM71.3633 54.7891C71.761 54.7891 72.0962 54.7109 72.369 54.5547C72.6445 54.3984 72.8519 54.1967 72.9911 53.9496C73.1332 53.7024 73.2042 53.4425 73.2042 53.1697V52.2493C73.1616 52.3004 73.0678 52.3473 72.9229 52.3899C72.7809 52.4297 72.6161 52.4652 72.4286 52.4964C72.244 52.5249 72.0636 52.5504 71.8874 52.5732C71.7141 52.593 71.5735 52.6101 71.4656 52.6243C71.2042 52.6584 70.9599 52.7138 70.7326 52.7905C70.5082 52.8643 70.3263 52.9766 70.1871 53.1271C70.0508 53.2749 69.9826 53.4766 69.9826 53.7322C69.9826 54.0817 70.1119 54.3459 70.3704 54.5249C70.6317 54.701 70.9627 54.7891 71.3633 54.7891ZM77.0511 46.8118V55.5391H76.0455V46.8118H77.0511ZM82.4045 55.5391V46.8118H87.6715V47.7493H83.4613V50.6982H87.3988V51.6357H83.4613V54.6016H87.7397V55.5391H82.4045ZM90.4457 51.6016V55.5391H89.44V48.9936H90.4116V50.0163H90.4968C90.6502 49.6839 90.8832 49.4169 91.1957 49.2152C91.5082 49.0107 91.9116 48.9084 92.4059 48.9084C92.8491 48.9084 93.2369 48.9993 93.5692 49.1811C93.9016 49.3601 94.1602 49.6328 94.3448 49.9993C94.5295 50.3629 94.6218 50.8232 94.6218 51.38V55.5391H93.6161V51.4482C93.6161 50.9339 93.4826 50.5334 93.2156 50.2464C92.9485 49.9567 92.582 49.8118 92.1161 49.8118C91.7951 49.8118 91.5082 49.8814 91.2553 50.0206C91.0053 50.1598 90.8079 50.3629 90.663 50.63C90.5181 50.897 90.4457 51.2209 90.4457 51.6016ZM101.577 48.9936L99.157 55.5391H98.1342L95.7138 48.9936H96.8047L98.6115 54.2095H98.6797L100.487 48.9936H101.577ZM102.905 55.5391V48.9936H103.911V55.5391H102.905ZM103.416 47.9027C103.22 47.9027 103.051 47.8359 102.909 47.7024C102.77 47.5689 102.7 47.4084 102.7 47.2209C102.7 47.0334 102.77 46.8729 102.909 46.7393C103.051 46.6058 103.22 46.5391 103.416 46.5391C103.612 46.5391 103.78 46.6058 103.919 46.7393C104.061 46.8729 104.132 47.0334 104.132 47.2209C104.132 47.4084 104.061 47.5689 103.919 47.7024C103.78 47.8359 103.612 47.9027 103.416 47.9027ZM105.752 55.5391V48.9936H106.724V49.9822H106.792C106.912 49.6584 107.127 49.3956 107.44 49.1939C107.752 48.9922 108.105 48.8913 108.497 48.8913C108.571 48.8913 108.663 48.8928 108.774 48.8956C108.885 48.8984 108.968 48.9027 109.025 48.9084V49.9311C108.991 49.9226 108.913 49.9098 108.791 49.8928C108.672 49.8729 108.545 49.8629 108.412 49.8629C108.093 49.8629 107.809 49.9297 107.559 50.0632C107.312 50.1939 107.116 50.3757 106.971 50.6087C106.829 50.8388 106.758 51.1016 106.758 51.397V55.5391H105.752ZM112.677 55.6754C112.086 55.6754 111.568 55.5348 111.122 55.2536C110.679 54.9723 110.332 54.5788 110.082 54.0732C109.835 53.5675 109.711 52.9766 109.711 52.3004C109.711 51.6186 109.835 51.0234 110.082 50.5149C110.332 50.0064 110.679 49.6115 111.122 49.3303C111.568 49.049 112.086 48.9084 112.677 48.9084C113.268 48.9084 113.785 49.049 114.228 49.3303C114.674 49.6115 115.021 50.0064 115.268 50.5149C115.518 51.0234 115.643 51.6186 115.643 52.3004C115.643 52.9766 115.518 53.5675 115.268 54.0732C115.021 54.5788 114.674 54.9723 114.228 55.2536C113.785 55.5348 113.268 55.6754 112.677 55.6754ZM112.677 54.772C113.126 54.772 113.495 54.657 113.785 54.4268C114.075 54.1967 114.289 53.8942 114.429 53.5192C114.568 53.1442 114.637 52.7379 114.637 52.3004C114.637 51.8629 114.568 51.4553 114.429 51.0774C114.289 50.6996 114.075 50.3942 113.785 50.1612C113.495 49.9283 113.126 49.8118 112.677 49.8118C112.228 49.8118 111.859 49.9283 111.569 50.1612C111.279 50.3942 111.065 50.6996 110.926 51.0774C110.787 51.4553 110.717 51.8629 110.717 52.3004C110.717 52.7379 110.787 53.1442 110.926 53.5192C111.065 53.8942 111.279 54.1967 111.569 54.4268C111.859 54.657 112.228 54.772 112.677 54.772ZM118.184 51.6016V55.5391H117.178V48.9936H118.15V50.0163H118.235C118.388 49.6839 118.621 49.4169 118.934 49.2152C119.246 49.0107 119.65 48.9084 120.144 48.9084C120.587 48.9084 120.975 48.9993 121.308 49.1811C121.64 49.3601 121.898 49.6328 122.083 49.9993C122.268 50.3629 122.36 50.8232 122.36 51.38V55.5391H121.354V51.4482C121.354 50.9339 121.221 50.5334 120.954 50.2464C120.687 49.9567 120.32 49.8118 119.854 49.8118C119.533 49.8118 119.246 49.8814 118.994 50.0206C118.744 50.1598 118.546 50.3629 118.401 50.63C118.256 50.897 118.184 51.2209 118.184 51.6016ZM124.198 55.5391V48.9936H125.169V50.0163H125.255C125.391 49.6669 125.611 49.3956 125.915 49.2024C126.219 49.0064 126.584 48.9084 127.01 48.9084C127.442 48.9084 127.801 49.0064 128.088 49.2024C128.378 49.3956 128.604 49.6669 128.766 50.0163H128.834C129.002 49.6783 129.253 49.4098 129.588 49.2109C129.924 49.0092 130.326 48.9084 130.794 48.9084C131.38 48.9084 131.858 49.0916 132.23 49.4581C132.603 49.8217 132.789 50.3885 132.789 51.1584V55.5391H131.783V51.1584C131.783 50.6754 131.651 50.3303 131.387 50.1229C131.123 49.9155 130.811 49.8118 130.453 49.8118C129.993 49.8118 129.637 49.951 129.384 50.2294C129.131 50.505 129.005 50.8544 129.005 51.2777V55.5391H127.982V51.0561C127.982 50.6839 127.861 50.3842 127.62 50.157C127.378 49.9268 127.067 49.8118 126.686 49.8118C126.425 49.8118 126.181 49.8814 125.953 50.0206C125.729 50.1598 125.547 50.353 125.408 50.6001C125.272 50.8445 125.203 51.1271 125.203 51.4482V55.5391H124.198ZM137.372 55.6754C136.741 55.6754 136.197 55.5362 135.74 55.2578C135.285 54.9766 134.934 54.5845 134.687 54.0817C134.443 53.576 134.321 52.9879 134.321 52.3175C134.321 51.647 134.443 51.0561 134.687 50.5447C134.934 50.0305 135.278 49.63 135.718 49.343C136.162 49.0533 136.679 48.9084 137.27 48.9084C137.61 48.9084 137.947 48.9652 138.279 49.0788C138.612 49.1925 138.914 49.3771 139.187 49.6328C139.46 49.8857 139.677 50.2209 139.839 50.6385C140.001 51.0561 140.082 51.5703 140.082 52.1811V52.6072H135.037V51.7379H139.059C139.059 51.3686 138.985 51.0391 138.838 50.7493C138.693 50.4595 138.485 50.2308 138.216 50.0632C137.949 49.8956 137.633 49.8118 137.27 49.8118C136.869 49.8118 136.522 49.9112 136.23 50.1101C135.94 50.3061 135.717 50.5618 135.561 50.8771C135.404 51.1925 135.326 51.5305 135.326 51.8913V52.4709C135.326 52.9652 135.412 53.3842 135.582 53.728C135.755 54.0689 135.995 54.3288 136.302 54.5078C136.609 54.6839 136.966 54.772 137.372 54.772C137.636 54.772 137.875 54.7351 138.088 54.6612C138.304 54.5845 138.49 54.4709 138.646 54.3203C138.802 54.1669 138.923 53.9766 139.008 53.7493L139.98 54.022C139.877 54.3516 139.706 54.6413 139.464 54.8913C139.223 55.1385 138.924 55.3317 138.569 55.4709C138.214 55.6072 137.815 55.6754 137.372 55.6754ZM142.618 51.6016V55.5391H141.612V48.9936H142.583V50.0163H142.669C142.822 49.6839 143.055 49.4169 143.368 49.2152C143.68 49.0107 144.083 48.9084 144.578 48.9084C145.021 48.9084 145.409 48.9993 145.741 49.1811C146.074 49.3601 146.332 49.6328 146.517 49.9993C146.701 50.3629 146.794 50.8232 146.794 51.38V55.5391H145.788V51.4482C145.788 50.9339 145.654 50.5334 145.387 50.2464C145.12 49.9567 144.754 49.8118 144.288 49.8118C143.967 49.8118 143.68 49.8814 143.427 50.0206C143.177 50.1598 142.98 50.3629 142.835 50.63C142.69 50.897 142.618 51.2209 142.618 51.6016ZM151.478 48.9936V49.8459H148.086V48.9936H151.478ZM149.075 47.4254H150.08V53.6641C150.08 53.9482 150.121 54.1612 150.204 54.3033C150.289 54.4425 150.397 54.5362 150.528 54.5845C150.661 54.63 150.802 54.6527 150.95 54.6527C151.06 54.6527 151.151 54.647 151.222 54.6357C151.293 54.6214 151.35 54.6101 151.393 54.6016L151.597 55.505C151.529 55.5305 151.434 55.5561 151.312 55.5817C151.19 55.6101 151.035 55.6243 150.847 55.6243C150.563 55.6243 150.285 55.5632 150.012 55.4411C149.742 55.3189 149.518 55.1328 149.339 54.8828C149.163 54.6328 149.075 54.3175 149.075 53.9368V47.4254Z" fill="black" fill-opacity="0.7"/>
<g style="mix-blend-mode:multiply">
<path d="M17.5731 84.325C18.4302 84.325 18.4302 83.4678 18.4302 83.4678V81.7536C18.4302 80.8964 17.5731 80.8964 17.5731 80.8964H15.8588C15.0017 80.8964 15.0017 81.7536 15.0017 81.7536V83.4678C15.0017 84.325 15.8588 84.325 15.8588 84.325M17.5731 84.325H15.8588M17.5731 84.325C17.5731 84.325 18.4302 84.325 18.4302 85.1821V86.8964C18.4302 86.8964 18.4302 87.7536 17.5731 87.7536M15.8588 84.325C15.0017 84.325 15.0017 85.1821 15.0017 85.1821V86.8964C15.0017 87.7536 15.8588 87.7536 15.8588 87.7536M17.5731 87.7536H15.8588M17.5731 87.7536C17.5731 87.7536 18.4302 87.7536 18.4302 88.6107V90.325C18.4302 90.325 18.4302 91.1821 17.5731 91.1821H15.8588C15.8588 91.1821 15.0017 91.1821 15.0017 90.325V88.6107C15.0017 88.6107 15.0017 87.7536 15.8588 87.7536M16.716 80.8964V78.325C16.716 76.6681 18.0591 75.325 19.716 75.325C21.3728 75.325 22.716 76.6681 22.716 78.325V82.1821C22.716 83.6023 23.8672 84.7536 25.2874 84.7536C26.7075 84.7536 27.8588 83.6023 27.8588 82.1821V74.8964C27.8588 73.9496 28.6263 73.1821 29.5731 73.1821C30.5199 73.1821 31.2874 73.9496 31.2874 74.8964V87.7536M15.0017 91.1821H33.0017C33.0017 91.1821 33.8588 91.1821 33.8588 92.0393C33.8588 92.0393 33.8588 92.8964 33.0017 92.8964H15.0017C15.0017 92.8964 14.1445 92.8964 14.1445 92.0393C14.1445 92.0393 14.1445 91.1821 15.0017 91.1821ZM30.4302 87.7536H32.1445C32.1445 87.7536 33.0017 87.7536 33.0017 88.6107V90.325C33.0017 90.325 33.0017 91.1821 32.1445 91.1821H30.4302C30.4302 91.1821 29.5731 91.1821 29.5731 90.325V88.6107C29.5731 88.6107 29.5731 87.7536 30.4302 87.7536Z" stroke="#DA5DA8" stroke-width="1.14286" stroke-linecap="round" stroke-linejoin="round"/>
</g>
<path d="M49.8295 80.9936C49.7784 80.5618 49.571 80.2266 49.2074 79.9879C48.8438 79.7493 48.3977 79.63 47.8693 79.63C47.483 79.63 47.1449 79.6925 46.8551 79.8175C46.5682 79.9425 46.3438 80.1143 46.1818 80.3331C46.0227 80.5518 45.9432 80.8004 45.9432 81.0788C45.9432 81.3118 45.9986 81.5121 46.1094 81.6797C46.223 81.8445 46.3679 81.9822 46.544 82.093C46.7202 82.201 46.9048 82.2905 47.098 82.3615C47.2912 82.4297 47.4688 82.4851 47.6307 82.5277L48.517 82.7663C48.7443 82.826 48.9972 82.9084 49.2756 83.0135C49.5568 83.1186 49.8253 83.2621 50.081 83.4439C50.3395 83.6229 50.5526 83.853 50.7202 84.1342C50.8878 84.4155 50.9716 84.7607 50.9716 85.1697C50.9716 85.6413 50.848 86.0675 50.6009 86.4482C50.3565 86.8288 49.9986 87.1314 49.527 87.3558C49.0582 87.5803 48.4886 87.6925 47.8182 87.6925C47.1932 87.6925 46.652 87.5916 46.1946 87.3899C45.7401 87.1882 45.3821 86.907 45.1207 86.5462C44.8622 86.1854 44.7159 85.7663 44.6818 85.2891H45.7727C45.8011 85.6186 45.9119 85.8913 46.1051 86.1072C46.3011 86.3203 46.5483 86.4794 46.8466 86.5845C47.1477 86.6868 47.4716 86.7379 47.8182 86.7379C48.2216 86.7379 48.5838 86.6726 48.9048 86.5419C49.2259 86.4084 49.4801 86.2237 49.6676 85.9879C49.8551 85.7493 49.9489 85.4709 49.9489 85.1527C49.9489 84.8629 49.8679 84.6271 49.706 84.4453C49.544 84.2635 49.331 84.1158 49.0668 84.0021C48.8026 83.8885 48.517 83.7891 48.2102 83.7038L47.1364 83.397C46.4545 83.201 45.9148 82.9212 45.517 82.5575C45.1193 82.1939 44.9205 81.718 44.9205 81.13C44.9205 80.6413 45.0526 80.2152 45.3168 79.8516C45.5838 79.4851 45.9418 79.201 46.3906 78.9993C46.8423 78.7947 47.3466 78.6925 47.9034 78.6925C48.4659 78.6925 48.9659 78.7933 49.4034 78.995C49.8409 79.1939 50.1875 79.4666 50.4432 79.8132C50.7017 80.1598 50.8381 80.5533 50.8523 80.9936H49.8295ZM55.3171 87.6754C54.6864 87.6754 54.1424 87.5362 53.685 87.2578C53.2305 86.9766 52.8796 86.5845 52.6325 86.0817C52.3881 85.576 52.266 84.9879 52.266 84.3175C52.266 83.647 52.3881 83.0561 52.6325 82.5447C52.8796 82.0305 53.2234 81.63 53.6637 81.343C54.1069 81.0533 54.6239 80.9084 55.2148 80.9084C55.5558 80.9084 55.8924 80.9652 56.2248 81.0788C56.5572 81.1925 56.8597 81.3771 57.1325 81.6328C57.4052 81.8857 57.6225 82.2209 57.7844 82.6385C57.9464 83.0561 58.0273 83.5703 58.0273 84.1811V84.6072H52.9819V83.7379H57.0046C57.0046 83.3686 56.9308 83.0391 56.783 82.7493C56.6381 82.4595 56.4308 82.2308 56.1609 82.0632C55.8938 81.8956 55.5785 81.8118 55.2148 81.8118C54.8143 81.8118 54.4677 81.9112 54.1751 82.1101C53.8853 82.3061 53.6623 82.5618 53.506 82.8771C53.3498 83.1925 53.2717 83.5305 53.2717 83.8913V84.4709C53.2717 84.9652 53.3569 85.3842 53.5273 85.728C53.7006 86.0689 53.9407 86.3288 54.2475 86.5078C54.5543 86.6839 54.9109 86.772 55.3171 86.772C55.5813 86.772 55.82 86.7351 56.033 86.6612C56.2489 86.5845 56.435 86.4709 56.5913 86.3203C56.7475 86.1669 56.8683 85.9766 56.9535 85.7493L57.9251 86.022C57.8228 86.3516 57.6509 86.6413 57.4094 86.8913C57.168 87.1385 56.8697 87.3317 56.5146 87.4709C56.1594 87.6072 55.7603 87.6754 55.3171 87.6754ZM60.5629 83.6016V87.5391H59.5572V80.9936H60.5288V82.0163H60.614C60.7674 81.6839 61.0004 81.4169 61.3129 81.2152C61.6254 81.0107 62.0288 80.9084 62.5231 80.9084C62.9663 80.9084 63.354 80.9993 63.6864 81.1811C64.0188 81.3601 64.2773 81.6328 64.462 81.9993C64.6467 82.3629 64.739 82.8232 64.739 83.38V87.5391H63.7333V83.4482C63.7333 82.9339 63.5998 82.5334 63.3327 82.2464C63.0657 81.9567 62.6992 81.8118 62.2333 81.8118C61.9123 81.8118 61.6254 81.8814 61.3725 82.0206C61.1225 82.1598 60.9251 82.3629 60.7802 82.63C60.6353 82.897 60.5629 83.2209 60.5629 83.6016ZM71.2131 82.4595L70.3097 82.7152C70.2528 82.5646 70.169 82.4183 70.0582 82.2763C69.9503 82.1314 69.8026 82.0121 69.6151 81.9183C69.4276 81.8246 69.1875 81.7777 68.8949 81.7777C68.4943 81.7777 68.1605 81.87 67.8935 82.0547C67.6293 82.2365 67.4972 82.468 67.4972 82.7493C67.4972 82.9993 67.5881 83.1967 67.7699 83.3416C67.9517 83.4865 68.2358 83.6072 68.6222 83.7038L69.5938 83.9425C70.179 84.0845 70.6151 84.3018 70.902 84.5945C71.1889 84.8842 71.3324 85.2578 71.3324 85.7152C71.3324 86.0902 71.2244 86.4254 71.0085 86.7209C70.7955 87.0163 70.4972 87.2493 70.1136 87.4197C69.7301 87.5902 69.2841 87.6754 68.7756 87.6754C68.108 87.6754 67.5554 87.5305 67.1179 87.2408C66.6804 86.951 66.4034 86.5277 66.2869 85.9709L67.2415 85.7322C67.3324 86.0845 67.5043 86.3487 67.7571 86.5249C68.0128 86.701 68.3466 86.7891 68.7585 86.7891C69.2273 86.7891 69.5994 86.6896 69.875 86.4908C70.1534 86.2891 70.2926 86.0476 70.2926 85.7663C70.2926 85.5391 70.2131 85.3487 70.054 85.1953C69.8949 85.0391 69.6506 84.9226 69.321 84.8459L68.2301 84.5902C67.6307 84.4482 67.1903 84.228 66.9091 83.9297C66.6307 83.6286 66.4915 83.2521 66.4915 82.8004C66.4915 82.4311 66.5952 82.1044 66.8026 81.8203C67.0128 81.5362 67.2983 81.3132 67.6591 81.1513C68.0227 80.9893 68.4347 80.9084 68.8949 80.9084C69.5426 80.9084 70.0511 81.0504 70.4205 81.3345C70.7926 81.6186 71.0568 81.9936 71.2131 82.4595ZM75.5053 87.6754C74.9144 87.6754 74.396 87.5348 73.9499 87.2536C73.5067 86.9723 73.1602 86.5788 72.9102 86.0732C72.663 85.5675 72.5394 84.9766 72.5394 84.3004C72.5394 83.6186 72.663 83.0234 72.9102 82.5149C73.1602 82.0064 73.5067 81.6115 73.9499 81.3303C74.396 81.049 74.9144 80.9084 75.5053 80.9084C76.0962 80.9084 76.6133 81.049 77.0565 81.3303C77.5025 81.6115 77.8491 82.0064 78.0962 82.5149C78.3462 83.0234 78.4712 83.6186 78.4712 84.3004C78.4712 84.9766 78.3462 85.5675 78.0962 86.0732C77.8491 86.5788 77.5025 86.9723 77.0565 87.2536C76.6133 87.5348 76.0962 87.6754 75.5053 87.6754ZM75.5053 86.772C75.9542 86.772 76.3235 86.657 76.6133 86.4268C76.9031 86.1967 77.1175 85.8942 77.2567 85.5192C77.396 85.1442 77.4656 84.7379 77.4656 84.3004C77.4656 83.8629 77.396 83.4553 77.2567 83.0774C77.1175 82.6996 76.9031 82.3942 76.6133 82.1612C76.3235 81.9283 75.9542 81.8118 75.5053 81.8118C75.0565 81.8118 74.6871 81.9283 74.3974 82.1612C74.1076 82.3942 73.8931 82.6996 73.7539 83.0774C73.6147 83.4553 73.5451 83.8629 73.5451 84.3004C73.5451 84.7379 73.6147 85.1442 73.7539 85.5192C73.8931 85.8942 74.1076 86.1967 74.3974 86.4268C74.6871 86.657 75.0565 86.772 75.5053 86.772ZM80.0064 87.5391V80.9936H80.978V81.9822H81.0462C81.1655 81.6584 81.3814 81.3956 81.6939 81.1939C82.0064 80.9922 82.3587 80.8913 82.7507 80.8913C82.8246 80.8913 82.9169 80.8928 83.0277 80.8956C83.1385 80.8984 83.2223 80.9027 83.2791 80.9084V81.9311C83.245 81.9226 83.1669 81.9098 83.0447 81.8928C82.9254 81.8729 82.799 81.8629 82.6655 81.8629C82.3473 81.8629 82.0632 81.9297 81.8132 82.0632C81.5661 82.1939 81.37 82.3757 81.2251 82.6087C81.0831 82.8388 81.0121 83.1016 81.0121 83.397V87.5391H80.0064ZM85.3182 89.9936C85.1477 89.9936 84.9957 89.9794 84.8622 89.951C84.7287 89.9254 84.6364 89.8999 84.5852 89.8743L84.8409 88.9879C85.0852 89.0504 85.3011 89.0732 85.4886 89.0561C85.6761 89.0391 85.8423 88.9553 85.9872 88.8047C86.1349 88.657 86.2699 88.4169 86.392 88.0845L86.5795 87.5732L84.1591 80.9936H85.25L87.0568 86.2095H87.125L88.9318 80.9936H90.0227L87.2443 88.4936C87.1193 88.8317 86.9645 89.1115 86.7798 89.3331C86.5952 89.5575 86.3807 89.7237 86.1364 89.8317C85.8949 89.9396 85.6222 89.9936 85.3182 89.9936ZM95.2195 87.5391H94.1115L97.3161 78.8118H98.407L101.612 87.5391H100.504L97.8956 80.1925H97.8274L95.2195 87.5391ZM95.6286 84.13H100.094V85.0675H95.6286V84.13ZM105.494 87.6754C104.88 87.6754 104.352 87.5305 103.908 87.2408C103.465 86.951 103.124 86.5518 102.886 86.0433C102.647 85.5348 102.528 84.9538 102.528 84.3004C102.528 83.6357 102.65 83.049 102.894 82.5405C103.141 82.0291 103.485 81.63 103.925 81.343C104.369 81.0533 104.886 80.9084 105.477 80.9084C105.937 80.9084 106.352 80.9936 106.721 81.1641C107.09 81.3345 107.393 81.5732 107.629 81.88C107.864 82.1868 108.011 82.5447 108.067 82.9538H107.062C106.985 82.6555 106.815 82.3913 106.55 82.1612C106.289 81.9283 105.937 81.8118 105.494 81.8118C105.102 81.8118 104.758 81.9141 104.462 82.1186C104.17 82.3203 103.941 82.6058 103.776 82.9751C103.614 83.3416 103.533 83.772 103.533 84.2663C103.533 84.772 103.613 85.2124 103.772 85.5874C103.934 85.9624 104.161 86.2536 104.454 86.4609C104.749 86.6683 105.096 86.772 105.494 86.772C105.755 86.772 105.992 86.7266 106.205 86.6357C106.418 86.5447 106.599 86.4141 106.746 86.2436C106.894 86.0732 106.999 85.8686 107.062 85.63H108.067C108.011 86.0163 107.87 86.3643 107.646 86.674C107.424 86.9808 107.13 87.2251 106.763 87.407C106.4 87.5859 105.977 87.6754 105.494 87.6754ZM112.384 80.9936V81.8459H108.992V80.9936H112.384ZM109.981 79.4254H110.987V85.6641C110.987 85.9482 111.028 86.1612 111.11 86.3033C111.195 86.4425 111.303 86.5362 111.434 86.5845C111.567 86.63 111.708 86.6527 111.856 86.6527C111.967 86.6527 112.058 86.647 112.129 86.6357C112.2 86.6214 112.256 86.6101 112.299 86.6016L112.504 87.505C112.435 87.5305 112.34 87.5561 112.218 87.5817C112.096 87.6101 111.941 87.6243 111.754 87.6243C111.469 87.6243 111.191 87.5632 110.918 87.4411C110.648 87.3189 110.424 87.1328 110.245 86.8828C110.069 86.6328 109.981 86.3175 109.981 85.9368V79.4254ZM113.897 87.5391V80.9936H114.903V87.5391H113.897ZM114.408 79.9027C114.212 79.9027 114.043 79.8359 113.901 79.7024C113.762 79.5689 113.692 79.4084 113.692 79.2209C113.692 79.0334 113.762 78.8729 113.901 78.7393C114.043 78.6058 114.212 78.5391 114.408 78.5391C114.604 78.5391 114.772 78.6058 114.911 78.7393C115.053 78.8729 115.124 79.0334 115.124 79.2209C115.124 79.4084 115.053 79.5689 114.911 79.7024C114.772 79.8359 114.604 79.9027 114.408 79.9027ZM122.097 80.9936L119.676 87.5391H118.654L116.233 80.9936H117.324L119.131 86.2095H119.199L121.006 80.9936H122.097ZM123.424 87.5391V80.9936H124.43V87.5391H123.424ZM123.936 79.9027C123.74 79.9027 123.571 79.8359 123.429 79.7024C123.289 79.5689 123.22 79.4084 123.22 79.2209C123.22 79.0334 123.289 78.8729 123.429 78.7393C123.571 78.6058 123.74 78.5391 123.936 78.5391C124.132 78.5391 124.299 78.6058 124.439 78.7393C124.581 78.8729 124.652 79.0334 124.652 79.2209C124.652 79.4084 124.581 79.5689 124.439 79.7024C124.299 79.8359 124.132 79.9027 123.936 79.9027ZM129.119 80.9936V81.8459H125.727V80.9936H129.119ZM126.715 79.4254H127.721V85.6641C127.721 85.9482 127.762 86.1612 127.844 86.3033C127.93 86.4425 128.038 86.5362 128.168 86.5845C128.302 86.63 128.442 86.6527 128.59 86.6527C128.701 86.6527 128.792 86.647 128.863 86.6357C128.934 86.6214 128.991 86.6101 129.033 86.6016L129.238 87.505C129.17 87.5305 129.075 87.5561 128.952 87.5817C128.83 87.6101 128.675 87.6243 128.488 87.6243C128.204 87.6243 127.925 87.5632 127.653 87.4411C127.383 87.3189 127.158 87.1328 126.979 86.8828C126.803 86.6328 126.715 86.3175 126.715 85.9368V79.4254ZM130.631 87.5391V80.9936H131.637V87.5391H130.631ZM131.143 79.9027C130.947 79.9027 130.778 79.8359 130.636 79.7024C130.496 79.5689 130.427 79.4084 130.427 79.2209C130.427 79.0334 130.496 78.8729 130.636 78.7393C130.778 78.6058 130.947 78.5391 131.143 78.5391C131.339 78.5391 131.506 78.6058 131.646 78.7393C131.788 78.8729 131.859 79.0334 131.859 79.2209C131.859 79.4084 131.788 79.5689 131.646 79.7024C131.506 79.8359 131.339 79.9027 131.143 79.9027ZM136.223 87.6754C135.593 87.6754 135.049 87.5362 134.591 87.2578C134.137 86.9766 133.786 86.5845 133.539 86.0817C133.294 85.576 133.172 84.9879 133.172 84.3175C133.172 83.647 133.294 83.0561 133.539 82.5447C133.786 82.0305 134.13 81.63 134.57 81.343C135.013 81.0533 135.53 80.9084 136.121 80.9084C136.462 80.9084 136.799 80.9652 137.131 81.0788C137.463 81.1925 137.766 81.3771 138.039 81.6328C138.311 81.8857 138.529 82.2209 138.691 82.6385C138.853 83.0561 138.934 83.5703 138.934 84.1811V84.6072H133.888V83.7379H137.911C137.911 83.3686 137.837 83.0391 137.689 82.7493C137.544 82.4595 137.337 82.2308 137.067 82.0632C136.8 81.8956 136.485 81.8118 136.121 81.8118C135.721 81.8118 135.374 81.9112 135.081 82.1101C134.792 82.3061 134.569 82.5618 134.412 82.8771C134.256 83.1925 134.178 83.5305 134.178 83.8913V84.4709C134.178 84.9652 134.263 85.3842 134.434 85.728C134.607 86.0689 134.847 86.3288 135.154 86.5078C135.461 86.6839 135.817 86.772 136.223 86.772C136.488 86.772 136.726 86.7351 136.939 86.6612C137.155 86.5845 137.341 86.4709 137.498 86.3203C137.654 86.1669 137.775 85.9766 137.86 85.7493L138.831 86.022C138.729 86.3516 138.557 86.6413 138.316 86.8913C138.074 87.1385 137.776 87.3317 137.421 87.4709C137.066 87.6072 136.667 87.6754 136.223 87.6754ZM145.1 82.4595L144.196 82.7152C144.14 82.5646 144.056 82.4183 143.945 82.2763C143.837 82.1314 143.689 82.0121 143.502 81.9183C143.314 81.8246 143.074 81.7777 142.782 81.7777C142.381 81.7777 142.047 81.87 141.78 82.0547C141.516 82.2365 141.384 82.468 141.384 82.7493C141.384 82.9993 141.475 83.1967 141.657 83.3416C141.838 83.4865 142.123 83.6072 142.509 83.7038L143.48 83.9425C144.066 84.0845 144.502 84.3018 144.789 84.5945C145.076 84.8842 145.219 85.2578 145.219 85.7152C145.219 86.0902 145.111 86.4254 144.895 86.7209C144.682 87.0163 144.384 87.2493 144 87.4197C143.617 87.5902 143.171 87.6754 142.662 87.6754C141.995 87.6754 141.442 87.5305 141.005 87.2408C140.567 86.951 140.29 86.5277 140.174 85.9709L141.128 85.7322C141.219 86.0845 141.391 86.3487 141.644 86.5249C141.9 86.701 142.233 86.7891 142.645 86.7891C143.114 86.7891 143.486 86.6896 143.762 86.4908C144.04 86.2891 144.179 86.0476 144.179 85.7663C144.179 85.5391 144.1 85.3487 143.941 85.1953C143.782 85.0391 143.537 84.9226 143.208 84.8459L142.117 84.5902C141.517 84.4482 141.077 84.228 140.796 83.9297C140.517 83.6286 140.378 83.2521 140.378 82.8004C140.378 82.4311 140.482 82.1044 140.689 81.8203C140.9 81.5362 141.185 81.3132 141.546 81.1513C141.909 80.9893 142.321 80.9084 142.782 80.9084C143.429 80.9084 143.938 81.0504 144.307 81.3345C144.679 81.6186 144.944 81.9936 145.1 82.4595Z" fill="black" fill-opacity="0.7"/>
<g style="mix-blend-mode:multiply">
<path d="M179.894 59.251C179.22 58.1788 179.168 56.829 179.756 55.7076M177.445 60.7819C176.09 58.7042 176.09 56.0221 177.445 53.9444M182.836 45.2393L179.197 46.8327C178.393 47.1847 177.457 46.8181 177.105 46.0142C176.753 45.2106 177.119 44.2741 177.923 43.9219L182.941 41.725C183.932 41.2907 185.042 41.207 186.087 41.4876L189.384 42.1579H193.327M186.384 45.421L183.627 45.067C182.877 45.0248 182.214 45.5499 182.084 46.2893C182.08 46.3122 182.076 46.3353 182.074 46.3587C182.024 46.7494 182.131 47.1438 182.372 47.4551C182.614 47.7664 182.969 47.969 183.36 48.0182L185.508 48.3979C186.435 48.5629 187.391 48.4489 188.255 48.0704L191.169 46.4676H193.332M182.681 47.8442C183.179 49.6982 183.936 51.4728 184.929 53.1156M182.909 56.7533C182.909 59.1198 184.827 61.0382 187.194 61.0382C189.56 61.0382 191.478 59.1198 191.478 56.7533C191.478 54.3868 189.56 52.4684 187.194 52.4684C184.827 52.4684 182.909 54.3868 182.909 56.7533ZM187.193 55.4676C187.903 55.4676 188.478 56.0432 188.478 56.7533C188.478 57.4634 187.903 58.039 187.193 58.039C186.483 58.039 185.907 57.4634 185.907 56.7533C185.907 56.0432 186.483 55.4676 187.193 55.4676Z" stroke="#DD8433" stroke-width="1.14286" stroke-linecap="round" stroke-linejoin="round"/>
</g>
<path d="M213.42 51.1754C213.42 52.0959 213.254 52.8913 212.922 53.5618C212.589 54.2322 212.134 54.7493 211.554 55.1129C210.974 55.4766 210.313 55.6584 209.568 55.6584C208.824 55.6584 208.162 55.4766 207.582 55.1129C207.003 54.7493 206.547 54.2322 206.214 53.5618C205.882 52.8913 205.716 52.0959 205.716 51.1754C205.716 50.255 205.882 49.4595 206.214 48.7891C206.547 48.1186 207.003 47.6016 207.582 47.2379C208.162 46.8743 208.824 46.6925 209.568 46.6925C210.313 46.6925 210.974 46.8743 211.554 47.2379C212.134 47.6016 212.589 48.1186 212.922 48.7891C213.254 49.4595 213.42 50.255 213.42 51.1754ZM212.398 51.1754C212.398 50.4197 212.271 49.782 212.018 49.2621C211.768 48.7422 211.429 48.3487 211 48.0817C210.574 47.8146 210.097 47.6811 209.568 47.6811C209.04 47.6811 208.561 47.8146 208.132 48.0817C207.706 48.3487 207.366 48.7422 207.114 49.2621C206.864 49.782 206.739 50.4197 206.739 51.1754C206.739 51.9311 206.864 52.5689 207.114 53.0888C207.366 53.6087 207.706 54.0021 208.132 54.2692C208.561 54.5362 209.04 54.6697 209.568 54.6697C210.097 54.6697 210.574 54.5362 211 54.2692C211.429 54.0021 211.768 53.6087 212.018 53.0888C212.271 52.5689 212.398 51.9311 212.398 51.1754ZM215.197 55.5391V46.8118H216.203V50.0334H216.288C216.362 49.9197 216.464 49.7749 216.595 49.5987C216.729 49.4197 216.919 49.2607 217.166 49.1214C217.416 48.9794 217.754 48.9084 218.18 48.9084C218.732 48.9084 219.217 49.0462 219.638 49.3217C220.058 49.5973 220.386 49.9879 220.622 50.4936C220.858 50.9993 220.976 51.5959 220.976 52.2834C220.976 52.9766 220.858 53.5774 220.622 54.0859C220.386 54.5916 220.06 54.9837 219.642 55.2621C219.224 55.5376 218.743 55.6754 218.197 55.6754C217.777 55.6754 217.44 55.6058 217.188 55.4666C216.935 55.3246 216.74 55.1641 216.604 54.9851C216.467 54.8033 216.362 54.6527 216.288 54.5334H216.169V55.5391H215.197ZM216.186 52.2663C216.186 52.7607 216.259 53.1967 216.403 53.5746C216.548 53.9496 216.76 54.2436 217.038 54.4567C217.317 54.6669 217.658 54.772 218.061 54.772C218.482 54.772 218.832 54.6612 219.114 54.4396C219.398 54.2152 219.611 53.9141 219.753 53.5362C219.898 53.1555 219.97 52.7322 219.97 52.2663C219.97 51.8061 219.899 51.3913 219.757 51.022C219.618 50.6499 219.406 50.3558 219.122 50.1399C218.841 49.9212 218.487 49.8118 218.061 49.8118C217.652 49.8118 217.308 49.9155 217.03 50.1229C216.751 50.3274 216.541 50.6143 216.399 50.9837C216.257 51.3501 216.186 51.7777 216.186 52.2663ZM227.151 50.4595L226.247 50.7152C226.19 50.5646 226.107 50.4183 225.996 50.2763C225.888 50.1314 225.74 50.0121 225.553 49.9183C225.365 49.8246 225.125 49.7777 224.832 49.7777C224.432 49.7777 224.098 49.87 223.831 50.0547C223.567 50.2365 223.435 50.468 223.435 50.7493C223.435 50.9993 223.526 51.1967 223.707 51.3416C223.889 51.4865 224.173 51.6072 224.56 51.7038L225.531 51.9425C226.116 52.0845 226.553 52.3018 226.839 52.5945C227.126 52.8842 227.27 53.2578 227.27 53.7152C227.27 54.0902 227.162 54.4254 226.946 54.7209C226.733 55.0163 226.435 55.2493 226.051 55.4197C225.668 55.5902 225.222 55.6754 224.713 55.6754C224.045 55.6754 223.493 55.5305 223.055 55.2408C222.618 54.951 222.341 54.5277 222.224 53.9709L223.179 53.7322C223.27 54.0845 223.442 54.3487 223.695 54.5249C223.95 54.701 224.284 54.7891 224.696 54.7891C225.165 54.7891 225.537 54.6896 225.812 54.4908C226.091 54.2891 226.23 54.0476 226.23 53.7663C226.23 53.5391 226.151 53.3487 225.991 53.1953C225.832 53.0391 225.588 52.9226 225.259 52.8459L224.168 52.5902C223.568 52.4482 223.128 52.228 222.847 51.9297C222.568 51.6286 222.429 51.2521 222.429 50.8004C222.429 50.4311 222.533 50.1044 222.74 49.8203C222.95 49.5362 223.236 49.3132 223.597 49.1513C223.96 48.9893 224.372 48.9084 224.832 48.9084C225.48 48.9084 225.989 49.0504 226.358 49.3345C226.73 49.6186 226.994 49.9936 227.151 50.4595ZM231.528 55.6754C230.897 55.6754 230.353 55.5362 229.896 55.2578C229.441 54.9766 229.091 54.5845 228.843 54.0817C228.599 53.576 228.477 52.9879 228.477 52.3175C228.477 51.647 228.599 51.0561 228.843 50.5447C229.091 50.0305 229.434 49.63 229.875 49.343C230.318 49.0533 230.835 48.9084 231.426 48.9084C231.767 48.9084 232.103 48.9652 232.436 49.0788C232.768 49.1925 233.071 49.3771 233.343 49.6328C233.616 49.8857 233.833 50.2209 233.995 50.6385C234.157 51.0561 234.238 51.5703 234.238 52.1811V52.6072H229.193V51.7379H233.216C233.216 51.3686 233.142 51.0391 232.994 50.7493C232.849 50.4595 232.642 50.2308 232.372 50.0632C232.105 49.8956 231.789 49.8118 231.426 49.8118C231.025 49.8118 230.679 49.9112 230.386 50.1101C230.096 50.3061 229.873 50.5618 229.717 50.8771C229.561 51.1925 229.483 51.5305 229.483 51.8913V52.4709C229.483 52.9652 229.568 53.3842 229.738 53.728C229.912 54.0689 230.152 54.3288 230.458 54.5078C230.765 54.6839 231.122 54.772 231.528 54.772C231.792 54.772 232.031 54.7351 232.244 54.6612C232.46 54.5845 232.646 54.4709 232.802 54.3203C232.958 54.1669 233.079 53.9766 233.164 53.7493L234.136 54.022C234.034 54.3516 233.862 54.6413 233.62 54.8913C233.379 55.1385 233.081 55.3317 232.725 55.4709C232.37 55.6072 231.971 55.6754 231.528 55.6754ZM235.768 55.5391V48.9936H236.74V49.9822H236.808C236.927 49.6584 237.143 49.3956 237.456 49.1939C237.768 48.9922 238.12 48.8913 238.512 48.8913C238.586 48.8913 238.679 48.8928 238.789 48.8956C238.9 48.8984 238.984 48.9027 239.041 48.9084V49.9311C239.007 49.9226 238.929 49.9098 238.806 49.8928C238.687 49.8729 238.561 49.8629 238.427 49.8629C238.109 49.8629 237.825 49.9297 237.575 50.0632C237.328 50.1939 237.132 50.3757 236.987 50.6087C236.845 50.8388 236.774 51.1016 236.774 51.397V55.5391H235.768ZM245.784 48.9936L243.364 55.5391H242.341L239.921 48.9936H241.012L242.819 54.2095H242.887L244.694 48.9936H245.784ZM248.839 55.6925C248.424 55.6925 248.048 55.6143 247.71 55.4581C247.371 55.299 247.103 55.0703 246.904 54.772C246.705 54.4709 246.606 54.1072 246.606 53.6811C246.606 53.3061 246.68 53.0021 246.827 52.7692C246.975 52.5334 247.173 52.3487 247.42 52.2152C247.667 52.0817 247.94 51.9822 248.238 51.9169C248.539 51.8487 248.842 51.7947 249.146 51.755C249.543 51.7038 249.866 51.6655 250.113 51.6399C250.363 51.6115 250.545 51.5646 250.658 51.4993C250.775 51.4339 250.833 51.3203 250.833 51.1584V51.1243C250.833 50.7038 250.718 50.3771 250.488 50.1442C250.261 49.9112 249.915 49.7947 249.452 49.7947C248.972 49.7947 248.596 49.8999 248.323 50.1101C248.05 50.3203 247.859 50.5447 247.748 50.7834L246.793 50.4425C246.964 50.0447 247.191 49.7351 247.475 49.5135C247.762 49.2891 248.075 49.1328 248.413 49.0447C248.754 48.9538 249.089 48.9084 249.418 48.9084C249.629 48.9084 249.87 48.9339 250.143 48.9851C250.418 49.0334 250.684 49.1342 250.94 49.2876C251.198 49.4411 251.413 49.6726 251.583 49.9822C251.754 50.2919 251.839 50.7067 251.839 51.2266V55.5391H250.833V54.6527H250.782C250.714 54.7947 250.6 54.9467 250.441 55.1087C250.282 55.2706 250.07 55.4084 249.806 55.522C249.542 55.6357 249.219 55.6925 248.839 55.6925ZM248.992 54.7891C249.39 54.7891 249.725 54.7109 249.998 54.5547C250.273 54.3984 250.481 54.1967 250.62 53.9496C250.762 53.7024 250.833 53.4425 250.833 53.1697V52.2493C250.79 52.3004 250.697 52.3473 250.552 52.3899C250.41 52.4297 250.245 52.4652 250.058 52.4964C249.873 52.5249 249.692 52.5504 249.516 52.5732C249.343 52.593 249.202 52.6101 249.094 52.6243C248.833 52.6584 248.589 52.7138 248.362 52.7905C248.137 52.8643 247.955 52.9766 247.816 53.1271C247.68 53.2749 247.612 53.4766 247.612 53.7322C247.612 54.0817 247.741 54.3459 247.999 54.5249C248.261 54.701 248.592 54.7891 248.992 54.7891ZM256.521 48.9936V49.8459H253.129V48.9936H256.521ZM254.118 47.4254H255.123V53.6641C255.123 53.9482 255.164 54.1612 255.247 54.3033C255.332 54.4425 255.44 54.5362 255.571 54.5845C255.704 54.63 255.845 54.6527 255.993 54.6527C256.103 54.6527 256.194 54.647 256.265 54.6357C256.336 54.6214 256.393 54.6101 256.436 54.6016L256.64 55.505C256.572 55.5305 256.477 55.5561 256.355 55.5817C256.233 55.6101 256.078 55.6243 255.89 55.6243C255.606 55.6243 255.328 55.5632 255.055 55.4411C254.785 55.3189 254.561 55.1328 254.382 54.8828C254.206 54.6328 254.118 54.3175 254.118 53.9368V47.4254ZM258.034 55.5391V48.9936H259.039V55.5391H258.034ZM258.545 47.9027C258.349 47.9027 258.18 47.8359 258.038 47.7024C257.899 47.5689 257.829 47.4084 257.829 47.2209C257.829 47.0334 257.899 46.8729 258.038 46.7393C258.18 46.6058 258.349 46.5391 258.545 46.5391C258.741 46.5391 258.909 46.6058 259.048 46.7393C259.19 46.8729 259.261 47.0334 259.261 47.2209C259.261 47.4084 259.19 47.5689 259.048 47.7024C258.909 47.8359 258.741 47.9027 258.545 47.9027ZM263.54 55.6754C262.95 55.6754 262.431 55.5348 261.985 55.2536C261.542 54.9723 261.195 54.5788 260.945 54.0732C260.698 53.5675 260.575 52.9766 260.575 52.3004C260.575 51.6186 260.698 51.0234 260.945 50.5149C261.195 50.0064 261.542 49.6115 261.985 49.3303C262.431 49.049 262.95 48.9084 263.54 48.9084C264.131 48.9084 264.648 49.049 265.092 49.3303C265.538 49.6115 265.884 50.0064 266.131 50.5149C266.381 51.0234 266.506 51.6186 266.506 52.3004C266.506 52.9766 266.381 53.5675 266.131 54.0732C265.884 54.5788 265.538 54.9723 265.092 55.2536C264.648 55.5348 264.131 55.6754 263.54 55.6754ZM263.54 54.772C263.989 54.772 264.359 54.657 264.648 54.4268C264.938 54.1967 265.153 53.8942 265.292 53.5192C265.431 53.1442 265.501 52.7379 265.501 52.3004C265.501 51.8629 265.431 51.4553 265.292 51.0774C265.153 50.6996 264.938 50.3942 264.648 50.1612C264.359 49.9283 263.989 49.8118 263.54 49.8118C263.092 49.8118 262.722 49.9283 262.433 50.1612C262.143 50.3942 261.928 50.6996 261.789 51.0774C261.65 51.4553 261.58 51.8629 261.58 52.3004C261.58 52.7379 261.65 53.1442 261.789 53.5192C261.928 53.8942 262.143 54.1967 262.433 54.4268C262.722 54.657 263.092 54.772 263.54 54.772ZM269.047 51.6016V55.5391H268.042V48.9936H269.013V50.0163H269.098C269.252 49.6839 269.485 49.4169 269.797 49.2152C270.11 49.0107 270.513 48.9084 271.007 48.9084C271.451 48.9084 271.838 48.9993 272.171 49.1811C272.503 49.3601 272.762 49.6328 272.946 49.9993C273.131 50.3629 273.223 50.8232 273.223 51.38V55.5391H272.218V51.4482C272.218 50.9339 272.084 50.5334 271.817 50.2464C271.55 49.9567 271.184 49.8118 270.718 49.8118C270.397 49.8118 270.11 49.8814 269.857 50.0206C269.607 50.1598 269.409 50.3629 269.265 50.63C269.12 50.897 269.047 51.2209 269.047 51.6016Z" fill="black" fill-opacity="0.7"/>
<g style="mix-blend-mode:multiply">
<path d="M188.214 81.7533V79.1819M188.214 81.7533L189.071 81.7567L189.414 82.4425C189.797 83.2139 190.661 83.6196 191.5 83.4219C192.338 83.2241 192.93 82.475 192.928 81.6136C192.928 80.2706 191.839 79.1819 190.496 79.1819H188.214M188.214 81.7533H183.923L182.239 85.7322L183.961 86.357C185.483 86.9137 186.497 88.3609 186.499 89.9819V91.6105C186.499 92.3205 185.924 92.8962 185.214 92.8962C184.504 92.8962 183.928 92.3205 183.928 91.6105V89.9819C183.927 89.4424 183.59 88.9608 183.083 88.7759L181.237 88.1039L179.541 92.111C179.265 92.7652 178.51 93.0715 177.856 92.795C177.202 92.5186 176.896 91.7641 177.172 91.1099L181.886 79.967C182.088 79.491 182.554 79.1818 183.071 79.1819H188.214M189.071 81.7533H190.785M183.5 75.3247C183.5 76.5082 184.46 77.4676 185.643 77.4676C186.827 77.4676 187.786 76.5082 187.786 75.3247C187.786 74.1413 186.827 73.1819 185.643 73.1819C184.46 73.1819 183.5 74.1413 183.5 75.3247Z" stroke="#B65EDF" stroke-width="1.14286" stroke-linecap="round" stroke-linejoin="round"/>
</g>
<path d="M206.057 87.5391V78.8118H209.006C209.69 78.8118 210.25 78.9354 210.685 79.1825C211.122 79.4268 211.446 79.7578 211.656 80.1754C211.866 80.593 211.972 81.0589 211.972 81.5732C211.972 82.0874 211.866 82.5547 211.656 82.9751C211.449 83.3956 211.128 83.7308 210.693 83.9808C210.259 84.228 209.702 84.3516 209.023 84.3516H206.909V83.4141H208.989C209.457 83.4141 209.834 83.3331 210.118 83.1712C210.402 83.0092 210.608 82.7905 210.736 82.5149C210.866 82.2365 210.932 81.9226 210.932 81.5732C210.932 81.2237 210.866 80.9112 210.736 80.6357C210.608 80.3601 210.401 80.1442 210.114 79.9879C209.827 79.8288 209.446 79.7493 208.972 79.7493H207.114V87.5391H206.057ZM215.464 87.6925C215.049 87.6925 214.673 87.6143 214.335 87.4581C213.996 87.299 213.728 87.0703 213.529 86.772C213.33 86.4709 213.231 86.1072 213.231 85.6811C213.231 85.3061 213.305 85.0021 213.452 84.7692C213.6 84.5334 213.798 84.3487 214.045 84.2152C214.292 84.0817 214.565 83.9822 214.863 83.9169C215.164 83.8487 215.467 83.7947 215.771 83.755C216.168 83.7038 216.491 83.6655 216.738 83.6399C216.988 83.6115 217.17 83.5646 217.283 83.4993C217.4 83.4339 217.458 83.3203 217.458 83.1584V83.1243C217.458 82.7038 217.343 82.3771 217.113 82.1442C216.886 81.9112 216.54 81.7947 216.077 81.7947C215.597 81.7947 215.221 81.8999 214.948 82.1101C214.675 82.3203 214.484 82.5447 214.373 82.7834L213.418 82.4425C213.589 82.0447 213.816 81.7351 214.1 81.5135C214.387 81.2891 214.7 81.1328 215.038 81.0447C215.379 80.9538 215.714 80.9084 216.043 80.9084C216.254 80.9084 216.495 80.9339 216.768 80.9851C217.043 81.0334 217.309 81.1342 217.565 81.2876C217.823 81.4411 218.038 81.6726 218.208 81.9822C218.379 82.2919 218.464 82.7067 218.464 83.2266V87.5391H217.458V86.6527H217.407C217.339 86.7947 217.225 86.9467 217.066 87.1087C216.907 87.2706 216.695 87.4084 216.431 87.522C216.167 87.6357 215.844 87.6925 215.464 87.6925ZM215.617 86.7891C216.015 86.7891 216.35 86.7109 216.623 86.5547C216.898 86.3984 217.106 86.1967 217.245 85.9496C217.387 85.7024 217.458 85.4425 217.458 85.1697V84.2493C217.415 84.3004 217.322 84.3473 217.177 84.3899C217.035 84.4297 216.87 84.4652 216.683 84.4964C216.498 84.5249 216.317 84.5504 216.141 84.5732C215.968 84.593 215.827 84.6101 215.719 84.6243C215.458 84.6584 215.214 84.7138 214.987 84.7905C214.762 84.8643 214.58 84.9766 214.441 85.1271C214.305 85.2749 214.237 85.4766 214.237 85.7322C214.237 86.0817 214.366 86.3459 214.624 86.5249C214.886 86.701 215.217 86.7891 215.617 86.7891ZM220.299 87.5391V80.9936H221.271V81.9822H221.339C221.458 81.6584 221.674 81.3956 221.987 81.1939C222.299 80.9922 222.652 80.8913 223.044 80.8913C223.118 80.8913 223.21 80.8928 223.321 80.8956C223.431 80.8984 223.515 80.9027 223.572 80.9084V81.9311C223.538 81.9226 223.46 81.9098 223.338 81.8928C223.218 81.8729 223.092 81.8629 222.958 81.8629C222.64 81.8629 222.356 81.9297 222.106 82.0632C221.859 82.1939 221.663 82.3757 221.518 82.6087C221.376 82.8388 221.305 83.1016 221.305 83.397V87.5391H220.299ZM227.309 87.6754C226.679 87.6754 226.135 87.5362 225.677 87.2578C225.223 86.9766 224.872 86.5845 224.625 86.0817C224.38 85.576 224.258 84.9879 224.258 84.3175C224.258 83.647 224.38 83.0561 224.625 82.5447C224.872 82.0305 225.216 81.63 225.656 81.343C226.099 81.0533 226.616 80.9084 227.207 80.9084C227.548 80.9084 227.885 80.9652 228.217 81.0788C228.549 81.1925 228.852 81.3771 229.125 81.6328C229.397 81.8857 229.615 82.2209 229.777 82.6385C229.939 83.0561 230.02 83.5703 230.02 84.1811V84.6072H224.974V83.7379H228.997C228.997 83.3686 228.923 83.0391 228.775 82.7493C228.63 82.4595 228.423 82.2308 228.153 82.0632C227.886 81.8956 227.571 81.8118 227.207 81.8118C226.806 81.8118 226.46 81.9112 226.167 82.1101C225.877 82.3061 225.654 82.5618 225.498 82.8771C225.342 83.1925 225.264 83.5305 225.264 83.8913V84.4709C225.264 84.9652 225.349 85.3842 225.52 85.728C225.693 86.0689 225.933 86.3288 226.24 86.5078C226.547 86.6839 226.903 86.772 227.309 86.772C227.574 86.772 227.812 86.7351 228.025 86.6612C228.241 86.5845 228.427 86.4709 228.583 86.3203C228.74 86.1669 228.86 85.9766 228.946 85.7493L229.917 86.022C229.815 86.3516 229.643 86.6413 229.402 86.8913C229.16 87.1385 228.862 87.3317 228.507 87.4709C228.152 87.6072 227.752 87.6754 227.309 87.6754ZM232.555 83.6016V87.5391H231.549V80.9936H232.521V82.0163H232.606C232.76 81.6839 232.993 81.4169 233.305 81.2152C233.618 81.0107 234.021 80.9084 234.515 80.9084C234.958 80.9084 235.346 80.9993 235.679 81.1811C236.011 81.3601 236.27 81.6328 236.454 81.9993C236.639 82.3629 236.731 82.8232 236.731 83.38V87.5391H235.725V83.4482C235.725 82.9339 235.592 82.5334 235.325 82.2464C235.058 81.9567 234.691 81.8118 234.225 81.8118C233.904 81.8118 233.618 81.8814 233.365 82.0206C233.115 82.1598 232.917 82.3629 232.772 82.63C232.627 82.897 232.555 83.2209 232.555 83.6016ZM241.415 80.9936V81.8459H238.023V80.9936H241.415ZM239.012 79.4254H240.018V85.6641C240.018 85.9482 240.059 86.1612 240.141 86.3033C240.227 86.4425 240.335 86.5362 240.465 86.5845C240.599 86.63 240.739 86.6527 240.887 86.6527C240.998 86.6527 241.089 86.647 241.16 86.6357C241.231 86.6214 241.288 86.6101 241.33 86.6016L241.535 87.505C241.467 87.5305 241.371 87.5561 241.249 87.5817C241.127 87.6101 240.972 87.6243 240.785 87.6243C240.501 87.6243 240.222 87.5632 239.95 87.4411C239.68 87.3189 239.455 87.1328 239.276 86.8828C239.1 86.6328 239.012 86.3175 239.012 85.9368V79.4254ZM242.928 87.5391V80.9936H243.934V87.5391H242.928ZM243.44 79.9027C243.244 79.9027 243.075 79.8359 242.933 79.7024C242.793 79.5689 242.724 79.4084 242.724 79.2209C242.724 79.0334 242.793 78.8729 242.933 78.7393C243.075 78.6058 243.244 78.5391 243.44 78.5391C243.636 78.5391 243.803 78.6058 243.942 78.7393C244.085 78.8729 244.156 79.0334 244.156 79.2209C244.156 79.4084 244.085 79.5689 243.942 79.7024C243.803 79.8359 243.636 79.9027 243.44 79.9027ZM246.782 83.6016V87.5391H245.776V80.9936H246.748V82.0163H246.833C246.986 81.6839 247.219 81.4169 247.532 81.2152C247.844 81.0107 248.248 80.9084 248.742 80.9084C249.185 80.9084 249.573 80.9993 249.905 81.1811C250.238 81.3601 250.496 81.6328 250.681 81.9993C250.865 82.3629 250.958 82.8232 250.958 83.38V87.5391H249.952V83.4482C249.952 82.9339 249.819 82.5334 249.551 82.2464C249.284 81.9567 248.918 81.8118 248.452 81.8118C248.131 81.8118 247.844 81.8814 247.591 82.0206C247.341 82.1598 247.144 82.3629 246.999 82.63C246.854 82.897 246.782 83.2209 246.782 83.6016ZM255.438 90.13C254.952 90.13 254.534 90.0675 254.185 89.9425C253.835 89.8203 253.544 89.6584 253.311 89.4567C253.081 89.2578 252.898 89.0447 252.761 88.8175L253.562 88.255C253.653 88.3743 253.768 88.5107 253.908 88.6641C254.047 88.8203 254.237 88.9553 254.479 89.0689C254.723 89.1854 255.043 89.2436 255.438 89.2436C255.966 89.2436 256.402 89.1158 256.746 88.8601C257.089 88.6044 257.261 88.2038 257.261 87.6584V86.3288H257.176C257.102 86.4482 256.997 86.5959 256.861 86.772C256.727 86.9453 256.534 87.1001 256.281 87.2365C256.031 87.37 255.693 87.4368 255.267 87.4368C254.739 87.4368 254.264 87.3118 253.844 87.0618C253.426 86.8118 253.095 86.4482 252.851 85.9709C252.609 85.4936 252.489 84.9141 252.489 84.2322C252.489 83.5618 252.607 82.978 252.842 82.4808C253.078 81.9808 253.406 81.5945 253.827 81.3217C254.247 81.0462 254.733 80.9084 255.284 80.9084C255.71 80.9084 256.048 80.9794 256.298 81.1214C256.551 81.2607 256.744 81.4197 256.878 81.5987C257.014 81.7749 257.119 81.9197 257.193 82.0334H257.295V80.9936H258.267V87.7266C258.267 88.2891 258.139 88.7464 257.884 89.0987C257.631 89.4538 257.29 89.7138 256.861 89.8786C256.435 90.0462 255.96 90.13 255.438 90.13ZM255.403 86.5334C255.807 86.5334 256.148 86.4411 256.426 86.2564C256.705 86.0717 256.916 85.8061 257.061 85.4595C257.206 85.1129 257.278 84.6982 257.278 84.2152C257.278 83.7436 257.207 83.3274 257.065 82.9666C256.923 82.6058 256.713 82.3232 256.435 82.1186C256.156 81.9141 255.813 81.8118 255.403 81.8118C254.977 81.8118 254.622 81.9197 254.338 82.1357C254.057 82.3516 253.845 82.6413 253.703 83.005C253.564 83.3686 253.494 83.772 253.494 84.2152C253.494 84.6697 253.565 85.0717 253.707 85.4212C253.852 85.7678 254.065 86.0405 254.347 86.2393C254.631 86.4354 254.983 86.5334 255.403 86.5334ZM265.205 87.5391L262.818 78.8118H263.892L265.716 85.9197H265.801L267.659 78.8118H268.852L270.71 85.9197H270.795L272.619 78.8118H273.693L271.307 87.5391H270.216L268.29 80.5845H268.222L266.295 87.5391H265.205ZM276.923 87.6754C276.332 87.6754 275.814 87.5348 275.368 87.2536C274.925 86.9723 274.578 86.5788 274.328 86.0732C274.081 85.5675 273.957 84.9766 273.957 84.3004C273.957 83.6186 274.081 83.0234 274.328 82.5149C274.578 82.0064 274.925 81.6115 275.368 81.3303C275.814 81.049 276.332 80.9084 276.923 80.9084C277.514 80.9084 278.031 81.049 278.474 81.3303C278.92 81.6115 279.267 82.0064 279.514 82.5149C279.764 83.0234 279.889 83.6186 279.889 84.3004C279.889 84.9766 279.764 85.5675 279.514 86.0732C279.267 86.5788 278.92 86.9723 278.474 87.2536C278.031 87.5348 277.514 87.6754 276.923 87.6754ZM276.923 86.772C277.372 86.772 277.741 86.657 278.031 86.4268C278.321 86.1967 278.536 85.8942 278.675 85.5192C278.814 85.1442 278.884 84.7379 278.884 84.3004C278.884 83.8629 278.814 83.4553 278.675 83.0774C278.536 82.6996 278.321 82.3942 278.031 82.1612C277.741 81.9283 277.372 81.8118 276.923 81.8118C276.474 81.8118 276.105 81.9283 275.815 82.1612C275.526 82.3942 275.311 82.6996 275.172 83.0774C275.033 83.4553 274.963 83.8629 274.963 84.3004C274.963 84.7379 275.033 85.1442 275.172 85.5192C275.311 85.8942 275.526 86.1967 275.815 86.4268C276.105 86.657 276.474 86.772 276.923 86.772ZM281.424 87.5391V80.9936H282.396V81.9822H282.464C282.583 81.6584 282.799 81.3956 283.112 81.1939C283.424 80.9922 283.777 80.8913 284.169 80.8913C284.243 80.8913 284.335 80.8928 284.446 80.8956C284.556 80.8984 284.64 80.9027 284.697 80.9084V81.9311C284.663 81.9226 284.585 81.9098 284.463 81.8928C284.343 81.8729 284.217 81.8629 284.083 81.8629C283.765 81.8629 283.481 81.9297 283.231 82.0632C282.984 82.1939 282.788 82.3757 282.643 82.6087C282.501 82.8388 282.43 83.1016 282.43 83.397V87.5391H281.424ZM286.827 85.1527L286.81 83.9084H287.014L289.878 80.9936H291.122L288.071 84.0788H287.986L286.827 85.1527ZM285.889 87.5391V78.8118H286.895V87.5391H285.889ZM290.048 87.5391L287.491 84.3004L288.207 83.6016L291.327 87.5391H290.048ZM297.053 82.4595L296.15 82.7152C296.093 82.5646 296.009 82.4183 295.898 82.2763C295.79 82.1314 295.642 82.0121 295.455 81.9183C295.267 81.8246 295.027 81.7777 294.735 81.7777C294.334 81.7777 294 81.87 293.733 82.0547C293.469 82.2365 293.337 82.468 293.337 82.7493C293.337 82.9993 293.428 83.1967 293.61 83.3416C293.792 83.4865 294.076 83.6072 294.462 83.7038L295.434 83.9425C296.019 84.0845 296.455 84.3018 296.742 84.5945C297.029 84.8842 297.172 85.2578 297.172 85.7152C297.172 86.0902 297.064 86.4254 296.848 86.7209C296.635 87.0163 296.337 87.2493 295.953 87.4197C295.57 87.5902 295.124 87.6754 294.615 87.6754C293.948 87.6754 293.395 87.5305 292.958 87.2408C292.52 86.951 292.243 86.5277 292.127 85.9709L293.081 85.7322C293.172 86.0845 293.344 86.3487 293.597 86.5249C293.853 86.701 294.186 86.7891 294.598 86.7891C295.067 86.7891 295.439 86.6896 295.715 86.4908C295.993 86.2891 296.132 86.0476 296.132 85.7663C296.132 85.5391 296.053 85.3487 295.894 85.1953C295.735 85.0391 295.49 84.9226 295.161 84.8459L294.07 84.5902C293.471 84.4482 293.03 84.228 292.749 83.9297C292.471 83.6286 292.331 83.2521 292.331 82.8004C292.331 82.4311 292.435 82.1044 292.642 81.8203C292.853 81.5362 293.138 81.3132 293.499 81.1513C293.863 80.9893 294.275 80.9084 294.735 80.9084C295.382 80.9084 295.891 81.0504 296.26 81.3345C296.632 81.6186 296.897 81.9936 297.053 82.4595ZM299.692 83.6016V87.5391H298.686V78.8118H299.692V82.0163H299.777C299.93 81.6783 300.161 81.4098 300.467 81.2109C300.777 81.0092 301.189 80.9084 301.703 80.9084C302.149 80.9084 302.54 80.9979 302.875 81.1768C303.21 81.353 303.47 81.6243 303.655 81.9908C303.842 82.3544 303.936 82.8175 303.936 83.38V87.5391H302.93V83.4482C302.93 82.9283 302.795 82.5263 302.526 82.2422C302.259 81.9553 301.888 81.8118 301.413 81.8118C301.084 81.8118 300.788 81.8814 300.527 82.0206C300.268 82.1598 300.064 82.3629 299.913 82.63C299.766 82.897 299.692 83.2209 299.692 83.6016ZM308.435 87.6754C307.844 87.6754 307.326 87.5348 306.88 87.2536C306.436 86.9723 306.09 86.5788 305.84 86.0732C305.593 85.5675 305.469 84.9766 305.469 84.3004C305.469 83.6186 305.593 83.0234 305.84 82.5149C306.09 82.0064 306.436 81.6115 306.88 81.3303C307.326 81.049 307.844 80.9084 308.435 80.9084C309.026 80.9084 309.543 81.049 309.986 81.3303C310.432 81.6115 310.779 82.0064 311.026 82.5149C311.276 83.0234 311.401 83.6186 311.401 84.3004C311.401 84.9766 311.276 85.5675 311.026 86.0732C310.779 86.5788 310.432 86.9723 309.986 87.2536C309.543 87.5348 309.026 87.6754 308.435 87.6754ZM308.435 86.772C308.884 86.772 309.253 86.657 309.543 86.4268C309.833 86.1967 310.047 85.8942 310.186 85.5192C310.326 85.1442 310.395 84.7379 310.395 84.3004C310.395 83.8629 310.326 83.4553 310.186 83.0774C310.047 82.6996 309.833 82.3942 309.543 82.1612C309.253 81.9283 308.884 81.8118 308.435 81.8118C307.986 81.8118 307.617 81.9283 307.327 82.1612C307.037 82.3942 306.823 82.6996 306.684 83.0774C306.544 83.4553 306.475 83.8629 306.475 84.3004C306.475 84.7379 306.544 85.1442 306.684 85.5192C306.823 85.8942 307.037 86.1967 307.327 86.4268C307.617 86.657 307.986 86.772 308.435 86.772ZM312.936 89.9936V80.9936H313.908V82.0334H314.027C314.101 81.9197 314.203 81.7749 314.334 81.5987C314.467 81.4197 314.658 81.2607 314.905 81.1214C315.155 80.9794 315.493 80.9084 315.919 80.9084C316.47 80.9084 316.956 81.0462 317.376 81.3217C317.797 81.5973 318.125 81.9879 318.361 82.4936C318.597 82.9993 318.714 83.5959 318.714 84.2834C318.714 84.9766 318.597 85.5774 318.361 86.0859C318.125 86.5916 317.798 86.9837 317.381 87.2621C316.963 87.5376 316.482 87.6754 315.936 87.6754C315.516 87.6754 315.179 87.6058 314.926 87.4666C314.673 87.3246 314.479 87.1641 314.342 86.9851C314.206 86.8033 314.101 86.6527 314.027 86.5334H313.942V89.9936H312.936ZM313.925 84.2663C313.925 84.7607 313.997 85.1967 314.142 85.5746C314.287 85.9496 314.499 86.2436 314.777 86.4567C315.055 86.6669 315.396 86.772 315.8 86.772C316.22 86.772 316.571 86.6612 316.852 86.4396C317.136 86.2152 317.349 85.9141 317.491 85.5362C317.636 85.1555 317.709 84.7322 317.709 84.2663C317.709 83.8061 317.638 83.3913 317.496 83.022C317.357 82.6499 317.145 82.3558 316.861 82.1399C316.58 81.9212 316.226 81.8118 315.8 81.8118C315.391 81.8118 315.047 81.9155 314.768 82.1229C314.49 82.3274 314.28 82.6143 314.138 82.9837C313.996 83.3501 313.925 83.7777 313.925 84.2663ZM324.885 82.4595L323.982 82.7152C323.925 82.5646 323.841 82.4183 323.73 82.2763C323.622 82.1314 323.474 82.0121 323.287 81.9183C323.099 81.8246 322.859 81.7777 322.567 81.7777C322.166 81.7777 321.832 81.87 321.565 82.0547C321.301 82.2365 321.169 82.468 321.169 82.7493C321.169 82.9993 321.26 83.1967 321.442 83.3416C321.624 83.4865 321.908 83.6072 322.294 83.7038L323.266 83.9425C323.851 84.0845 324.287 84.3018 324.574 84.5945C324.861 84.8842 325.004 85.2578 325.004 85.7152C325.004 86.0902 324.896 86.4254 324.68 86.7209C324.467 87.0163 324.169 87.2493 323.786 87.4197C323.402 87.5902 322.956 87.6754 322.447 87.6754C321.78 87.6754 321.227 87.5305 320.79 87.2408C320.352 86.951 320.075 86.5277 319.959 85.9709L320.913 85.7322C321.004 86.0845 321.176 86.3487 321.429 86.5249C321.685 86.701 322.018 86.7891 322.43 86.7891C322.899 86.7891 323.271 86.6896 323.547 86.4908C323.825 86.2891 323.964 86.0476 323.964 85.7663C323.964 85.5391 323.885 85.3487 323.726 85.1953C323.567 85.0391 323.322 84.9226 322.993 84.8459L321.902 84.5902C321.303 84.4482 320.862 84.228 320.581 83.9297C320.303 83.6286 320.163 83.2521 320.163 82.8004C320.163 82.4311 320.267 82.1044 320.474 81.8203C320.685 81.5362 320.97 81.3132 321.331 81.1513C321.695 80.9893 322.107 80.9084 322.567 80.9084C323.214 80.9084 323.723 81.0504 324.092 81.3345C324.464 81.6186 324.729 81.9936 324.885 82.4595Z" fill="black" fill-opacity="0.7"/>
</svg>
