<svg width="350" height="139" viewBox="0 0 350 139" fill="none" xmlns="http://www.w3.org/2000/svg">
<rect width="350" height="139" rx="12" fill="#FEF2F3"/>
<path d="M13.9815 24H12.294L15.3665 15.2727H17.3182L20.3949 24H18.7074L16.3764 17.0625H16.3082L13.9815 24ZM14.0369 20.5781H18.6392V21.848H14.0369V20.5781ZM23.706 24.1151C23.1918 24.1151 22.7315 23.983 22.3253 23.7188C21.919 23.4545 21.598 23.071 21.3622 22.5682C21.1264 22.0653 21.0085 21.4545 21.0085 20.7358C21.0085 20.0085 21.1278 19.3949 21.3665 18.8949C21.608 18.392 21.9332 18.0128 22.3423 17.7571C22.7514 17.4986 23.2074 17.3693 23.7102 17.3693C24.0938 17.3693 24.4091 17.4347 24.6562 17.5653C24.9034 17.6932 25.0994 17.848 25.2443 18.0298C25.3892 18.2088 25.5014 18.3778 25.581 18.5369H25.6449V15.2727H27.1918V24H25.6747V22.9688H25.581C25.5014 23.1278 25.3864 23.2969 25.2358 23.4759C25.0852 23.652 24.8864 23.8026 24.6392 23.9276C24.392 24.0526 24.081 24.1151 23.706 24.1151ZM24.1364 22.8494C24.4631 22.8494 24.7415 22.7614 24.9716 22.5852C25.2017 22.4062 25.3764 22.1577 25.4957 21.8395C25.6151 21.5213 25.6747 21.1506 25.6747 20.7273C25.6747 20.304 25.6151 19.9361 25.4957 19.6236C25.3793 19.3111 25.206 19.0682 24.9759 18.8949C24.7486 18.7216 24.4688 18.6349 24.1364 18.6349C23.7926 18.6349 23.5057 18.7244 23.2756 18.9034C23.0455 19.0824 22.8722 19.3295 22.7557 19.6449C22.6392 19.9602 22.581 20.321 22.581 20.7273C22.581 21.1364 22.6392 21.5014 22.7557 21.8224C22.875 22.1406 23.0497 22.392 23.2798 22.5767C23.5128 22.7585 23.7983 22.8494 24.1364 22.8494ZM33.0075 21.2472V17.4545H34.5501V24H33.0543V22.8366H32.9862C32.8384 23.2031 32.5955 23.5028 32.2575 23.7358C31.9222 23.9687 31.5089 24.0852 31.0174 24.0852C30.5884 24.0852 30.2092 23.9901 29.8796 23.7997C29.5529 23.6065 29.2972 23.3267 29.1126 22.9602C28.9279 22.5909 28.8356 22.1449 28.8356 21.6222V17.4545H30.3782V21.3835C30.3782 21.7983 30.4918 22.1278 30.7191 22.3722C30.9464 22.6165 31.2447 22.7386 31.614 22.7386C31.8413 22.7386 32.0614 22.6832 32.2745 22.5724C32.4876 22.4616 32.6623 22.2969 32.7987 22.0781C32.9379 21.8565 33.0075 21.5795 33.0075 21.2472ZM37.679 15.2727V24H36.1364V15.2727H37.679ZM42.5337 17.4545V18.6477H38.771V17.4545H42.5337ZM39.6999 15.8864H41.2425V22.0312C41.2425 22.2386 41.2738 22.3977 41.3363 22.5085C41.4016 22.6165 41.4869 22.6903 41.592 22.7301C41.6971 22.7699 41.8136 22.7898 41.9414 22.7898C42.038 22.7898 42.1261 22.7827 42.2056 22.7685C42.288 22.7543 42.3505 22.7415 42.3931 22.7301L42.6531 23.9361C42.5707 23.9645 42.4528 23.9957 42.2994 24.0298C42.1488 24.0639 41.9641 24.0838 41.7454 24.0895C41.359 24.1009 41.011 24.0426 40.7013 23.9148C40.3917 23.7841 40.146 23.5824 39.9641 23.3097C39.7852 23.0369 39.6971 22.696 39.6999 22.2869V15.8864ZM47.5803 19.7301V21H43.6513V19.7301H47.5803ZM56.7411 18.2173H55.1474C55.1019 17.956 55.0181 17.7244 54.896 17.5227C54.7738 17.3182 54.6218 17.1449 54.44 17.0028C54.2582 16.8608 54.0508 16.7543 53.8178 16.6832C53.5877 16.6094 53.3391 16.5724 53.0721 16.5724C52.5977 16.5724 52.1772 16.6918 51.8107 16.9304C51.4442 17.1662 51.1573 17.5128 50.9499 17.9702C50.7425 18.4247 50.6388 18.9801 50.6388 19.6364C50.6388 20.304 50.7425 20.8665 50.9499 21.3239C51.1602 21.7784 51.4471 22.1222 51.8107 22.3551C52.1772 22.5852 52.5962 22.7003 53.0678 22.7003C53.3292 22.7003 53.5735 22.6662 53.8008 22.598C54.0309 22.527 54.2369 22.4233 54.4187 22.2869C54.6033 22.1506 54.7582 21.983 54.8832 21.7841C55.011 21.5852 55.0991 21.358 55.1474 21.1023L56.7411 21.1108C56.6815 21.5256 56.5522 21.9148 56.3533 22.2784C56.1573 22.642 55.9002 22.9631 55.582 23.2415C55.2638 23.517 54.8917 23.733 54.4656 23.8892C54.0394 24.0426 53.5664 24.1193 53.0465 24.1193C52.2795 24.1193 51.5948 23.9418 50.9925 23.5866C50.3903 23.2315 49.9158 22.7188 49.5692 22.0483C49.2227 21.3778 49.0494 20.5739 49.0494 19.6364C49.0494 18.696 49.2241 17.892 49.5735 17.2244C49.9229 16.554 50.3988 16.0412 51.0011 15.6861C51.6033 15.331 52.2852 15.1534 53.0465 15.1534C53.5323 15.1534 53.984 15.2216 54.4016 15.358C54.8192 15.4943 55.1914 15.6946 55.5181 15.9588C55.8448 16.2202 56.1133 16.5412 56.3235 16.9219C56.5366 17.2997 56.6758 17.7315 56.7411 18.2173ZM59.6634 20.1648V24H58.1207V15.2727H59.6293V18.5668H59.706C59.8594 18.1974 60.0966 17.9062 60.4176 17.6932C60.7415 17.4773 61.1534 17.3693 61.6534 17.3693C62.108 17.3693 62.5043 17.4645 62.8423 17.6548C63.1804 17.8452 63.4418 18.1236 63.6264 18.4901C63.8139 18.8565 63.9077 19.304 63.9077 19.8324V24H62.3651V20.071C62.3651 19.6307 62.2514 19.2884 62.0241 19.044C61.7997 18.7969 61.4844 18.6733 61.0781 18.6733C60.8054 18.6733 60.5611 18.733 60.3452 18.8523C60.1321 18.9687 59.9645 19.1378 59.8423 19.3594C59.723 19.581 59.6634 19.8494 59.6634 20.1648ZM65.4801 24V17.4545H67.0227V24H65.4801ZM66.2557 16.5256C66.0114 16.5256 65.8011 16.4446 65.625 16.2827C65.4489 16.1179 65.3608 15.9205 65.3608 15.6903C65.3608 15.4574 65.4489 15.2599 65.625 15.098C65.8011 14.9332 66.0114 14.8509 66.2557 14.8509C66.5028 14.8509 66.7131 14.9332 66.8864 15.098C67.0625 15.2599 67.1506 15.4574 67.1506 15.6903C67.1506 15.9205 67.0625 16.1179 66.8864 16.2827C66.7131 16.4446 66.5028 16.5256 66.2557 16.5256ZM70.1516 15.2727V24H68.609V15.2727H70.1516ZM74.1669 24.1151C73.6527 24.1151 73.1925 23.983 72.7862 23.7188C72.38 23.4545 72.0589 23.071 71.8232 22.5682C71.5874 22.0653 71.4695 21.4545 71.4695 20.7358C71.4695 20.0085 71.5888 19.3949 71.8274 18.8949C72.0689 18.392 72.3942 18.0128 72.8033 17.7571C73.2124 17.4986 73.6683 17.3693 74.1712 17.3693C74.5547 17.3693 74.87 17.4347 75.1172 17.5653C75.3643 17.6932 75.5604 17.848 75.7053 18.0298C75.8501 18.2088 75.9624 18.3778 76.0419 18.5369H76.1058V15.2727H77.6527V24H76.1357V22.9688H76.0419C75.9624 23.1278 75.8473 23.2969 75.6967 23.4759C75.5462 23.652 75.3473 23.8026 75.1001 23.9276C74.853 24.0526 74.5419 24.1151 74.1669 24.1151ZM74.5973 22.8494C74.924 22.8494 75.2024 22.7614 75.4325 22.5852C75.6626 22.4062 75.8374 22.1577 75.9567 21.8395C76.076 21.5213 76.1357 21.1506 76.1357 20.7273C76.1357 20.304 76.076 19.9361 75.9567 19.6236C75.8402 19.3111 75.6669 19.0682 75.4368 18.8949C75.2095 18.7216 74.9297 18.6349 74.5973 18.6349C74.2536 18.6349 73.9666 18.7244 73.7365 18.9034C73.5064 19.0824 73.3331 19.3295 73.2166 19.6449C73.1001 19.9602 73.0419 20.321 73.0419 20.7273C73.0419 21.1364 73.1001 21.5014 73.2166 21.8224C73.3359 22.1406 73.5107 22.392 73.7408 22.5767C73.9737 22.7585 74.2592 22.8494 74.5973 22.8494ZM82.3413 24V15.2727H85.614C86.2844 15.2727 86.8469 15.3892 87.3015 15.6222C87.7589 15.8551 88.104 16.1818 88.337 16.6023C88.5728 17.0199 88.6907 17.5071 88.6907 18.0639C88.6907 18.6236 88.5714 19.1094 88.3327 19.5213C88.0969 19.9304 87.7489 20.2472 87.2887 20.4716C86.8285 20.6932 86.2631 20.804 85.5927 20.804H83.2617V19.4915H85.3796C85.7717 19.4915 86.0927 19.4375 86.3427 19.3295C86.5927 19.2187 86.7773 19.0582 86.8967 18.848C87.0188 18.6349 87.0799 18.3736 87.0799 18.0639C87.0799 17.7543 87.0188 17.4901 86.8967 17.2713C86.7745 17.0497 86.5884 16.8821 86.3384 16.7685C86.0884 16.652 85.766 16.5938 85.3711 16.5938H83.9222V24H82.3413ZM86.8498 20.0455L89.0103 24H87.2461L85.1239 20.0455H86.8498ZM91.9613 24.1321C91.5465 24.1321 91.1729 24.0582 90.8406 23.9105C90.511 23.7599 90.2496 23.5384 90.0565 23.2457C89.8661 22.9531 89.771 22.5923 89.771 22.1634C89.771 21.794 89.8391 21.4886 89.9755 21.2472C90.1119 21.0057 90.2979 20.8125 90.5337 20.6676C90.7695 20.5227 91.0352 20.4134 91.3306 20.3395C91.6289 20.2628 91.9371 20.2074 92.2553 20.1733C92.6388 20.1335 92.9499 20.098 93.1886 20.0668C93.4272 20.0327 93.6005 19.9815 93.7085 19.9134C93.8192 19.8423 93.8746 19.733 93.8746 19.5852V19.5597C93.8746 19.2386 93.7795 18.9901 93.5891 18.8139C93.3988 18.6378 93.1246 18.5497 92.7667 18.5497C92.3888 18.5497 92.0891 18.6321 91.8675 18.7969C91.6488 18.9616 91.5011 19.1562 91.4244 19.3807L89.984 19.1761C90.0977 18.7784 90.2852 18.446 90.5465 18.179C90.8079 17.9091 91.1275 17.7074 91.5053 17.5739C91.8832 17.4375 92.3008 17.3693 92.7582 17.3693C93.0735 17.3693 93.3874 17.4062 93.6999 17.4801C94.0124 17.554 94.2979 17.6761 94.5565 17.8466C94.815 18.0142 95.0224 18.2429 95.1786 18.5327C95.3377 18.8224 95.4173 19.1847 95.4173 19.6193V24H93.9343V23.1009H93.8832C93.7894 23.2827 93.6573 23.4531 93.4869 23.6122C93.3192 23.7685 93.1076 23.8949 92.8519 23.9915C92.5991 24.0852 92.3022 24.1321 91.9613 24.1321ZM92.3619 22.9986C92.6715 22.9986 92.94 22.9375 93.1673 22.8153C93.3945 22.6903 93.5692 22.5256 93.6914 22.321C93.8164 22.1165 93.8789 21.8935 93.8789 21.652V20.8807C93.8306 20.9205 93.7482 20.9574 93.6317 20.9915C93.5181 21.0256 93.3903 21.0554 93.2482 21.081C93.1062 21.1065 92.9656 21.1293 92.8263 21.1491C92.6871 21.169 92.5664 21.1861 92.4641 21.2003C92.234 21.2315 92.0281 21.2827 91.8462 21.3537C91.6644 21.4247 91.521 21.5241 91.4158 21.652C91.3107 21.777 91.2582 21.9389 91.2582 22.1378C91.2582 22.4219 91.3619 22.6364 91.5692 22.7812C91.7766 22.9261 92.0408 22.9986 92.3619 22.9986ZM100.237 17.4545V18.6477H96.4741V17.4545H100.237ZM97.4031 15.8864H98.9457V22.0312C98.9457 22.2386 98.9769 22.3977 99.0394 22.5085C99.1048 22.6165 99.19 22.6903 99.2951 22.7301C99.4002 22.7699 99.5167 22.7898 99.6445 22.7898C99.7411 22.7898 99.8292 22.7827 99.9087 22.7685C99.9911 22.7543 100.054 22.7415 100.096 22.7301L100.356 23.9361C100.274 23.9645 100.156 23.9957 100.002 24.0298C99.8519 24.0639 99.6673 24.0838 99.4485 24.0895C99.0621 24.1009 98.7141 24.0426 98.4045 23.9148C98.0948 23.7841 97.8491 23.5824 97.6673 23.3097C97.4883 23.0369 97.4002 22.696 97.4031 22.2869V15.8864ZM101.527 24V17.4545H103.07V24H101.527ZM102.303 16.5256C102.058 16.5256 101.848 16.4446 101.672 16.2827C101.496 16.1179 101.408 15.9205 101.408 15.6903C101.408 15.4574 101.496 15.2599 101.672 15.098C101.848 14.9332 102.058 14.8509 102.303 14.8509C102.55 14.8509 102.76 14.9332 102.933 15.098C103.109 15.2599 103.197 15.4574 103.197 15.6903C103.197 15.9205 103.109 16.1179 102.933 16.2827C102.76 16.4446 102.55 16.5256 102.303 16.5256ZM107.511 24.1278C106.872 24.1278 106.318 23.9872 105.849 23.706C105.38 23.4247 105.017 23.0312 104.758 22.5256C104.502 22.0199 104.375 21.429 104.375 20.7528C104.375 20.0767 104.502 19.4844 104.758 18.9759C105.017 18.4673 105.38 18.0724 105.849 17.7912C106.318 17.5099 106.872 17.3693 107.511 17.3693C108.15 17.3693 108.704 17.5099 109.173 17.7912C109.642 18.0724 110.004 18.4673 110.26 18.9759C110.518 19.4844 110.647 20.0767 110.647 20.7528C110.647 21.429 110.518 22.0199 110.26 22.5256C110.004 23.0312 109.642 23.4247 109.173 23.706C108.704 23.9872 108.15 24.1278 107.511 24.1278ZM107.52 22.892C107.866 22.892 108.156 22.7969 108.389 22.6065C108.622 22.4134 108.795 22.1548 108.909 21.831C109.025 21.5071 109.083 21.1463 109.083 20.7486C109.083 20.348 109.025 19.9858 108.909 19.6619C108.795 19.3352 108.622 19.0753 108.389 18.8821C108.156 18.6889 107.866 18.5923 107.52 18.5923C107.164 18.5923 106.869 18.6889 106.633 18.8821C106.4 19.0753 106.225 19.3352 106.109 19.6619C105.995 19.9858 105.939 20.348 105.939 20.7486C105.939 21.1463 105.995 21.5071 106.109 21.831C106.225 22.1548 106.4 22.4134 106.633 22.6065C106.869 22.7969 107.164 22.892 107.52 22.892ZM115.924 19.7301V21H111.995V19.7301H115.924ZM124.056 15.2727V24H122.475V16.8111H122.424L120.382 18.1151V16.6662L122.551 15.2727H124.056ZM127.239 22.9517C126.98 22.9517 126.759 22.8608 126.574 22.679C126.39 22.4943 126.299 22.2727 126.301 22.0142C126.299 21.7585 126.39 21.5398 126.574 21.358C126.759 21.1761 126.98 21.0852 127.239 21.0852C127.489 21.0852 127.706 21.1761 127.891 21.358C128.078 21.5398 128.174 21.7585 128.176 22.0142C128.174 22.1875 128.128 22.3452 128.04 22.4872C127.955 22.6293 127.841 22.7429 127.699 22.8281C127.56 22.9105 127.407 22.9517 127.239 22.9517ZM127.239 18.6264C126.98 18.6264 126.759 18.5355 126.574 18.3537C126.39 18.169 126.299 17.9474 126.301 17.6889C126.299 17.4332 126.39 17.2145 126.574 17.0327C126.759 16.848 126.98 16.7557 127.239 16.7557C127.489 16.7557 127.706 16.848 127.891 17.0327C128.078 17.2145 128.174 17.4332 128.176 17.6889C128.174 17.8594 128.128 18.0156 128.04 18.1577C127.955 18.2997 127.841 18.4134 127.699 18.4986C127.56 18.5838 127.407 18.6264 127.239 18.6264ZM132.854 24.1193C132.221 24.1193 131.658 24.0128 131.167 23.7997C130.678 23.5866 130.295 23.2955 130.016 22.9261C129.741 22.554 129.604 22.1321 129.607 21.6605C129.604 21.294 129.684 20.9574 129.846 20.6506C130.008 20.3438 130.227 20.0881 130.502 19.8835C130.781 19.6761 131.09 19.544 131.431 19.4872V19.4276C130.982 19.3281 130.619 19.0994 130.34 18.7415C130.065 18.3807 129.928 17.9645 129.931 17.4929C129.928 17.044 130.053 16.6435 130.306 16.2912C130.559 15.9389 130.906 15.6619 131.346 15.4602C131.786 15.2557 132.289 15.1534 132.854 15.1534C133.414 15.1534 133.913 15.2557 134.35 15.4602C134.79 15.6619 135.137 15.9389 135.39 16.2912C135.646 16.6435 135.773 17.044 135.773 17.4929C135.773 17.9645 135.633 18.3807 135.352 18.7415C135.073 19.0994 134.714 19.3281 134.273 19.4276V19.4872C134.614 19.544 134.921 19.6761 135.194 19.8835C135.469 20.0881 135.688 20.3438 135.85 20.6506C136.015 20.9574 136.097 21.294 136.097 21.6605C136.097 22.1321 135.958 22.554 135.68 22.9261C135.401 23.2955 135.018 23.5866 134.529 23.7997C134.043 24.0128 133.485 24.1193 132.854 24.1193ZM132.854 22.9006C133.181 22.9006 133.465 22.8452 133.707 22.7344C133.948 22.6207 134.136 22.4616 134.269 22.2571C134.403 22.0526 134.471 21.8168 134.474 21.5497C134.471 21.2713 134.398 21.0256 134.256 20.8125C134.117 20.5966 133.925 20.4276 133.681 20.3054C133.44 20.1832 133.164 20.1222 132.854 20.1222C132.542 20.1222 132.263 20.1832 132.019 20.3054C131.775 20.4276 131.582 20.5966 131.44 20.8125C131.3 21.0256 131.232 21.2713 131.235 21.5497C131.232 21.8168 131.298 22.0526 131.431 22.2571C131.565 22.4588 131.752 22.6165 131.994 22.7301C132.238 22.8437 132.525 22.9006 132.854 22.9006ZM132.854 18.9247C133.121 18.9247 133.357 18.8707 133.562 18.7628C133.769 18.6548 133.933 18.5043 134.052 18.3111C134.171 18.1179 134.232 17.8949 134.235 17.642C134.232 17.392 134.173 17.1733 134.056 16.9858C133.94 16.7955 133.778 16.6491 133.57 16.5469C133.363 16.4418 133.124 16.3892 132.854 16.3892C132.579 16.3892 132.336 16.4418 132.126 16.5469C131.918 16.6491 131.756 16.7955 131.64 16.9858C131.526 17.1733 131.471 17.392 131.474 17.642C131.471 17.8949 131.528 18.1179 131.644 18.3111C131.763 18.5014 131.927 18.652 132.134 18.7628C132.344 18.8707 132.585 18.9247 132.854 18.9247Z" fill="black"/>
<g style="mix-blend-mode:multiply">
<path d="M15.1406 46.4288V61.0002M21.1406 61.0002V46.4288M15.1406 59.2859H21.1406M15.1406 56.7145H21.1406M15.1406 54.143H21.1406M15.1406 51.5716H21.1406M21.1406 48.143H33.9977M24.5692 48.143V52.4288M24.5692 52.4288C25.2792 52.4288 25.8549 53.0044 25.8549 53.7145C25.8549 54.4246 25.2792 55.0002 24.5692 55.0002C23.8591 55.0002 23.2835 54.4246 23.2835 53.7145C23.2835 53.0044 23.8591 52.4288 24.5692 52.4288ZM29.712 48.143V50.7145M29.712 50.7145C30.4221 50.7145 30.9977 51.2901 30.9977 52.0002C30.9977 52.7103 30.4221 53.2859 29.712 53.2859C29.0019 53.2859 28.4263 52.7103 28.4263 52.0002C28.4263 51.2901 29.0019 50.7145 29.712 50.7145ZM33.1406 48.143V61.0002M21.9035 45.7328C22.0061 45.8614 22.0261 46.0374 21.9549 46.1857C21.8836 46.3341 21.7337 46.4285 21.5692 46.4288H14.712C14.5473 46.4289 14.3971 46.3345 14.3256 46.1861C14.2542 46.0377 14.2741 45.8615 14.3769 45.7328L17.8055 41.447C17.8868 41.3453 18.0099 41.2861 18.1402 41.2861C18.2704 41.2861 18.3936 41.3453 18.4749 41.447L21.9035 45.7328Z" stroke="#E3CD09" stroke-width="1.14286" stroke-linecap="round" stroke-linejoin="round"/>
</g>
<path d="M45.0568 55.5V46.7727H50.3239V47.7102H46.1136V50.6591H50.0511V51.5966H46.1136V54.5625H50.392V55.5H45.0568ZM53.098 51.5625V55.5H52.0923V48.9545H53.0639V49.9773H53.1491C53.3026 49.6449 53.5355 49.3778 53.848 49.1761C54.1605 48.9716 54.5639 48.8693 55.0582 48.8693C55.5014 48.8693 55.8892 48.9602 56.2216 49.142C56.554 49.321 56.8125 49.5938 56.9972 49.9602C57.1818 50.3239 57.2741 50.7841 57.2741 51.3409V55.5H56.2685V51.4091C56.2685 50.8949 56.1349 50.4943 55.8679 50.2074C55.6009 49.9176 55.2344 49.7727 54.7685 49.7727C54.4474 49.7727 54.1605 49.8423 53.9077 49.9815C53.6577 50.1207 53.4602 50.3239 53.3153 50.5909C53.1705 50.858 53.098 51.1818 53.098 51.5625ZM59.1119 48.9545H60.1175V55.9773C60.1175 56.3807 60.0479 56.7301 59.9087 57.0256C59.7724 57.321 59.565 57.5497 59.2866 57.7116C59.011 57.8736 58.663 57.9545 58.2425 57.9545C58.2085 57.9545 58.1744 57.9545 58.1403 57.9545C58.1062 57.9545 58.0721 57.9545 58.038 57.9545V57.017C58.0721 57.017 58.1033 57.017 58.1317 57.017C58.1602 57.017 58.1914 57.017 58.2255 57.017C58.5323 57.017 58.7567 56.9261 58.8988 56.7443C59.0408 56.5653 59.1119 56.3097 59.1119 55.9773V48.9545ZM59.6062 47.8636C59.4102 47.8636 59.2411 47.7969 59.0991 47.6634C58.9599 47.5298 58.8903 47.3693 58.8903 47.1818C58.8903 46.9943 58.9599 46.8338 59.0991 46.7003C59.2411 46.5668 59.4102 46.5 59.6062 46.5C59.8022 46.5 59.9698 46.5668 60.109 46.7003C60.2511 46.8338 60.3221 46.9943 60.3221 47.1818C60.3221 47.3693 60.2511 47.5298 60.109 47.6634C59.9698 47.7969 59.8022 47.8636 59.6062 47.8636ZM64.6186 55.6364C64.0277 55.6364 63.5092 55.4957 63.0632 55.2145C62.62 54.9332 62.2734 54.5398 62.0234 54.0341C61.7763 53.5284 61.6527 52.9375 61.6527 52.2614C61.6527 51.5795 61.7763 50.9844 62.0234 50.4759C62.2734 49.9673 62.62 49.5724 63.0632 49.2912C63.5092 49.0099 64.0277 48.8693 64.6186 48.8693C65.2095 48.8693 65.7266 49.0099 66.1697 49.2912C66.6158 49.5724 66.9624 49.9673 67.2095 50.4759C67.4595 50.9844 67.5845 51.5795 67.5845 52.2614C67.5845 52.9375 67.4595 53.5284 67.2095 54.0341C66.9624 54.5398 66.6158 54.9332 66.1697 55.2145C65.7266 55.4957 65.2095 55.6364 64.6186 55.6364ZM64.6186 54.733C65.0675 54.733 65.4368 54.6179 65.7266 54.3878C66.0163 54.1577 66.2308 53.8551 66.37 53.4801C66.5092 53.1051 66.5788 52.6989 66.5788 52.2614C66.5788 51.8239 66.5092 51.4162 66.37 51.0384C66.2308 50.6605 66.0163 50.3551 65.7266 50.1222C65.4368 49.8892 65.0675 49.7727 64.6186 49.7727C64.1697 49.7727 63.8004 49.8892 63.5107 50.1222C63.2209 50.3551 63.0064 50.6605 62.8672 51.0384C62.728 51.4162 62.6584 51.8239 62.6584 52.2614C62.6584 52.6989 62.728 53.1051 62.8672 53.4801C63.0064 53.8551 63.2209 54.1577 63.5107 54.3878C63.8004 54.6179 64.1697 54.733 64.6186 54.733ZM69.533 57.9545C69.3626 57.9545 69.2106 57.9403 69.0771 57.9119C68.9435 57.8864 68.8512 57.8608 68.8001 57.8352L69.0558 56.9489C69.3001 57.0114 69.516 57.0341 69.7035 57.017C69.891 57 70.0572 56.9162 70.2021 56.7656C70.3498 56.6179 70.4847 56.3778 70.6069 56.0455L70.7944 55.5341L68.3739 48.9545H69.4648L71.2717 54.1705H71.3398L73.1467 48.9545H74.2376L71.4592 56.4545C71.3342 56.7926 71.1793 57.0724 70.9947 57.294C70.81 57.5185 70.5955 57.6847 70.3512 57.7926C70.1097 57.9006 69.837 57.9545 69.533 57.9545ZM86.44 51.1364C86.44 52.0568 86.2738 52.8523 85.9414 53.5227C85.609 54.1932 85.1531 54.7102 84.5735 55.0739C83.994 55.4375 83.332 55.6193 82.5877 55.6193C81.8434 55.6193 81.1815 55.4375 80.6019 55.0739C80.0224 54.7102 79.5664 54.1932 79.234 53.5227C78.9016 52.8523 78.7354 52.0568 78.7354 51.1364C78.7354 50.2159 78.9016 49.4205 79.234 48.75C79.5664 48.0795 80.0224 47.5625 80.6019 47.1989C81.1815 46.8352 81.8434 46.6534 82.5877 46.6534C83.332 46.6534 83.994 46.8352 84.5735 47.1989C85.1531 47.5625 85.609 48.0795 85.9414 48.75C86.2738 49.4205 86.44 50.2159 86.44 51.1364ZM85.4173 51.1364C85.4173 50.3807 85.2908 49.7429 85.038 49.223C84.788 48.7031 84.4485 48.3097 84.0195 48.0426C83.5934 47.7756 83.1161 47.642 82.5877 47.642C82.0593 47.642 81.5806 47.7756 81.1516 48.0426C80.7255 48.3097 80.386 48.7031 80.1332 49.223C79.8832 49.7429 79.7582 50.3807 79.7582 51.1364C79.7582 51.892 79.8832 52.5298 80.1332 53.0497C80.386 53.5696 80.7255 53.9631 81.1516 54.2301C81.5806 54.4972 82.0593 54.6307 82.5877 54.6307C83.1161 54.6307 83.5934 54.4972 84.0195 54.2301C84.4485 53.9631 84.788 53.5696 85.038 53.0497C85.2908 52.5298 85.4173 51.892 85.4173 51.1364ZM92.2056 52.8239V48.9545H93.2113V55.5H92.2056V54.392H92.1374C91.984 54.7244 91.7454 55.0071 91.4215 55.2401C91.0977 55.4702 90.6886 55.5852 90.1942 55.5852C89.7852 55.5852 89.4215 55.4957 89.1033 55.3168C88.7852 55.1349 88.5352 54.8622 88.3533 54.4986C88.1715 54.1321 88.0806 53.6705 88.0806 53.1136V48.9545H89.0863V53.0455C89.0863 53.5227 89.2198 53.9034 89.4869 54.1875C89.7567 54.4716 90.1005 54.6136 90.5181 54.6136C90.7681 54.6136 91.0224 54.5497 91.2809 54.4219C91.5423 54.294 91.761 54.098 91.9371 53.8338C92.1161 53.5696 92.2056 53.233 92.2056 52.8239ZM97.8999 48.9545V49.8068H94.5078V48.9545H97.8999ZM95.4964 47.3864H96.5021V53.625C96.5021 53.9091 96.5433 54.1222 96.6257 54.2642C96.7109 54.4034 96.8189 54.4972 96.9496 54.5455C97.0831 54.5909 97.2237 54.6136 97.3714 54.6136C97.4822 54.6136 97.5732 54.608 97.6442 54.5966C97.7152 54.5824 97.772 54.571 97.8146 54.5625L98.0192 55.4659C97.951 55.4915 97.8558 55.517 97.7337 55.5426C97.6115 55.571 97.4567 55.5852 97.2692 55.5852C96.9851 55.5852 96.7067 55.5241 96.4339 55.402C96.1641 55.2798 95.9396 55.0938 95.7607 54.8438C95.5845 54.5938 95.4964 54.2784 95.4964 53.8977V47.3864ZM103.932 50.4205L103.028 50.6761C102.972 50.5256 102.888 50.3793 102.777 50.2372C102.669 50.0923 102.521 49.973 102.334 49.8793C102.146 49.7855 101.906 49.7386 101.614 49.7386C101.213 49.7386 100.879 49.831 100.612 50.0156C100.348 50.1974 100.216 50.429 100.216 50.7102C100.216 50.9602 100.307 51.1577 100.489 51.3026C100.67 51.4474 100.955 51.5682 101.341 51.6648L102.312 51.9034C102.898 52.0455 103.334 52.2628 103.621 52.5554C103.908 52.8452 104.051 53.2187 104.051 53.6761C104.051 54.0511 103.943 54.3864 103.727 54.6818C103.514 54.9773 103.216 55.2102 102.832 55.3807C102.449 55.5511 102.003 55.6364 101.494 55.6364C100.827 55.6364 100.274 55.4915 99.8366 55.2017C99.3991 54.9119 99.1222 54.4886 99.0057 53.9318L99.9602 53.6932C100.051 54.0455 100.223 54.3097 100.476 54.4858C100.732 54.6619 101.065 54.75 101.477 54.75C101.946 54.75 102.318 54.6506 102.594 54.4517C102.872 54.25 103.011 54.0085 103.011 53.7273C103.011 53.5 102.932 53.3097 102.773 53.1562C102.614 53 102.369 52.8835 102.04 52.8068L100.949 52.5511C100.349 52.4091 99.9091 52.1889 99.6278 51.8906C99.3494 51.5895 99.2102 51.2131 99.2102 50.7614C99.2102 50.392 99.3139 50.0653 99.5213 49.7812C99.7315 49.4972 100.017 49.2741 100.378 49.1122C100.741 48.9503 101.153 48.8693 101.614 48.8693C102.261 48.8693 102.77 49.0114 103.139 49.2955C103.511 49.5795 103.776 49.9545 103.932 50.4205ZM105.565 55.5V48.9545H106.571V55.5H105.565ZM106.076 47.8636C105.88 47.8636 105.711 47.7969 105.569 47.6634C105.43 47.5298 105.36 47.3693 105.36 47.1818C105.36 46.9943 105.43 46.8338 105.569 46.7003C105.711 46.5668 105.88 46.5 106.076 46.5C106.272 46.5 106.44 46.5668 106.579 46.7003C106.721 46.8338 106.792 46.9943 106.792 47.1818C106.792 47.3693 106.721 47.5298 106.579 47.6634C106.44 47.7969 106.272 47.8636 106.076 47.8636ZM110.884 55.6364C110.339 55.6364 109.857 55.4986 109.44 55.223C109.022 54.9446 108.695 54.5526 108.46 54.0469C108.224 53.5384 108.106 52.9375 108.106 52.2443C108.106 51.5568 108.224 50.9602 108.46 50.4545C108.695 49.9489 109.023 49.5582 109.444 49.2827C109.864 49.0071 110.35 48.8693 110.901 48.8693C111.327 48.8693 111.664 48.9403 111.911 49.0824C112.161 49.2216 112.352 49.3807 112.482 49.5597C112.616 49.7358 112.719 49.8807 112.793 49.9943H112.879V46.7727H113.884V55.5H112.913V54.4943H112.793C112.719 54.6136 112.614 54.7642 112.478 54.946C112.342 55.125 112.147 55.2855 111.894 55.4276C111.641 55.5668 111.305 55.6364 110.884 55.6364ZM111.021 54.733C111.424 54.733 111.765 54.6278 112.043 54.4176C112.322 54.2045 112.533 53.9105 112.678 53.5355C112.823 53.1577 112.896 52.7216 112.896 52.2273C112.896 51.7386 112.825 51.3111 112.683 50.9446C112.54 50.5753 112.33 50.2884 112.052 50.0838C111.773 49.8764 111.43 49.7727 111.021 49.7727C110.594 49.7727 110.239 49.8821 109.955 50.1009C109.674 50.3168 109.462 50.6108 109.32 50.983C109.181 51.3523 109.112 51.767 109.112 52.2273C109.112 52.6932 109.183 53.1165 109.325 53.4972C109.469 53.875 109.683 54.1761 109.964 54.4006C110.248 54.6222 110.6 54.733 111.021 54.733ZM118.61 55.6364C117.979 55.6364 117.435 55.4972 116.978 55.2188C116.523 54.9375 116.173 54.5455 115.925 54.0426C115.681 53.5369 115.559 52.9489 115.559 52.2784C115.559 51.608 115.681 51.017 115.925 50.5057C116.173 49.9915 116.516 49.5909 116.957 49.304C117.4 49.0142 117.917 48.8693 118.508 48.8693C118.849 48.8693 119.185 48.9261 119.518 49.0398C119.85 49.1534 120.153 49.3381 120.425 49.5938C120.698 49.8466 120.915 50.1818 121.077 50.5994C121.239 51.017 121.32 51.5312 121.32 52.142V52.5682H116.275V51.6989H120.298C120.298 51.3295 120.224 51 120.076 50.7102C119.931 50.4205 119.724 50.1918 119.454 50.0241C119.187 49.8565 118.871 49.7727 118.508 49.7727C118.107 49.7727 117.761 49.8722 117.468 50.071C117.178 50.267 116.955 50.5227 116.799 50.8381C116.643 51.1534 116.565 51.4915 116.565 51.8523V52.4318C116.565 52.9261 116.65 53.3452 116.82 53.6889C116.994 54.0298 117.234 54.2898 117.54 54.4688C117.847 54.6449 118.204 54.733 118.61 54.733C118.874 54.733 119.113 54.696 119.326 54.6222C119.542 54.5455 119.728 54.4318 119.884 54.2812C120.04 54.1278 120.161 53.9375 120.246 53.7102L121.218 53.983C121.116 54.3125 120.944 54.6023 120.702 54.8523C120.461 55.0994 120.163 55.2926 119.808 55.4318C119.452 55.5682 119.053 55.6364 118.61 55.6364ZM127.947 55.5L125.56 46.7727H126.634L128.458 53.8807H128.543L130.401 46.7727H131.594L133.452 53.8807H133.538L135.362 46.7727H136.435L134.049 55.5H132.958L131.032 48.5455H130.964L129.038 55.5H127.947ZM139.665 55.6364C139.075 55.6364 138.556 55.4957 138.11 55.2145C137.667 54.9332 137.32 54.5398 137.07 54.0341C136.823 53.5284 136.7 52.9375 136.7 52.2614C136.7 51.5795 136.823 50.9844 137.07 50.4759C137.32 49.9673 137.667 49.5724 138.11 49.2912C138.556 49.0099 139.075 48.8693 139.665 48.8693C140.256 48.8693 140.773 49.0099 141.217 49.2912C141.663 49.5724 142.009 49.9673 142.256 50.4759C142.506 50.9844 142.631 51.5795 142.631 52.2614C142.631 52.9375 142.506 53.5284 142.256 54.0341C142.009 54.5398 141.663 54.9332 141.217 55.2145C140.773 55.4957 140.256 55.6364 139.665 55.6364ZM139.665 54.733C140.114 54.733 140.484 54.6179 140.773 54.3878C141.063 54.1577 141.278 53.8551 141.417 53.4801C141.556 53.1051 141.626 52.6989 141.626 52.2614C141.626 51.8239 141.556 51.4162 141.417 51.0384C141.278 50.6605 141.063 50.3551 140.773 50.1222C140.484 49.8892 140.114 49.7727 139.665 49.7727C139.217 49.7727 138.847 49.8892 138.558 50.1222C138.268 50.3551 138.053 50.6605 137.914 51.0384C137.775 51.4162 137.705 51.8239 137.705 52.2614C137.705 52.6989 137.775 53.1051 137.914 53.4801C138.053 53.8551 138.268 54.1577 138.558 54.3878C138.847 54.6179 139.217 54.733 139.665 54.733ZM144.167 55.5V48.9545H145.138V49.9432H145.206C145.326 49.6193 145.542 49.3565 145.854 49.1548C146.167 48.9531 146.519 48.8523 146.911 48.8523C146.985 48.8523 147.077 48.8537 147.188 48.8565C147.299 48.8594 147.382 48.8636 147.439 48.8693V49.892C147.405 49.8835 147.327 49.8707 147.205 49.8537C147.086 49.8338 146.959 49.8239 146.826 49.8239C146.507 49.8239 146.223 49.8906 145.973 50.0241C145.726 50.1548 145.53 50.3366 145.385 50.5696C145.243 50.7997 145.172 51.0625 145.172 51.358V55.5H144.167ZM149.637 46.7727V55.5H148.631V46.7727H149.637ZM153.951 55.6364C153.405 55.6364 152.924 55.4986 152.506 55.223C152.088 54.9446 151.762 54.5526 151.526 54.0469C151.29 53.5384 151.172 52.9375 151.172 52.2443C151.172 51.5568 151.29 50.9602 151.526 50.4545C151.762 49.9489 152.09 49.5582 152.51 49.2827C152.931 49.0071 153.417 48.8693 153.968 48.8693C154.394 48.8693 154.73 48.9403 154.978 49.0824C155.228 49.2216 155.418 49.3807 155.549 49.5597C155.682 49.7358 155.786 49.8807 155.86 49.9943H155.945V46.7727H156.951V55.5H155.979V54.4943H155.86C155.786 54.6136 155.681 54.7642 155.544 54.946C155.408 55.125 155.213 55.2855 154.961 55.4276C154.708 55.5668 154.371 55.6364 153.951 55.6364ZM154.087 54.733C154.49 54.733 154.831 54.6278 155.11 54.4176C155.388 54.2045 155.6 53.9105 155.745 53.5355C155.89 53.1577 155.962 52.7216 155.962 52.2273C155.962 51.7386 155.891 51.3111 155.749 50.9446C155.607 50.5753 155.397 50.2884 155.118 50.0838C154.84 49.8764 154.496 49.7727 154.087 49.7727C153.661 49.7727 153.306 49.8821 153.022 50.1009C152.74 50.3168 152.529 50.6108 152.387 50.983C152.248 51.3523 152.178 51.767 152.178 52.2273C152.178 52.6932 152.249 53.1165 152.391 53.4972C152.536 53.875 152.749 54.1761 153.03 54.4006C153.314 54.6222 153.667 54.733 154.087 54.733Z" fill="black" fill-opacity="0.7"/>
<g style="mix-blend-mode:multiply">
<path d="M16.4261 84.4281L15.5689 92.9996M31.6403 84.4281L32.4975 92.9996M19.4321 84.429V85.9907C19.4327 86.2627 19.6043 86.5049 19.8606 86.5958C21.6246 87.2258 22.7578 87.8747 22.6403 89.7433C22.6168 90.0983 22.8854 90.4052 23.2403 90.429H24.9975C25.3525 90.429 25.6403 90.1412 25.6403 89.7861C25.6403 89.7716 25.6403 89.7578 25.6403 89.7433C25.5195 87.8747 26.6552 87.2241 28.4201 86.5993C28.677 86.5087 28.8488 86.2658 28.8486 85.9933V84.429M24.1403 73.2861C20.6963 73.2861 19.3763 74.2967 19.0086 75.7256C18.4926 77.7321 19.8546 80.1433 19.8546 80.1433H28.4261C28.4261 80.1433 29.7469 77.7141 29.2935 75.7264C28.9575 74.2581 27.6546 73.2861 24.1403 73.2861ZM15.9975 80.1433H32.2832C33.23 80.1433 33.9975 80.9108 33.9975 81.8576V84.429H14.2832V81.8576C14.2832 80.9108 15.0507 80.1433 15.9975 80.1433Z" stroke="#DA5DA8" stroke-width="1.14286" stroke-linecap="round" stroke-linejoin="round"/>
</g>
<path d="M45.0568 87.5V78.7727H50.3239V79.7102H46.1136V82.6591H50.0511V83.5966H46.1136V86.5625H50.392V87.5H45.0568ZM54.0185 87.6534C53.6037 87.6534 53.2273 87.5753 52.8892 87.419C52.5511 87.2599 52.2827 87.0312 52.0838 86.733C51.8849 86.4318 51.7855 86.0682 51.7855 85.642C51.7855 85.267 51.8594 84.9631 52.0071 84.7301C52.1548 84.4943 52.3523 84.3097 52.5994 84.1761C52.8466 84.0426 53.1193 83.9432 53.4176 83.8778C53.7188 83.8097 54.0213 83.7557 54.3253 83.7159C54.723 83.6648 55.0455 83.6264 55.2926 83.6009C55.5426 83.5724 55.7244 83.5256 55.8381 83.4602C55.9545 83.3949 56.0128 83.2812 56.0128 83.1193V83.0852C56.0128 82.6648 55.8977 82.3381 55.6676 82.1051C55.4403 81.8722 55.0952 81.7557 54.6321 81.7557C54.152 81.7557 53.7756 81.8608 53.5028 82.071C53.2301 82.2812 53.0384 82.5057 52.9276 82.7443L51.973 82.4034C52.1435 82.0057 52.3707 81.696 52.6548 81.4744C52.9418 81.25 53.2543 81.0937 53.5923 81.0057C53.9332 80.9148 54.2685 80.8693 54.598 80.8693C54.8082 80.8693 55.0497 80.8949 55.3224 80.946C55.598 80.9943 55.8636 81.0952 56.1193 81.2486C56.3778 81.402 56.5923 81.6335 56.7628 81.9432C56.9332 82.2528 57.0185 82.6676 57.0185 83.1875V87.5H56.0128V86.6136H55.9616C55.8935 86.7557 55.7798 86.9077 55.6207 87.0696C55.4616 87.2315 55.25 87.3693 54.9858 87.483C54.7216 87.5966 54.3991 87.6534 54.0185 87.6534ZM54.1719 86.75C54.5696 86.75 54.9048 86.6719 55.1776 86.5156C55.4531 86.3594 55.6605 86.1577 55.7997 85.9105C55.9418 85.6634 56.0128 85.4034 56.0128 85.1307V84.2102C55.9702 84.2614 55.8764 84.3082 55.7315 84.3509C55.5895 84.3906 55.4247 84.4261 55.2372 84.4574C55.0526 84.4858 54.8722 84.5114 54.696 84.5341C54.5227 84.554 54.3821 84.571 54.2741 84.5852C54.0128 84.6193 53.7685 84.6747 53.5412 84.7514C53.3168 84.8253 53.1349 84.9375 52.9957 85.0881C52.8594 85.2358 52.7912 85.4375 52.7912 85.6932C52.7912 86.0426 52.9205 86.3068 53.179 86.4858C53.4403 86.6619 53.7713 86.75 54.1719 86.75ZM61.7006 80.9545V81.8068H58.3086V80.9545H61.7006ZM59.2972 79.3864H60.3029V85.625C60.3029 85.9091 60.3441 86.1222 60.4265 86.2642C60.5117 86.4034 60.6197 86.4972 60.7504 86.5455C60.8839 86.5909 61.0245 86.6136 61.1722 86.6136C61.283 86.6136 61.3739 86.608 61.445 86.5966C61.516 86.5824 61.5728 86.571 61.6154 86.5625L61.82 87.4659C61.7518 87.4915 61.6566 87.517 61.5344 87.5426C61.4123 87.571 61.2575 87.5852 61.07 87.5852C60.7859 87.5852 60.5075 87.5241 60.2347 87.402C59.9648 87.2798 59.7404 87.0938 59.5614 86.8438C59.3853 86.5938 59.2972 86.2784 59.2972 85.8977V79.3864ZM67.7816 78.7727V87.5H66.7248V78.7727H67.7816ZM70.7699 83.5625V87.5H69.7642V80.9545H70.7358V81.9773H70.821C70.9744 81.6449 71.2074 81.3778 71.5199 81.1761C71.8324 80.9716 72.2358 80.8693 72.7301 80.8693C73.1733 80.8693 73.5611 80.9602 73.8935 81.142C74.2259 81.321 74.4844 81.5938 74.669 81.9602C74.8537 82.3239 74.946 82.7841 74.946 83.3409V87.5H73.9403V83.4091C73.9403 82.8949 73.8068 82.4943 73.5398 82.2074C73.2727 81.9176 72.9063 81.7727 72.4403 81.7727C72.1193 81.7727 71.8324 81.8423 71.5795 81.9815C71.3295 82.1207 71.1321 82.3239 70.9872 82.5909C70.8423 82.858 70.7699 83.1818 70.7699 83.5625ZM79.2553 87.6364C78.7099 87.6364 78.2283 87.4986 77.8107 87.223C77.3931 86.9446 77.0664 86.5526 76.8306 86.0469C76.5948 85.5384 76.4769 84.9375 76.4769 84.2443C76.4769 83.5568 76.5948 82.9602 76.8306 82.4545C77.0664 81.9489 77.3945 81.5582 77.815 81.2827C78.2354 81.0071 78.7212 80.8693 79.2724 80.8693C79.6985 80.8693 80.0352 80.9403 80.2823 81.0824C80.5323 81.2216 80.7227 81.3807 80.8533 81.5597C80.9869 81.7358 81.0906 81.8807 81.1644 81.9943H81.2496V78.7727H82.2553V87.5H81.2837V86.4943H81.1644C81.0906 86.6136 80.9854 86.7642 80.8491 86.946C80.7127 87.125 80.5181 87.2855 80.2653 87.4276C80.0124 87.5668 79.6758 87.6364 79.2553 87.6364ZM79.3917 86.733C79.7951 86.733 80.136 86.6278 80.4144 86.4176C80.6928 86.2045 80.9045 85.9105 81.0494 85.5355C81.1942 85.1577 81.2667 84.7216 81.2667 84.2273C81.2667 83.7386 81.1957 83.3111 81.0536 82.9446C80.9116 82.5753 80.7013 82.2884 80.4229 82.0838C80.1445 81.8764 79.8008 81.7727 79.3917 81.7727C78.9656 81.7727 78.6104 81.8821 78.3263 82.1009C78.0451 82.3168 77.8335 82.6108 77.6914 82.983C77.5522 83.3523 77.4826 83.767 77.4826 84.2273C77.4826 84.6932 77.5536 85.1165 77.6957 85.4972C77.8406 85.875 78.0536 86.1761 78.3349 86.4006C78.619 86.6222 78.9712 86.733 79.3917 86.733ZM86.9812 87.6364C86.3505 87.6364 85.8065 87.4972 85.3491 87.2188C84.8945 86.9375 84.5437 86.5455 84.2965 86.0426C84.0522 85.5369 83.93 84.9489 83.93 84.2784C83.93 83.608 84.0522 83.017 84.2965 82.5057C84.5437 81.9915 84.8874 81.5909 85.3278 81.304C85.771 81.0142 86.288 80.8693 86.8789 80.8693C87.2198 80.8693 87.5565 80.9261 87.8888 81.0398C88.2212 81.1534 88.5238 81.3381 88.7965 81.5938C89.0692 81.8466 89.2866 82.1818 89.4485 82.5994C89.6104 83.017 89.6914 83.5312 89.6914 84.142V84.5682H84.646V83.6989H88.6687C88.6687 83.3295 88.5948 83 88.4471 82.7102C88.3022 82.4205 88.0948 82.1918 87.8249 82.0241C87.5579 81.8565 87.2425 81.7727 86.8789 81.7727C86.4783 81.7727 86.1317 81.8722 85.8391 82.071C85.5494 82.267 85.3263 82.5227 85.1701 82.8381C85.0138 83.1534 84.9357 83.4915 84.9357 83.8523V84.4318C84.9357 84.9261 85.021 85.3452 85.1914 85.6889C85.3647 86.0298 85.6048 86.2898 85.9116 86.4688C86.2184 86.6449 86.5749 86.733 86.9812 86.733C87.2454 86.733 87.484 86.696 87.6971 86.6222C87.913 86.5455 88.0991 86.4318 88.2553 86.2812C88.4116 86.1278 88.5323 85.9375 88.6175 85.7102L89.5891 85.983C89.4869 86.3125 89.315 86.6023 89.0735 86.8523C88.832 87.0994 88.5337 87.2926 88.1786 87.4318C87.8235 87.5682 87.4244 87.6364 86.9812 87.6364ZM91.2212 89.9545V80.9545H92.1928V81.9943H92.3121C92.386 81.8807 92.4883 81.7358 92.619 81.5597C92.7525 81.3807 92.9428 81.2216 93.19 81.0824C93.44 80.9403 93.7781 80.8693 94.2042 80.8693C94.7553 80.8693 95.2411 81.0071 95.6616 81.2827C96.082 81.5582 96.4102 81.9489 96.646 82.4545C96.8817 82.9602 96.9996 83.5568 96.9996 84.2443C96.9996 84.9375 96.8817 85.5384 96.646 86.0469C96.4102 86.5526 96.0835 86.9446 95.6658 87.223C95.2482 87.4986 94.7667 87.6364 94.2212 87.6364C93.8008 87.6364 93.4641 87.5668 93.2113 87.4276C92.9585 87.2855 92.7638 87.125 92.6275 86.946C92.4911 86.7642 92.386 86.6136 92.3121 86.4943H92.2269V89.9545H91.2212ZM92.2099 84.2273C92.2099 84.7216 92.2823 85.1577 92.4272 85.5355C92.5721 85.9105 92.7837 86.2045 93.0621 86.4176C93.3406 86.6278 93.6815 86.733 94.0849 86.733C94.5053 86.733 94.8562 86.6222 95.1374 86.4006C95.4215 86.1761 95.6346 85.875 95.7766 85.4972C95.9215 85.1165 95.994 84.6932 95.994 84.2273C95.994 83.767 95.9229 83.3523 95.7809 82.983C95.6417 82.6108 95.43 82.3168 95.146 82.1009C94.8647 81.8821 94.511 81.7727 94.0849 81.7727C93.6758 81.7727 93.332 81.8764 93.0536 82.0838C92.7752 82.2884 92.565 82.5753 92.4229 82.9446C92.2809 83.3111 92.2099 83.7386 92.2099 84.2273ZM101.278 87.6364C100.647 87.6364 100.103 87.4972 99.646 87.2188C99.1914 86.9375 98.8406 86.5455 98.5934 86.0426C98.3491 85.5369 98.2269 84.9489 98.2269 84.2784C98.2269 83.608 98.3491 83.017 98.5934 82.5057C98.8406 81.9915 99.1843 81.5909 99.6246 81.304C100.068 81.0142 100.585 80.8693 101.176 80.8693C101.517 80.8693 101.853 80.9261 102.186 81.0398C102.518 81.1534 102.821 81.3381 103.093 81.5938C103.366 81.8466 103.583 82.1818 103.745 82.5994C103.907 83.017 103.988 83.5312 103.988 84.142V84.5682H98.9428V83.6989H102.966C102.966 83.3295 102.892 83 102.744 82.7102C102.599 82.4205 102.392 82.1918 102.122 82.0241C101.855 81.8565 101.539 81.7727 101.176 81.7727C100.775 81.7727 100.429 81.8722 100.136 82.071C99.8462 82.267 99.6232 82.5227 99.467 82.8381C99.3107 83.1534 99.2326 83.4915 99.2326 83.8523V84.4318C99.2326 84.9261 99.3178 85.3452 99.4883 85.6889C99.6616 86.0298 99.9016 86.2898 100.208 86.4688C100.515 86.6449 100.872 86.733 101.278 86.733C101.542 86.733 101.781 86.696 101.994 86.6222C102.21 86.5455 102.396 86.4318 102.552 86.2812C102.708 86.1278 102.829 85.9375 102.914 85.7102L103.886 85.983C103.784 86.3125 103.612 86.6023 103.37 86.8523C103.129 87.0994 102.831 87.2926 102.475 87.4318C102.12 87.5682 101.721 87.6364 101.278 87.6364ZM106.524 83.5625V87.5H105.518V80.9545H106.49V81.9773H106.575C106.728 81.6449 106.961 81.3778 107.274 81.1761C107.586 80.9716 107.99 80.8693 108.484 80.8693C108.927 80.8693 109.315 80.9602 109.647 81.142C109.98 81.321 110.238 81.5938 110.423 81.9602C110.608 82.3239 110.7 82.7841 110.7 83.3409V87.5H109.694V83.4091C109.694 82.8949 109.561 82.4943 109.294 82.2074C109.027 81.9176 108.66 81.7727 108.194 81.7727C107.873 81.7727 107.586 81.8423 107.333 81.9815C107.083 82.1207 106.886 82.3239 106.741 82.5909C106.596 82.858 106.524 83.1818 106.524 83.5625ZM115.009 87.6364C114.464 87.6364 113.982 87.4986 113.565 87.223C113.147 86.9446 112.82 86.5526 112.585 86.0469C112.349 85.5384 112.231 84.9375 112.231 84.2443C112.231 83.5568 112.349 82.9602 112.585 82.4545C112.82 81.9489 113.148 81.5582 113.569 81.2827C113.989 81.0071 114.475 80.8693 115.026 80.8693C115.452 80.8693 115.789 80.9403 116.036 81.0824C116.286 81.2216 116.477 81.3807 116.607 81.5597C116.741 81.7358 116.844 81.8807 116.918 81.9943H117.004V78.7727H118.009V87.5H117.038V86.4943H116.918C116.844 86.6136 116.739 86.7642 116.603 86.946C116.467 87.125 116.272 87.2855 116.019 87.4276C115.766 87.5668 115.43 87.6364 115.009 87.6364ZM115.146 86.733C115.549 86.733 115.89 86.6278 116.168 86.4176C116.447 86.2045 116.658 85.9105 116.803 85.5355C116.948 85.1577 117.021 84.7216 117.021 84.2273C117.021 83.7386 116.95 83.3111 116.808 82.9446C116.665 82.5753 116.455 82.2884 116.177 82.0838C115.898 81.8764 115.555 81.7727 115.146 81.7727C114.719 81.7727 114.364 81.8821 114.08 82.1009C113.799 82.3168 113.587 82.6108 113.445 82.983C113.306 83.3523 113.237 83.767 113.237 84.2273C113.237 84.6932 113.308 85.1165 113.45 85.4972C113.594 85.875 113.808 86.1761 114.089 86.4006C114.373 86.6222 114.725 86.733 115.146 86.733ZM122.735 87.6364C122.104 87.6364 121.56 87.4972 121.103 87.2188C120.648 86.9375 120.298 86.5455 120.05 86.0426C119.806 85.5369 119.684 84.9489 119.684 84.2784C119.684 83.608 119.806 83.017 120.05 82.5057C120.298 81.9915 120.641 81.5909 121.082 81.304C121.525 81.0142 122.042 80.8693 122.633 80.8693C122.974 80.8693 123.31 80.9261 123.643 81.0398C123.975 81.1534 124.278 81.3381 124.55 81.5938C124.823 81.8466 125.04 82.1818 125.202 82.5994C125.364 83.017 125.445 83.5312 125.445 84.142V84.5682H120.4V83.6989H124.423C124.423 83.3295 124.349 83 124.201 82.7102C124.056 82.4205 123.849 82.1918 123.579 82.0241C123.312 81.8565 122.996 81.7727 122.633 81.7727C122.232 81.7727 121.886 81.8722 121.593 82.071C121.303 82.267 121.08 82.5227 120.924 82.8381C120.768 83.1534 120.69 83.4915 120.69 83.8523V84.4318C120.69 84.9261 120.775 85.3452 120.945 85.6889C121.119 86.0298 121.359 86.2898 121.665 86.4688C121.972 86.6449 122.329 86.733 122.735 86.733C122.999 86.733 123.238 86.696 123.451 86.6222C123.667 86.5455 123.853 86.4318 124.009 86.2812C124.165 86.1278 124.286 85.9375 124.371 85.7102L125.343 85.983C125.241 86.3125 125.069 86.6023 124.827 86.8523C124.586 87.0994 124.288 87.2926 123.933 87.4318C123.577 87.5682 123.178 87.6364 122.735 87.6364ZM127.981 83.5625V87.5H126.975V80.9545H127.947V81.9773H128.032C128.185 81.6449 128.418 81.3778 128.731 81.1761C129.043 80.9716 129.447 80.8693 129.941 80.8693C130.384 80.8693 130.772 80.9602 131.104 81.142C131.437 81.321 131.695 81.5938 131.88 81.9602C132.065 82.3239 132.157 82.7841 132.157 83.3409V87.5H131.151V83.4091C131.151 82.8949 131.018 82.4943 130.751 82.2074C130.484 81.9176 130.117 81.7727 129.651 81.7727C129.33 81.7727 129.043 81.8423 128.79 81.9815C128.54 82.1207 128.343 82.3239 128.198 82.5909C128.053 82.858 127.981 83.1818 127.981 83.5625ZM136.841 80.9545V81.8068H133.449V80.9545H136.841ZM134.438 79.3864H135.444V85.625C135.444 85.9091 135.485 86.1222 135.567 86.2642C135.652 86.4034 135.76 86.4972 135.891 86.5455C136.025 86.5909 136.165 86.6136 136.313 86.6136C136.424 86.6136 136.515 86.608 136.586 86.5966C136.657 86.5824 136.713 86.571 136.756 86.5625L136.961 87.4659C136.892 87.4915 136.797 87.517 136.675 87.5426C136.553 87.571 136.398 87.5852 136.211 87.5852C135.926 87.5852 135.648 87.5241 135.375 87.402C135.105 87.2798 134.881 87.0938 134.702 86.8438C134.526 86.5938 134.438 86.2784 134.438 85.8977V79.3864ZM139.5 78.7727V87.5H138.495V78.7727H139.5ZM141.99 89.9545C141.82 89.9545 141.668 89.9403 141.534 89.9119C141.401 89.8864 141.308 89.8608 141.257 89.8352L141.513 88.9489C141.757 89.0114 141.973 89.0341 142.161 89.017C142.348 89 142.514 88.9162 142.659 88.7656C142.807 88.6179 142.942 88.3778 143.064 88.0455L143.251 87.5341L140.831 80.9545H141.922L143.729 86.1705H143.797L145.604 80.9545H146.695L143.916 88.4545C143.791 88.7926 143.636 89.0724 143.452 89.294C143.267 89.5185 143.053 89.6847 142.808 89.7926C142.567 89.9006 142.294 89.9545 141.99 89.9545Z" fill="black" fill-opacity="0.7"/>
<path d="M17.7128 116.429C18.5699 116.429 18.5699 115.572 18.5699 115.572V113.857C18.5699 113 17.7128 113 17.7128 113H15.9985C15.1413 113 15.1413 113.857 15.1413 113.857V115.572C15.1413 116.429 15.9985 116.429 15.9985 116.429M17.7128 116.429H15.9985M17.7128 116.429C17.7128 116.429 18.5699 116.429 18.5699 117.286V119C18.5699 119 18.5699 119.857 17.7128 119.857M15.9985 116.429C15.1413 116.429 15.1413 117.286 15.1413 117.286V119C15.1413 119.857 15.9985 119.857 15.9985 119.857M17.7128 119.857H15.9985M17.7128 119.857C17.7128 119.857 18.5699 119.857 18.5699 120.714V122.429C18.5699 122.429 18.5699 123.286 17.7128 123.286H15.9985C15.9985 123.286 15.1413 123.286 15.1413 122.429V120.714C15.1413 120.714 15.1413 119.857 15.9985 119.857M16.8556 113V110.429C16.8556 108.772 18.1988 107.429 19.8556 107.429C21.5125 107.429 22.8556 108.772 22.8556 110.429V114.286C22.8556 115.706 24.0069 116.857 25.427 116.857C26.8472 116.857 27.9985 115.706 27.9985 114.286V107C27.9985 106.053 28.766 105.286 29.7128 105.286C30.6595 105.286 31.427 106.053 31.427 107V119.857M15.1413 123.286H33.1413C33.1413 123.286 33.9985 123.286 33.9985 124.143C33.9985 124.143 33.9985 125 33.1413 125H15.1413C15.1413 125 14.2842 125 14.2842 124.143C14.2842 124.143 14.2842 123.286 15.1413 123.286ZM30.5699 119.857H32.2842C32.2842 119.857 33.1413 119.857 33.1413 120.714V122.429C33.1413 122.429 33.1413 123.286 32.2842 123.286H30.5699C30.5699 123.286 29.7128 123.286 29.7128 122.429V120.714C29.7128 120.714 29.7128 119.857 30.5699 119.857Z" stroke="#795EE3" stroke-width="1.14286" stroke-linecap="round" stroke-linejoin="round"/>
<path d="M45.4148 119.5H44.3068L47.5114 110.773H48.6023L51.8068 119.5H50.6989L48.0909 112.153H48.0227L45.4148 119.5ZM45.8239 116.091H50.2898V117.028H45.8239V116.091ZM55.4663 112.955V113.807H52.0742V112.955H55.4663ZM53.0629 111.386H54.0685V117.625C54.0685 117.909 54.1097 118.122 54.1921 118.264C54.2773 118.403 54.3853 118.497 54.516 118.545C54.6495 118.591 54.7901 118.614 54.9379 118.614C55.0487 118.614 55.1396 118.608 55.2106 118.597C55.2816 118.582 55.3384 118.571 55.381 118.562L55.5856 119.466C55.5174 119.491 55.4222 119.517 55.3001 119.543C55.1779 119.571 55.0231 119.585 54.8356 119.585C54.5515 119.585 54.2731 119.524 54.0004 119.402C53.7305 119.28 53.506 119.094 53.3271 118.844C53.1509 118.594 53.0629 118.278 53.0629 117.898V111.386ZM59.8256 112.955V113.807H56.4336V112.955H59.8256ZM57.4222 111.386H58.4279V117.625C58.4279 117.909 58.4691 118.122 58.5515 118.264C58.6367 118.403 58.7447 118.497 58.8754 118.545C59.0089 118.591 59.1495 118.614 59.2972 118.614C59.408 118.614 59.4989 118.608 59.57 118.597C59.641 118.582 59.6978 118.571 59.7404 118.562L59.945 119.466C59.8768 119.491 59.7816 119.517 59.6594 119.543C59.5373 119.571 59.3825 119.585 59.195 119.585C58.9109 119.585 58.6325 119.524 58.3597 119.402C58.0898 119.28 57.8654 119.094 57.6864 118.844C57.5103 118.594 57.4222 118.278 57.4222 117.898V111.386ZM64.0124 119.636C63.3817 119.636 62.8377 119.497 62.3803 119.219C61.9258 118.938 61.5749 118.545 61.3278 118.043C61.0835 117.537 60.9613 116.949 60.9613 116.278C60.9613 115.608 61.0835 115.017 61.3278 114.506C61.5749 113.991 61.9187 113.591 62.359 113.304C62.8022 113.014 63.3192 112.869 63.9102 112.869C64.2511 112.869 64.5877 112.926 64.9201 113.04C65.2525 113.153 65.555 113.338 65.8278 113.594C66.1005 113.847 66.3178 114.182 66.4798 114.599C66.6417 115.017 66.7227 115.531 66.7227 116.142V116.568H61.6772V115.699H65.6999C65.6999 115.33 65.6261 115 65.4783 114.71C65.3335 114.42 65.1261 114.192 64.8562 114.024C64.5891 113.857 64.2738 113.773 63.9102 113.773C63.5096 113.773 63.163 113.872 62.8704 114.071C62.5806 114.267 62.3576 114.523 62.2013 114.838C62.0451 115.153 61.967 115.491 61.967 115.852V116.432C61.967 116.926 62.0522 117.345 62.2227 117.689C62.396 118.03 62.636 118.29 62.9428 118.469C63.2496 118.645 63.6062 118.733 64.0124 118.733C64.2766 118.733 64.5153 118.696 64.7283 118.622C64.9442 118.545 65.1303 118.432 65.2866 118.281C65.4428 118.128 65.5636 117.937 65.6488 117.71L66.6204 117.983C66.5181 118.312 66.3462 118.602 66.1048 118.852C65.8633 119.099 65.565 119.293 65.2099 119.432C64.8548 119.568 64.4556 119.636 64.0124 119.636ZM69.2582 115.562V119.5H68.2525V112.955H69.2241V113.977H69.3093C69.4627 113.645 69.6957 113.378 70.0082 113.176C70.3207 112.972 70.7241 112.869 71.2184 112.869C71.6616 112.869 72.0494 112.96 72.3817 113.142C72.7141 113.321 72.9727 113.594 73.1573 113.96C73.342 114.324 73.4343 114.784 73.4343 115.341V119.5H72.4286V115.409C72.4286 114.895 72.2951 114.494 72.0281 114.207C71.761 113.918 71.3945 113.773 70.9286 113.773C70.6076 113.773 70.3207 113.842 70.0678 113.982C69.8178 114.121 69.6204 114.324 69.4755 114.591C69.3306 114.858 69.2582 115.182 69.2582 115.562ZM78.1186 112.955V113.807H74.7266V112.955H78.1186ZM75.7152 111.386H76.7209V117.625C76.7209 117.909 76.7621 118.122 76.8445 118.264C76.9297 118.403 77.0376 118.497 77.1683 118.545C77.3018 118.591 77.4425 118.614 77.5902 118.614C77.701 118.614 77.7919 118.608 77.8629 118.597C77.9339 118.582 77.9908 118.571 78.0334 118.562L78.2379 119.466C78.1697 119.491 78.0746 119.517 77.9524 119.543C77.8303 119.571 77.6754 119.585 77.4879 119.585C77.2038 119.585 76.9254 119.524 76.6527 119.402C76.3828 119.28 76.1584 119.094 75.9794 118.844C75.8033 118.594 75.7152 118.278 75.7152 117.898V111.386ZM79.6314 119.5V112.955H80.6371V119.5H79.6314ZM80.1428 111.864C79.9467 111.864 79.7777 111.797 79.6357 111.663C79.4964 111.53 79.4268 111.369 79.4268 111.182C79.4268 110.994 79.4964 110.834 79.6357 110.7C79.7777 110.567 79.9467 110.5 80.1428 110.5C80.3388 110.5 80.5064 110.567 80.6456 110.7C80.7876 110.834 80.8587 110.994 80.8587 111.182C80.8587 111.369 80.7876 111.53 80.6456 111.663C80.5064 111.797 80.3388 111.864 80.1428 111.864ZM85.1381 119.636C84.5472 119.636 84.0288 119.496 83.5827 119.214C83.1396 118.933 82.793 118.54 82.543 118.034C82.2958 117.528 82.1722 116.937 82.1722 116.261C82.1722 115.58 82.2958 114.984 82.543 114.476C82.793 113.967 83.1396 113.572 83.5827 113.291C84.0288 113.01 84.5472 112.869 85.1381 112.869C85.729 112.869 86.2461 113.01 86.6893 113.291C87.1353 113.572 87.4819 113.967 87.729 114.476C87.979 114.984 88.104 115.58 88.104 116.261C88.104 116.937 87.979 117.528 87.729 118.034C87.4819 118.54 87.1353 118.933 86.6893 119.214C86.2461 119.496 85.729 119.636 85.1381 119.636ZM85.1381 118.733C85.587 118.733 85.9563 118.618 86.2461 118.388C86.5359 118.158 86.7504 117.855 86.8896 117.48C87.0288 117.105 87.0984 116.699 87.0984 116.261C87.0984 115.824 87.0288 115.416 86.8896 115.038C86.7504 114.661 86.5359 114.355 86.2461 114.122C85.9563 113.889 85.587 113.773 85.1381 113.773C84.6893 113.773 84.32 113.889 84.0302 114.122C83.7404 114.355 83.5259 114.661 83.3867 115.038C83.2475 115.416 83.1779 115.824 83.1779 116.261C83.1779 116.699 83.2475 117.105 83.3867 117.48C83.5259 117.855 83.7404 118.158 84.0302 118.388C84.32 118.618 84.6893 118.733 85.1381 118.733ZM90.6449 115.562V119.5H89.6392V112.955H90.6108V113.977H90.696C90.8494 113.645 91.0824 113.378 91.3949 113.176C91.7074 112.972 92.1108 112.869 92.6051 112.869C93.0483 112.869 93.4361 112.96 93.7685 113.142C94.1009 113.321 94.3594 113.594 94.544 113.96C94.7287 114.324 94.821 114.784 94.821 115.341V119.5H93.8153V115.409C93.8153 114.895 93.6818 114.494 93.4148 114.207C93.1477 113.918 92.7813 113.773 92.3153 113.773C91.9943 113.773 91.7074 113.842 91.4545 113.982C91.2045 114.121 91.0071 114.324 90.8622 114.591C90.7173 114.858 90.6449 115.182 90.6449 115.562ZM104.943 112.955C104.892 112.523 104.684 112.188 104.321 111.949C103.957 111.71 103.511 111.591 102.983 111.591C102.596 111.591 102.258 111.653 101.968 111.778C101.681 111.903 101.457 112.075 101.295 112.294C101.136 112.513 101.056 112.761 101.056 113.04C101.056 113.273 101.112 113.473 101.223 113.641C101.336 113.805 101.481 113.943 101.657 114.054C101.833 114.162 102.018 114.251 102.211 114.322C102.404 114.391 102.582 114.446 102.744 114.489L103.63 114.727C103.858 114.787 104.11 114.869 104.389 114.974C104.67 115.08 104.939 115.223 105.194 115.405C105.453 115.584 105.666 115.814 105.833 116.095C106.001 116.376 106.085 116.722 106.085 117.131C106.085 117.602 105.961 118.028 105.714 118.409C105.47 118.79 105.112 119.092 104.64 119.317C104.172 119.541 103.602 119.653 102.931 119.653C102.306 119.653 101.765 119.553 101.308 119.351C100.853 119.149 100.495 118.868 100.234 118.507C99.9755 118.146 99.8292 117.727 99.7951 117.25H100.886C100.914 117.58 101.025 117.852 101.218 118.068C101.414 118.281 101.662 118.44 101.96 118.545C102.261 118.648 102.585 118.699 102.931 118.699C103.335 118.699 103.697 118.634 104.018 118.503C104.339 118.369 104.593 118.185 104.781 117.949C104.968 117.71 105.062 117.432 105.062 117.114C105.062 116.824 104.981 116.588 104.819 116.406C104.657 116.224 104.444 116.077 104.18 115.963C103.916 115.849 103.63 115.75 103.324 115.665L102.25 115.358C101.568 115.162 101.028 114.882 100.63 114.518C100.233 114.155 100.034 113.679 100.034 113.091C100.034 112.602 100.166 112.176 100.43 111.812C100.697 111.446 101.055 111.162 101.504 110.96C101.956 110.756 102.46 110.653 103.017 110.653C103.579 110.653 104.079 110.754 104.517 110.956C104.954 111.155 105.301 111.428 105.556 111.774C105.815 112.121 105.951 112.514 105.966 112.955H104.943ZM107.686 121.955V112.955H108.658V113.994H108.777C108.851 113.881 108.953 113.736 109.084 113.56C109.217 113.381 109.408 113.222 109.655 113.082C109.905 112.94 110.243 112.869 110.669 112.869C111.22 112.869 111.706 113.007 112.126 113.283C112.547 113.558 112.875 113.949 113.111 114.455C113.347 114.96 113.464 115.557 113.464 116.244C113.464 116.938 113.347 117.538 113.111 118.047C112.875 118.553 112.548 118.945 112.131 119.223C111.713 119.499 111.232 119.636 110.686 119.636C110.266 119.636 109.929 119.567 109.676 119.428C109.423 119.286 109.229 119.125 109.092 118.946C108.956 118.764 108.851 118.614 108.777 118.494H108.692V121.955H107.686ZM108.675 116.227C108.675 116.722 108.747 117.158 108.892 117.536C109.037 117.911 109.249 118.205 109.527 118.418C109.805 118.628 110.146 118.733 110.55 118.733C110.97 118.733 111.321 118.622 111.602 118.401C111.886 118.176 112.099 117.875 112.241 117.497C112.386 117.116 112.459 116.693 112.459 116.227C112.459 115.767 112.388 115.352 112.246 114.983C112.107 114.611 111.895 114.317 111.611 114.101C111.33 113.882 110.976 113.773 110.55 113.773C110.141 113.773 109.797 113.876 109.518 114.084C109.24 114.288 109.03 114.575 108.888 114.945C108.746 115.311 108.675 115.739 108.675 116.227ZM116.925 119.653C116.51 119.653 116.134 119.575 115.795 119.419C115.457 119.26 115.189 119.031 114.99 118.733C114.791 118.432 114.692 118.068 114.692 117.642C114.692 117.267 114.766 116.963 114.913 116.73C115.061 116.494 115.259 116.31 115.506 116.176C115.753 116.043 116.026 115.943 116.324 115.878C116.625 115.81 116.928 115.756 117.232 115.716C117.629 115.665 117.952 115.626 118.199 115.601C118.449 115.572 118.631 115.526 118.744 115.46C118.861 115.395 118.919 115.281 118.919 115.119V115.085C118.919 114.665 118.804 114.338 118.574 114.105C118.347 113.872 118.001 113.756 117.538 113.756C117.058 113.756 116.682 113.861 116.409 114.071C116.136 114.281 115.945 114.506 115.834 114.744L114.879 114.403C115.05 114.006 115.277 113.696 115.561 113.474C115.848 113.25 116.161 113.094 116.499 113.006C116.839 112.915 117.175 112.869 117.504 112.869C117.714 112.869 117.956 112.895 118.229 112.946C118.504 112.994 118.77 113.095 119.026 113.249C119.284 113.402 119.499 113.634 119.669 113.943C119.839 114.253 119.925 114.668 119.925 115.188V119.5H118.919V118.614H118.868C118.8 118.756 118.686 118.908 118.527 119.07C118.368 119.232 118.156 119.369 117.892 119.483C117.628 119.597 117.305 119.653 116.925 119.653ZM117.078 118.75C117.476 118.75 117.811 118.672 118.084 118.516C118.359 118.359 118.567 118.158 118.706 117.911C118.848 117.663 118.919 117.403 118.919 117.131V116.21C118.876 116.261 118.783 116.308 118.638 116.351C118.496 116.391 118.331 116.426 118.143 116.457C117.959 116.486 117.778 116.511 117.602 116.534C117.429 116.554 117.288 116.571 117.18 116.585C116.919 116.619 116.675 116.675 116.447 116.751C116.223 116.825 116.041 116.937 115.902 117.088C115.766 117.236 115.697 117.437 115.697 117.693C115.697 118.043 115.827 118.307 116.085 118.486C116.347 118.662 116.678 118.75 117.078 118.75ZM122.766 115.562V119.5H121.76V112.955H122.732V113.977H122.817C122.971 113.645 123.203 113.378 123.516 113.176C123.828 112.972 124.232 112.869 124.726 112.869C125.169 112.869 125.557 112.96 125.89 113.142C126.222 113.321 126.48 113.594 126.665 113.96C126.85 114.324 126.942 114.784 126.942 115.341V119.5H125.936V115.409C125.936 114.895 125.803 114.494 125.536 114.207C125.269 113.918 124.902 113.773 124.436 113.773C124.115 113.773 123.828 113.842 123.576 113.982C123.326 114.121 123.128 114.324 122.983 114.591C122.838 114.858 122.766 115.182 122.766 115.562Z" fill="black" fill-opacity="0.7"/>
<g style="mix-blend-mode:multiply">
<path d="M193.988 43.2581C193.987 44.3471 194.87 45.23 195.959 45.23C197.048 45.23 197.931 44.3471 197.931 43.2581C197.931 42.1691 197.048 41.2861 195.959 41.2861C194.87 41.2861 193.987 42.1691 193.988 43.2581ZM193.988 43.2581H188.293M188.293 43.2581C188.293 44.3471 187.41 45.23 186.321 45.23C185.233 45.23 184.35 44.3471 184.35 43.2581C184.35 42.1691 185.233 41.2861 186.321 41.2861C187.41 41.2861 188.293 42.1691 188.293 43.2581ZM197.055 51.1438C197.054 52.2328 197.937 53.1157 199.026 53.1157C200.115 53.1157 200.998 52.2328 200.997 51.1438C200.998 50.0548 200.115 49.1718 199.026 49.1718C197.937 49.1718 197.054 50.0548 197.055 51.1438ZM197.055 51.1438L193.112 51.1438M185.226 51.1438C185.226 52.2328 184.344 53.1157 183.255 53.1157C182.166 53.1157 181.283 52.2328 181.283 51.1438C181.283 50.0548 182.166 49.1718 183.255 49.1718C184.344 49.1718 185.226 50.0548 185.226 51.1438ZM185.226 51.1438L189.169 51.1438M189.169 51.1438C189.169 52.2328 190.051 53.1157 191.14 53.1157C192.229 53.1157 193.112 52.2328 193.112 51.1438M189.169 51.1438C189.169 50.0548 190.051 49.1718 191.14 49.1718C192.229 49.1718 193.112 50.0548 193.112 51.1438M193.988 59.0295C193.987 60.1185 194.87 61.0014 195.959 61.0014C197.048 61.0014 197.931 60.1185 197.931 59.0295C197.931 57.9405 197.048 57.0576 195.959 57.0576C194.87 57.0576 193.987 57.9405 193.988 59.0295ZM193.988 59.0295L188.293 59.0295M188.293 59.0295C188.293 60.1185 187.41 61.0014 186.321 61.0014C185.233 61.0014 184.35 60.1185 184.35 59.0295C184.35 57.9405 185.233 57.0576 186.321 57.0576C187.41 57.0576 188.293 57.9405 188.293 59.0295ZM187.414 44.8978L190.047 49.5032M194.756 44.8258L192.205 49.4844M187.414 57.3898L190.047 52.7844M194.756 57.4618L192.205 52.8032M183.877 49.2769L185.699 45.1241M198.414 49.2769L196.592 45.1241M183.877 53.0106L185.699 57.1635M198.414 53.0106L196.592 57.1635" stroke="#DD8433" stroke-width="1.14286" stroke-linecap="round" stroke-linejoin="round"/>
</g>
<path d="M216.83 48.9545C216.778 48.5227 216.571 48.1875 216.207 47.9489C215.844 47.7102 215.398 47.5909 214.869 47.5909C214.483 47.5909 214.145 47.6534 213.855 47.7784C213.568 47.9034 213.344 48.0753 213.182 48.294C213.023 48.5128 212.943 48.7614 212.943 49.0398C212.943 49.2727 212.999 49.473 213.109 49.6406C213.223 49.8054 213.368 49.9432 213.544 50.054C213.72 50.1619 213.905 50.2514 214.098 50.3224C214.291 50.3906 214.469 50.446 214.631 50.4886L215.517 50.7273C215.744 50.7869 215.997 50.8693 216.276 50.9744C216.557 51.0795 216.825 51.223 217.081 51.4048C217.339 51.5838 217.553 51.8139 217.72 52.0952C217.888 52.3764 217.972 52.7216 217.972 53.1307C217.972 53.6023 217.848 54.0284 217.601 54.4091C217.357 54.7898 216.999 55.0923 216.527 55.3168C216.058 55.5412 215.489 55.6534 214.818 55.6534C214.193 55.6534 213.652 55.5526 213.195 55.3509C212.74 55.1491 212.382 54.8679 212.121 54.5071C211.862 54.1463 211.716 53.7273 211.682 53.25H212.773C212.801 53.5795 212.912 53.8523 213.105 54.0682C213.301 54.2812 213.548 54.4403 213.847 54.5455C214.148 54.6477 214.472 54.6989 214.818 54.6989C215.222 54.6989 215.584 54.6335 215.905 54.5028C216.226 54.3693 216.48 54.1847 216.668 53.9489C216.855 53.7102 216.949 53.4318 216.949 53.1136C216.949 52.8239 216.868 52.5881 216.706 52.4062C216.544 52.2244 216.331 52.0767 216.067 51.9631C215.803 51.8494 215.517 51.75 215.21 51.6648L214.136 51.358C213.455 51.1619 212.915 50.8821 212.517 50.5185C212.119 50.1548 211.92 49.679 211.92 49.0909C211.92 48.6023 212.053 48.1761 212.317 47.8125C212.584 47.446 212.942 47.1619 213.391 46.9602C213.842 46.7557 214.347 46.6534 214.903 46.6534C215.466 46.6534 215.966 46.7543 216.403 46.956C216.841 47.1548 217.188 47.4276 217.443 47.7741C217.702 48.1207 217.838 48.5142 217.852 48.9545H216.83ZM222.232 55.6364C221.641 55.6364 221.123 55.4957 220.676 55.2145C220.233 54.9332 219.887 54.5398 219.637 54.0341C219.39 53.5284 219.266 52.9375 219.266 52.2614C219.266 51.5795 219.39 50.9844 219.637 50.4759C219.887 49.9673 220.233 49.5724 220.676 49.2912C221.123 49.0099 221.641 48.8693 222.232 48.8693C222.823 48.8693 223.34 49.0099 223.783 49.2912C224.229 49.5724 224.576 49.9673 224.823 50.4759C225.073 50.9844 225.198 51.5795 225.198 52.2614C225.198 52.9375 225.073 53.5284 224.823 54.0341C224.576 54.5398 224.229 54.9332 223.783 55.2145C223.34 55.4957 222.823 55.6364 222.232 55.6364ZM222.232 54.733C222.681 54.733 223.05 54.6179 223.34 54.3878C223.63 54.1577 223.844 53.8551 223.983 53.4801C224.123 53.1051 224.192 52.6989 224.192 52.2614C224.192 51.8239 224.123 51.4162 223.983 51.0384C223.844 50.6605 223.63 50.3551 223.34 50.1222C223.05 49.8892 222.681 49.7727 222.232 49.7727C221.783 49.7727 221.414 49.8892 221.124 50.1222C220.834 50.3551 220.62 50.6605 220.48 51.0384C220.341 51.4162 220.272 51.8239 220.272 52.2614C220.272 52.6989 220.341 53.1051 220.48 53.4801C220.62 53.8551 220.834 54.1577 221.124 54.3878C221.414 54.6179 221.783 54.733 222.232 54.733ZM229.392 55.6364C228.778 55.6364 228.25 55.4915 227.807 55.2017C227.364 54.9119 227.023 54.5128 226.784 54.0043C226.545 53.4957 226.426 52.9148 226.426 52.2614C226.426 51.5966 226.548 51.0099 226.793 50.5014C227.04 49.9901 227.384 49.5909 227.824 49.304C228.267 49.0142 228.784 48.8693 229.375 48.8693C229.835 48.8693 230.25 48.9545 230.619 49.125C230.989 49.2955 231.291 49.5341 231.527 49.8409C231.763 50.1477 231.909 50.5057 231.966 50.9148H230.96C230.884 50.6165 230.713 50.3523 230.449 50.1222C230.188 49.8892 229.835 49.7727 229.392 49.7727C229 49.7727 228.656 49.875 228.361 50.0795C228.068 50.2812 227.839 50.5668 227.675 50.9361C227.513 51.3026 227.432 51.733 227.432 52.2273C227.432 52.733 227.511 53.1733 227.67 53.5483C227.832 53.9233 228.06 54.2145 228.352 54.4219C228.648 54.6293 228.994 54.733 229.392 54.733C229.653 54.733 229.891 54.6875 230.104 54.5966C230.317 54.5057 230.497 54.375 230.645 54.2045C230.793 54.0341 230.898 53.8295 230.96 53.5909H231.966C231.909 53.9773 231.768 54.3253 231.544 54.6349C231.322 54.9418 231.028 55.1861 230.662 55.3679C230.298 55.5469 229.875 55.6364 229.392 55.6364ZM233.436 55.5V48.9545H234.442V55.5H233.436ZM233.947 47.8636C233.751 47.8636 233.582 47.7969 233.44 47.6634C233.301 47.5298 233.232 47.3693 233.232 47.1818C233.232 46.9943 233.301 46.8338 233.44 46.7003C233.582 46.5668 233.751 46.5 233.947 46.5C234.143 46.5 234.311 46.5668 234.45 46.7003C234.592 46.8338 234.663 46.9943 234.663 47.1818C234.663 47.3693 234.592 47.5298 234.45 47.6634C234.311 47.7969 234.143 47.8636 233.947 47.8636ZM238.21 55.6534C237.795 55.6534 237.419 55.5753 237.081 55.419C236.743 55.2599 236.474 55.0312 236.275 54.733C236.076 54.4318 235.977 54.0682 235.977 53.642C235.977 53.267 236.051 52.9631 236.199 52.7301C236.346 52.4943 236.544 52.3097 236.791 52.1761C237.038 52.0426 237.311 51.9432 237.609 51.8778C237.91 51.8097 238.213 51.7557 238.517 51.7159C238.914 51.6648 239.237 51.6264 239.484 51.6009C239.734 51.5724 239.916 51.5256 240.029 51.4602C240.146 51.3949 240.204 51.2812 240.204 51.1193V51.0852C240.204 50.6648 240.089 50.3381 239.859 50.1051C239.632 49.8722 239.287 49.7557 238.824 49.7557C238.343 49.7557 237.967 49.8608 237.694 50.071C237.422 50.2812 237.23 50.5057 237.119 50.7443L236.164 50.4034C236.335 50.0057 236.562 49.696 236.846 49.4744C237.133 49.25 237.446 49.0937 237.784 49.0057C238.125 48.9148 238.46 48.8693 238.789 48.8693C239 48.8693 239.241 48.8949 239.514 48.946C239.789 48.9943 240.055 49.0952 240.311 49.2486C240.569 49.402 240.784 49.6335 240.954 49.9432C241.125 50.2528 241.21 50.6676 241.21 51.1875V55.5H240.204V54.6136H240.153C240.085 54.7557 239.971 54.9077 239.812 55.0696C239.653 55.2315 239.441 55.3693 239.177 55.483C238.913 55.5966 238.591 55.6534 238.21 55.6534ZM238.363 54.75C238.761 54.75 239.096 54.6719 239.369 54.5156C239.645 54.3594 239.852 54.1577 239.991 53.9105C240.133 53.6634 240.204 53.4034 240.204 53.1307V52.2102C240.162 52.2614 240.068 52.3082 239.923 52.3509C239.781 52.3906 239.616 52.4261 239.429 52.4574C239.244 52.4858 239.064 52.5114 238.887 52.5341C238.714 52.554 238.574 52.571 238.466 52.5852C238.204 52.6193 237.96 52.6747 237.733 52.7514C237.508 52.8253 237.326 52.9375 237.187 53.0881C237.051 53.2358 236.983 53.4375 236.983 53.6932C236.983 54.0426 237.112 54.3068 237.37 54.4858C237.632 54.6619 237.963 54.75 238.363 54.75ZM244.051 46.7727V55.5H243.045V46.7727H244.051ZM256.427 49.5H255.37C255.308 49.196 255.199 48.929 255.042 48.6989C254.889 48.4688 254.701 48.2756 254.48 48.1193C254.261 47.9602 254.018 47.8409 253.751 47.7614C253.484 47.6818 253.206 47.642 252.916 47.642C252.387 47.642 251.909 47.7756 251.48 48.0426C251.054 48.3097 250.714 48.7031 250.461 49.223C250.211 49.7429 250.086 50.3807 250.086 51.1364C250.086 51.892 250.211 52.5298 250.461 53.0497C250.714 53.5696 251.054 53.9631 251.48 54.2301C251.909 54.4972 252.387 54.6307 252.916 54.6307C253.206 54.6307 253.484 54.5909 253.751 54.5114C254.018 54.4318 254.261 54.3139 254.48 54.1577C254.701 53.9986 254.889 53.804 255.042 53.5739C255.199 53.3409 255.308 53.0739 255.37 52.7727H256.427C256.348 53.2187 256.203 53.6179 255.993 53.9702C255.782 54.3224 255.521 54.6222 255.208 54.8693C254.896 55.1136 254.545 55.2997 254.156 55.4276C253.77 55.5554 253.356 55.6193 252.916 55.6193C252.172 55.6193 251.51 55.4375 250.93 55.0739C250.35 54.7102 249.895 54.1932 249.562 53.5227C249.23 52.8523 249.064 52.0568 249.064 51.1364C249.064 50.2159 249.23 49.4205 249.562 48.75C249.895 48.0795 250.35 47.5625 250.93 47.1989C251.51 46.8352 252.172 46.6534 252.916 46.6534C253.356 46.6534 253.77 46.7173 254.156 46.8452C254.545 46.973 254.896 47.1605 255.208 47.4077C255.521 47.652 255.782 47.9503 255.993 48.3026C256.203 48.652 256.348 49.0511 256.427 49.5ZM260.658 55.6364C260.067 55.6364 259.548 55.4957 259.102 55.2145C258.659 54.9332 258.312 54.5398 258.062 54.0341C257.815 53.5284 257.692 52.9375 257.692 52.2614C257.692 51.5795 257.815 50.9844 258.062 50.4759C258.312 49.9673 258.659 49.5724 259.102 49.2912C259.548 49.0099 260.067 48.8693 260.658 48.8693C261.249 48.8693 261.766 49.0099 262.209 49.2912C262.655 49.5724 263.001 49.9673 263.249 50.4759C263.499 50.9844 263.624 51.5795 263.624 52.2614C263.624 52.9375 263.499 53.5284 263.249 54.0341C263.001 54.5398 262.655 54.9332 262.209 55.2145C261.766 55.4957 261.249 55.6364 260.658 55.6364ZM260.658 54.733C261.107 54.733 261.476 54.6179 261.766 54.3878C262.055 54.1577 262.27 53.8551 262.409 53.4801C262.548 53.1051 262.618 52.6989 262.618 52.2614C262.618 51.8239 262.548 51.4162 262.409 51.0384C262.27 50.6605 262.055 50.3551 261.766 50.1222C261.476 49.8892 261.107 49.7727 260.658 49.7727C260.209 49.7727 259.839 49.8892 259.55 50.1222C259.26 50.3551 259.045 50.6605 258.906 51.0384C258.767 51.4162 258.697 51.8239 258.697 52.2614C258.697 52.6989 258.767 53.1051 258.906 53.4801C259.045 53.8551 259.26 54.1577 259.55 54.3878C259.839 54.6179 260.209 54.733 260.658 54.733ZM266.164 51.5625V55.5H265.159V48.9545H266.13V49.9773H266.216C266.369 49.6449 266.602 49.3778 266.914 49.1761C267.227 48.9716 267.63 48.8693 268.125 48.8693C268.568 48.8693 268.956 48.9602 269.288 49.142C269.62 49.321 269.879 49.5938 270.064 49.9602C270.248 50.3239 270.341 50.7841 270.341 51.3409V55.5H269.335V51.4091C269.335 50.8949 269.201 50.4943 268.934 50.2074C268.667 49.9176 268.301 49.7727 267.835 49.7727C267.514 49.7727 267.227 49.8423 266.974 49.9815C266.724 50.1207 266.527 50.3239 266.382 50.5909C266.237 50.858 266.164 51.1818 266.164 51.5625ZM273.184 51.5625V55.5H272.178V48.9545H273.15V49.9773H273.235C273.388 49.6449 273.621 49.3778 273.934 49.1761C274.246 48.9716 274.65 48.8693 275.144 48.8693C275.587 48.8693 275.975 48.9602 276.308 49.142C276.64 49.321 276.898 49.5938 277.083 49.9602C277.268 50.3239 277.36 50.7841 277.36 51.3409V55.5H276.354V51.4091C276.354 50.8949 276.221 50.4943 275.954 50.2074C275.687 49.9176 275.32 49.7727 274.854 49.7727C274.533 49.7727 274.246 49.8423 273.994 49.9815C273.744 50.1207 273.546 50.3239 273.401 50.5909C273.256 50.858 273.184 51.1818 273.184 51.5625ZM281.942 55.6364C281.311 55.6364 280.767 55.4972 280.31 55.2188C279.855 54.9375 279.505 54.5455 279.257 54.0426C279.013 53.5369 278.891 52.9489 278.891 52.2784C278.891 51.608 279.013 51.017 279.257 50.5057C279.505 49.9915 279.848 49.5909 280.289 49.304C280.732 49.0142 281.249 48.8693 281.84 48.8693C282.181 48.8693 282.517 48.9261 282.85 49.0398C283.182 49.1534 283.485 49.3381 283.757 49.5938C284.03 49.8466 284.248 50.1818 284.409 50.5994C284.571 51.017 284.652 51.5312 284.652 52.142V52.5682H279.607V51.6989H283.63C283.63 51.3295 283.556 51 283.408 50.7102C283.263 50.4205 283.056 50.1918 282.786 50.0241C282.519 49.8565 282.203 49.7727 281.84 49.7727C281.439 49.7727 281.093 49.8722 280.8 50.071C280.51 50.267 280.287 50.5227 280.131 50.8381C279.975 51.1534 279.897 51.4915 279.897 51.8523V52.4318C279.897 52.9261 279.982 53.3452 280.152 53.6889C280.326 54.0298 280.566 54.2898 280.873 54.4688C281.179 54.6449 281.536 54.733 281.942 54.733C282.206 54.733 282.445 54.696 282.658 54.6222C282.874 54.5455 283.06 54.4318 283.216 54.2812C283.373 54.1278 283.493 53.9375 283.578 53.7102L284.55 53.983C284.448 54.3125 284.276 54.6023 284.034 54.8523C283.793 55.0994 283.495 55.2926 283.14 55.4318C282.784 55.5682 282.385 55.6364 281.942 55.6364ZM288.841 55.6364C288.228 55.6364 287.699 55.4915 287.256 55.2017C286.813 54.9119 286.472 54.5128 286.233 54.0043C285.995 53.4957 285.875 52.9148 285.875 52.2614C285.875 51.5966 285.998 51.0099 286.242 50.5014C286.489 49.9901 286.833 49.5909 287.273 49.304C287.716 49.0142 288.233 48.8693 288.824 48.8693C289.284 48.8693 289.699 48.9545 290.069 49.125C290.438 49.2955 290.74 49.5341 290.976 49.8409C291.212 50.1477 291.358 50.5057 291.415 50.9148H290.409C290.333 50.6165 290.162 50.3523 289.898 50.1222C289.637 49.8892 289.284 49.7727 288.841 49.7727C288.449 49.7727 288.105 49.875 287.81 50.0795C287.517 50.2812 287.289 50.5668 287.124 50.9361C286.962 51.3026 286.881 51.733 286.881 52.2273C286.881 52.733 286.961 53.1733 287.12 53.5483C287.282 53.9233 287.509 54.2145 287.801 54.4219C288.097 54.6293 288.444 54.733 288.841 54.733C289.103 54.733 289.34 54.6875 289.553 54.5966C289.766 54.5057 289.946 54.375 290.094 54.2045C290.242 54.0341 290.347 53.8295 290.409 53.5909H291.415C291.358 53.9773 291.218 54.3253 290.993 54.6349C290.772 54.9418 290.478 55.1861 290.111 55.3679C289.748 55.5469 289.324 55.6364 288.841 55.6364ZM295.732 48.9545V49.8068H292.34V48.9545H295.732ZM293.328 47.3864H294.334V53.625C294.334 53.9091 294.375 54.1222 294.458 54.2642C294.543 54.4034 294.651 54.4972 294.782 54.5455C294.915 54.5909 295.056 54.6136 295.203 54.6136C295.314 54.6136 295.405 54.608 295.476 54.5966C295.547 54.5824 295.604 54.571 295.647 54.5625L295.851 55.4659C295.783 55.4915 295.688 55.517 295.566 55.5426C295.444 55.571 295.289 55.5852 295.101 55.5852C294.817 55.5852 294.539 55.5241 294.266 55.402C293.996 55.2798 293.772 55.0938 293.593 54.8438C293.417 54.5938 293.328 54.2784 293.328 53.8977V47.3864ZM297.245 55.5V48.9545H298.25V55.5H297.245ZM297.756 47.8636C297.56 47.8636 297.391 47.7969 297.249 47.6634C297.11 47.5298 297.04 47.3693 297.04 47.1818C297.04 46.9943 297.11 46.8338 297.249 46.7003C297.391 46.5668 297.56 46.5 297.756 46.5C297.952 46.5 298.12 46.5668 298.259 46.7003C298.401 46.8338 298.472 46.9943 298.472 47.1818C298.472 47.3693 298.401 47.5298 298.259 47.6634C298.12 47.7969 297.952 47.8636 297.756 47.8636ZM302.751 55.6364C302.161 55.6364 301.642 55.4957 301.196 55.2145C300.753 54.9332 300.406 54.5398 300.156 54.0341C299.909 53.5284 299.786 52.9375 299.786 52.2614C299.786 51.5795 299.909 50.9844 300.156 50.4759C300.406 49.9673 300.753 49.5724 301.196 49.2912C301.642 49.0099 302.161 48.8693 302.751 48.8693C303.342 48.8693 303.859 49.0099 304.303 49.2912C304.749 49.5724 305.095 49.9673 305.342 50.4759C305.592 50.9844 305.717 51.5795 305.717 52.2614C305.717 52.9375 305.592 53.5284 305.342 54.0341C305.095 54.5398 304.749 54.9332 304.303 55.2145C303.859 55.4957 303.342 55.6364 302.751 55.6364ZM302.751 54.733C303.2 54.733 303.57 54.6179 303.859 54.3878C304.149 54.1577 304.364 53.8551 304.503 53.4801C304.642 53.1051 304.712 52.6989 304.712 52.2614C304.712 51.8239 304.642 51.4162 304.503 51.0384C304.364 50.6605 304.149 50.3551 303.859 50.1222C303.57 49.8892 303.2 49.7727 302.751 49.7727C302.303 49.7727 301.933 49.8892 301.643 50.1222C301.354 50.3551 301.139 50.6605 301 51.0384C300.861 51.4162 300.791 51.8239 300.791 52.2614C300.791 52.6989 300.861 53.1051 301 53.4801C301.139 53.8551 301.354 54.1577 301.643 54.3878C301.933 54.6179 302.303 54.733 302.751 54.733ZM308.258 51.5625V55.5H307.252V48.9545H308.224V49.9773H308.309C308.463 49.6449 308.696 49.3778 309.008 49.1761C309.321 48.9716 309.724 48.8693 310.218 48.8693C310.662 48.8693 311.049 48.9602 311.382 49.142C311.714 49.321 311.973 49.5938 312.157 49.9602C312.342 50.3239 312.434 50.7841 312.434 51.3409V55.5H311.429V51.4091C311.429 50.8949 311.295 50.4943 311.028 50.2074C310.761 49.9176 310.395 49.7727 309.929 49.7727C309.608 49.7727 309.321 49.8423 309.068 49.9815C308.818 50.1207 308.62 50.3239 308.475 50.5909C308.331 50.858 308.258 51.1818 308.258 51.5625ZM318.908 50.4205L318.005 50.6761C317.948 50.5256 317.864 50.3793 317.754 50.2372C317.646 50.0923 317.498 49.973 317.31 49.8793C317.123 49.7855 316.883 49.7386 316.59 49.7386C316.19 49.7386 315.856 49.831 315.589 50.0156C315.325 50.1974 315.192 50.429 315.192 50.7102C315.192 50.9602 315.283 51.1577 315.465 51.3026C315.647 51.4474 315.931 51.5682 316.317 51.6648L317.289 51.9034C317.874 52.0455 318.31 52.2628 318.597 52.5554C318.884 52.8452 319.028 53.2187 319.028 53.6761C319.028 54.0511 318.92 54.3864 318.704 54.6818C318.491 54.9773 318.192 55.2102 317.809 55.3807C317.425 55.5511 316.979 55.6364 316.471 55.6364C315.803 55.6364 315.251 55.4915 314.813 55.2017C314.376 54.9119 314.099 54.4886 313.982 53.9318L314.937 53.6932C315.028 54.0455 315.2 54.3097 315.452 54.4858C315.708 54.6619 316.042 54.75 316.454 54.75C316.923 54.75 317.295 54.6506 317.57 54.4517C317.849 54.25 317.988 54.0085 317.988 53.7273C317.988 53.5 317.908 53.3097 317.749 53.1562C317.59 53 317.346 52.8835 317.016 52.8068L315.925 52.5511C315.326 52.4091 314.886 52.1889 314.604 51.8906C314.326 51.5895 314.187 51.2131 314.187 50.7614C314.187 50.392 314.29 50.0653 314.498 49.7812C314.708 49.4972 314.994 49.2741 315.354 49.1122C315.718 48.9503 316.13 48.8693 316.59 48.8693C317.238 48.8693 317.746 49.0114 318.116 49.2955C318.488 49.5795 318.752 49.9545 318.908 50.4205Z" fill="black" fill-opacity="0.7"/>
<path fill-rule="evenodd" clip-rule="evenodd" d="M189.556 73.8678C190.299 73.8283 191.045 73.8964 191.769 74.0701C193.261 74.5009 194.652 75.2273 195.858 76.2061C196.796 76.9175 197.732 77.6318 198.666 78.349C199.504 78.9228 200.057 79.8272 200.187 80.8347C200.296 81.7955 200.787 85.5687 200.926 86.4918C201.047 87.2446 200.866 88.0146 200.422 88.6347C199.804 89.5147 198.939 90.1921 197.937 90.5813C193.657 92.4062 188.825 92.4395 184.521 90.6738C183.082 90.2031 181.922 89.1241 181.349 87.7227C181.302 87.5961 181.284 87.4603 181.299 87.3258C181.397 86.2973 181.926 82.0021 182.15 80.071C182.265 78.8031 182.76 77.5993 183.569 76.6167C184.542 75.4844 185.828 74.6644 187.264 74.2595C188.01 74.0395 188.779 73.9081 189.556 73.8678ZM200.926 86.4944C200.776 85.6424 200.222 80.8458 200.108 80.4087C200.028 80.0824 199.817 79.8032 199.526 79.6363C199.234 79.4695 198.887 79.4295 198.565 79.5258L198.552 79.5301C196.936 80.1061 195.638 80.0341 195.018 81.919C194.501 83.4932 192.979 84.5137 191.326 84.3944C190.505 84.4126 189.684 84.3754 188.867 84.283C186.364 83.9881 183.959 83.4258 181.944 81.7304C181.695 83.8218 181.366 86.5304 181.289 87.3233C181.275 87.4582 181.292 87.5948 181.34 87.7218C181.914 89.1242 183.075 90.2033 184.516 90.673C185.549 91.0778 186.615 91.3929 187.702 91.615C188.842 91.7744 189.992 91.8478 191.143 91.8344C192.972 91.8522 194.795 91.5988 196.55 91.0827C196.937 90.9564 197.323 90.8167 197.71 90.6635C197.967 90.5555 198.224 90.4424 198.481 90.3155C198.611 90.2504 198.738 90.1715 198.863 90.097C199.481 89.727 200.013 89.2304 200.425 88.6398C200.892 88.0295 201.074 87.2484 200.926 86.4944ZM186.373 81.6413L186.401 81.6515C188.834 82.5378 192.5 82.3827 195.02 81.9207C195.333 80.8467 196.246 80.0558 197.354 79.8995C196.539 79.0495 195.484 78.4679 194.33 78.2324C193.043 77.8928 191.718 77.7177 190.387 77.7113C189.089 77.709 187.798 77.9097 186.562 78.3061C186.519 78.3198 186.477 78.3353 186.432 78.3507C184.162 79.1693 184.112 80.8004 186.373 81.6413ZM196.118 85.855C196.118 87.0384 196.837 87.9978 197.725 87.9978C198.613 87.9978 199.332 87.0384 199.332 85.855C199.332 84.6715 198.613 83.7121 197.725 83.7121C196.837 83.7121 196.118 84.6715 196.118 85.855Z" stroke="#B65EDF" stroke-width="1.14286" stroke-linecap="round" stroke-linejoin="round"/>
<path d="M212.057 87.5V78.7727H215.108C215.716 78.7727 216.217 78.8778 216.612 79.0881C217.007 79.2955 217.301 79.5753 217.494 79.9276C217.688 80.277 217.784 80.6648 217.784 81.0909C217.784 81.4659 217.717 81.7756 217.584 82.0199C217.453 82.2642 217.28 82.4574 217.064 82.5994C216.851 82.7415 216.619 82.8466 216.369 82.9148V83C216.636 83.017 216.905 83.1108 217.175 83.2812C217.445 83.4517 217.67 83.696 217.852 84.0142C218.034 84.3324 218.125 84.7216 218.125 85.1818C218.125 85.6193 218.026 86.0128 217.827 86.3622C217.628 86.7116 217.314 86.9886 216.885 87.1932C216.456 87.3977 215.898 87.5 215.21 87.5H212.057ZM213.114 86.5625H215.21C215.901 86.5625 216.391 86.429 216.68 86.1619C216.973 85.892 217.119 85.5653 217.119 85.1818C217.119 84.8864 217.044 84.6136 216.893 84.3636C216.743 84.1108 216.528 83.9091 216.25 83.7585C215.972 83.6051 215.642 83.5284 215.261 83.5284H213.114V86.5625ZM213.114 82.608H215.074C215.392 82.608 215.679 82.5455 215.935 82.4205C216.193 82.2955 216.398 82.1193 216.548 81.892C216.702 81.6648 216.778 81.3977 216.778 81.0909C216.778 80.7074 216.645 80.3821 216.378 80.1151C216.111 79.8452 215.688 79.7102 215.108 79.7102H213.114V82.608ZM222.384 87.6364C221.793 87.6364 221.275 87.4957 220.829 87.2145C220.386 86.9332 220.039 86.5398 219.789 86.0341C219.542 85.5284 219.418 84.9375 219.418 84.2614C219.418 83.5795 219.542 82.9844 219.789 82.4759C220.039 81.9673 220.386 81.5724 220.829 81.2912C221.275 81.0099 221.793 80.8693 222.384 80.8693C222.975 80.8693 223.492 81.0099 223.935 81.2912C224.381 81.5724 224.728 81.9673 224.975 82.4759C225.225 82.9844 225.35 83.5795 225.35 84.2614C225.35 84.9375 225.225 85.5284 224.975 86.0341C224.728 86.5398 224.381 86.9332 223.935 87.2145C223.492 87.4957 222.975 87.6364 222.384 87.6364ZM222.384 86.733C222.833 86.733 223.202 86.6179 223.492 86.3878C223.782 86.1577 223.996 85.8551 224.136 85.4801C224.275 85.1051 224.344 84.6989 224.344 84.2614C224.344 83.8239 224.275 83.4162 224.136 83.0384C223.996 82.6605 223.782 82.3551 223.492 82.1222C223.202 81.8892 222.833 81.7727 222.384 81.7727C221.935 81.7727 221.566 81.8892 221.276 82.1222C220.987 82.3551 220.772 82.6605 220.633 83.0384C220.494 83.4162 220.424 83.8239 220.424 84.2614C220.424 84.6989 220.494 85.1051 220.633 85.4801C220.772 85.8551 220.987 86.1577 221.276 86.3878C221.566 86.6179 221.935 86.733 222.384 86.733ZM229.357 87.6364C228.811 87.6364 228.33 87.4986 227.912 87.223C227.495 86.9446 227.168 86.5526 226.932 86.0469C226.696 85.5384 226.578 84.9375 226.578 84.2443C226.578 83.5568 226.696 82.9602 226.932 82.4545C227.168 81.9489 227.496 81.5582 227.917 81.2827C228.337 81.0071 228.823 80.8693 229.374 80.8693C229.8 80.8693 230.137 80.9403 230.384 81.0824C230.634 81.2216 230.824 81.3807 230.955 81.5597C231.088 81.7358 231.192 81.8807 231.266 81.9943H231.351V78.7727H232.357V87.5H231.385V86.4943H231.266C231.192 86.6136 231.087 86.7642 230.951 86.946C230.814 87.125 230.62 87.2855 230.367 87.4276C230.114 87.5668 229.777 87.6364 229.357 87.6364ZM229.493 86.733C229.897 86.733 230.238 86.6278 230.516 86.4176C230.794 86.2045 231.006 85.9105 231.151 85.5355C231.296 85.1577 231.368 84.7216 231.368 84.2273C231.368 83.7386 231.297 83.3111 231.155 82.9446C231.013 82.5753 230.803 82.2884 230.525 82.0838C230.246 81.8764 229.902 81.7727 229.493 81.7727C229.067 81.7727 228.712 81.8821 228.428 82.1009C228.147 82.3168 227.935 82.6108 227.793 82.983C227.654 83.3523 227.584 83.767 227.584 84.2273C227.584 84.6932 227.655 85.1165 227.797 85.4972C227.942 85.875 228.155 86.1761 228.436 86.4006C228.721 86.6222 229.073 86.733 229.493 86.733ZM234.338 87.5V80.9545H235.344V87.5H234.338ZM234.85 79.8636C234.654 79.8636 234.485 79.7969 234.343 79.6634C234.203 79.5298 234.134 79.3693 234.134 79.1818C234.134 78.9943 234.203 78.8338 234.343 78.7003C234.485 78.5668 234.654 78.5 234.85 78.5C235.046 78.5 235.213 78.5668 235.353 78.7003C235.495 78.8338 235.566 78.9943 235.566 79.1818C235.566 79.3693 235.495 79.5298 235.353 79.6634C235.213 79.7969 235.046 79.8636 234.85 79.8636ZM238.192 78.7727V87.5H237.186V78.7727H238.192ZM240.681 89.9545C240.511 89.9545 240.359 89.9403 240.225 89.9119C240.092 89.8864 240 89.8608 239.949 89.8352L240.204 88.9489C240.449 89.0114 240.664 89.0341 240.852 89.017C241.039 89 241.206 88.9162 241.35 88.7656C241.498 88.6179 241.633 88.3778 241.755 88.0455L241.943 87.5341L239.522 80.9545H240.613L242.42 86.1705H242.488L244.295 80.9545H245.386L242.608 88.4545C242.483 88.7926 242.328 89.0724 242.143 89.294C241.958 89.5185 241.744 89.6847 241.5 89.7926C241.258 89.9006 240.985 89.9545 240.681 89.9545ZM257.145 78.7727V87.5H256.123L251.367 80.6477H251.282V87.5H250.225V78.7727H251.248L256.02 85.642H256.105V78.7727H257.145ZM261.868 87.6364C261.237 87.6364 260.693 87.4972 260.236 87.2188C259.781 86.9375 259.43 86.5455 259.183 86.0426C258.939 85.5369 258.817 84.9489 258.817 84.2784C258.817 83.608 258.939 83.017 259.183 82.5057C259.43 81.9915 259.774 81.5909 260.214 81.304C260.658 81.0142 261.175 80.8693 261.766 80.8693C262.107 80.8693 262.443 80.9261 262.776 81.0398C263.108 81.1534 263.411 81.3381 263.683 81.5938C263.956 81.8466 264.173 82.1818 264.335 82.5994C264.497 83.017 264.578 83.5312 264.578 84.142V84.5682H259.533V83.6989H263.555C263.555 83.3295 263.482 83 263.334 82.7102C263.189 82.4205 262.982 82.1918 262.712 82.0241C262.445 81.8565 262.129 81.7727 261.766 81.7727C261.365 81.7727 261.018 81.8722 260.726 82.071C260.436 82.267 260.213 82.5227 260.057 82.8381C259.901 83.1534 259.822 83.4915 259.822 83.8523V84.4318C259.822 84.9261 259.908 85.3452 260.078 85.6889C260.251 86.0298 260.491 86.2898 260.798 86.4688C261.105 86.6449 261.462 86.733 261.868 86.733C262.132 86.733 262.371 86.696 262.584 86.6222C262.8 86.5455 262.986 86.4318 263.142 86.2812C263.298 86.1278 263.419 85.9375 263.504 85.7102L264.476 85.983C264.374 86.3125 264.202 86.6023 263.96 86.8523C263.719 87.0994 263.42 87.2926 263.065 87.4318C262.71 87.5682 262.311 87.6364 261.868 87.6364ZM268.852 87.6364C268.222 87.6364 267.678 87.4972 267.22 87.2188C266.766 86.9375 266.415 86.5455 266.168 86.0426C265.923 85.5369 265.801 84.9489 265.801 84.2784C265.801 83.608 265.923 83.017 266.168 82.5057C266.415 81.9915 266.759 81.5909 267.199 81.304C267.642 81.0142 268.159 80.8693 268.75 80.8693C269.091 80.8693 269.428 80.9261 269.76 81.0398C270.092 81.1534 270.395 81.3381 270.668 81.5938C270.94 81.8466 271.158 82.1818 271.32 82.5994C271.482 83.017 271.562 83.5312 271.562 84.142V84.5682H266.517V83.6989H270.54C270.54 83.3295 270.466 83 270.318 82.7102C270.173 82.4205 269.966 82.1918 269.696 82.0241C269.429 81.8565 269.114 81.7727 268.75 81.7727C268.349 81.7727 268.003 81.8722 267.71 82.071C267.42 82.267 267.197 82.5227 267.041 82.8381C266.885 83.1534 266.807 83.4915 266.807 83.8523V84.4318C266.807 84.9261 266.892 85.3452 267.062 85.6889C267.236 86.0298 267.476 86.2898 267.783 86.4688C268.089 86.6449 268.446 86.733 268.852 86.733C269.116 86.733 269.355 86.696 269.568 86.6222C269.784 86.5455 269.97 86.4318 270.126 86.2812C270.283 86.1278 270.403 85.9375 270.489 85.7102L271.46 85.983C271.358 86.3125 271.186 86.6023 270.945 86.8523C270.703 87.0994 270.405 87.2926 270.05 87.4318C269.695 87.5682 269.295 87.6364 268.852 87.6364ZM275.564 87.6364C275.018 87.6364 274.537 87.4986 274.119 87.223C273.702 86.9446 273.375 86.5526 273.139 86.0469C272.903 85.5384 272.786 84.9375 272.786 84.2443C272.786 83.5568 272.903 82.9602 273.139 82.4545C273.375 81.9489 273.703 81.5582 274.124 81.2827C274.544 81.0071 275.03 80.8693 275.581 80.8693C276.007 80.8693 276.344 80.9403 276.591 81.0824C276.841 81.2216 277.031 81.3807 277.162 81.5597C277.295 81.7358 277.399 81.8807 277.473 81.9943H277.558V78.7727H278.564V87.5H277.592V86.4943H277.473C277.399 86.6136 277.294 86.7642 277.158 86.946C277.021 87.125 276.827 87.2855 276.574 87.4276C276.321 87.5668 275.984 87.6364 275.564 87.6364ZM275.7 86.733C276.104 86.733 276.445 86.6278 276.723 86.4176C277.001 86.2045 277.213 85.9105 277.358 85.5355C277.503 85.1577 277.575 84.7216 277.575 84.2273C277.575 83.7386 277.504 83.3111 277.362 82.9446C277.22 82.5753 277.01 82.2884 276.732 82.0838C276.453 81.8764 276.109 81.7727 275.7 81.7727C275.274 81.7727 274.919 81.8821 274.635 82.1009C274.354 82.3168 274.142 82.6108 274 82.983C273.861 83.3523 273.791 83.767 273.791 84.2273C273.791 84.6932 273.862 85.1165 274.004 85.4972C274.149 85.875 274.362 86.1761 274.643 86.4006C274.928 86.6222 275.28 86.733 275.7 86.733ZM285.182 82.4205L284.278 82.6761C284.222 82.5256 284.138 82.3793 284.027 82.2372C283.919 82.0923 283.771 81.973 283.584 81.8793C283.396 81.7855 283.156 81.7386 282.864 81.7386C282.463 81.7386 282.129 81.831 281.862 82.0156C281.598 82.1974 281.466 82.429 281.466 82.7102C281.466 82.9602 281.557 83.1577 281.739 83.3026C281.92 83.4474 282.205 83.5682 282.591 83.6648L283.562 83.9034C284.148 84.0455 284.584 84.2628 284.871 84.5554C285.158 84.8452 285.301 85.2187 285.301 85.6761C285.301 86.0511 285.193 86.3864 284.977 86.6818C284.764 86.9773 284.466 87.2102 284.082 87.3807C283.699 87.5511 283.253 87.6364 282.744 87.6364C282.077 87.6364 281.524 87.4915 281.087 87.2017C280.649 86.9119 280.372 86.4886 280.256 85.9318L281.21 85.6932C281.301 86.0455 281.473 86.3097 281.726 86.4858C281.982 86.6619 282.315 86.75 282.727 86.75C283.196 86.75 283.568 86.6506 283.844 86.4517C284.122 86.25 284.261 86.0085 284.261 85.7273C284.261 85.5 284.182 85.3097 284.023 85.1562C283.864 85 283.619 84.8835 283.29 84.8068L282.199 84.5511C281.599 84.4091 281.159 84.1889 280.878 83.8906C280.599 83.5895 280.46 83.2131 280.46 82.7614C280.46 82.392 280.564 82.0653 280.771 81.7812C280.982 81.4972 281.267 81.2741 281.628 81.1122C281.991 80.9503 282.403 80.8693 282.864 80.8693C283.511 80.8693 284.02 81.0114 284.389 81.2955C284.761 81.5795 285.026 81.9545 285.182 82.4205Z" fill="black" fill-opacity="0.7"/>
<path d="M190.465 113.006H193.58L190.465 116.854H193.58M195.123 105.286H200.463L195.123 110.625H200.463M187.877 113.883C187.297 111.828 187.476 109.633 188.381 107.7C188.455 107.543 188.431 107.357 188.32 107.224C188.208 107.091 188.029 107.035 187.862 107.081C184.111 108.094 181.451 111.424 181.292 115.306C181.132 119.188 183.509 122.725 187.164 124.043C190.819 125.361 194.906 124.155 197.261 121.065C197.365 120.927 197.38 120.741 197.299 120.588C197.218 120.435 197.055 120.343 196.882 120.353C196.749 120.36 196.616 120.365 196.482 120.366C195.236 120.371 194.003 120.115 192.861 119.615" stroke="#4682E3" stroke-width="1.14286" stroke-linecap="round" stroke-linejoin="round"/>
<path d="M212.057 119.5V110.773H215.006C215.688 110.773 216.247 110.889 216.685 111.122C217.122 111.352 217.446 111.669 217.656 112.072C217.866 112.476 217.972 112.935 217.972 113.449C217.972 113.963 217.866 114.419 217.656 114.817C217.446 115.214 217.124 115.527 216.689 115.754C216.254 115.979 215.699 116.091 215.023 116.091H212.636V115.136H214.989C215.455 115.136 215.83 115.068 216.114 114.932C216.401 114.795 216.608 114.602 216.736 114.352C216.866 114.099 216.932 113.798 216.932 113.449C216.932 113.099 216.866 112.794 216.736 112.533C216.605 112.271 216.396 112.07 216.109 111.928C215.822 111.783 215.443 111.71 214.972 111.71H213.114V119.5H212.057ZM216.165 115.58L218.312 119.5H217.085L214.972 115.58H216.165ZM222.27 119.636C221.64 119.636 221.096 119.497 220.638 119.219C220.184 118.938 219.833 118.545 219.586 118.043C219.341 117.537 219.219 116.949 219.219 116.278C219.219 115.608 219.341 115.017 219.586 114.506C219.833 113.991 220.176 113.591 220.617 113.304C221.06 113.014 221.577 112.869 222.168 112.869C222.509 112.869 222.846 112.926 223.178 113.04C223.51 113.153 223.813 113.338 224.086 113.594C224.358 113.847 224.576 114.182 224.738 114.599C224.9 115.017 224.98 115.531 224.98 116.142V116.568H219.935V115.699H223.958C223.958 115.33 223.884 115 223.736 114.71C223.591 114.42 223.384 114.192 223.114 114.024C222.847 113.857 222.532 113.773 222.168 113.773C221.767 113.773 221.421 113.872 221.128 114.071C220.838 114.267 220.615 114.523 220.459 114.838C220.303 115.153 220.225 115.491 220.225 115.852V116.432C220.225 116.926 220.31 117.345 220.48 117.689C220.654 118.03 220.894 118.29 221.201 118.469C221.507 118.645 221.864 118.733 222.27 118.733C222.534 118.733 222.773 118.696 222.986 118.622C223.202 118.545 223.388 118.432 223.544 118.281C223.701 118.128 223.821 117.937 223.907 117.71L224.878 117.983C224.776 118.312 224.604 118.602 224.363 118.852C224.121 119.099 223.823 119.293 223.468 119.432C223.113 119.568 222.713 119.636 222.27 119.636ZM231.147 114.42L230.243 114.676C230.186 114.526 230.103 114.379 229.992 114.237C229.884 114.092 229.736 113.973 229.549 113.879C229.361 113.786 229.121 113.739 228.828 113.739C228.428 113.739 228.094 113.831 227.827 114.016C227.563 114.197 227.431 114.429 227.431 114.71C227.431 114.96 227.522 115.158 227.703 115.303C227.885 115.447 228.169 115.568 228.556 115.665L229.527 115.903C230.113 116.045 230.549 116.263 230.836 116.555C231.123 116.845 231.266 117.219 231.266 117.676C231.266 118.051 231.158 118.386 230.942 118.682C230.729 118.977 230.431 119.21 230.047 119.381C229.664 119.551 229.218 119.636 228.709 119.636C228.042 119.636 227.489 119.491 227.051 119.202C226.614 118.912 226.337 118.489 226.221 117.932L227.175 117.693C227.266 118.045 227.438 118.31 227.691 118.486C227.946 118.662 228.28 118.75 228.692 118.75C229.161 118.75 229.533 118.651 229.809 118.452C230.087 118.25 230.226 118.009 230.226 117.727C230.226 117.5 230.147 117.31 229.988 117.156C229.828 117 229.584 116.884 229.255 116.807L228.164 116.551C227.564 116.409 227.124 116.189 226.843 115.891C226.564 115.589 226.425 115.213 226.425 114.761C226.425 114.392 226.529 114.065 226.736 113.781C226.946 113.497 227.232 113.274 227.593 113.112C227.956 112.95 228.368 112.869 228.828 112.869C229.476 112.869 229.985 113.011 230.354 113.295C230.726 113.58 230.99 113.955 231.147 114.42ZM235.626 112.955V113.807H232.234V112.955H235.626ZM233.223 111.386H234.229V117.625C234.229 117.909 234.27 118.122 234.352 118.264C234.438 118.403 234.545 118.497 234.676 118.545C234.81 118.591 234.95 118.614 235.098 118.614C235.209 118.614 235.3 118.608 235.371 118.597C235.442 118.582 235.499 118.571 235.541 118.562L235.746 119.466C235.678 119.491 235.582 119.517 235.46 119.543C235.338 119.571 235.183 119.585 234.996 119.585C234.712 119.585 234.433 119.524 234.161 119.402C233.891 119.28 233.666 119.094 233.487 118.844C233.311 118.594 233.223 118.278 233.223 117.898V111.386ZM240.173 111.71V110.773H246.719V111.71H243.974V119.5H242.918V111.71H240.173ZM248.213 119.5V112.955H249.219V119.5H248.213ZM248.725 111.864C248.529 111.864 248.36 111.797 248.218 111.663C248.078 111.53 248.009 111.369 248.009 111.182C248.009 110.994 248.078 110.834 248.218 110.7C248.36 110.567 248.529 110.5 248.725 110.5C248.921 110.5 249.088 110.567 249.228 110.7C249.37 110.834 249.441 110.994 249.441 111.182C249.441 111.369 249.37 111.53 249.228 111.663C249.088 111.797 248.921 111.864 248.725 111.864ZM251.061 119.5V112.955H252.033V113.977H252.118C252.254 113.628 252.474 113.357 252.778 113.163C253.082 112.967 253.447 112.869 253.874 112.869C254.305 112.869 254.665 112.967 254.952 113.163C255.241 113.357 255.467 113.628 255.629 113.977H255.697C255.865 113.639 256.116 113.371 256.452 113.172C256.787 112.97 257.189 112.869 257.658 112.869C258.243 112.869 258.722 113.053 259.094 113.419C259.466 113.783 259.652 114.349 259.652 115.119V119.5H258.646V115.119C258.646 114.636 258.514 114.291 258.25 114.084C257.986 113.876 257.675 113.773 257.317 113.773C256.857 113.773 256.5 113.912 256.247 114.19C255.994 114.466 255.868 114.815 255.868 115.239V119.5H254.845V115.017C254.845 114.645 254.724 114.345 254.483 114.118C254.241 113.888 253.93 113.773 253.55 113.773C253.288 113.773 253.044 113.842 252.817 113.982C252.592 114.121 252.411 114.314 252.271 114.561C252.135 114.805 252.067 115.088 252.067 115.409V119.5H251.061ZM264.235 119.636C263.604 119.636 263.06 119.497 262.603 119.219C262.148 118.938 261.798 118.545 261.55 118.043C261.306 117.537 261.184 116.949 261.184 116.278C261.184 115.608 261.306 115.017 261.55 114.506C261.798 113.991 262.141 113.591 262.582 113.304C263.025 113.014 263.542 112.869 264.133 112.869C264.474 112.869 264.81 112.926 265.143 113.04C265.475 113.153 265.778 113.338 266.05 113.594C266.323 113.847 266.54 114.182 266.702 114.599C266.864 115.017 266.945 115.531 266.945 116.142V116.568H261.9V115.699H265.923C265.923 115.33 265.849 115 265.701 114.71C265.556 114.42 265.349 114.192 265.079 114.024C264.812 113.857 264.496 113.773 264.133 113.773C263.732 113.773 263.386 113.872 263.093 114.071C262.803 114.267 262.58 114.523 262.424 114.838C262.268 115.153 262.19 115.491 262.19 115.852V116.432C262.19 116.926 262.275 117.345 262.445 117.689C262.619 118.03 262.859 118.29 263.165 118.469C263.472 118.645 263.829 118.733 264.235 118.733C264.499 118.733 264.738 118.696 264.951 118.622C265.167 118.545 265.353 118.432 265.509 118.281C265.665 118.128 265.786 117.937 265.871 117.71L266.843 117.983C266.741 118.312 266.569 118.602 266.327 118.852C266.086 119.099 265.788 119.293 265.433 119.432C265.077 119.568 264.678 119.636 264.235 119.636Z" fill="black" fill-opacity="0.7"/>
</svg>
