<svg width="350" height="107" viewBox="0 0 350 107" fill="none" xmlns="http://www.w3.org/2000/svg">
<rect width="350" height="107" rx="12" fill="#FCF6E7"/>
<path d="M13.9815 24H12.294L15.3665 15.2727H17.3182L20.3949 24H18.7074L16.3764 17.0625H16.3082L13.9815 24ZM14.0369 20.5781H18.6392V21.848H14.0369V20.5781ZM23.706 24.1151C23.1918 24.1151 22.7315 23.983 22.3253 23.7188C21.919 23.4545 21.598 23.071 21.3622 22.5682C21.1264 22.0653 21.0085 21.4545 21.0085 20.7358C21.0085 20.0085 21.1278 19.3949 21.3665 18.8949C21.608 18.392 21.9332 18.0128 22.3423 17.7571C22.7514 17.4986 23.2074 17.3693 23.7102 17.3693C24.0938 17.3693 24.4091 17.4347 24.6562 17.5653C24.9034 17.6932 25.0994 17.848 25.2443 18.0298C25.3892 18.2088 25.5014 18.3778 25.581 18.5369H25.6449V15.2727H27.1918V24H25.6747V22.9688H25.581C25.5014 23.1278 25.3864 23.2969 25.2358 23.4759C25.0852 23.652 24.8864 23.8026 24.6392 23.9276C24.392 24.0526 24.081 24.1151 23.706 24.1151ZM24.1364 22.8494C24.4631 22.8494 24.7415 22.7614 24.9716 22.5852C25.2017 22.4062 25.3764 22.1577 25.4957 21.8395C25.6151 21.5213 25.6747 21.1506 25.6747 20.7273C25.6747 20.304 25.6151 19.9361 25.4957 19.6236C25.3793 19.3111 25.206 19.0682 24.9759 18.8949C24.7486 18.7216 24.4688 18.6349 24.1364 18.6349C23.7926 18.6349 23.5057 18.7244 23.2756 18.9034C23.0455 19.0824 22.8722 19.3295 22.7557 19.6449C22.6392 19.9602 22.581 20.321 22.581 20.7273C22.581 21.1364 22.6392 21.5014 22.7557 21.8224C22.875 22.1406 23.0497 22.392 23.2798 22.5767C23.5128 22.7585 23.7983 22.8494 24.1364 22.8494ZM33.0075 21.2472V17.4545H34.5501V24H33.0543V22.8366H32.9862C32.8384 23.2031 32.5955 23.5028 32.2575 23.7358C31.9222 23.9687 31.5089 24.0852 31.0174 24.0852C30.5884 24.0852 30.2092 23.9901 29.8796 23.7997C29.5529 23.6065 29.2972 23.3267 29.1126 22.9602C28.9279 22.5909 28.8356 22.1449 28.8356 21.6222V17.4545H30.3782V21.3835C30.3782 21.7983 30.4918 22.1278 30.7191 22.3722C30.9464 22.6165 31.2447 22.7386 31.614 22.7386C31.8413 22.7386 32.0614 22.6832 32.2745 22.5724C32.4876 22.4616 32.6623 22.2969 32.7987 22.0781C32.9379 21.8565 33.0075 21.5795 33.0075 21.2472ZM37.679 15.2727V24H36.1364V15.2727H37.679ZM42.5337 17.4545V18.6477H38.771V17.4545H42.5337ZM39.6999 15.8864H41.2425V22.0312C41.2425 22.2386 41.2738 22.3977 41.3363 22.5085C41.4016 22.6165 41.4869 22.6903 41.592 22.7301C41.6971 22.7699 41.8136 22.7898 41.9414 22.7898C42.038 22.7898 42.1261 22.7827 42.2056 22.7685C42.288 22.7543 42.3505 22.7415 42.3931 22.7301L42.6531 23.9361C42.5707 23.9645 42.4528 23.9957 42.2994 24.0298C42.1488 24.0639 41.9641 24.0838 41.7454 24.0895C41.359 24.1009 41.011 24.0426 40.7013 23.9148C40.3917 23.7841 40.146 23.5824 39.9641 23.3097C39.7852 23.0369 39.6971 22.696 39.6999 22.2869V15.8864ZM47.5803 19.7301V21H43.6513V19.7301H47.5803ZM56.7411 18.2173H55.1474C55.1019 17.956 55.0181 17.7244 54.896 17.5227C54.7738 17.3182 54.6218 17.1449 54.44 17.0028C54.2582 16.8608 54.0508 16.7543 53.8178 16.6832C53.5877 16.6094 53.3391 16.5724 53.0721 16.5724C52.5977 16.5724 52.1772 16.6918 51.8107 16.9304C51.4442 17.1662 51.1573 17.5128 50.9499 17.9702C50.7425 18.4247 50.6388 18.9801 50.6388 19.6364C50.6388 20.304 50.7425 20.8665 50.9499 21.3239C51.1602 21.7784 51.4471 22.1222 51.8107 22.3551C52.1772 22.5852 52.5962 22.7003 53.0678 22.7003C53.3292 22.7003 53.5735 22.6662 53.8008 22.598C54.0309 22.527 54.2369 22.4233 54.4187 22.2869C54.6033 22.1506 54.7582 21.983 54.8832 21.7841C55.011 21.5852 55.0991 21.358 55.1474 21.1023L56.7411 21.1108C56.6815 21.5256 56.5522 21.9148 56.3533 22.2784C56.1573 22.642 55.9002 22.9631 55.582 23.2415C55.2638 23.517 54.8917 23.733 54.4656 23.8892C54.0394 24.0426 53.5664 24.1193 53.0465 24.1193C52.2795 24.1193 51.5948 23.9418 50.9925 23.5866C50.3903 23.2315 49.9158 22.7188 49.5692 22.0483C49.2227 21.3778 49.0494 20.5739 49.0494 19.6364C49.0494 18.696 49.2241 17.892 49.5735 17.2244C49.9229 16.554 50.3988 16.0412 51.0011 15.6861C51.6033 15.331 52.2852 15.1534 53.0465 15.1534C53.5323 15.1534 53.984 15.2216 54.4016 15.358C54.8192 15.4943 55.1914 15.6946 55.5181 15.9588C55.8448 16.2202 56.1133 16.5412 56.3235 16.9219C56.5366 17.2997 56.6758 17.7315 56.7411 18.2173ZM59.6634 20.1648V24H58.1207V15.2727H59.6293V18.5668H59.706C59.8594 18.1974 60.0966 17.9062 60.4176 17.6932C60.7415 17.4773 61.1534 17.3693 61.6534 17.3693C62.108 17.3693 62.5043 17.4645 62.8423 17.6548C63.1804 17.8452 63.4418 18.1236 63.6264 18.4901C63.8139 18.8565 63.9077 19.304 63.9077 19.8324V24H62.3651V20.071C62.3651 19.6307 62.2514 19.2884 62.0241 19.044C61.7997 18.7969 61.4844 18.6733 61.0781 18.6733C60.8054 18.6733 60.5611 18.733 60.3452 18.8523C60.1321 18.9687 59.9645 19.1378 59.8423 19.3594C59.723 19.581 59.6634 19.8494 59.6634 20.1648ZM65.4801 24V17.4545H67.0227V24H65.4801ZM66.2557 16.5256C66.0114 16.5256 65.8011 16.4446 65.625 16.2827C65.4489 16.1179 65.3608 15.9205 65.3608 15.6903C65.3608 15.4574 65.4489 15.2599 65.625 15.098C65.8011 14.9332 66.0114 14.8509 66.2557 14.8509C66.5028 14.8509 66.7131 14.9332 66.8864 15.098C67.0625 15.2599 67.1506 15.4574 67.1506 15.6903C67.1506 15.9205 67.0625 16.1179 66.8864 16.2827C66.7131 16.4446 66.5028 16.5256 66.2557 16.5256ZM70.1516 15.2727V24H68.609V15.2727H70.1516ZM74.1669 24.1151C73.6527 24.1151 73.1925 23.983 72.7862 23.7188C72.38 23.4545 72.0589 23.071 71.8232 22.5682C71.5874 22.0653 71.4695 21.4545 71.4695 20.7358C71.4695 20.0085 71.5888 19.3949 71.8274 18.8949C72.0689 18.392 72.3942 18.0128 72.8033 17.7571C73.2124 17.4986 73.6683 17.3693 74.1712 17.3693C74.5547 17.3693 74.87 17.4347 75.1172 17.5653C75.3643 17.6932 75.5604 17.848 75.7053 18.0298C75.8501 18.2088 75.9624 18.3778 76.0419 18.5369H76.1058V15.2727H77.6527V24H76.1357V22.9688H76.0419C75.9624 23.1278 75.8473 23.2969 75.6967 23.4759C75.5462 23.652 75.3473 23.8026 75.1001 23.9276C74.853 24.0526 74.5419 24.1151 74.1669 24.1151ZM74.5973 22.8494C74.924 22.8494 75.2024 22.7614 75.4325 22.5852C75.6626 22.4062 75.8374 22.1577 75.9567 21.8395C76.076 21.5213 76.1357 21.1506 76.1357 20.7273C76.1357 20.304 76.076 19.9361 75.9567 19.6236C75.8402 19.3111 75.6669 19.0682 75.4368 18.8949C75.2095 18.7216 74.9297 18.6349 74.5973 18.6349C74.2536 18.6349 73.9666 18.7244 73.7365 18.9034C73.5064 19.0824 73.3331 19.3295 73.2166 19.6449C73.1001 19.9602 73.0419 20.321 73.0419 20.7273C73.0419 21.1364 73.1001 21.5014 73.2166 21.8224C73.3359 22.1406 73.5107 22.392 73.7408 22.5767C73.9737 22.7585 74.2592 22.8494 74.5973 22.8494ZM82.3413 24V15.2727H85.614C86.2844 15.2727 86.8469 15.3892 87.3015 15.6222C87.7589 15.8551 88.104 16.1818 88.337 16.6023C88.5728 17.0199 88.6907 17.5071 88.6907 18.0639C88.6907 18.6236 88.5714 19.1094 88.3327 19.5213C88.0969 19.9304 87.7489 20.2472 87.2887 20.4716C86.8285 20.6932 86.2631 20.804 85.5927 20.804H83.2617V19.4915H85.3796C85.7717 19.4915 86.0927 19.4375 86.3427 19.3295C86.5927 19.2187 86.7773 19.0582 86.8967 18.848C87.0188 18.6349 87.0799 18.3736 87.0799 18.0639C87.0799 17.7543 87.0188 17.4901 86.8967 17.2713C86.7745 17.0497 86.5884 16.8821 86.3384 16.7685C86.0884 16.652 85.766 16.5938 85.3711 16.5938H83.9222V24H82.3413ZM86.8498 20.0455L89.0103 24H87.2461L85.1239 20.0455H86.8498ZM91.9613 24.1321C91.5465 24.1321 91.1729 24.0582 90.8406 23.9105C90.511 23.7599 90.2496 23.5384 90.0565 23.2457C89.8661 22.9531 89.771 22.5923 89.771 22.1634C89.771 21.794 89.8391 21.4886 89.9755 21.2472C90.1119 21.0057 90.2979 20.8125 90.5337 20.6676C90.7695 20.5227 91.0352 20.4134 91.3306 20.3395C91.6289 20.2628 91.9371 20.2074 92.2553 20.1733C92.6388 20.1335 92.9499 20.098 93.1886 20.0668C93.4272 20.0327 93.6005 19.9815 93.7085 19.9134C93.8192 19.8423 93.8746 19.733 93.8746 19.5852V19.5597C93.8746 19.2386 93.7795 18.9901 93.5891 18.8139C93.3988 18.6378 93.1246 18.5497 92.7667 18.5497C92.3888 18.5497 92.0891 18.6321 91.8675 18.7969C91.6488 18.9616 91.5011 19.1562 91.4244 19.3807L89.984 19.1761C90.0977 18.7784 90.2852 18.446 90.5465 18.179C90.8079 17.9091 91.1275 17.7074 91.5053 17.5739C91.8832 17.4375 92.3008 17.3693 92.7582 17.3693C93.0735 17.3693 93.3874 17.4062 93.6999 17.4801C94.0124 17.554 94.2979 17.6761 94.5565 17.8466C94.815 18.0142 95.0224 18.2429 95.1786 18.5327C95.3377 18.8224 95.4173 19.1847 95.4173 19.6193V24H93.9343V23.1009H93.8832C93.7894 23.2827 93.6573 23.4531 93.4869 23.6122C93.3192 23.7685 93.1076 23.8949 92.8519 23.9915C92.5991 24.0852 92.3022 24.1321 91.9613 24.1321ZM92.3619 22.9986C92.6715 22.9986 92.94 22.9375 93.1673 22.8153C93.3945 22.6903 93.5692 22.5256 93.6914 22.321C93.8164 22.1165 93.8789 21.8935 93.8789 21.652V20.8807C93.8306 20.9205 93.7482 20.9574 93.6317 20.9915C93.5181 21.0256 93.3903 21.0554 93.2482 21.081C93.1062 21.1065 92.9656 21.1293 92.8263 21.1491C92.6871 21.169 92.5664 21.1861 92.4641 21.2003C92.234 21.2315 92.0281 21.2827 91.8462 21.3537C91.6644 21.4247 91.521 21.5241 91.4158 21.652C91.3107 21.777 91.2582 21.9389 91.2582 22.1378C91.2582 22.4219 91.3619 22.6364 91.5692 22.7812C91.7766 22.9261 92.0408 22.9986 92.3619 22.9986ZM100.237 17.4545V18.6477H96.4741V17.4545H100.237ZM97.4031 15.8864H98.9457V22.0312C98.9457 22.2386 98.9769 22.3977 99.0394 22.5085C99.1048 22.6165 99.19 22.6903 99.2951 22.7301C99.4002 22.7699 99.5167 22.7898 99.6445 22.7898C99.7411 22.7898 99.8292 22.7827 99.9087 22.7685C99.9911 22.7543 100.054 22.7415 100.096 22.7301L100.356 23.9361C100.274 23.9645 100.156 23.9957 100.002 24.0298C99.8519 24.0639 99.6673 24.0838 99.4485 24.0895C99.0621 24.1009 98.7141 24.0426 98.4045 23.9148C98.0948 23.7841 97.8491 23.5824 97.6673 23.3097C97.4883 23.0369 97.4002 22.696 97.4031 22.2869V15.8864ZM101.527 24V17.4545H103.07V24H101.527ZM102.303 16.5256C102.058 16.5256 101.848 16.4446 101.672 16.2827C101.496 16.1179 101.408 15.9205 101.408 15.6903C101.408 15.4574 101.496 15.2599 101.672 15.098C101.848 14.9332 102.058 14.8509 102.303 14.8509C102.55 14.8509 102.76 14.9332 102.933 15.098C103.109 15.2599 103.197 15.4574 103.197 15.6903C103.197 15.9205 103.109 16.1179 102.933 16.2827C102.76 16.4446 102.55 16.5256 102.303 16.5256ZM107.511 24.1278C106.872 24.1278 106.318 23.9872 105.849 23.706C105.38 23.4247 105.017 23.0312 104.758 22.5256C104.502 22.0199 104.375 21.429 104.375 20.7528C104.375 20.0767 104.502 19.4844 104.758 18.9759C105.017 18.4673 105.38 18.0724 105.849 17.7912C106.318 17.5099 106.872 17.3693 107.511 17.3693C108.15 17.3693 108.704 17.5099 109.173 17.7912C109.642 18.0724 110.004 18.4673 110.26 18.9759C110.518 19.4844 110.647 20.0767 110.647 20.7528C110.647 21.429 110.518 22.0199 110.26 22.5256C110.004 23.0312 109.642 23.4247 109.173 23.706C108.704 23.9872 108.15 24.1278 107.511 24.1278ZM107.52 22.892C107.866 22.892 108.156 22.7969 108.389 22.6065C108.622 22.4134 108.795 22.1548 108.909 21.831C109.025 21.5071 109.083 21.1463 109.083 20.7486C109.083 20.348 109.025 19.9858 108.909 19.6619C108.795 19.3352 108.622 19.0753 108.389 18.8821C108.156 18.6889 107.866 18.5923 107.52 18.5923C107.164 18.5923 106.869 18.6889 106.633 18.8821C106.4 19.0753 106.225 19.3352 106.109 19.6619C105.995 19.9858 105.939 20.348 105.939 20.7486C105.939 21.1463 105.995 21.5071 106.109 21.831C106.225 22.1548 106.4 22.4134 106.633 22.6065C106.869 22.7969 107.164 22.892 107.52 22.892ZM115.924 19.7301V21H111.995V19.7301H115.924ZM124.056 15.2727V24H122.475V16.8111H122.424L120.382 18.1151V16.6662L122.551 15.2727H124.056ZM127.239 22.9517C126.98 22.9517 126.759 22.8608 126.574 22.679C126.39 22.4943 126.299 22.2727 126.301 22.0142C126.299 21.7585 126.39 21.5398 126.574 21.358C126.759 21.1761 126.98 21.0852 127.239 21.0852C127.489 21.0852 127.706 21.1761 127.891 21.358C128.078 21.5398 128.174 21.7585 128.176 22.0142C128.174 22.1875 128.128 22.3452 128.04 22.4872C127.955 22.6293 127.841 22.7429 127.699 22.8281C127.56 22.9105 127.407 22.9517 127.239 22.9517ZM127.239 18.6264C126.98 18.6264 126.759 18.5355 126.574 18.3537C126.39 18.169 126.299 17.9474 126.301 17.6889C126.299 17.4332 126.39 17.2145 126.574 17.0327C126.759 16.848 126.98 16.7557 127.239 16.7557C127.489 16.7557 127.706 16.848 127.891 17.0327C128.078 17.2145 128.174 17.4332 128.176 17.6889C128.174 17.8594 128.128 18.0156 128.04 18.1577C127.955 18.2997 127.841 18.4134 127.699 18.4986C127.56 18.5838 127.407 18.6264 127.239 18.6264ZM133.302 15.2727V24H131.721V16.8111H131.67L129.629 18.1151V16.6662L131.798 15.2727H133.302ZM138.552 24.1193C137.984 24.1193 137.475 24.0128 137.026 23.7997C136.577 23.5838 136.221 23.2884 135.957 22.9134C135.695 22.5384 135.556 22.1094 135.539 21.6264H137.073C137.102 21.9844 137.256 22.277 137.538 22.5043C137.819 22.7287 138.157 22.8409 138.552 22.8409C138.862 22.8409 139.137 22.7699 139.379 22.6278C139.62 22.4858 139.81 22.2884 139.95 22.0355C140.089 21.7827 140.157 21.4943 140.154 21.1705C140.157 20.8409 140.087 20.5483 139.945 20.2926C139.803 20.0369 139.609 19.8366 139.362 19.6918C139.114 19.544 138.83 19.4702 138.509 19.4702C138.248 19.4673 137.991 19.5156 137.738 19.6151C137.485 19.7145 137.285 19.8452 137.137 20.0071L135.71 19.7727L136.165 15.2727H141.228V16.5938H137.474L137.222 18.9077H137.273C137.435 18.7173 137.664 18.5597 137.96 18.4347C138.255 18.3068 138.579 18.2429 138.931 18.2429C139.46 18.2429 139.931 18.3679 140.346 18.6179C140.761 18.8651 141.087 19.206 141.326 19.6406C141.565 20.0753 141.684 20.5724 141.684 21.1321C141.684 21.7088 141.55 22.223 141.283 22.6747C141.019 23.1236 140.651 23.4773 140.18 23.7358C139.711 23.9915 139.168 24.1193 138.552 24.1193Z" fill="black"/>
<path d="M18.0184 49.0002V47.2859C18.0184 43.9722 20.7047 41.2859 24.0184 41.2859C27.3321 41.2859 30.0184 43.9722 30.0184 47.2859V49.0002M21.8584 46.4202C21.8584 47.6036 22.8178 48.563 24.0013 48.563C25.1847 48.563 26.1441 47.6036 26.1441 46.4202C26.1441 45.2367 25.1847 44.2773 24.0013 44.2773C22.8178 44.2773 21.8584 45.2367 21.8584 46.4202ZM22.5527 50.7059C21.868 50.7042 21.2109 50.9757 20.727 51.4602L20.4441 51.743C20.2791 51.9258 20.0381 52.0209 19.7927 52.0002C19.5593 51.9771 19.3456 51.8594 19.2013 51.6745L18.687 51.0316C18.4992 50.7817 18.1903 50.6538 17.8808 50.6979C17.5713 50.7419 17.3104 50.951 17.1999 51.2435C17.0894 51.5359 17.1469 51.8653 17.3499 52.103L17.8641 52.7459C18.3128 53.3295 18.9972 53.6842 19.7327 53.7145C20.5518 53.7444 21.3401 53.4007 21.8756 52.7802L21.8756 54.2202C21.8759 54.7263 21.7268 55.2213 21.447 55.643L20.3584 57.2802C20.3207 57.3374 20.3207 57.4115 20.3584 57.4687C20.3883 57.5316 20.4517 57.5717 20.5213 57.5716H21.447V58.3259C21.4466 58.5007 21.3927 58.6711 21.2927 58.8145L20.7013 59.6716C20.5104 59.9254 20.4755 60.264 20.6105 60.5514C20.7456 60.8388 21.0285 61.028 21.3458 61.043C21.663 61.058 21.9625 60.8964 22.1241 60.623L22.9813 59.3373C23.0888 59.1994 23.1517 59.0319 23.1613 58.8573V57.563H24.8756V58.8573C24.8769 59.0253 24.9276 59.1893 25.0213 59.3287L25.8784 60.6145C26.04 60.8878 26.3396 61.0495 26.6568 61.0344C26.974 61.0194 27.257 60.8302 27.392 60.5428C27.5271 60.2554 27.4922 59.9168 27.3013 59.663L26.7356 58.8059C26.6402 58.664 26.5895 58.4968 26.5899 58.3259V57.5716H27.447C27.5286 57.5745 27.6036 57.5268 27.6356 57.4516C27.6778 57.3864 27.6778 57.3025 27.6356 57.2373L26.5899 55.643C26.3124 55.2202 26.1635 54.7259 26.1613 54.2202V52.7716C26.6871 53.406 27.4812 53.7554 28.3041 53.7145C29.0353 53.6751 29.7149 53.3259 30.1727 52.7545L30.687 52.1116C30.89 51.8739 30.9475 51.5445 30.837 51.252C30.7265 50.9596 30.4655 50.7505 30.1561 50.7064C29.8466 50.6623 29.5376 50.7902 29.3499 51.0402L28.8356 51.683C28.68 51.8722 28.4541 51.9898 28.2099 52.0087C27.966 52.0197 27.729 51.9262 27.5584 51.7516L27.267 51.4687C26.7852 50.9864 26.1316 50.7151 25.4499 50.7145L22.5527 50.7059Z" stroke="#E3CD09" stroke-width="1.14286" stroke-linecap="round" stroke-linejoin="round"/>
<path d="M52.4205 51.1364C52.4205 52.0568 52.2543 52.8523 51.9219 53.5227C51.5895 54.1932 51.1335 54.7102 50.554 55.0739C49.9744 55.4375 49.3125 55.6193 48.5682 55.6193C47.8239 55.6193 47.1619 55.4375 46.5824 55.0739C46.0028 54.7102 45.5469 54.1932 45.2145 53.5227C44.8821 52.8523 44.7159 52.0568 44.7159 51.1364C44.7159 50.2159 44.8821 49.4205 45.2145 48.75C45.5469 48.0795 46.0028 47.5625 46.5824 47.1989C47.1619 46.8352 47.8239 46.6534 48.5682 46.6534C49.3125 46.6534 49.9744 46.8352 50.554 47.1989C51.1335 47.5625 51.5895 48.0795 51.9219 48.75C52.2543 49.4205 52.4205 50.2159 52.4205 51.1364ZM51.3977 51.1364C51.3977 50.3807 51.2713 49.7429 51.0185 49.223C50.7685 48.7031 50.429 48.3097 50 48.0426C49.5739 47.7756 49.0966 47.642 48.5682 47.642C48.0398 47.642 47.5611 47.7756 47.1321 48.0426C46.706 48.3097 46.3665 48.7031 46.1136 49.223C45.8636 49.7429 45.7386 50.3807 45.7386 51.1364C45.7386 51.892 45.8636 52.5298 46.1136 53.0497C46.3665 53.5696 46.706 53.9631 47.1321 54.2301C47.5611 54.4972 48.0398 54.6307 48.5682 54.6307C49.0966 54.6307 49.5739 54.4972 50 54.2301C50.429 53.9631 50.7685 53.5696 51.0185 53.0497C51.2713 52.5298 51.3977 51.892 51.3977 51.1364ZM59.4134 48.9545L56.9929 55.5H55.9702L53.5497 48.9545H54.6406L56.4474 54.1705H56.5156L58.3224 48.9545H59.4134ZM63.2507 55.6364C62.62 55.6364 62.076 55.4972 61.6186 55.2188C61.1641 54.9375 60.8132 54.5455 60.5661 54.0426C60.3217 53.5369 60.1996 52.9489 60.1996 52.2784C60.1996 51.608 60.3217 51.017 60.5661 50.5057C60.8132 49.9915 61.157 49.5909 61.5973 49.304C62.0405 49.0142 62.5575 48.8693 63.1484 48.8693C63.4893 48.8693 63.826 48.9261 64.1584 49.0398C64.4908 49.1534 64.7933 49.3381 65.0661 49.5938C65.3388 49.8466 65.5561 50.1818 65.718 50.5994C65.88 51.017 65.9609 51.5312 65.9609 52.142V52.5682H60.9155V51.6989H64.9382C64.9382 51.3295 64.8643 51 64.7166 50.7102C64.5717 50.4205 64.3643 50.1918 64.0945 50.0241C63.8274 49.8565 63.5121 49.7727 63.1484 49.7727C62.7479 49.7727 62.4013 49.8722 62.1087 50.071C61.8189 50.267 61.5959 50.5227 61.4396 50.8381C61.2834 51.1534 61.2053 51.4915 61.2053 51.8523V52.4318C61.2053 52.9261 61.2905 53.3452 61.4609 53.6889C61.6342 54.0298 61.8743 54.2898 62.1811 54.4688C62.4879 54.6449 62.8445 54.733 63.2507 54.733C63.5149 54.733 63.7536 54.696 63.9666 54.6222C64.1825 54.5455 64.3686 54.4318 64.5249 54.2812C64.6811 54.1278 64.8018 53.9375 64.8871 53.7102L65.8587 53.983C65.7564 54.3125 65.5845 54.6023 65.343 54.8523C65.1016 55.0994 64.8033 55.2926 64.4482 55.4318C64.093 55.5682 63.6939 55.6364 63.2507 55.6364ZM67.4908 55.5V48.9545H68.4624V49.9432H68.5305C68.6499 49.6193 68.8658 49.3565 69.1783 49.1548C69.4908 48.9531 69.843 48.8523 70.2351 48.8523C70.3089 48.8523 70.4013 48.8537 70.5121 48.8565C70.6229 48.8594 70.7067 48.8636 70.7635 48.8693V49.892C70.7294 49.8835 70.6513 49.8707 70.5291 49.8537C70.4098 49.8338 70.2834 49.8239 70.1499 49.8239C69.8317 49.8239 69.5476 49.8906 69.2976 50.0241C69.0504 50.1548 68.8544 50.3366 68.7095 50.5696C68.5675 50.7997 68.4964 51.0625 68.4964 51.358V55.5H67.4908ZM73.8817 55.6534C73.467 55.6534 73.0906 55.5753 72.7525 55.419C72.4144 55.2599 72.146 55.0312 71.9471 54.733C71.7482 54.4318 71.6488 54.0682 71.6488 53.642C71.6488 53.267 71.7227 52.9631 71.8704 52.7301C72.0181 52.4943 72.2156 52.3097 72.4627 52.1761C72.7099 52.0426 72.9826 51.9432 73.2809 51.8778C73.582 51.8097 73.8846 51.7557 74.1886 51.7159C74.5863 51.6648 74.9087 51.6264 75.1559 51.6009C75.4059 51.5724 75.5877 51.5256 75.7013 51.4602C75.8178 51.3949 75.8761 51.2812 75.8761 51.1193V51.0852C75.8761 50.6648 75.761 50.3381 75.5309 50.1051C75.3036 49.8722 74.9585 49.7557 74.4954 49.7557C74.0153 49.7557 73.6388 49.8608 73.3661 50.071C73.0934 50.2812 72.9016 50.5057 72.7908 50.7443L71.8363 50.4034C72.0067 50.0057 72.234 49.696 72.5181 49.4744C72.805 49.25 73.1175 49.0937 73.4556 49.0057C73.7965 48.9148 74.1317 48.8693 74.4613 48.8693C74.6715 48.8693 74.913 48.8949 75.1857 48.946C75.4613 48.9943 75.7269 49.0952 75.9826 49.2486C76.2411 49.402 76.4556 49.6335 76.6261 49.9432C76.7965 50.2528 76.8817 50.6676 76.8817 51.1875V55.5H75.8761V54.6136H75.8249C75.7567 54.7557 75.6431 54.9077 75.484 55.0696C75.3249 55.2315 75.1133 55.3693 74.8491 55.483C74.5849 55.5966 74.2624 55.6534 73.8817 55.6534ZM74.0352 54.75C74.4329 54.75 74.7681 54.6719 75.0408 54.5156C75.3164 54.3594 75.5238 54.1577 75.663 53.9105C75.805 53.6634 75.8761 53.4034 75.8761 53.1307V52.2102C75.8335 52.2614 75.7397 52.3082 75.5948 52.3509C75.4528 52.3906 75.288 52.4261 75.1005 52.4574C74.9158 52.4858 74.7354 52.5114 74.5593 52.5341C74.386 52.554 74.2454 52.571 74.1374 52.5852C73.8761 52.6193 73.6317 52.6747 73.4045 52.7514C73.18 52.8253 72.9982 52.9375 72.859 53.0881C72.7227 53.2358 72.6545 53.4375 72.6545 53.6932C72.6545 54.0426 72.7837 54.3068 73.0423 54.4858C73.3036 54.6619 73.6346 54.75 74.0352 54.75ZM79.723 46.7727V55.5H78.7173V46.7727H79.723ZM82.5707 46.7727V55.5H81.565V46.7727H82.5707ZM87.924 55.5V46.7727H90.8729C91.5575 46.7727 92.1172 46.8963 92.5518 47.1435C92.9893 47.3878 93.3132 47.7188 93.5234 48.1364C93.7337 48.554 93.8388 49.0199 93.8388 49.5341C93.8388 50.0483 93.7337 50.5156 93.5234 50.9361C93.3161 51.3565 92.995 51.6918 92.5604 51.9418C92.1257 52.1889 91.5689 52.3125 90.8899 52.3125H88.7763V51.375H90.8558C91.3246 51.375 91.701 51.294 91.9851 51.1321C92.2692 50.9702 92.4751 50.7514 92.603 50.4759C92.7337 50.1974 92.799 49.8835 92.799 49.5341C92.799 49.1847 92.7337 48.8722 92.603 48.5966C92.4751 48.321 92.2678 48.1051 91.9808 47.9489C91.6939 47.7898 91.3132 47.7102 90.8388 47.7102H88.9808V55.5H87.924ZM98.0788 55.6364C97.4482 55.6364 96.9041 55.4972 96.4467 55.2188C95.9922 54.9375 95.6413 54.5455 95.3942 54.0426C95.1499 53.5369 95.0277 52.9489 95.0277 52.2784C95.0277 51.608 95.1499 51.017 95.3942 50.5057C95.6413 49.9915 95.9851 49.5909 96.4254 49.304C96.8686 49.0142 97.3857 48.8693 97.9766 48.8693C98.3175 48.8693 98.6541 48.9261 98.9865 49.0398C99.3189 49.1534 99.6214 49.3381 99.8942 49.5938C100.167 49.8466 100.384 50.1818 100.546 50.5994C100.708 51.017 100.789 51.5312 100.789 52.142V52.5682H95.7436V51.6989H99.7663C99.7663 51.3295 99.6925 51 99.5447 50.7102C99.3999 50.4205 99.1925 50.1918 98.9226 50.0241C98.6555 49.8565 98.3402 49.7727 97.9766 49.7727C97.576 49.7727 97.2294 49.8722 96.9368 50.071C96.647 50.267 96.424 50.5227 96.2678 50.8381C96.1115 51.1534 96.0334 51.4915 96.0334 51.8523V52.4318C96.0334 52.9261 96.1186 53.3452 96.2891 53.6889C96.4624 54.0298 96.7024 54.2898 97.0092 54.4688C97.3161 54.6449 97.6726 54.733 98.0788 54.733C98.343 54.733 98.5817 54.696 98.7947 54.6222C99.0107 54.5455 99.1967 54.4318 99.353 54.2812C99.5092 54.1278 99.63 53.9375 99.7152 53.7102L100.687 53.983C100.585 54.3125 100.413 54.6023 100.171 54.8523C99.9297 55.0994 99.6314 55.2926 99.2763 55.4318C98.9212 55.5682 98.522 55.6364 98.0788 55.6364ZM102.319 55.5V48.9545H103.29V49.9432H103.359C103.478 49.6193 103.694 49.3565 104.006 49.1548C104.319 48.9531 104.671 48.8523 105.063 48.8523C105.137 48.8523 105.229 48.8537 105.34 48.8565C105.451 48.8594 105.535 48.8636 105.592 48.8693V49.892C105.558 49.8835 105.479 49.8707 105.357 49.8537C105.238 49.8338 105.112 49.8239 104.978 49.8239C104.66 49.8239 104.376 49.8906 104.126 50.0241C103.879 50.1548 103.683 50.3366 103.538 50.5696C103.396 50.7997 103.325 51.0625 103.325 51.358V55.5H102.319ZM111.42 50.4205L110.517 50.6761C110.46 50.5256 110.376 50.3793 110.265 50.2372C110.157 50.0923 110.01 49.973 109.822 49.8793C109.635 49.7855 109.395 49.7386 109.102 49.7386C108.701 49.7386 108.368 49.831 108.1 50.0156C107.836 50.1974 107.704 50.429 107.704 50.7102C107.704 50.9602 107.795 51.1577 107.977 51.3026C108.159 51.4474 108.443 51.5682 108.829 51.6648L109.801 51.9034C110.386 52.0455 110.822 52.2628 111.109 52.5554C111.396 52.8452 111.539 53.2187 111.539 53.6761C111.539 54.0511 111.431 54.3864 111.216 54.6818C111.002 54.9773 110.704 55.2102 110.321 55.3807C109.937 55.5511 109.491 55.6364 108.983 55.6364C108.315 55.6364 107.762 55.4915 107.325 55.2017C106.887 54.9119 106.61 54.4886 106.494 53.9318L107.449 53.6932C107.539 54.0455 107.711 54.3097 107.964 54.4858C108.22 54.6619 108.554 54.75 108.966 54.75C109.434 54.75 109.806 54.6506 110.082 54.4517C110.36 54.25 110.5 54.0085 110.5 53.7273C110.5 53.5 110.42 53.3097 110.261 53.1562C110.102 53 109.858 52.8835 109.528 52.8068L108.437 52.5511C107.838 52.4091 107.397 52.1889 107.116 51.8906C106.838 51.5895 106.699 51.2131 106.699 50.7614C106.699 50.392 106.802 50.0653 107.01 49.7812C107.22 49.4972 107.505 49.2741 107.866 49.1122C108.23 48.9503 108.642 48.8693 109.102 48.8693C109.75 48.8693 110.258 49.0114 110.627 49.2955C111 49.5795 111.264 49.9545 111.42 50.4205ZM115.712 55.6364C115.121 55.6364 114.603 55.4957 114.157 55.2145C113.714 54.9332 113.367 54.5398 113.117 54.0341C112.87 53.5284 112.746 52.9375 112.746 52.2614C112.746 51.5795 112.87 50.9844 113.117 50.4759C113.367 49.9673 113.714 49.5724 114.157 49.2912C114.603 49.0099 115.121 48.8693 115.712 48.8693C116.303 48.8693 116.82 49.0099 117.263 49.2912C117.71 49.5724 118.056 49.9673 118.303 50.4759C118.553 50.9844 118.678 51.5795 118.678 52.2614C118.678 52.9375 118.553 53.5284 118.303 54.0341C118.056 54.5398 117.71 54.9332 117.263 55.2145C116.82 55.4957 116.303 55.6364 115.712 55.6364ZM115.712 54.733C116.161 54.733 116.531 54.6179 116.82 54.3878C117.11 54.1577 117.325 53.8551 117.464 53.4801C117.603 53.1051 117.673 52.6989 117.673 52.2614C117.673 51.8239 117.603 51.4162 117.464 51.0384C117.325 50.6605 117.11 50.3551 116.82 50.1222C116.531 49.8892 116.161 49.7727 115.712 49.7727C115.263 49.7727 114.894 49.8892 114.604 50.1222C114.315 50.3551 114.1 50.6605 113.961 51.0384C113.822 51.4162 113.752 51.8239 113.752 52.2614C113.752 52.6989 113.822 53.1051 113.961 53.4801C114.1 53.8551 114.315 54.1577 114.604 54.3878C114.894 54.6179 115.263 54.733 115.712 54.733ZM121.219 51.5625V55.5H120.213V48.9545H121.185V49.9773H121.27C121.424 49.6449 121.657 49.3778 121.969 49.1761C122.282 48.9716 122.685 48.8693 123.179 48.8693C123.623 48.8693 124.01 48.9602 124.343 49.142C124.675 49.321 124.934 49.5938 125.118 49.9602C125.303 50.3239 125.395 50.7841 125.395 51.3409V55.5H124.39V51.4091C124.39 50.8949 124.256 50.4943 123.989 50.2074C123.722 49.9176 123.355 49.7727 122.89 49.7727C122.569 49.7727 122.282 49.8423 122.029 49.9815C121.779 50.1207 121.581 50.3239 121.436 50.5909C121.292 50.858 121.219 51.1818 121.219 51.5625ZM129.159 55.6534C128.744 55.6534 128.368 55.5753 128.03 55.419C127.692 55.2599 127.423 55.0312 127.224 54.733C127.026 54.4318 126.926 54.0682 126.926 53.642C126.926 53.267 127 52.9631 127.148 52.7301C127.295 52.4943 127.493 52.3097 127.74 52.1761C127.987 52.0426 128.26 51.9432 128.558 51.8778C128.859 51.8097 129.162 51.7557 129.466 51.7159C129.864 51.6648 130.186 51.6264 130.433 51.6009C130.683 51.5724 130.865 51.5256 130.979 51.4602C131.095 51.3949 131.153 51.2812 131.153 51.1193V51.0852C131.153 50.6648 131.038 50.3381 130.808 50.1051C130.581 49.8722 130.236 49.7557 129.773 49.7557C129.293 49.7557 128.916 49.8608 128.643 50.071C128.371 50.2812 128.179 50.5057 128.068 50.7443L127.114 50.4034C127.284 50.0057 127.511 49.696 127.795 49.4744C128.082 49.25 128.395 49.0937 128.733 49.0057C129.074 48.9148 129.409 48.8693 129.739 48.8693C129.949 48.8693 130.19 48.8949 130.463 48.946C130.739 48.9943 131.004 49.0952 131.26 49.2486C131.518 49.402 131.733 49.6335 131.903 49.9432C132.074 50.2528 132.159 50.6676 132.159 51.1875V55.5H131.153V54.6136H131.102C131.034 54.7557 130.92 54.9077 130.761 55.0696C130.602 55.2315 130.391 55.3693 130.126 55.483C129.862 55.5966 129.54 55.6534 129.159 55.6534ZM129.312 54.75C129.71 54.75 130.045 54.6719 130.318 54.5156C130.594 54.3594 130.801 54.1577 130.94 53.9105C131.082 53.6634 131.153 53.4034 131.153 53.1307V52.2102C131.111 52.2614 131.017 52.3082 130.872 52.3509C130.73 52.3906 130.565 52.4261 130.378 52.4574C130.193 52.4858 130.013 52.5114 129.837 52.5341C129.663 52.554 129.523 52.571 129.415 52.5852C129.153 52.6193 128.909 52.6747 128.682 52.7514C128.457 52.8253 128.276 52.9375 128.136 53.0881C128 53.2358 127.932 53.4375 127.932 53.6932C127.932 54.0426 128.061 54.3068 128.32 54.4858C128.581 54.6619 128.912 54.75 129.312 54.75ZM135 46.7727V55.5H133.995V46.7727H135ZM136.842 55.5V48.9545H137.848V55.5H136.842ZM137.354 47.8636C137.158 47.8636 136.989 47.7969 136.847 47.6634C136.707 47.5298 136.638 47.3693 136.638 47.1818C136.638 46.9943 136.707 46.8338 136.847 46.7003C136.989 46.5668 137.158 46.5 137.354 46.5C137.55 46.5 137.717 46.5668 137.857 46.7003C137.999 46.8338 138.07 46.9943 138.07 47.1818C138.07 47.3693 137.999 47.5298 137.857 47.6634C137.717 47.7969 137.55 47.8636 137.354 47.8636ZM142.537 48.9545V49.8068H139.145V48.9545H142.537ZM140.133 47.3864H141.139V53.625C141.139 53.9091 141.18 54.1222 141.262 54.2642C141.348 54.4034 141.456 54.4972 141.586 54.5455C141.72 54.5909 141.86 54.6136 142.008 54.6136C142.119 54.6136 142.21 54.608 142.281 54.5966C142.352 54.5824 142.409 54.571 142.451 54.5625L142.656 55.4659C142.588 55.4915 142.493 55.517 142.37 55.5426C142.248 55.571 142.093 55.5852 141.906 55.5852C141.622 55.5852 141.343 55.5241 141.071 55.402C140.801 55.2798 140.576 55.0938 140.397 54.8438C140.221 54.5938 140.133 54.2784 140.133 53.8977V47.3864ZM144.697 57.9545C144.527 57.9545 144.375 57.9403 144.241 57.9119C144.108 57.8864 144.015 57.8608 143.964 57.8352L144.22 56.9489C144.464 57.0114 144.68 57.0341 144.868 57.017C145.055 57 145.221 56.9162 145.366 56.7656C145.514 56.6179 145.649 56.3778 145.771 56.0455L145.958 55.5341L143.538 48.9545H144.629L146.436 54.1705H146.504L148.311 48.9545H149.402L146.623 56.4545C146.498 56.7926 146.343 57.0724 146.159 57.294C145.974 57.5185 145.76 57.6847 145.515 57.7926C145.274 57.9006 145.001 57.9545 144.697 57.9545Z" fill="black" fill-opacity="0.7"/>
<path d="M16.8585 87.0002C16.8585 84.8699 18.5854 83.143 20.7157 83.143C22.8459 83.143 24.5728 84.8699 24.5728 87.0002M25.8311 83.5579C27.027 82.9527 28.4513 83.0116 29.593 83.7136C30.7347 84.4156 31.4302 85.6599 31.43 87.0002M34.0014 74.143C34.0014 73.6696 33.6176 73.2859 33.1443 73.2859H15.1443C14.6709 73.2859 14.2871 73.6696 14.2871 74.143V87.8573C14.2871 88.3307 14.6709 88.7145 15.1443 88.7145H27.5728V92.143L31.0014 88.7145H33.1443C33.6176 88.7145 34.0014 88.3307 34.0014 87.8573V74.143ZM18.3585 79.9287C18.3585 81.2306 19.4139 82.2859 20.7157 82.2859C22.0175 82.2859 23.0728 81.2306 23.0728 79.9287C23.0728 78.6269 22.0175 77.5716 20.7157 77.5716C19.4139 77.5716 18.3585 78.6269 18.3585 79.9287ZM25.2157 79.9287C25.2157 81.2306 26.271 82.2859 27.5728 82.2859C28.8746 82.2859 29.93 81.2306 29.93 79.9287C29.93 78.6269 28.8746 77.5716 27.5728 77.5716C26.271 77.5716 25.2157 78.6269 25.2157 79.9287Z" stroke="#DA5DA8" stroke-width="1.14286" stroke-linecap="round" stroke-linejoin="round"/>
<path d="M52.0795 81.5H51.0227C50.9602 81.196 50.8509 80.929 50.6946 80.6989C50.5412 80.4688 50.3537 80.2756 50.1321 80.1193C49.9134 79.9602 49.6705 79.8409 49.4034 79.7614C49.1364 79.6818 48.858 79.642 48.5682 79.642C48.0398 79.642 47.5611 79.7756 47.1321 80.0426C46.706 80.3097 46.3665 80.7031 46.1136 81.223C45.8636 81.7429 45.7386 82.3807 45.7386 83.1364C45.7386 83.892 45.8636 84.5298 46.1136 85.0497C46.3665 85.5696 46.706 85.9631 47.1321 86.2301C47.5611 86.4972 48.0398 86.6307 48.5682 86.6307C48.858 86.6307 49.1364 86.5909 49.4034 86.5114C49.6705 86.4318 49.9134 86.3139 50.1321 86.1577C50.3537 85.9986 50.5412 85.804 50.6946 85.5739C50.8509 85.3409 50.9602 85.0739 51.0227 84.7727H52.0795C52 85.2187 51.8551 85.6179 51.6449 85.9702C51.4347 86.3224 51.1733 86.6222 50.8608 86.8693C50.5483 87.1136 50.1974 87.2997 49.8082 87.4276C49.4219 87.5554 49.0085 87.6193 48.5682 87.6193C47.8239 87.6193 47.1619 87.4375 46.5824 87.0739C46.0028 86.7102 45.5469 86.1932 45.2145 85.5227C44.8821 84.8523 44.7159 84.0568 44.7159 83.1364C44.7159 82.2159 44.8821 81.4205 45.2145 80.75C45.5469 80.0795 46.0028 79.5625 46.5824 79.1989C47.1619 78.8352 47.8239 78.6534 48.5682 78.6534C49.0085 78.6534 49.4219 78.7173 49.8082 78.8452C50.1974 78.973 50.5483 79.1605 50.8608 79.4077C51.1733 79.652 51.4347 79.9503 51.6449 80.3026C51.8551 80.652 52 81.0511 52.0795 81.5ZM56.31 87.6364C55.7191 87.6364 55.2006 87.4957 54.7546 87.2145C54.3114 86.9332 53.9648 86.5398 53.7148 86.0341C53.4677 85.5284 53.3441 84.9375 53.3441 84.2614C53.3441 83.5795 53.4677 82.9844 53.7148 82.4759C53.9648 81.9673 54.3114 81.5724 54.7546 81.2912C55.2006 81.0099 55.7191 80.8693 56.31 80.8693C56.9009 80.8693 57.418 81.0099 57.8612 81.2912C58.3072 81.5724 58.6538 81.9673 58.9009 82.4759C59.1509 82.9844 59.2759 83.5795 59.2759 84.2614C59.2759 84.9375 59.1509 85.5284 58.9009 86.0341C58.6538 86.5398 58.3072 86.9332 57.8612 87.2145C57.418 87.4957 56.9009 87.6364 56.31 87.6364ZM56.31 86.733C56.7589 86.733 57.1282 86.6179 57.418 86.3878C57.7077 86.1577 57.9222 85.8551 58.0614 85.4801C58.2006 85.1051 58.2702 84.6989 58.2702 84.2614C58.2702 83.8239 58.2006 83.4162 58.0614 83.0384C57.9222 82.6605 57.7077 82.3551 57.418 82.1222C57.1282 81.8892 56.7589 81.7727 56.31 81.7727C55.8612 81.7727 55.4918 81.8892 55.2021 82.1222C54.9123 82.3551 54.6978 82.6605 54.5586 83.0384C54.4194 83.4162 54.3498 83.8239 54.3498 84.2614C54.3498 84.6989 54.4194 85.1051 54.5586 85.4801C54.6978 85.8551 54.9123 86.1577 55.2021 86.3878C55.4918 86.6179 55.8612 86.733 56.31 86.733ZM60.8111 87.5V80.9545H61.7827V81.9773H61.8679C62.0043 81.6278 62.2244 81.3565 62.5284 81.1634C62.8324 80.9673 63.1974 80.8693 63.6236 80.8693C64.0554 80.8693 64.4148 80.9673 64.7017 81.1634C64.9915 81.3565 65.2173 81.6278 65.3793 81.9773H65.4474C65.6151 81.6392 65.8665 81.3707 66.2017 81.1719C66.5369 80.9702 66.9389 80.8693 67.4077 80.8693C67.9929 80.8693 68.4716 81.0526 68.8438 81.419C69.2159 81.7827 69.402 82.3494 69.402 83.1193V87.5H68.3963V83.1193C68.3963 82.6364 68.2642 82.2912 68 82.0838C67.7358 81.8764 67.4247 81.7727 67.0668 81.7727C66.6065 81.7727 66.25 81.9119 65.9972 82.1903C65.7443 82.4659 65.6179 82.8153 65.6179 83.2386V87.5H64.5952V83.017C64.5952 82.6449 64.4744 82.3452 64.233 82.1179C63.9915 81.8878 63.6804 81.7727 63.2997 81.7727C63.0384 81.7727 62.794 81.8423 62.5668 81.9815C62.3423 82.1207 62.1605 82.3139 62.0213 82.5611C61.8849 82.8054 61.8168 83.0881 61.8168 83.4091V87.5H60.8111ZM71.2408 87.5V80.9545H72.2124V81.9773H72.2976C72.4339 81.6278 72.6541 81.3565 72.9581 81.1634C73.2621 80.9673 73.6271 80.8693 74.0533 80.8693C74.4851 80.8693 74.8445 80.9673 75.1314 81.1634C75.4212 81.3565 75.647 81.6278 75.8089 81.9773H75.8771C76.0447 81.6392 76.2962 81.3707 76.6314 81.1719C76.9666 80.9702 77.3686 80.8693 77.8374 80.8693C78.4226 80.8693 78.9013 81.0526 79.2734 81.419C79.6456 81.7827 79.8317 82.3494 79.8317 83.1193V87.5H78.826V83.1193C78.826 82.6364 78.6939 82.2912 78.4297 82.0838C78.1655 81.8764 77.8544 81.7727 77.4964 81.7727C77.0362 81.7727 76.6797 81.9119 76.4268 82.1903C76.174 82.4659 76.0476 82.8153 76.0476 83.2386V87.5H75.0249V83.017C75.0249 82.6449 74.9041 82.3452 74.6626 82.1179C74.4212 81.8878 74.1101 81.7727 73.7294 81.7727C73.468 81.7727 73.2237 81.8423 72.9964 81.9815C72.772 82.1207 72.5902 82.3139 72.451 82.5611C72.3146 82.8054 72.2464 83.0881 72.2464 83.4091V87.5H71.2408ZM85.7955 84.8239V80.9545H86.8011V87.5H85.7955V86.392H85.7273C85.5739 86.7244 85.3352 87.0071 85.0114 87.2401C84.6875 87.4702 84.2784 87.5852 83.7841 87.5852C83.375 87.5852 83.0114 87.4957 82.6932 87.3168C82.375 87.1349 82.125 86.8622 81.9432 86.4986C81.7614 86.1321 81.6705 85.6705 81.6705 85.1136V80.9545H82.6761V85.0455C82.6761 85.5227 82.8097 85.9034 83.0767 86.1875C83.3466 86.4716 83.6903 86.6136 84.108 86.6136C84.358 86.6136 84.6122 86.5497 84.8707 86.4219C85.1321 86.294 85.3509 86.098 85.527 85.8338C85.706 85.5696 85.7955 85.233 85.7955 84.8239ZM89.6488 83.5625V87.5H88.6431V80.9545H89.6147V81.9773H89.6999C89.8533 81.6449 90.0863 81.3778 90.3988 81.1761C90.7113 80.9716 91.1147 80.8693 91.609 80.8693C92.0522 80.8693 92.44 80.9602 92.7724 81.142C93.1048 81.321 93.3633 81.5938 93.5479 81.9602C93.7326 82.3239 93.8249 82.7841 93.8249 83.3409V87.5H92.8192V83.4091C92.8192 82.8949 92.6857 82.4943 92.4187 82.2074C92.1516 81.9176 91.7852 81.7727 91.3192 81.7727C90.9982 81.7727 90.7113 81.8423 90.4585 81.9815C90.2085 82.1207 90.011 82.3239 89.8661 82.5909C89.7212 82.858 89.6488 83.1818 89.6488 83.5625ZM95.6626 87.5V80.9545H96.6683V87.5H95.6626ZM96.174 79.8636C95.978 79.8636 95.8089 79.7969 95.6669 79.6634C95.5277 79.5298 95.4581 79.3693 95.4581 79.1818C95.4581 78.9943 95.5277 78.8338 95.6669 78.7003C95.8089 78.5668 95.978 78.5 96.174 78.5C96.37 78.5 96.5376 78.5668 96.6768 78.7003C96.8189 78.8338 96.8899 78.9943 96.8899 79.1818C96.8899 79.3693 96.8189 79.5298 96.6768 79.6634C96.5376 79.7969 96.37 79.8636 96.174 79.8636ZM101.169 87.6364C100.556 87.6364 100.027 87.4915 99.5842 87.2017C99.141 86.9119 98.8001 86.5128 98.5614 86.0043C98.3228 85.4957 98.2035 84.9148 98.2035 84.2614C98.2035 83.5966 98.3256 83.0099 98.57 82.5014C98.8171 81.9901 99.1609 81.5909 99.6012 81.304C100.044 81.0142 100.561 80.8693 101.152 80.8693C101.613 80.8693 102.027 80.9545 102.397 81.125C102.766 81.2955 103.069 81.5341 103.304 81.8409C103.54 82.1477 103.686 82.5057 103.743 82.9148H102.738C102.661 82.6165 102.49 82.3523 102.226 82.1222C101.965 81.8892 101.613 81.7727 101.169 81.7727C100.777 81.7727 100.434 81.875 100.138 82.0795C99.8455 82.2812 99.6168 82.5668 99.4521 82.9361C99.2901 83.3026 99.2092 83.733 99.2092 84.2273C99.2092 84.733 99.2887 85.1733 99.4478 85.5483C99.6097 85.9233 99.837 86.2145 100.13 86.4219C100.425 86.6293 100.772 86.733 101.169 86.733C101.431 86.733 101.668 86.6875 101.881 86.5966C102.094 86.5057 102.275 86.375 102.422 86.2045C102.57 86.0341 102.675 85.8295 102.738 85.5909H103.743C103.686 85.9773 103.546 86.3253 103.321 86.6349C103.1 86.9418 102.806 87.1861 102.439 87.3679C102.076 87.5469 101.652 87.6364 101.169 87.6364ZM107.14 87.6534C106.725 87.6534 106.348 87.5753 106.01 87.419C105.672 87.2599 105.404 87.0312 105.205 86.733C105.006 86.4318 104.907 86.0682 104.907 85.642C104.907 85.267 104.98 84.9631 105.128 84.7301C105.276 84.4943 105.473 84.3097 105.721 84.1761C105.968 84.0426 106.24 83.9432 106.539 83.8778C106.84 83.8097 107.142 83.7557 107.446 83.7159C107.844 83.6648 108.167 83.6264 108.414 83.6009C108.664 83.5724 108.846 83.5256 108.959 83.4602C109.076 83.3949 109.134 83.2812 109.134 83.1193V83.0852C109.134 82.6648 109.019 82.3381 108.789 82.1051C108.561 81.8722 108.216 81.7557 107.753 81.7557C107.273 81.7557 106.897 81.8608 106.624 82.071C106.351 82.2812 106.159 82.5057 106.049 82.7443L105.094 82.4034C105.265 82.0057 105.492 81.696 105.776 81.4744C106.063 81.25 106.375 81.0937 106.713 81.0057C107.054 80.9148 107.39 80.8693 107.719 80.8693C107.929 80.8693 108.171 80.8949 108.444 80.946C108.719 80.9943 108.985 81.0952 109.24 81.2486C109.499 81.402 109.713 81.6335 109.884 81.9432C110.054 82.2528 110.14 82.6676 110.14 83.1875V87.5H109.134V86.6136H109.083C109.015 86.7557 108.901 86.9077 108.742 87.0696C108.583 87.2315 108.371 87.3693 108.107 87.483C107.843 87.5966 107.52 87.6534 107.14 87.6534ZM107.293 86.75C107.691 86.75 108.026 86.6719 108.299 86.5156C108.574 86.3594 108.782 86.1577 108.921 85.9105C109.063 85.6634 109.134 85.4034 109.134 85.1307V84.2102C109.091 84.2614 108.998 84.3082 108.853 84.3509C108.711 84.3906 108.546 84.4261 108.358 84.4574C108.174 84.4858 107.993 84.5114 107.817 84.5341C107.644 84.554 107.503 84.571 107.395 84.5852C107.134 84.6193 106.89 84.6747 106.662 84.7514C106.438 84.8253 106.256 84.9375 106.117 85.0881C105.98 85.2358 105.912 85.4375 105.912 85.6932C105.912 86.0426 106.042 86.3068 106.3 86.4858C106.561 86.6619 106.892 86.75 107.293 86.75ZM114.822 80.9545V81.8068H111.43V80.9545H114.822ZM112.418 79.3864H113.424V85.625C113.424 85.9091 113.465 86.1222 113.548 86.2642C113.633 86.4034 113.741 86.4972 113.871 86.5455C114.005 86.5909 114.146 86.6136 114.293 86.6136C114.404 86.6136 114.495 86.608 114.566 86.5966C114.637 86.5824 114.694 86.571 114.737 86.5625L114.941 87.4659C114.873 87.4915 114.778 87.517 114.656 87.5426C114.533 87.571 114.379 87.5852 114.191 87.5852C113.907 87.5852 113.629 87.5241 113.356 87.402C113.086 87.2798 112.862 87.0938 112.683 86.8438C112.506 86.5938 112.418 86.2784 112.418 85.8977V79.3864ZM116.335 87.5V80.9545H117.34V87.5H116.335ZM116.846 79.8636C116.65 79.8636 116.481 79.7969 116.339 79.6634C116.2 79.5298 116.13 79.3693 116.13 79.1818C116.13 78.9943 116.2 78.8338 116.339 78.7003C116.481 78.5668 116.65 78.5 116.846 78.5C117.042 78.5 117.21 78.5668 117.349 78.7003C117.491 78.8338 117.562 78.9943 117.562 79.1818C117.562 79.3693 117.491 79.5298 117.349 79.6634C117.21 79.7969 117.042 79.8636 116.846 79.8636ZM121.841 87.6364C121.25 87.6364 120.732 87.4957 120.286 87.2145C119.843 86.9332 119.496 86.5398 119.246 86.0341C118.999 85.5284 118.875 84.9375 118.875 84.2614C118.875 83.5795 118.999 82.9844 119.246 82.4759C119.496 81.9673 119.843 81.5724 120.286 81.2912C120.732 81.0099 121.25 80.8693 121.841 80.8693C122.432 80.8693 122.949 81.0099 123.392 81.2912C123.838 81.5724 124.185 81.9673 124.432 82.4759C124.682 82.9844 124.807 83.5795 124.807 84.2614C124.807 84.9375 124.682 85.5284 124.432 86.0341C124.185 86.5398 123.838 86.9332 123.392 87.2145C122.949 87.4957 122.432 87.6364 121.841 87.6364ZM121.841 86.733C122.29 86.733 122.659 86.6179 122.949 86.3878C123.239 86.1577 123.453 85.8551 123.593 85.4801C123.732 85.1051 123.801 84.6989 123.801 84.2614C123.801 83.8239 123.732 83.4162 123.593 83.0384C123.453 82.6605 123.239 82.3551 122.949 82.1222C122.659 81.8892 122.29 81.7727 121.841 81.7727C121.392 81.7727 121.023 81.8892 120.733 82.1222C120.444 82.3551 120.229 82.6605 120.09 83.0384C119.951 83.4162 119.881 83.8239 119.881 84.2614C119.881 84.6989 119.951 85.1051 120.09 85.4801C120.229 85.8551 120.444 86.1577 120.733 86.3878C121.023 86.6179 121.392 86.733 121.841 86.733ZM127.348 83.5625V87.5H126.342V80.9545H127.314V81.9773H127.399C127.553 81.6449 127.786 81.3778 128.098 81.1761C128.411 80.9716 128.814 80.8693 129.308 80.8693C129.751 80.8693 130.139 80.9602 130.472 81.142C130.804 81.321 131.063 81.5938 131.247 81.9602C131.432 82.3239 131.524 82.7841 131.524 83.3409V87.5H130.518V83.4091C130.518 82.8949 130.385 82.4943 130.118 82.2074C129.851 81.9176 129.484 81.7727 129.018 81.7727C128.697 81.7727 128.411 81.8423 128.158 81.9815C127.908 82.1207 127.71 82.3239 127.565 82.5909C127.42 82.858 127.348 83.1818 127.348 83.5625ZM141.646 80.9545C141.595 80.5227 141.387 80.1875 141.024 79.9489C140.66 79.7102 140.214 79.5909 139.686 79.5909C139.299 79.5909 138.961 79.6534 138.672 79.7784C138.385 79.9034 138.16 80.0753 137.998 80.294C137.839 80.5128 137.76 80.7614 137.76 81.0398C137.76 81.2727 137.815 81.473 137.926 81.6406C138.039 81.8054 138.184 81.9432 138.36 82.054C138.537 82.1619 138.721 82.2514 138.914 82.3224C139.108 82.3906 139.285 82.446 139.447 82.4886L140.333 82.7273C140.561 82.7869 140.814 82.8693 141.092 82.9744C141.373 83.0795 141.642 83.223 141.897 83.4048C142.156 83.5838 142.369 83.8139 142.537 84.0952C142.704 84.3764 142.788 84.7216 142.788 85.1307C142.788 85.6023 142.664 86.0284 142.417 86.4091C142.173 86.7898 141.815 87.0923 141.343 87.3168C140.875 87.5412 140.305 87.6534 139.635 87.6534C139.01 87.6534 138.468 87.5526 138.011 87.3509C137.556 87.1491 137.199 86.8679 136.937 86.5071C136.679 86.1463 136.532 85.7273 136.498 85.25H137.589C137.618 85.5795 137.728 85.8523 137.922 86.0682C138.118 86.2812 138.365 86.4403 138.663 86.5455C138.964 86.6477 139.288 86.6989 139.635 86.6989C140.038 86.6989 140.4 86.6335 140.721 86.5028C141.042 86.3693 141.297 86.1847 141.484 85.9489C141.672 85.7102 141.765 85.4318 141.765 85.1136C141.765 84.8239 141.684 84.5881 141.522 84.4062C141.36 84.2244 141.147 84.0767 140.883 83.9631C140.619 83.8494 140.333 83.75 140.027 83.6648L138.953 83.358C138.271 83.1619 137.731 82.8821 137.333 82.5185C136.936 82.1548 136.737 81.679 136.737 81.0909C136.737 80.6023 136.869 80.1761 137.133 79.8125C137.4 79.446 137.758 79.1619 138.207 78.9602C138.659 78.7557 139.163 78.6534 139.72 78.6534C140.282 78.6534 140.782 78.7543 141.22 78.956C141.657 79.1548 142.004 79.4276 142.26 79.7741C142.518 80.1207 142.654 80.5142 142.669 80.9545H141.646ZM145.327 85.1136L145.31 83.8693H145.514L148.378 80.9545H149.622L146.571 84.0398H146.486L145.327 85.1136ZM144.389 87.5V78.7727H145.395V87.5H144.389ZM148.548 87.5L145.991 84.2614L146.707 83.5625L149.827 87.5H148.548ZM150.917 87.5V80.9545H151.922V87.5H150.917ZM151.428 79.8636C151.232 79.8636 151.063 79.7969 150.921 79.6634C150.782 79.5298 150.712 79.3693 150.712 79.1818C150.712 78.9943 150.782 78.8338 150.921 78.7003C151.063 78.5668 151.232 78.5 151.428 78.5C151.624 78.5 151.792 78.5668 151.931 78.7003C152.073 78.8338 152.144 78.9943 152.144 79.1818C152.144 79.3693 152.073 79.5298 151.931 79.6634C151.792 79.7969 151.624 79.8636 151.428 79.8636ZM154.77 78.7727V87.5H153.764V78.7727H154.77ZM157.618 78.7727V87.5H156.612V78.7727H157.618ZM164.096 82.4205L163.192 82.6761C163.136 82.5256 163.052 82.3793 162.941 82.2372C162.833 82.0923 162.685 81.973 162.498 81.8793C162.31 81.7855 162.07 81.7386 161.778 81.7386C161.377 81.7386 161.043 81.831 160.776 82.0156C160.512 82.1974 160.38 82.429 160.38 82.7102C160.38 82.9602 160.471 83.1577 160.653 83.3026C160.835 83.4474 161.119 83.5682 161.505 83.6648L162.477 83.9034C163.062 84.0455 163.498 84.2628 163.785 84.5554C164.072 84.8452 164.215 85.2187 164.215 85.6761C164.215 86.0511 164.107 86.3864 163.891 86.6818C163.678 86.9773 163.38 87.2102 162.996 87.3807C162.613 87.5511 162.167 87.6364 161.658 87.6364C160.991 87.6364 160.438 87.4915 160.001 87.2017C159.563 86.9119 159.286 86.4886 159.17 85.9318L160.124 85.6932C160.215 86.0455 160.387 86.3097 160.64 86.4858C160.896 86.6619 161.229 86.75 161.641 86.75C162.11 86.75 162.482 86.6506 162.758 86.4517C163.036 86.25 163.175 86.0085 163.175 85.7273C163.175 85.5 163.096 85.3097 162.937 85.1562C162.778 85 162.533 84.8835 162.204 84.8068L161.113 84.5511C160.513 84.4091 160.073 84.1889 159.792 83.8906C159.513 83.5895 159.374 83.2131 159.374 82.7614C159.374 82.392 159.478 82.0653 159.685 81.7812C159.896 81.4972 160.181 81.2741 160.542 81.1122C160.906 80.9503 161.317 80.8693 161.778 80.8693C162.425 80.8693 162.934 81.0114 163.303 81.2955C163.675 81.5795 163.94 81.9545 164.096 82.4205Z" fill="black" fill-opacity="0.7"/>
<path d="M201.43 54.7079C200.051 56.3627 197.843 57.0768 195.756 56.543M187.287 51.143C187.287 56.587 191.7 61.0002 197.144 61.0002C202.588 61.0002 207.001 56.587 207.001 51.143C207.001 45.6991 202.588 41.2859 197.144 41.2859C191.7 41.2859 187.287 45.6991 187.287 51.143ZM206.218 47.2859L205.428 49.7776C205.088 50.8472 204.095 51.5732 202.973 51.5716H199.344C199.043 51.5714 198.764 51.4132 198.609 51.155L197.793 49.7965C197.657 49.5682 197.41 49.4284 197.144 49.4284C196.878 49.4284 196.632 49.5682 196.495 49.7965L195.679 51.155C195.525 51.4132 195.246 51.5714 194.945 51.5716H191.316C190.195 51.5717 189.203 50.8459 188.864 49.7776L188.071 47.2859H206.218Z" stroke="#DD8433" stroke-width="1.14286" stroke-linecap="round" stroke-linejoin="round"/>
<path d="M225.08 49.5H224.023C223.96 49.196 223.851 48.929 223.695 48.6989C223.541 48.4688 223.354 48.2756 223.132 48.1193C222.913 47.9602 222.67 47.8409 222.403 47.7614C222.136 47.6818 221.858 47.642 221.568 47.642C221.04 47.642 220.561 47.7756 220.132 48.0426C219.706 48.3097 219.366 48.7031 219.114 49.223C218.864 49.7429 218.739 50.3807 218.739 51.1364C218.739 51.892 218.864 52.5298 219.114 53.0497C219.366 53.5696 219.706 53.9631 220.132 54.2301C220.561 54.4972 221.04 54.6307 221.568 54.6307C221.858 54.6307 222.136 54.5909 222.403 54.5114C222.67 54.4318 222.913 54.3139 223.132 54.1577C223.354 53.9986 223.541 53.804 223.695 53.5739C223.851 53.3409 223.96 53.0739 224.023 52.7727H225.08C225 53.2187 224.855 53.6179 224.645 53.9702C224.435 54.3224 224.173 54.6222 223.861 54.8693C223.548 55.1136 223.197 55.2997 222.808 55.4276C222.422 55.5554 222.009 55.6193 221.568 55.6193C220.824 55.6193 220.162 55.4375 219.582 55.0739C219.003 54.7102 218.547 54.1932 218.214 53.5227C217.882 52.8523 217.716 52.0568 217.716 51.1364C217.716 50.2159 217.882 49.4205 218.214 48.75C218.547 48.0795 219.003 47.5625 219.582 47.1989C220.162 46.8352 220.824 46.6534 221.568 46.6534C222.009 46.6534 222.422 46.7173 222.808 46.8452C223.197 46.973 223.548 47.1605 223.861 47.4077C224.173 47.652 224.435 47.9503 224.645 48.3026C224.855 48.652 225 49.0511 225.08 49.5ZM229.31 55.6364C228.719 55.6364 228.201 55.4957 227.755 55.2145C227.311 54.9332 226.965 54.5398 226.715 54.0341C226.468 53.5284 226.344 52.9375 226.344 52.2614C226.344 51.5795 226.468 50.9844 226.715 50.4759C226.965 49.9673 227.311 49.5724 227.755 49.2912C228.201 49.0099 228.719 48.8693 229.31 48.8693C229.901 48.8693 230.418 49.0099 230.861 49.2912C231.307 49.5724 231.654 49.9673 231.901 50.4759C232.151 50.9844 232.276 51.5795 232.276 52.2614C232.276 52.9375 232.151 53.5284 231.901 54.0341C231.654 54.5398 231.307 54.9332 230.861 55.2145C230.418 55.4957 229.901 55.6364 229.31 55.6364ZM229.31 54.733C229.759 54.733 230.128 54.6179 230.418 54.3878C230.708 54.1577 230.922 53.8551 231.061 53.4801C231.201 53.1051 231.27 52.6989 231.27 52.2614C231.27 51.8239 231.201 51.4162 231.061 51.0384C230.922 50.6605 230.708 50.3551 230.418 50.1222C230.128 49.8892 229.759 49.7727 229.31 49.7727C228.861 49.7727 228.492 49.8892 228.202 50.1222C227.912 50.3551 227.698 50.6605 227.559 51.0384C227.419 51.4162 227.35 51.8239 227.35 52.2614C227.35 52.6989 227.419 53.1051 227.559 53.4801C227.698 53.8551 227.912 54.1577 228.202 54.3878C228.492 54.6179 228.861 54.733 229.31 54.733ZM234.817 51.5625V55.5H233.811V48.9545H234.783V49.9773H234.868C235.021 49.6449 235.254 49.3778 235.567 49.1761C235.879 48.9716 236.283 48.8693 236.777 48.8693C237.22 48.8693 237.608 48.9602 237.94 49.142C238.273 49.321 238.531 49.5938 238.716 49.9602C238.901 50.3239 238.993 50.7841 238.993 51.3409V55.5H237.987V51.4091C237.987 50.8949 237.854 50.4943 237.587 50.2074C237.32 49.9176 236.953 49.7727 236.487 49.7727C236.166 49.7727 235.879 49.8423 235.626 49.9815C235.376 50.1207 235.179 50.3239 235.034 50.5909C234.889 50.858 234.817 51.1818 234.817 51.5625ZM243.745 48.9545V49.8068H240.217V48.9545H243.745ZM241.274 55.5V48.0511C241.274 47.6761 241.362 47.3636 241.538 47.1136C241.714 46.8636 241.943 46.6761 242.224 46.5511C242.505 46.4261 242.802 46.3636 243.115 46.3636C243.362 46.3636 243.564 46.3835 243.72 46.4233C243.876 46.4631 243.993 46.5 244.069 46.5341L243.779 47.4034C243.728 47.3864 243.657 47.3651 243.566 47.3395C243.478 47.3139 243.362 47.3011 243.217 47.3011C242.885 47.3011 242.645 47.3849 242.497 47.5526C242.352 47.7202 242.279 47.9659 242.279 48.2898V55.5H241.274ZM245.155 55.5V48.9545H246.161V55.5H245.155ZM245.666 47.8636C245.47 47.8636 245.301 47.7969 245.159 47.6634C245.02 47.5298 244.95 47.3693 244.95 47.1818C244.95 46.9943 245.02 46.8338 245.159 46.7003C245.301 46.5668 245.47 46.5 245.666 46.5C245.862 46.5 246.03 46.5668 246.169 46.7003C246.311 46.8338 246.382 46.9943 246.382 47.1818C246.382 47.3693 246.311 47.5298 246.169 47.6634C246.03 47.7969 245.862 47.8636 245.666 47.8636ZM250.474 55.6364C249.929 55.6364 249.447 55.4986 249.029 55.223C248.612 54.9446 248.285 54.5526 248.049 54.0469C247.814 53.5384 247.696 52.9375 247.696 52.2443C247.696 51.5568 247.814 50.9602 248.049 50.4545C248.285 49.9489 248.613 49.5582 249.034 49.2827C249.454 49.0071 249.94 48.8693 250.491 48.8693C250.917 48.8693 251.254 48.9403 251.501 49.0824C251.751 49.2216 251.941 49.3807 252.072 49.5597C252.206 49.7358 252.309 49.8807 252.383 49.9943H252.468V46.7727H253.474V55.5H252.502V54.4943H252.383C252.309 54.6136 252.204 54.7642 252.068 54.946C251.931 55.125 251.737 55.2855 251.484 55.4276C251.231 55.5668 250.895 55.6364 250.474 55.6364ZM250.61 54.733C251.014 54.733 251.355 54.6278 251.633 54.4176C251.912 54.2045 252.123 53.9105 252.268 53.5355C252.413 53.1577 252.485 52.7216 252.485 52.2273C252.485 51.7386 252.414 51.3111 252.272 50.9446C252.13 50.5753 251.92 50.2884 251.642 50.0838C251.363 49.8764 251.02 49.7727 250.61 49.7727C250.184 49.7727 249.829 49.8821 249.545 50.1009C249.264 50.3168 249.052 50.6108 248.91 50.983C248.771 51.3523 248.701 51.767 248.701 52.2273C248.701 52.6932 248.772 53.1165 248.914 53.4972C249.059 53.875 249.272 54.1761 249.554 54.4006C249.838 54.6222 250.19 54.733 250.61 54.733ZM258.2 55.6364C257.569 55.6364 257.025 55.4972 256.568 55.2188C256.113 54.9375 255.762 54.5455 255.515 54.0426C255.271 53.5369 255.149 52.9489 255.149 52.2784C255.149 51.608 255.271 51.017 255.515 50.5057C255.762 49.9915 256.106 49.5909 256.547 49.304C256.99 49.0142 257.507 48.8693 258.098 48.8693C258.439 48.8693 258.775 48.9261 259.108 49.0398C259.44 49.1534 259.743 49.3381 260.015 49.5938C260.288 49.8466 260.505 50.1818 260.667 50.5994C260.829 51.017 260.91 51.5312 260.91 52.142V52.5682H255.865V51.6989H259.887C259.887 51.3295 259.814 51 259.666 50.7102C259.521 50.4205 259.314 50.1918 259.044 50.0241C258.777 49.8565 258.461 49.7727 258.098 49.7727C257.697 49.7727 257.35 49.8722 257.058 50.071C256.768 50.267 256.545 50.5227 256.389 50.8381C256.233 51.1534 256.154 51.4915 256.154 51.8523V52.4318C256.154 52.9261 256.24 53.3452 256.41 53.6889C256.583 54.0298 256.824 54.2898 257.13 54.4688C257.437 54.6449 257.794 54.733 258.2 54.733C258.464 54.733 258.703 54.696 258.916 54.6222C259.132 54.5455 259.318 54.4318 259.474 54.2812C259.63 54.1278 259.751 53.9375 259.836 53.7102L260.808 53.983C260.706 54.3125 260.534 54.6023 260.292 54.8523C260.051 55.0994 259.752 55.2926 259.397 55.4318C259.042 55.5682 258.643 55.6364 258.2 55.6364ZM263.446 51.5625V55.5H262.44V48.9545H263.412V49.9773H263.497C263.65 49.6449 263.883 49.3778 264.196 49.1761C264.508 48.9716 264.912 48.8693 265.406 48.8693C265.849 48.8693 266.237 48.9602 266.569 49.142C266.902 49.321 267.16 49.5938 267.345 49.9602C267.529 50.3239 267.622 50.7841 267.622 51.3409V55.5H266.616V51.4091C266.616 50.8949 266.483 50.4943 266.216 50.2074C265.949 49.9176 265.582 49.7727 265.116 49.7727C264.795 49.7727 264.508 49.8423 264.255 49.9815C264.005 50.1207 263.808 50.3239 263.663 50.5909C263.518 50.858 263.446 51.1818 263.446 51.5625ZM272.119 55.6364C271.505 55.6364 270.977 55.4915 270.533 55.2017C270.09 54.9119 269.749 54.5128 269.511 54.0043C269.272 53.4957 269.153 52.9148 269.153 52.2614C269.153 51.5966 269.275 51.0099 269.519 50.5014C269.766 49.9901 270.11 49.5909 270.55 49.304C270.994 49.0142 271.511 48.8693 272.102 48.8693C272.562 48.8693 272.977 48.9545 273.346 49.125C273.715 49.2955 274.018 49.5341 274.254 49.8409C274.489 50.1477 274.636 50.5057 274.692 50.9148H273.687C273.61 50.6165 273.44 50.3523 273.175 50.1222C272.914 49.8892 272.562 49.7727 272.119 49.7727C271.727 49.7727 271.383 49.875 271.087 50.0795C270.795 50.2812 270.566 50.5668 270.401 50.9361C270.239 51.3026 270.158 51.733 270.158 52.2273C270.158 52.733 270.238 53.1733 270.397 53.5483C270.559 53.9233 270.786 54.2145 271.079 54.4219C271.374 54.6293 271.721 54.733 272.119 54.733C272.38 54.733 272.617 54.6875 272.83 54.5966C273.043 54.5057 273.224 54.375 273.371 54.2045C273.519 54.0341 273.624 53.8295 273.687 53.5909H274.692C274.636 53.9773 274.495 54.3253 274.271 54.6349C274.049 54.9418 273.755 55.1861 273.388 55.3679C273.025 55.5469 272.602 55.6364 272.119 55.6364ZM278.907 55.6364C278.276 55.6364 277.732 55.4972 277.275 55.2188C276.82 54.9375 276.469 54.5455 276.222 54.0426C275.978 53.5369 275.856 52.9489 275.856 52.2784C275.856 51.608 275.978 51.017 276.222 50.5057C276.469 49.9915 276.813 49.5909 277.254 49.304C277.697 49.0142 278.214 48.8693 278.805 48.8693C279.146 48.8693 279.482 48.9261 279.815 49.0398C280.147 49.1534 280.45 49.3381 280.722 49.5938C280.995 49.8466 281.212 50.1818 281.374 50.5994C281.536 51.017 281.617 51.5312 281.617 52.142V52.5682H276.572V51.6989H280.594C280.594 51.3295 280.521 51 280.373 50.7102C280.228 50.4205 280.021 50.1918 279.751 50.0241C279.484 49.8565 279.168 49.7727 278.805 49.7727C278.404 49.7727 278.058 49.8722 277.765 50.071C277.475 50.267 277.252 50.5227 277.096 50.8381C276.94 51.1534 276.862 51.4915 276.862 51.8523V52.4318C276.862 52.9261 276.947 53.3452 277.117 53.6889C277.29 54.0298 277.531 54.2898 277.837 54.4688C278.144 54.6449 278.501 54.733 278.907 54.733C279.171 54.733 279.41 54.696 279.623 54.6222C279.839 54.5455 280.025 54.4318 280.181 54.2812C280.337 54.1278 280.458 53.9375 280.543 53.7102L281.515 53.983C281.413 54.3125 281.241 54.6023 280.999 54.8523C280.758 55.0994 280.46 55.2926 280.104 55.4318C279.749 55.5682 279.35 55.6364 278.907 55.6364Z" fill="black" fill-opacity="0.7"/>
<path d="M187.287 79.7145C187.958 79.4399 188.443 78.8421 188.573 78.1288C188.974 76.4655 189.767 74.9225 190.887 73.6288C191.171 73.2501 191.708 73.1733 192.087 73.4574C192.466 73.7414 192.543 74.2787 192.259 74.6574C191.762 75.324 191.358 76.0553 191.059 76.8311C192.026 75.6632 193.273 74.7594 194.684 74.2039C195.124 74.0283 195.623 74.2424 195.799 74.6822C195.974 75.122 195.76 75.6209 195.32 75.7965C194.146 76.2555 193.112 77.013 192.32 77.9942C193.473 77.3923 194.81 77.2505 196.063 77.5974C196.367 77.6656 196.609 77.8929 196.697 78.1911C196.785 78.4894 196.705 78.8119 196.487 79.0339C196.269 79.2558 195.948 79.3425 195.649 79.2602C194.93 79.0571 194.166 79.0871 193.466 79.3459C195.334 79.6439 196.71 81.2519 196.716 83.1431C196.716 83.6165 196.332 84.0002 195.859 84.0002C195.385 84.0002 195.001 83.6165 195.001 83.1431C195.001 82.0849 194.229 81.1851 193.183 81.0249C192.137 80.8647 191.131 81.4919 190.814 82.5016C190.497 83.5113 190.965 84.601 191.915 85.067C192.865 85.5329 194.013 85.2356 194.617 84.3671C194.888 83.9795 195.422 83.8844 195.81 84.1545C196.192 84.4291 196.286 84.9577 196.023 85.3477C195.181 86.7424 193.627 87.5465 192.001 87.4288C189.859 87.4288 189.001 86.5717 187.287 86.5717M207.001 86.5717C206.33 86.8462 205.846 87.4441 205.716 88.1574C205.315 89.8206 204.521 91.3637 203.401 92.6574C203.117 93.0361 202.58 93.1128 202.201 92.8288C201.823 92.5448 201.746 92.0075 202.03 91.6288C202.527 90.9622 202.931 90.2308 203.23 89.4551C202.263 90.623 201.015 91.5268 199.604 92.0822C199.164 92.2579 198.666 92.0437 198.49 91.6039C198.314 91.1642 198.528 90.6653 198.968 90.4897C200.143 90.0307 201.177 89.2732 201.968 88.2919C200.816 88.8938 199.478 89.0357 198.225 88.6888C197.922 88.6205 197.679 88.3933 197.591 88.0951C197.503 87.7968 197.584 87.4743 197.801 87.2523C198.019 87.0303 198.34 86.9437 198.64 87.0259C199.358 87.2291 200.122 87.1991 200.822 86.9402C198.955 86.6423 197.579 85.0342 197.573 83.1431C197.573 82.6697 197.957 82.2859 198.43 82.2859C198.903 82.2859 199.287 82.6697 199.287 83.1431C199.287 84.2013 200.06 85.101 201.105 85.2613C202.151 85.4215 203.158 84.7942 203.475 83.7846C203.791 82.7749 203.324 81.6852 202.374 81.2192C201.424 80.7532 200.276 81.0505 199.671 81.9191C199.4 82.3066 198.867 82.4017 198.479 82.1317C198.097 81.8571 198.002 81.3285 198.265 80.9385C199.108 79.5437 200.662 78.7396 202.287 78.8574C204.43 78.8574 205.287 79.7145 207.001 79.7145" stroke="#B65EDF" stroke-width="1.14286" stroke-linecap="round" stroke-linejoin="round"/>
<path d="M222.83 80.9545C222.778 80.5227 222.571 80.1875 222.207 79.9489C221.844 79.7102 221.398 79.5909 220.869 79.5909C220.483 79.5909 220.145 79.6534 219.855 79.7784C219.568 79.9034 219.344 80.0753 219.182 80.294C219.023 80.5128 218.943 80.7614 218.943 81.0398C218.943 81.2727 218.999 81.473 219.109 81.6406C219.223 81.8054 219.368 81.9432 219.544 82.054C219.72 82.1619 219.905 82.2514 220.098 82.3224C220.291 82.3906 220.469 82.446 220.631 82.4886L221.517 82.7273C221.744 82.7869 221.997 82.8693 222.276 82.9744C222.557 83.0795 222.825 83.223 223.081 83.4048C223.339 83.5838 223.553 83.8139 223.72 84.0952C223.888 84.3764 223.972 84.7216 223.972 85.1307C223.972 85.6023 223.848 86.0284 223.601 86.4091C223.357 86.7898 222.999 87.0923 222.527 87.3168C222.058 87.5412 221.489 87.6534 220.818 87.6534C220.193 87.6534 219.652 87.5526 219.195 87.3509C218.74 87.1491 218.382 86.8679 218.121 86.5071C217.862 86.1463 217.716 85.7273 217.682 85.25H218.773C218.801 85.5795 218.912 85.8523 219.105 86.0682C219.301 86.2812 219.548 86.4403 219.847 86.5455C220.148 86.6477 220.472 86.6989 220.818 86.6989C221.222 86.6989 221.584 86.6335 221.905 86.5028C222.226 86.3693 222.48 86.1847 222.668 85.9489C222.855 85.7102 222.949 85.4318 222.949 85.1136C222.949 84.8239 222.868 84.5881 222.706 84.4062C222.544 84.2244 222.331 84.0767 222.067 83.9631C221.803 83.8494 221.517 83.75 221.21 83.6648L220.136 83.358C219.455 83.1619 218.915 82.8821 218.517 82.5185C218.119 82.1548 217.92 81.679 217.92 81.0909C217.92 80.6023 218.053 80.1761 218.317 79.8125C218.584 79.446 218.942 79.1619 219.391 78.9602C219.842 78.7557 220.347 78.6534 220.903 78.6534C221.466 78.6534 221.966 78.7543 222.403 78.956C222.841 79.1548 223.188 79.4276 223.443 79.7741C223.702 80.1207 223.838 80.5142 223.852 80.9545H222.83ZM228.232 87.6364C227.641 87.6364 227.123 87.4957 226.676 87.2145C226.233 86.9332 225.887 86.5398 225.637 86.0341C225.39 85.5284 225.266 84.9375 225.266 84.2614C225.266 83.5795 225.39 82.9844 225.637 82.4759C225.887 81.9673 226.233 81.5724 226.676 81.2912C227.123 81.0099 227.641 80.8693 228.232 80.8693C228.823 80.8693 229.34 81.0099 229.783 81.2912C230.229 81.5724 230.576 81.9673 230.823 82.4759C231.073 82.9844 231.198 83.5795 231.198 84.2614C231.198 84.9375 231.073 85.5284 230.823 86.0341C230.576 86.5398 230.229 86.9332 229.783 87.2145C229.34 87.4957 228.823 87.6364 228.232 87.6364ZM228.232 86.733C228.681 86.733 229.05 86.6179 229.34 86.3878C229.63 86.1577 229.844 85.8551 229.983 85.4801C230.123 85.1051 230.192 84.6989 230.192 84.2614C230.192 83.8239 230.123 83.4162 229.983 83.0384C229.844 82.6605 229.63 82.3551 229.34 82.1222C229.05 81.8892 228.681 81.7727 228.232 81.7727C227.783 81.7727 227.414 81.8892 227.124 82.1222C226.834 82.3551 226.62 82.6605 226.48 83.0384C226.341 83.4162 226.272 83.8239 226.272 84.2614C226.272 84.6989 226.341 85.1051 226.48 85.4801C226.62 85.8551 226.834 86.1577 227.124 86.3878C227.414 86.6179 227.783 86.733 228.232 86.733ZM235.392 87.6364C234.778 87.6364 234.25 87.4915 233.807 87.2017C233.364 86.9119 233.023 86.5128 232.784 86.0043C232.545 85.4957 232.426 84.9148 232.426 84.2614C232.426 83.5966 232.548 83.0099 232.793 82.5014C233.04 81.9901 233.384 81.5909 233.824 81.304C234.267 81.0142 234.784 80.8693 235.375 80.8693C235.835 80.8693 236.25 80.9545 236.619 81.125C236.989 81.2955 237.291 81.5341 237.527 81.8409C237.763 82.1477 237.909 82.5057 237.966 82.9148H236.96C236.884 82.6165 236.713 82.3523 236.449 82.1222C236.188 81.8892 235.835 81.7727 235.392 81.7727C235 81.7727 234.656 81.875 234.361 82.0795C234.068 82.2812 233.839 82.5668 233.675 82.9361C233.513 83.3026 233.432 83.733 233.432 84.2273C233.432 84.733 233.511 85.1733 233.67 85.5483C233.832 85.9233 234.06 86.2145 234.352 86.4219C234.648 86.6293 234.994 86.733 235.392 86.733C235.653 86.733 235.891 86.6875 236.104 86.5966C236.317 86.5057 236.497 86.375 236.645 86.2045C236.793 86.0341 236.898 85.8295 236.96 85.5909H237.966C237.909 85.9773 237.768 86.3253 237.544 86.6349C237.322 86.9418 237.028 87.1861 236.662 87.3679C236.298 87.5469 235.875 87.6364 235.392 87.6364ZM239.436 87.5V80.9545H240.442V87.5H239.436ZM239.947 79.8636C239.751 79.8636 239.582 79.7969 239.44 79.6634C239.301 79.5298 239.232 79.3693 239.232 79.1818C239.232 78.9943 239.301 78.8338 239.44 78.7003C239.582 78.5668 239.751 78.5 239.947 78.5C240.143 78.5 240.311 78.5668 240.45 78.7003C240.592 78.8338 240.663 78.9943 240.663 79.1818C240.663 79.3693 240.592 79.5298 240.45 79.6634C240.311 79.7969 240.143 79.8636 239.947 79.8636ZM244.21 87.6534C243.795 87.6534 243.419 87.5753 243.081 87.419C242.743 87.2599 242.474 87.0312 242.275 86.733C242.076 86.4318 241.977 86.0682 241.977 85.642C241.977 85.267 242.051 84.9631 242.199 84.7301C242.346 84.4943 242.544 84.3097 242.791 84.1761C243.038 84.0426 243.311 83.9432 243.609 83.8778C243.91 83.8097 244.213 83.7557 244.517 83.7159C244.914 83.6648 245.237 83.6264 245.484 83.6009C245.734 83.5724 245.916 83.5256 246.029 83.4602C246.146 83.3949 246.204 83.2812 246.204 83.1193V83.0852C246.204 82.6648 246.089 82.3381 245.859 82.1051C245.632 81.8722 245.287 81.7557 244.824 81.7557C244.343 81.7557 243.967 81.8608 243.694 82.071C243.422 82.2812 243.23 82.5057 243.119 82.7443L242.164 82.4034C242.335 82.0057 242.562 81.696 242.846 81.4744C243.133 81.25 243.446 81.0937 243.784 81.0057C244.125 80.9148 244.46 80.8693 244.789 80.8693C245 80.8693 245.241 80.8949 245.514 80.946C245.789 80.9943 246.055 81.0952 246.311 81.2486C246.569 81.402 246.784 81.6335 246.954 81.9432C247.125 82.2528 247.21 82.6676 247.21 83.1875V87.5H246.204V86.6136H246.153C246.085 86.7557 245.971 86.9077 245.812 87.0696C245.653 87.2315 245.441 87.3693 245.177 87.483C244.913 87.5966 244.591 87.6534 244.21 87.6534ZM244.363 86.75C244.761 86.75 245.096 86.6719 245.369 86.5156C245.645 86.3594 245.852 86.1577 245.991 85.9105C246.133 85.6634 246.204 85.4034 246.204 85.1307V84.2102C246.162 84.2614 246.068 84.3082 245.923 84.3509C245.781 84.3906 245.616 84.4261 245.429 84.4574C245.244 84.4858 245.064 84.5114 244.887 84.5341C244.714 84.554 244.574 84.571 244.466 84.5852C244.204 84.6193 243.96 84.6747 243.733 84.7514C243.508 84.8253 243.326 84.9375 243.187 85.0881C243.051 85.2358 242.983 85.4375 242.983 85.6932C242.983 86.0426 243.112 86.3068 243.37 86.4858C243.632 86.6619 243.963 86.75 244.363 86.75ZM250.051 78.7727V87.5H249.045V78.7727H250.051ZM260.177 80.9545C260.126 80.5227 259.919 80.1875 259.555 79.9489C259.191 79.7102 258.745 79.5909 258.217 79.5909C257.831 79.5909 257.493 79.6534 257.203 79.7784C256.916 79.9034 256.691 80.0753 256.529 80.294C256.37 80.5128 256.291 80.7614 256.291 81.0398C256.291 81.2727 256.346 81.473 256.457 81.6406C256.571 81.8054 256.716 81.9432 256.892 82.054C257.068 82.1619 257.252 82.2514 257.446 82.3224C257.639 82.3906 257.816 82.446 257.978 82.4886L258.865 82.7273C259.092 82.7869 259.345 82.8693 259.623 82.9744C259.904 83.0795 260.173 83.223 260.429 83.4048C260.687 83.5838 260.9 83.8139 261.068 84.0952C261.235 84.3764 261.319 84.7216 261.319 85.1307C261.319 85.6023 261.196 86.0284 260.949 86.4091C260.704 86.7898 260.346 87.0923 259.875 87.3168C259.406 87.5412 258.836 87.6534 258.166 87.6534C257.541 87.6534 257 87.5526 256.542 87.3509C256.088 87.1491 255.73 86.8679 255.468 86.5071C255.21 86.1463 255.064 85.7273 255.029 85.25H256.12C256.149 85.5795 256.26 85.8523 256.453 86.0682C256.649 86.2812 256.896 86.4403 257.194 86.5455C257.495 86.6477 257.819 86.6989 258.166 86.6989C258.569 86.6989 258.931 86.6335 259.252 86.5028C259.574 86.3693 259.828 86.1847 260.015 85.9489C260.203 85.7102 260.297 85.4318 260.297 85.1136C260.297 84.8239 260.216 84.5881 260.054 84.4062C259.892 84.2244 259.679 84.0767 259.414 83.9631C259.15 83.8494 258.865 83.75 258.558 83.6648L257.484 83.358C256.802 83.1619 256.262 82.8821 255.865 82.5185C255.467 82.1548 255.268 81.679 255.268 81.0909C255.268 80.6023 255.4 80.1761 255.664 79.8125C255.931 79.446 256.289 79.1619 256.738 78.9602C257.19 78.7557 257.694 78.6534 258.251 78.6534C258.814 78.6534 259.314 78.7543 259.751 78.956C260.189 79.1548 260.535 79.4276 260.791 79.7741C261.049 80.1207 261.186 80.5142 261.2 80.9545H260.177ZM263.858 85.1136L263.841 83.8693H264.045L266.909 80.9545H268.153L265.102 84.0398H265.017L263.858 85.1136ZM262.92 87.5V78.7727H263.926V87.5H262.92ZM267.08 87.5L264.523 84.2614L265.239 83.5625L268.358 87.5H267.08ZM269.448 87.5V80.9545H270.453V87.5H269.448ZM269.959 79.8636C269.763 79.8636 269.594 79.7969 269.452 79.6634C269.313 79.5298 269.243 79.3693 269.243 79.1818C269.243 78.9943 269.313 78.8338 269.452 78.7003C269.594 78.5668 269.763 78.5 269.959 78.5C270.155 78.5 270.323 78.5668 270.462 78.7003C270.604 78.8338 270.675 78.9943 270.675 79.1818C270.675 79.3693 270.604 79.5298 270.462 79.6634C270.323 79.7969 270.155 79.8636 269.959 79.8636ZM273.301 78.7727V87.5H272.295V78.7727H273.301ZM276.149 78.7727V87.5H275.143V78.7727H276.149ZM282.627 82.4205L281.724 82.6761C281.667 82.5256 281.583 82.3793 281.472 82.2372C281.364 82.0923 281.217 81.973 281.029 81.8793C280.842 81.7855 280.602 81.7386 280.309 81.7386C279.908 81.7386 279.575 81.831 279.308 82.0156C279.043 82.1974 278.911 82.429 278.911 82.7102C278.911 82.9602 279.002 83.1577 279.184 83.3026C279.366 83.4474 279.65 83.5682 280.036 83.6648L281.008 83.9034C281.593 84.0455 282.029 84.2628 282.316 84.5554C282.603 84.8452 282.746 85.2187 282.746 85.6761C282.746 86.0511 282.638 86.3864 282.423 86.6818C282.21 86.9773 281.911 87.2102 281.528 87.3807C281.144 87.5511 280.698 87.6364 280.19 87.6364C279.522 87.6364 278.969 87.4915 278.532 87.2017C278.094 86.9119 277.817 86.4886 277.701 85.9318L278.656 85.6932C278.746 86.0455 278.918 86.3097 279.171 86.4858C279.427 86.6619 279.761 86.75 280.173 86.75C280.641 86.75 281.013 86.6506 281.289 86.4517C281.567 86.25 281.707 86.0085 281.707 85.7273C281.707 85.5 281.627 85.3097 281.468 85.1562C281.309 85 281.065 84.8835 280.735 84.8068L279.644 84.5511C279.045 84.4091 278.604 84.1889 278.323 83.8906C278.045 83.5895 277.906 83.2131 277.906 82.7614C277.906 82.392 278.009 82.0653 278.217 81.7812C278.427 81.4972 278.712 81.2741 279.073 81.1122C279.437 80.9503 279.849 80.8693 280.309 80.8693C280.957 80.8693 281.465 81.0114 281.835 81.2955C282.207 81.5795 282.471 81.9545 282.627 82.4205Z" fill="black" fill-opacity="0.7"/>
</svg>
