<svg width="350" height="139" viewBox="0 0 350 139" fill="none" xmlns="http://www.w3.org/2000/svg">
<rect width="350" height="139" rx="12" fill="#E8F4FB"/>
<path d="M13.9815 24H12.294L15.3665 15.2727H17.3182L20.3949 24H18.7074L16.3764 17.0625H16.3082L13.9815 24ZM14.0369 20.5781H18.6392V21.848H14.0369V20.5781ZM23.706 24.1151C23.1918 24.1151 22.7315 23.983 22.3253 23.7188C21.919 23.4545 21.598 23.071 21.3622 22.5682C21.1264 22.0653 21.0085 21.4545 21.0085 20.7358C21.0085 20.0085 21.1278 19.3949 21.3665 18.8949C21.608 18.392 21.9332 18.0128 22.3423 17.7571C22.7514 17.4986 23.2074 17.3693 23.7102 17.3693C24.0938 17.3693 24.4091 17.4347 24.6562 17.5653C24.9034 17.6932 25.0994 17.848 25.2443 18.0298C25.3892 18.2088 25.5014 18.3778 25.581 18.5369H25.6449V15.2727H27.1918V24H25.6747V22.9688H25.581C25.5014 23.1278 25.3864 23.2969 25.2358 23.4759C25.0852 23.652 24.8864 23.8026 24.6392 23.9276C24.392 24.0526 24.081 24.1151 23.706 24.1151ZM24.1364 22.8494C24.4631 22.8494 24.7415 22.7614 24.9716 22.5852C25.2017 22.4062 25.3764 22.1577 25.4957 21.8395C25.6151 21.5213 25.6747 21.1506 25.6747 20.7273C25.6747 20.304 25.6151 19.9361 25.4957 19.6236C25.3793 19.3111 25.206 19.0682 24.9759 18.8949C24.7486 18.7216 24.4688 18.6349 24.1364 18.6349C23.7926 18.6349 23.5057 18.7244 23.2756 18.9034C23.0455 19.0824 22.8722 19.3295 22.7557 19.6449C22.6392 19.9602 22.581 20.321 22.581 20.7273C22.581 21.1364 22.6392 21.5014 22.7557 21.8224C22.875 22.1406 23.0497 22.392 23.2798 22.5767C23.5128 22.7585 23.7983 22.8494 24.1364 22.8494ZM33.0075 21.2472V17.4545H34.5501V24H33.0543V22.8366H32.9862C32.8384 23.2031 32.5955 23.5028 32.2575 23.7358C31.9222 23.9687 31.5089 24.0852 31.0174 24.0852C30.5884 24.0852 30.2092 23.9901 29.8796 23.7997C29.5529 23.6065 29.2972 23.3267 29.1126 22.9602C28.9279 22.5909 28.8356 22.1449 28.8356 21.6222V17.4545H30.3782V21.3835C30.3782 21.7983 30.4918 22.1278 30.7191 22.3722C30.9464 22.6165 31.2447 22.7386 31.614 22.7386C31.8413 22.7386 32.0614 22.6832 32.2745 22.5724C32.4876 22.4616 32.6623 22.2969 32.7987 22.0781C32.9379 21.8565 33.0075 21.5795 33.0075 21.2472ZM37.679 15.2727V24H36.1364V15.2727H37.679ZM42.5337 17.4545V18.6477H38.771V17.4545H42.5337ZM39.6999 15.8864H41.2425V22.0312C41.2425 22.2386 41.2738 22.3977 41.3363 22.5085C41.4016 22.6165 41.4869 22.6903 41.592 22.7301C41.6971 22.7699 41.8136 22.7898 41.9414 22.7898C42.038 22.7898 42.1261 22.7827 42.2056 22.7685C42.288 22.7543 42.3505 22.7415 42.3931 22.7301L42.6531 23.9361C42.5707 23.9645 42.4528 23.9957 42.2994 24.0298C42.1488 24.0639 41.9641 24.0838 41.7454 24.0895C41.359 24.1009 41.011 24.0426 40.7013 23.9148C40.3917 23.7841 40.146 23.5824 39.9641 23.3097C39.7852 23.0369 39.6971 22.696 39.6999 22.2869V15.8864ZM47.5803 19.7301V21H43.6513V19.7301H47.5803ZM56.7411 18.2173H55.1474C55.1019 17.956 55.0181 17.7244 54.896 17.5227C54.7738 17.3182 54.6218 17.1449 54.44 17.0028C54.2582 16.8608 54.0508 16.7543 53.8178 16.6832C53.5877 16.6094 53.3391 16.5724 53.0721 16.5724C52.5977 16.5724 52.1772 16.6918 51.8107 16.9304C51.4442 17.1662 51.1573 17.5128 50.9499 17.9702C50.7425 18.4247 50.6388 18.9801 50.6388 19.6364C50.6388 20.304 50.7425 20.8665 50.9499 21.3239C51.1602 21.7784 51.4471 22.1222 51.8107 22.3551C52.1772 22.5852 52.5962 22.7003 53.0678 22.7003C53.3292 22.7003 53.5735 22.6662 53.8008 22.598C54.0309 22.527 54.2369 22.4233 54.4187 22.2869C54.6033 22.1506 54.7582 21.983 54.8832 21.7841C55.011 21.5852 55.0991 21.358 55.1474 21.1023L56.7411 21.1108C56.6815 21.5256 56.5522 21.9148 56.3533 22.2784C56.1573 22.642 55.9002 22.9631 55.582 23.2415C55.2638 23.517 54.8917 23.733 54.4656 23.8892C54.0394 24.0426 53.5664 24.1193 53.0465 24.1193C52.2795 24.1193 51.5948 23.9418 50.9925 23.5866C50.3903 23.2315 49.9158 22.7188 49.5692 22.0483C49.2227 21.3778 49.0494 20.5739 49.0494 19.6364C49.0494 18.696 49.2241 17.892 49.5735 17.2244C49.9229 16.554 50.3988 16.0412 51.0011 15.6861C51.6033 15.331 52.2852 15.1534 53.0465 15.1534C53.5323 15.1534 53.984 15.2216 54.4016 15.358C54.8192 15.4943 55.1914 15.6946 55.5181 15.9588C55.8448 16.2202 56.1133 16.5412 56.3235 16.9219C56.5366 17.2997 56.6758 17.7315 56.7411 18.2173ZM59.6634 20.1648V24H58.1207V15.2727H59.6293V18.5668H59.706C59.8594 18.1974 60.0966 17.9062 60.4176 17.6932C60.7415 17.4773 61.1534 17.3693 61.6534 17.3693C62.108 17.3693 62.5043 17.4645 62.8423 17.6548C63.1804 17.8452 63.4418 18.1236 63.6264 18.4901C63.8139 18.8565 63.9077 19.304 63.9077 19.8324V24H62.3651V20.071C62.3651 19.6307 62.2514 19.2884 62.0241 19.044C61.7997 18.7969 61.4844 18.6733 61.0781 18.6733C60.8054 18.6733 60.5611 18.733 60.3452 18.8523C60.1321 18.9687 59.9645 19.1378 59.8423 19.3594C59.723 19.581 59.6634 19.8494 59.6634 20.1648ZM65.4801 24V17.4545H67.0227V24H65.4801ZM66.2557 16.5256C66.0114 16.5256 65.8011 16.4446 65.625 16.2827C65.4489 16.1179 65.3608 15.9205 65.3608 15.6903C65.3608 15.4574 65.4489 15.2599 65.625 15.098C65.8011 14.9332 66.0114 14.8509 66.2557 14.8509C66.5028 14.8509 66.7131 14.9332 66.8864 15.098C67.0625 15.2599 67.1506 15.4574 67.1506 15.6903C67.1506 15.9205 67.0625 16.1179 66.8864 16.2827C66.7131 16.4446 66.5028 16.5256 66.2557 16.5256ZM70.1516 15.2727V24H68.609V15.2727H70.1516ZM74.1669 24.1151C73.6527 24.1151 73.1925 23.983 72.7862 23.7188C72.38 23.4545 72.0589 23.071 71.8232 22.5682C71.5874 22.0653 71.4695 21.4545 71.4695 20.7358C71.4695 20.0085 71.5888 19.3949 71.8274 18.8949C72.0689 18.392 72.3942 18.0128 72.8033 17.7571C73.2124 17.4986 73.6683 17.3693 74.1712 17.3693C74.5547 17.3693 74.87 17.4347 75.1172 17.5653C75.3643 17.6932 75.5604 17.848 75.7053 18.0298C75.8501 18.2088 75.9624 18.3778 76.0419 18.5369H76.1058V15.2727H77.6527V24H76.1357V22.9688H76.0419C75.9624 23.1278 75.8473 23.2969 75.6967 23.4759C75.5462 23.652 75.3473 23.8026 75.1001 23.9276C74.853 24.0526 74.5419 24.1151 74.1669 24.1151ZM74.5973 22.8494C74.924 22.8494 75.2024 22.7614 75.4325 22.5852C75.6626 22.4062 75.8374 22.1577 75.9567 21.8395C76.076 21.5213 76.1357 21.1506 76.1357 20.7273C76.1357 20.304 76.076 19.9361 75.9567 19.6236C75.8402 19.3111 75.6669 19.0682 75.4368 18.8949C75.2095 18.7216 74.9297 18.6349 74.5973 18.6349C74.2536 18.6349 73.9666 18.7244 73.7365 18.9034C73.5064 19.0824 73.3331 19.3295 73.2166 19.6449C73.1001 19.9602 73.0419 20.321 73.0419 20.7273C73.0419 21.1364 73.1001 21.5014 73.2166 21.8224C73.3359 22.1406 73.5107 22.392 73.7408 22.5767C73.9737 22.7585 74.2592 22.8494 74.5973 22.8494ZM82.3413 24V15.2727H85.614C86.2844 15.2727 86.8469 15.3892 87.3015 15.6222C87.7589 15.8551 88.104 16.1818 88.337 16.6023C88.5728 17.0199 88.6907 17.5071 88.6907 18.0639C88.6907 18.6236 88.5714 19.1094 88.3327 19.5213C88.0969 19.9304 87.7489 20.2472 87.2887 20.4716C86.8285 20.6932 86.2631 20.804 85.5927 20.804H83.2617V19.4915H85.3796C85.7717 19.4915 86.0927 19.4375 86.3427 19.3295C86.5927 19.2187 86.7773 19.0582 86.8967 18.848C87.0188 18.6349 87.0799 18.3736 87.0799 18.0639C87.0799 17.7543 87.0188 17.4901 86.8967 17.2713C86.7745 17.0497 86.5884 16.8821 86.3384 16.7685C86.0884 16.652 85.766 16.5938 85.3711 16.5938H83.9222V24H82.3413ZM86.8498 20.0455L89.0103 24H87.2461L85.1239 20.0455H86.8498ZM91.9613 24.1321C91.5465 24.1321 91.1729 24.0582 90.8406 23.9105C90.511 23.7599 90.2496 23.5384 90.0565 23.2457C89.8661 22.9531 89.771 22.5923 89.771 22.1634C89.771 21.794 89.8391 21.4886 89.9755 21.2472C90.1119 21.0057 90.2979 20.8125 90.5337 20.6676C90.7695 20.5227 91.0352 20.4134 91.3306 20.3395C91.6289 20.2628 91.9371 20.2074 92.2553 20.1733C92.6388 20.1335 92.9499 20.098 93.1886 20.0668C93.4272 20.0327 93.6005 19.9815 93.7085 19.9134C93.8192 19.8423 93.8746 19.733 93.8746 19.5852V19.5597C93.8746 19.2386 93.7795 18.9901 93.5891 18.8139C93.3988 18.6378 93.1246 18.5497 92.7667 18.5497C92.3888 18.5497 92.0891 18.6321 91.8675 18.7969C91.6488 18.9616 91.5011 19.1562 91.4244 19.3807L89.984 19.1761C90.0977 18.7784 90.2852 18.446 90.5465 18.179C90.8079 17.9091 91.1275 17.7074 91.5053 17.5739C91.8832 17.4375 92.3008 17.3693 92.7582 17.3693C93.0735 17.3693 93.3874 17.4062 93.6999 17.4801C94.0124 17.554 94.2979 17.6761 94.5565 17.8466C94.815 18.0142 95.0224 18.2429 95.1786 18.5327C95.3377 18.8224 95.4173 19.1847 95.4173 19.6193V24H93.9343V23.1009H93.8832C93.7894 23.2827 93.6573 23.4531 93.4869 23.6122C93.3192 23.7685 93.1076 23.8949 92.8519 23.9915C92.5991 24.0852 92.3022 24.1321 91.9613 24.1321ZM92.3619 22.9986C92.6715 22.9986 92.94 22.9375 93.1673 22.8153C93.3945 22.6903 93.5692 22.5256 93.6914 22.321C93.8164 22.1165 93.8789 21.8935 93.8789 21.652V20.8807C93.8306 20.9205 93.7482 20.9574 93.6317 20.9915C93.5181 21.0256 93.3903 21.0554 93.2482 21.081C93.1062 21.1065 92.9656 21.1293 92.8263 21.1491C92.6871 21.169 92.5664 21.1861 92.4641 21.2003C92.234 21.2315 92.0281 21.2827 91.8462 21.3537C91.6644 21.4247 91.521 21.5241 91.4158 21.652C91.3107 21.777 91.2582 21.9389 91.2582 22.1378C91.2582 22.4219 91.3619 22.6364 91.5692 22.7812C91.7766 22.9261 92.0408 22.9986 92.3619 22.9986ZM100.237 17.4545V18.6477H96.4741V17.4545H100.237ZM97.4031 15.8864H98.9457V22.0312C98.9457 22.2386 98.9769 22.3977 99.0394 22.5085C99.1048 22.6165 99.19 22.6903 99.2951 22.7301C99.4002 22.7699 99.5167 22.7898 99.6445 22.7898C99.7411 22.7898 99.8292 22.7827 99.9087 22.7685C99.9911 22.7543 100.054 22.7415 100.096 22.7301L100.356 23.9361C100.274 23.9645 100.156 23.9957 100.002 24.0298C99.8519 24.0639 99.6673 24.0838 99.4485 24.0895C99.0621 24.1009 98.7141 24.0426 98.4045 23.9148C98.0948 23.7841 97.8491 23.5824 97.6673 23.3097C97.4883 23.0369 97.4002 22.696 97.4031 22.2869V15.8864ZM101.527 24V17.4545H103.07V24H101.527ZM102.303 16.5256C102.058 16.5256 101.848 16.4446 101.672 16.2827C101.496 16.1179 101.408 15.9205 101.408 15.6903C101.408 15.4574 101.496 15.2599 101.672 15.098C101.848 14.9332 102.058 14.8509 102.303 14.8509C102.55 14.8509 102.76 14.9332 102.933 15.098C103.109 15.2599 103.197 15.4574 103.197 15.6903C103.197 15.9205 103.109 16.1179 102.933 16.2827C102.76 16.4446 102.55 16.5256 102.303 16.5256ZM107.511 24.1278C106.872 24.1278 106.318 23.9872 105.849 23.706C105.38 23.4247 105.017 23.0312 104.758 22.5256C104.502 22.0199 104.375 21.429 104.375 20.7528C104.375 20.0767 104.502 19.4844 104.758 18.9759C105.017 18.4673 105.38 18.0724 105.849 17.7912C106.318 17.5099 106.872 17.3693 107.511 17.3693C108.15 17.3693 108.704 17.5099 109.173 17.7912C109.642 18.0724 110.004 18.4673 110.26 18.9759C110.518 19.4844 110.647 20.0767 110.647 20.7528C110.647 21.429 110.518 22.0199 110.26 22.5256C110.004 23.0312 109.642 23.4247 109.173 23.706C108.704 23.9872 108.15 24.1278 107.511 24.1278ZM107.52 22.892C107.866 22.892 108.156 22.7969 108.389 22.6065C108.622 22.4134 108.795 22.1548 108.909 21.831C109.025 21.5071 109.083 21.1463 109.083 20.7486C109.083 20.348 109.025 19.9858 108.909 19.6619C108.795 19.3352 108.622 19.0753 108.389 18.8821C108.156 18.6889 107.866 18.5923 107.52 18.5923C107.164 18.5923 106.869 18.6889 106.633 18.8821C106.4 19.0753 106.225 19.3352 106.109 19.6619C105.995 19.9858 105.939 20.348 105.939 20.7486C105.939 21.1463 105.995 21.5071 106.109 21.831C106.225 22.1548 106.4 22.4134 106.633 22.6065C106.869 22.7969 107.164 22.892 107.52 22.892ZM115.924 19.7301V21H111.995V19.7301H115.924ZM124.056 15.2727V24H122.475V16.8111H122.424L120.382 18.1151V16.6662L122.551 15.2727H124.056ZM127.239 22.9517C126.98 22.9517 126.759 22.8608 126.574 22.679C126.39 22.4943 126.299 22.2727 126.301 22.0142C126.299 21.7585 126.39 21.5398 126.574 21.358C126.759 21.1761 126.98 21.0852 127.239 21.0852C127.489 21.0852 127.706 21.1761 127.891 21.358C128.078 21.5398 128.174 21.7585 128.176 22.0142C128.174 22.1875 128.128 22.3452 128.04 22.4872C127.955 22.6293 127.841 22.7429 127.699 22.8281C127.56 22.9105 127.407 22.9517 127.239 22.9517ZM127.239 18.6264C126.98 18.6264 126.759 18.5355 126.574 18.3537C126.39 18.169 126.299 17.9474 126.301 17.6889C126.299 17.4332 126.39 17.2145 126.574 17.0327C126.759 16.848 126.98 16.7557 127.239 16.7557C127.489 16.7557 127.706 16.848 127.891 17.0327C128.078 17.2145 128.174 17.4332 128.176 17.6889C128.174 17.8594 128.128 18.0156 128.04 18.1577C127.955 18.2997 127.841 18.4134 127.699 18.4986C127.56 18.5838 127.407 18.6264 127.239 18.6264ZM133.302 15.2727V24H131.721V16.8111H131.67L129.629 18.1151V16.6662L131.798 15.2727H133.302ZM138.552 24.1193C137.984 24.1193 137.475 24.0128 137.026 23.7997C136.577 23.5838 136.221 23.2884 135.957 22.9134C135.695 22.5384 135.556 22.1094 135.539 21.6264H137.073C137.102 21.9844 137.256 22.277 137.538 22.5043C137.819 22.7287 138.157 22.8409 138.552 22.8409C138.862 22.8409 139.137 22.7699 139.379 22.6278C139.62 22.4858 139.81 22.2884 139.95 22.0355C140.089 21.7827 140.157 21.4943 140.154 21.1705C140.157 20.8409 140.087 20.5483 139.945 20.2926C139.803 20.0369 139.609 19.8366 139.362 19.6918C139.114 19.544 138.83 19.4702 138.509 19.4702C138.248 19.4673 137.991 19.5156 137.738 19.6151C137.485 19.7145 137.285 19.8452 137.137 20.0071L135.71 19.7727L136.165 15.2727H141.228V16.5938H137.474L137.222 18.9077H137.273C137.435 18.7173 137.664 18.5597 137.96 18.4347C138.255 18.3068 138.579 18.2429 138.931 18.2429C139.46 18.2429 139.931 18.3679 140.346 18.6179C140.761 18.8651 141.087 19.206 141.326 19.6406C141.565 20.0753 141.684 20.5724 141.684 21.1321C141.684 21.7088 141.55 22.223 141.283 22.6747C141.019 23.1236 140.651 23.4773 140.18 23.7358C139.711 23.9915 139.168 24.1193 138.552 24.1193Z" fill="black"/>
<path d="M24.9086 47.0905C24.9086 46.3643 25.4973 45.7756 26.2234 45.7756C26.9496 45.7756 27.5383 46.3643 27.5383 47.0905C27.5383 47.8166 26.9496 48.4053 26.2234 48.4053L26.2234 49.3019M18.8854 46.3242L18.0086 51.581M21.5134 46.3242L20.6374 51.581M17.5706 47.6382H22.3903M17.1326 50.267H21.9514M30.4946 45.7765V48.8433M26.1137 51.0333C25.9318 51.0328 25.784 51.18 25.7837 51.3619C25.7834 51.5438 25.9307 51.6914 26.1126 51.6916C26.2945 51.6918 26.442 51.5444 26.442 51.3625C26.4422 51.2752 26.4078 51.1915 26.3462 51.1298C26.2846 51.068 26.2009 51.0333 26.1137 51.0333ZM15.5992 41.2859C14.8735 41.2859 14.2852 41.8742 14.2852 42.5999V55.7433C14.2852 56.469 14.8735 57.0573 15.5992 57.0573H18.228V61.0002L23.4849 57.0573H32.6854C33.4111 57.0573 33.9994 56.469 33.9994 55.7433V42.5999C33.9994 41.8742 33.4111 41.2859 32.6854 41.2859H15.5992ZM30.3849 51.0333C30.2031 51.0333 30.0557 51.1807 30.0557 51.3625C30.0557 51.5442 30.2031 51.6916 30.3849 51.6916C30.5667 51.6916 30.714 51.5442 30.714 51.3625C30.714 51.1807 30.5667 51.0333 30.3849 51.0333Z" stroke="#E3CD09" stroke-width="1.14286" stroke-linecap="round" stroke-linejoin="round"/>
<path d="M45.0568 55.5V46.7727H50.2898V47.7102H46.1136V50.6591H49.8977V51.5966H46.1136V55.5H45.0568ZM52.9691 46.7727V55.5H51.9634V46.7727H52.9691ZM58.9361 52.8239V48.9545H59.9418V55.5H58.9361V54.392H58.8679C58.7145 54.7244 58.4759 55.0071 58.152 55.2401C57.8281 55.4702 57.419 55.5852 56.9247 55.5852C56.5156 55.5852 56.152 55.4957 55.8338 55.3168C55.5156 55.1349 55.2656 54.8622 55.0838 54.4986C54.902 54.1321 54.8111 53.6705 54.8111 53.1136V48.9545H55.8168V53.0455C55.8168 53.5227 55.9503 53.9034 56.2173 54.1875C56.4872 54.4716 56.831 54.6136 57.2486 54.6136C57.4986 54.6136 57.7528 54.5497 58.0114 54.4219C58.2727 54.294 58.4915 54.098 58.6676 53.8338C58.8466 53.5696 58.9361 53.233 58.9361 52.8239ZM64.5281 55.6364C63.8974 55.6364 63.3533 55.4972 62.896 55.2188C62.4414 54.9375 62.0906 54.5455 61.8434 54.0426C61.5991 53.5369 61.4769 52.9489 61.4769 52.2784C61.4769 51.608 61.5991 51.017 61.8434 50.5057C62.0906 49.9915 62.4343 49.5909 62.8746 49.304C63.3178 49.0142 63.8349 48.8693 64.4258 48.8693C64.7667 48.8693 65.1033 48.9261 65.4357 49.0398C65.7681 49.1534 66.0707 49.3381 66.3434 49.5938C66.6161 49.8466 66.8335 50.1818 66.9954 50.5994C67.1573 51.017 67.2383 51.5312 67.2383 52.142V52.5682H62.1928V51.6989H66.2156C66.2156 51.3295 66.1417 51 65.994 50.7102C65.8491 50.4205 65.6417 50.1918 65.3718 50.0241C65.1048 49.8565 64.7894 49.7727 64.4258 49.7727C64.0252 49.7727 63.6786 49.8722 63.386 50.071C63.0962 50.267 62.8732 50.5227 62.717 50.8381C62.5607 51.1534 62.4826 51.4915 62.4826 51.8523V52.4318C62.4826 52.9261 62.5678 53.3452 62.7383 53.6889C62.9116 54.0298 63.1516 54.2898 63.4585 54.4688C63.7653 54.6449 64.1218 54.733 64.5281 54.733C64.7923 54.733 65.0309 54.696 65.244 54.6222C65.4599 54.5455 65.646 54.4318 65.8022 54.2812C65.9585 54.1278 66.0792 53.9375 66.1644 53.7102L67.136 53.983C67.0337 54.3125 66.8619 54.6023 66.6204 54.8523C66.3789 55.0994 66.0806 55.2926 65.7255 55.4318C65.3704 55.5682 64.9712 55.6364 64.5281 55.6364ZM69.7738 51.5625V55.5H68.7681V48.9545H69.7397V49.9773H69.8249C69.9783 49.6449 70.2113 49.3778 70.5238 49.1761C70.8363 48.9716 71.2397 48.8693 71.734 48.8693C72.1772 48.8693 72.565 48.9602 72.8974 49.142C73.2298 49.321 73.4883 49.5938 73.6729 49.9602C73.8576 50.3239 73.9499 50.7841 73.9499 51.3409V55.5H72.9442V51.4091C72.9442 50.8949 72.8107 50.4943 72.5437 50.2074C72.2766 49.9176 71.9102 49.7727 71.4442 49.7727C71.1232 49.7727 70.8363 49.8423 70.5835 49.9815C70.3335 50.1207 70.136 50.3239 69.9911 50.5909C69.8462 50.858 69.7738 51.1818 69.7738 51.5625ZM78.6342 48.9545V49.8068H75.2422V48.9545H78.6342ZM76.2308 47.3864H77.2365V53.625C77.2365 53.9091 77.2777 54.1222 77.3601 54.2642C77.4453 54.4034 77.5533 54.4972 77.6839 54.5455C77.8175 54.5909 77.9581 54.6136 78.1058 54.6136C78.2166 54.6136 78.3075 54.608 78.3786 54.5966C78.4496 54.5824 78.5064 54.571 78.549 54.5625L78.7536 55.4659C78.6854 55.4915 78.5902 55.517 78.468 55.5426C78.3459 55.571 78.1911 55.5852 78.0036 55.5852C77.7195 55.5852 77.4411 55.5241 77.1683 55.402C76.8984 55.2798 76.674 55.0938 76.495 54.8438C76.3189 54.5938 76.2308 54.2784 76.2308 53.8977V47.3864ZM88.4311 48.9545C88.38 48.5227 88.1726 48.1875 87.8089 47.9489C87.4453 47.7102 86.9993 47.5909 86.4709 47.5909C86.0845 47.5909 85.7464 47.6534 85.4567 47.7784C85.1697 47.9034 84.9453 48.0753 84.7834 48.294C84.6243 48.5128 84.5447 48.7614 84.5447 49.0398C84.5447 49.2727 84.6001 49.473 84.7109 49.6406C84.8246 49.8054 84.9695 49.9432 85.1456 50.054C85.3217 50.1619 85.5064 50.2514 85.6996 50.3224C85.8928 50.3906 86.0703 50.446 86.2322 50.4886L87.1186 50.7273C87.3459 50.7869 87.5987 50.8693 87.8771 50.9744C88.1584 51.0795 88.4268 51.223 88.6825 51.4048C88.9411 51.5838 89.1541 51.8139 89.3217 52.0952C89.4893 52.3764 89.5732 52.7216 89.5732 53.1307C89.5732 53.6023 89.4496 54.0284 89.2024 54.4091C88.9581 54.7898 88.6001 55.0923 88.1286 55.3168C87.6598 55.5412 87.0902 55.6534 86.4197 55.6534C85.7947 55.6534 85.2536 55.5526 84.7962 55.3509C84.3416 55.1491 83.9837 54.8679 83.7223 54.5071C83.4638 54.1463 83.3175 53.7273 83.2834 53.25H84.3743C84.4027 53.5795 84.5135 53.8523 84.7067 54.0682C84.9027 54.2812 85.1499 54.4403 85.4482 54.5455C85.7493 54.6477 86.0732 54.6989 86.4197 54.6989C86.8232 54.6989 87.1854 54.6335 87.5064 54.5028C87.8274 54.3693 88.0817 54.1847 88.2692 53.9489C88.4567 53.7102 88.5504 53.4318 88.5504 53.1136C88.5504 52.8239 88.4695 52.5881 88.3075 52.4062C88.1456 52.2244 87.9325 52.0767 87.6683 51.9631C87.4041 51.8494 87.1186 51.75 86.8118 51.6648L85.7379 51.358C85.0561 51.1619 84.5163 50.8821 84.1186 50.5185C83.7209 50.1548 83.522 49.679 83.522 49.0909C83.522 48.6023 83.6541 48.1761 83.9183 47.8125C84.1854 47.446 84.5433 47.1619 84.9922 46.9602C85.4439 46.7557 85.9482 46.6534 86.505 46.6534C87.0675 46.6534 87.5675 46.7543 88.005 46.956C88.4425 47.1548 88.7891 47.4276 89.0447 47.7741C89.3033 48.1207 89.4396 48.5142 89.4538 48.9545H88.4311ZM91.1744 57.9545V48.9545H92.146V49.9943H92.2653C92.3391 49.8807 92.4414 49.7358 92.5721 49.5597C92.7056 49.3807 92.896 49.2216 93.1431 49.0824C93.3931 48.9403 93.7312 48.8693 94.1573 48.8693C94.7085 48.8693 95.1942 49.0071 95.6147 49.2827C96.0352 49.5582 96.3633 49.9489 96.5991 50.4545C96.8349 50.9602 96.9528 51.5568 96.9528 52.2443C96.9528 52.9375 96.8349 53.5384 96.5991 54.0469C96.3633 54.5526 96.0366 54.9446 95.619 55.223C95.2013 55.4986 94.7198 55.6364 94.1744 55.6364C93.7539 55.6364 93.4173 55.5668 93.1644 55.4276C92.9116 55.2855 92.717 55.125 92.5806 54.946C92.4442 54.7642 92.3391 54.6136 92.2653 54.4943H92.18V57.9545H91.1744ZM92.163 52.2273C92.163 52.7216 92.2354 53.1577 92.3803 53.5355C92.5252 53.9105 92.7369 54.2045 93.0153 54.4176C93.2937 54.6278 93.6346 54.733 94.038 54.733C94.4585 54.733 94.8093 54.6222 95.0906 54.4006C95.3746 54.1761 95.5877 53.875 95.7298 53.4972C95.8746 53.1165 95.9471 52.6932 95.9471 52.2273C95.9471 51.767 95.8761 51.3523 95.734 50.983C95.5948 50.6108 95.3832 50.3168 95.0991 50.1009C94.8178 49.8821 94.4641 49.7727 94.038 49.7727C93.6289 49.7727 93.2852 49.8764 93.0067 50.0838C92.7283 50.2884 92.5181 50.5753 92.3761 50.9446C92.234 51.3111 92.163 51.7386 92.163 52.2273ZM101.231 55.6364C100.6 55.6364 100.056 55.4972 99.5991 55.2188C99.1445 54.9375 98.7937 54.5455 98.5465 54.0426C98.3022 53.5369 98.18 52.9489 98.18 52.2784C98.18 51.608 98.3022 51.017 98.5465 50.5057C98.7937 49.9915 99.1374 49.5909 99.5778 49.304C100.021 49.0142 100.538 48.8693 101.129 48.8693C101.47 48.8693 101.806 48.9261 102.139 49.0398C102.471 49.1534 102.774 49.3381 103.047 49.5938C103.319 49.8466 103.537 50.1818 103.699 50.5994C103.86 51.017 103.941 51.5312 103.941 52.142V52.5682H98.896V51.6989H102.919C102.919 51.3295 102.845 51 102.697 50.7102C102.552 50.4205 102.345 50.1918 102.075 50.0241C101.808 49.8565 101.493 49.7727 101.129 49.7727C100.728 49.7727 100.382 49.8722 100.089 50.071C99.7994 50.267 99.5763 50.5227 99.4201 50.8381C99.2638 51.1534 99.1857 51.4915 99.1857 51.8523V52.4318C99.1857 52.9261 99.271 53.3452 99.4414 53.6889C99.6147 54.0298 99.8548 54.2898 100.162 54.4688C100.468 54.6449 100.825 54.733 101.231 54.733C101.495 54.733 101.734 54.696 101.947 54.6222C102.163 54.5455 102.349 54.4318 102.505 54.2812C102.662 54.1278 102.782 53.9375 102.868 53.7102L103.839 53.983C103.737 54.3125 103.565 54.6023 103.324 54.8523C103.082 55.0994 102.784 55.2926 102.429 55.4318C102.074 55.5682 101.674 55.6364 101.231 55.6364ZM107.397 55.6534C106.983 55.6534 106.606 55.5753 106.268 55.419C105.93 55.2599 105.662 55.0312 105.463 54.733C105.264 54.4318 105.164 54.0682 105.164 53.642C105.164 53.267 105.238 52.9631 105.386 52.7301C105.534 52.4943 105.731 52.3097 105.978 52.1761C106.225 52.0426 106.498 51.9432 106.797 51.8778C107.098 51.8097 107.4 51.7557 107.704 51.7159C108.102 51.6648 108.424 51.6264 108.672 51.6009C108.922 51.5724 109.103 51.5256 109.217 51.4602C109.333 51.3949 109.392 51.2812 109.392 51.1193V51.0852C109.392 50.6648 109.277 50.3381 109.047 50.1051C108.819 49.8722 108.474 49.7557 108.011 49.7557C107.531 49.7557 107.154 49.8608 106.882 50.071C106.609 50.2812 106.417 50.5057 106.306 50.7443L105.352 50.4034C105.522 50.0057 105.75 49.696 106.034 49.4744C106.321 49.25 106.633 49.0937 106.971 49.0057C107.312 48.9148 107.647 48.8693 107.977 48.8693C108.187 48.8693 108.429 48.8949 108.701 48.946C108.977 48.9943 109.243 49.0952 109.498 49.2486C109.757 49.402 109.971 49.6335 110.142 49.9432C110.312 50.2528 110.397 50.6676 110.397 51.1875V55.5H109.392V54.6136H109.341C109.272 54.7557 109.159 54.9077 109 55.0696C108.841 55.2315 108.629 55.3693 108.365 55.483C108.1 55.5966 107.778 55.6534 107.397 55.6534ZM107.551 54.75C107.949 54.75 108.284 54.6719 108.556 54.5156C108.832 54.3594 109.039 54.1577 109.179 53.9105C109.321 53.6634 109.392 53.4034 109.392 53.1307V52.2102C109.349 52.2614 109.255 52.3082 109.11 52.3509C108.968 52.3906 108.804 52.4261 108.616 52.4574C108.431 52.4858 108.251 52.5114 108.075 52.5341C107.902 52.554 107.761 52.571 107.653 52.5852C107.392 52.6193 107.147 52.6747 106.92 52.7514C106.696 52.8253 106.514 52.9375 106.375 53.0881C106.238 53.2358 106.17 53.4375 106.17 53.6932C106.17 54.0426 106.299 54.3068 106.558 54.4858C106.819 54.6619 107.15 54.75 107.551 54.75ZM113.17 53.1136L113.153 51.8693H113.358L116.222 48.9545H117.466L114.415 52.0398H114.33L113.17 53.1136ZM112.233 55.5V46.7727H113.239V55.5H112.233ZM116.392 55.5L113.835 52.2614L114.551 51.5625L117.67 55.5H116.392ZM121.235 55.6364C120.604 55.6364 120.06 55.4972 119.603 55.2188C119.148 54.9375 118.798 54.5455 118.55 54.0426C118.306 53.5369 118.184 52.9489 118.184 52.2784C118.184 51.608 118.306 51.017 118.55 50.5057C118.798 49.9915 119.141 49.5909 119.582 49.304C120.025 49.0142 120.542 48.8693 121.133 48.8693C121.474 48.8693 121.81 48.9261 122.143 49.0398C122.475 49.1534 122.778 49.3381 123.05 49.5938C123.323 49.8466 123.54 50.1818 123.702 50.5994C123.864 51.017 123.945 51.5312 123.945 52.142V52.5682H118.9V51.6989H122.923C122.923 51.3295 122.849 51 122.701 50.7102C122.556 50.4205 122.349 50.1918 122.079 50.0241C121.812 49.8565 121.496 49.7727 121.133 49.7727C120.732 49.7727 120.386 49.8722 120.093 50.071C119.803 50.267 119.58 50.5227 119.424 50.8381C119.268 51.1534 119.19 51.4915 119.19 51.8523V52.4318C119.19 52.9261 119.275 53.3452 119.445 53.6889C119.619 54.0298 119.859 54.2898 120.165 54.4688C120.472 54.6449 120.829 54.733 121.235 54.733C121.499 54.733 121.738 54.696 121.951 54.6222C122.167 54.5455 122.353 54.4318 122.509 54.2812C122.665 54.1278 122.786 53.9375 122.871 53.7102L123.843 53.983C123.741 54.3125 123.569 54.6023 123.327 54.8523C123.086 55.0994 122.788 55.2926 122.433 55.4318C122.077 55.5682 121.678 55.6364 121.235 55.6364ZM125.475 55.5V48.9545H126.447V49.9432H126.515C126.634 49.6193 126.85 49.3565 127.163 49.1548C127.475 48.9531 127.827 48.8523 128.219 48.8523C128.293 48.8523 128.386 48.8537 128.496 48.8565C128.607 48.8594 128.691 48.8636 128.748 48.8693V49.892C128.714 49.8835 128.636 49.8707 128.513 49.8537C128.394 49.8338 128.268 49.8239 128.134 49.8239C127.816 49.8239 127.532 49.8906 127.282 50.0241C127.035 50.1548 126.839 50.3366 126.694 50.5696C126.552 50.7997 126.481 51.0625 126.481 51.358V55.5H125.475ZM134.576 50.4205L133.673 50.6761C133.616 50.5256 133.532 50.3793 133.422 50.2372C133.314 50.0923 133.166 49.973 132.978 49.8793C132.791 49.7855 132.551 49.7386 132.258 49.7386C131.858 49.7386 131.524 49.831 131.257 50.0156C130.993 50.1974 130.86 50.429 130.86 50.7102C130.86 50.9602 130.951 51.1577 131.133 51.3026C131.315 51.4474 131.599 51.5682 131.985 51.6648L132.957 51.9034C133.542 52.0455 133.978 52.2628 134.265 52.5554C134.552 52.8452 134.696 53.2187 134.696 53.6761C134.696 54.0511 134.588 54.3864 134.372 54.6818C134.159 54.9773 133.86 55.2102 133.477 55.3807C133.093 55.5511 132.647 55.6364 132.139 55.6364C131.471 55.6364 130.919 55.4915 130.481 55.2017C130.044 54.9119 129.767 54.4886 129.65 53.9318L130.605 53.6932C130.696 54.0455 130.868 54.3097 131.12 54.4858C131.376 54.6619 131.71 54.75 132.122 54.75C132.591 54.75 132.963 54.6506 133.238 54.4517C133.517 54.25 133.656 54.0085 133.656 53.7273C133.656 53.5 133.576 53.3097 133.417 53.1562C133.258 53 133.014 52.8835 132.684 52.8068L131.593 52.5511C130.994 52.4091 130.554 52.1889 130.272 51.8906C129.994 51.5895 129.855 51.2131 129.855 50.7614C129.855 50.392 129.958 50.0653 130.166 49.7812C130.376 49.4972 130.662 49.2741 131.022 49.1122C131.386 48.9503 131.798 48.8693 132.258 48.8693C132.906 48.8693 133.414 49.0114 133.784 49.2955C134.156 49.5795 134.42 49.9545 134.576 50.4205Z" fill="black" fill-opacity="0.7"/>
<path fill-rule="evenodd" clip-rule="evenodd" d="M28.2893 75.3259C26.6256 75.3299 25.0496 74.5797 24.0036 73.2859C22.96 74.5827 21.3825 75.3336 19.7179 75.3259C18.4197 75.2865 17.1594 74.8793 16.0836 74.1516C15.951 74.075 15.7876 74.075 15.655 74.1516C15.5103 74.2327 15.424 74.3888 15.4322 74.5545V86.3573C15.4322 86.7087 16.975 90.9773 23.8836 92.9573C23.9616 92.9828 24.0456 92.9828 24.1236 92.9573C31.0236 90.9773 32.575 86.7002 32.575 86.3573V74.5545C32.5736 74.3979 32.4886 74.2541 32.3522 74.1773C32.2196 74.1008 32.0562 74.1008 31.9236 74.1773C30.8451 74.8959 29.5849 75.2942 28.2893 75.3259ZM24.0036 76.6887C21.9893 79.3287 18.8607 77.3402 18.0036 77.0145V86.1259C18.0036 86.1259 19.2379 89.0659 24.0036 90.4116C28.7693 89.083 30.0036 86.1259 30.0036 86.1259V77.0145C29.1465 77.6659 25.8636 79.1145 24.0036 76.6887ZM26.575 82.2687C26.575 82.0321 26.3832 81.8402 26.1465 81.8402H24.8607V80.5545C24.8607 80.3178 24.6689 80.1259 24.4322 80.1259H23.575C23.3383 80.1259 23.1465 80.3178 23.1465 80.5545V81.8402H21.8607C21.6241 81.8402 21.4322 82.0321 21.4322 82.2687V83.1259C21.4367 83.3607 21.626 83.5499 21.8607 83.5545H23.1465V87.4116C23.151 87.6464 23.3403 87.8356 23.575 87.8402H24.4322C24.667 87.8356 24.8562 87.6464 24.8607 87.4116V83.5545H26.1465C26.3812 83.5499 26.5705 83.3607 26.575 83.1259V82.2687Z" stroke="#DA5DA8" stroke-width="1.14286" stroke-linecap="round" stroke-linejoin="round"/>
<path d="M52.0795 81.5H51.0227C50.9602 81.196 50.8509 80.929 50.6946 80.6989C50.5412 80.4688 50.3537 80.2756 50.1321 80.1193C49.9134 79.9602 49.6705 79.8409 49.4034 79.7614C49.1364 79.6818 48.858 79.642 48.5682 79.642C48.0398 79.642 47.5611 79.7756 47.1321 80.0426C46.706 80.3097 46.3665 80.7031 46.1136 81.223C45.8636 81.7429 45.7386 82.3807 45.7386 83.1364C45.7386 83.892 45.8636 84.5298 46.1136 85.0497C46.3665 85.5696 46.706 85.9631 47.1321 86.2301C47.5611 86.4972 48.0398 86.6307 48.5682 86.6307C48.858 86.6307 49.1364 86.5909 49.4034 86.5114C49.6705 86.4318 49.9134 86.3139 50.1321 86.1577C50.3537 85.9986 50.5412 85.804 50.6946 85.5739C50.8509 85.3409 50.9602 85.0739 51.0227 84.7727H52.0795C52 85.2187 51.8551 85.6179 51.6449 85.9702C51.4347 86.3224 51.1733 86.6222 50.8608 86.8693C50.5483 87.1136 50.1974 87.2997 49.8082 87.4276C49.4219 87.5554 49.0085 87.6193 48.5682 87.6193C47.8239 87.6193 47.1619 87.4375 46.5824 87.0739C46.0028 86.7102 45.5469 86.1932 45.2145 85.5227C44.8821 84.8523 44.7159 84.0568 44.7159 83.1364C44.7159 82.2159 44.8821 81.4205 45.2145 80.75C45.5469 80.0795 46.0028 79.5625 46.5824 79.1989C47.1619 78.8352 47.8239 78.6534 48.5682 78.6534C49.0085 78.6534 49.4219 78.7173 49.8082 78.8452C50.1974 78.973 50.5483 79.1605 50.8608 79.4077C51.1733 79.652 51.4347 79.9503 51.6449 80.3026C51.8551 80.652 52 81.0511 52.0795 81.5ZM57.7759 84.8239V80.9545H58.7816V87.5H57.7759V86.392H57.7077C57.5543 86.7244 57.3157 87.0071 56.9918 87.2401C56.668 87.4702 56.2589 87.5852 55.7646 87.5852C55.3555 87.5852 54.9918 87.4957 54.6737 87.3168C54.3555 87.1349 54.1055 86.8622 53.9237 86.4986C53.7418 86.1321 53.6509 85.6705 53.6509 85.1136V80.9545H54.6566V85.0455C54.6566 85.5227 54.7901 85.9034 55.0572 86.1875C55.3271 86.4716 55.6708 86.6136 56.0884 86.6136C56.3384 86.6136 56.5927 86.5497 56.8512 86.4219C57.1126 86.294 57.3313 86.098 57.5075 85.8338C57.6864 85.5696 57.7759 85.233 57.7759 84.8239ZM61.6293 78.7727V87.5H60.6236V78.7727H61.6293ZM66.3178 80.9545V81.8068H62.9258V80.9545H66.3178ZM63.9144 79.3864H64.9201V85.625C64.9201 85.9091 64.9613 86.1222 65.0437 86.2642C65.1289 86.4034 65.2369 86.4972 65.3675 86.5455C65.5011 86.5909 65.6417 86.6136 65.7894 86.6136C65.9002 86.6136 65.9911 86.608 66.0621 86.5966C66.1332 86.5824 66.19 86.571 66.2326 86.5625L66.4371 87.4659C66.369 87.4915 66.2738 87.517 66.1516 87.5426C66.0295 87.571 65.8746 87.5852 65.6871 87.5852C65.4031 87.5852 65.1246 87.5241 64.8519 87.402C64.582 87.2798 64.3576 87.0938 64.1786 86.8438C64.0025 86.5938 63.9144 86.2784 63.9144 85.8977V79.3864ZM71.9556 84.8239V80.9545H72.9613V87.5H71.9556V86.392H71.8874C71.734 86.7244 71.4954 87.0071 71.1715 87.2401C70.8477 87.4702 70.4386 87.5852 69.9442 87.5852C69.5352 87.5852 69.1715 87.4957 68.8533 87.3168C68.5352 87.1349 68.2852 86.8622 68.1033 86.4986C67.9215 86.1321 67.8306 85.6705 67.8306 85.1136V80.9545H68.8363V85.0455C68.8363 85.5227 68.9698 85.9034 69.2369 86.1875C69.5067 86.4716 69.8505 86.6136 70.2681 86.6136C70.5181 86.6136 70.7724 86.5497 71.0309 86.4219C71.2923 86.294 71.511 86.098 71.6871 85.8338C71.8661 85.5696 71.9556 85.233 71.9556 84.8239ZM74.8033 87.5V80.9545H75.7749V81.9432H75.843C75.9624 81.6193 76.1783 81.3565 76.4908 81.1548C76.8033 80.9531 77.1555 80.8523 77.5476 80.8523C77.6214 80.8523 77.7138 80.8537 77.8246 80.8565C77.9354 80.8594 78.0192 80.8636 78.076 80.8693V81.892C78.0419 81.8835 77.9638 81.8707 77.8416 81.8537C77.7223 81.8338 77.5959 81.8239 77.4624 81.8239C77.1442 81.8239 76.8601 81.8906 76.6101 82.0241C76.3629 82.1548 76.1669 82.3366 76.022 82.5696C75.88 82.7997 75.8089 83.0625 75.8089 83.358V87.5H74.8033ZM81.1942 87.6534C80.7795 87.6534 80.4031 87.5753 80.065 87.419C79.7269 87.2599 79.4585 87.0312 79.2596 86.733C79.0607 86.4318 78.9613 86.0682 78.9613 85.642C78.9613 85.267 79.0352 84.9631 79.1829 84.7301C79.3306 84.4943 79.5281 84.3097 79.7752 84.1761C80.0224 84.0426 80.2951 83.9432 80.5934 83.8778C80.8945 83.8097 81.1971 83.7557 81.5011 83.7159C81.8988 83.6648 82.2212 83.6264 82.4684 83.6009C82.7184 83.5724 82.9002 83.5256 83.0138 83.4602C83.1303 83.3949 83.1886 83.2812 83.1886 83.1193V83.0852C83.1886 82.6648 83.0735 82.3381 82.8434 82.1051C82.6161 81.8722 82.271 81.7557 81.8079 81.7557C81.3278 81.7557 80.9513 81.8608 80.6786 82.071C80.4059 82.2812 80.2141 82.5057 80.1033 82.7443L79.1488 82.4034C79.3192 82.0057 79.5465 81.696 79.8306 81.4744C80.1175 81.25 80.43 81.0937 80.7681 81.0057C81.109 80.9148 81.4442 80.8693 81.7738 80.8693C81.984 80.8693 82.2255 80.8949 82.4982 80.946C82.7738 80.9943 83.0394 81.0952 83.2951 81.2486C83.5536 81.402 83.7681 81.6335 83.9386 81.9432C84.109 82.2528 84.1942 82.6676 84.1942 83.1875V87.5H83.1886V86.6136H83.1374C83.0692 86.7557 82.9556 86.9077 82.7965 87.0696C82.6374 87.2315 82.4258 87.3693 82.1616 87.483C81.8974 87.5966 81.5749 87.6534 81.1942 87.6534ZM81.3477 86.75C81.7454 86.75 82.0806 86.6719 82.3533 86.5156C82.6289 86.3594 82.8363 86.1577 82.9755 85.9105C83.1175 85.6634 83.1886 85.4034 83.1886 85.1307V84.2102C83.146 84.2614 83.0522 84.3082 82.9073 84.3509C82.7653 84.3906 82.6005 84.4261 82.413 84.4574C82.2283 84.4858 82.0479 84.5114 81.8718 84.5341C81.6985 84.554 81.5579 84.571 81.4499 84.5852C81.1886 84.6193 80.9442 84.6747 80.717 84.7514C80.4925 84.8253 80.3107 84.9375 80.1715 85.0881C80.0352 85.2358 79.967 85.4375 79.967 85.6932C79.967 86.0426 80.0962 86.3068 80.3548 86.4858C80.6161 86.6619 80.9471 86.75 81.3477 86.75ZM87.0355 78.7727V87.5H86.0298V78.7727H87.0355ZM92.7468 78.7727L95.3377 86.1193H95.44L98.0309 78.7727H99.1388L95.9343 87.5H94.8434L91.6388 78.7727H92.7468ZM101.679 87.6534C101.264 87.6534 100.887 87.5753 100.549 87.419C100.211 87.2599 99.9428 87.0312 99.744 86.733C99.5451 86.4318 99.4457 86.0682 99.4457 85.642C99.4457 85.267 99.5195 84.9631 99.6673 84.7301C99.815 84.4943 100.012 84.3097 100.26 84.1761C100.507 84.0426 100.779 83.9432 101.078 83.8778C101.379 83.8097 101.681 83.7557 101.985 83.7159C102.383 83.6648 102.706 83.6264 102.953 83.6009C103.203 83.5724 103.385 83.5256 103.498 83.4602C103.615 83.3949 103.673 83.2812 103.673 83.1193V83.0852C103.673 82.6648 103.558 82.3381 103.328 82.1051C103.1 81.8722 102.755 81.7557 102.292 81.7557C101.812 81.7557 101.436 81.8608 101.163 82.071C100.89 82.2812 100.699 82.5057 100.588 82.7443L99.6332 82.4034C99.8036 82.0057 100.031 81.696 100.315 81.4744C100.602 81.25 100.914 81.0937 101.252 81.0057C101.593 80.9148 101.929 80.8693 102.258 80.8693C102.468 80.8693 102.71 80.8949 102.983 80.946C103.258 80.9943 103.524 81.0952 103.779 81.2486C104.038 81.402 104.252 81.6335 104.423 81.9432C104.593 82.2528 104.679 82.6676 104.679 83.1875V87.5H103.673V86.6136H103.622C103.554 86.7557 103.44 86.9077 103.281 87.0696C103.122 87.2315 102.91 87.3693 102.646 87.483C102.382 87.5966 102.059 87.6534 101.679 87.6534ZM101.832 86.75C102.23 86.75 102.565 86.6719 102.838 86.5156C103.113 86.3594 103.321 86.1577 103.46 85.9105C103.602 85.6634 103.673 85.4034 103.673 85.1307V84.2102C103.63 84.2614 103.537 84.3082 103.392 84.3509C103.25 84.3906 103.085 84.4261 102.897 84.4574C102.713 84.4858 102.532 84.5114 102.356 84.5341C102.183 84.554 102.042 84.571 101.934 84.5852C101.673 84.6193 101.429 84.6747 101.201 84.7514C100.977 84.8253 100.795 84.9375 100.656 85.0881C100.52 85.2358 100.451 85.4375 100.451 85.6932C100.451 86.0426 100.581 86.3068 100.839 86.4858C101.1 86.6619 101.431 86.75 101.832 86.75ZM107.52 78.7727V87.5H106.514V78.7727H107.52ZM113.487 84.8239V80.9545H114.493V87.5H113.487V86.392H113.419C113.265 86.7244 113.027 87.0071 112.703 87.2401C112.379 87.4702 111.97 87.5852 111.475 87.5852C111.066 87.5852 110.703 87.4957 110.385 87.3168C110.066 87.1349 109.816 86.8622 109.635 86.4986C109.453 86.1321 109.362 85.6705 109.362 85.1136V80.9545H110.368V85.0455C110.368 85.5227 110.501 85.9034 110.768 86.1875C111.038 86.4716 111.382 86.6136 111.799 86.6136C112.049 86.6136 112.304 86.5497 112.562 86.4219C112.824 86.294 113.042 86.098 113.218 85.8338C113.397 85.5696 113.487 85.233 113.487 84.8239ZM119.079 87.6364C118.448 87.6364 117.904 87.4972 117.447 87.2188C116.992 86.9375 116.641 86.5455 116.394 86.0426C116.15 85.5369 116.028 84.9489 116.028 84.2784C116.028 83.608 116.15 83.017 116.394 82.5057C116.641 81.9915 116.985 81.5909 117.425 81.304C117.869 81.0142 118.386 80.8693 118.977 80.8693C119.317 80.8693 119.654 80.9261 119.987 81.0398C120.319 81.1534 120.621 81.3381 120.894 81.5938C121.167 81.8466 121.384 82.1818 121.546 82.5994C121.708 83.017 121.789 83.5312 121.789 84.142V84.5682H116.744V83.6989H120.766C120.766 83.3295 120.692 83 120.545 82.7102C120.4 82.4205 120.192 82.1918 119.923 82.0241C119.656 81.8565 119.34 81.7727 118.977 81.7727C118.576 81.7727 118.229 81.8722 117.937 82.071C117.647 82.267 117.424 82.5227 117.268 82.8381C117.112 83.1534 117.033 83.4915 117.033 83.8523V84.4318C117.033 84.9261 117.119 85.3452 117.289 85.6889C117.462 86.0298 117.702 86.2898 118.009 86.4688C118.316 86.6449 118.673 86.733 119.079 86.733C119.343 86.733 119.582 86.696 119.795 86.6222C120.011 86.5455 120.197 86.4318 120.353 86.2812C120.509 86.1278 120.63 85.9375 120.715 85.7102L121.687 85.983C121.585 86.3125 121.413 86.6023 121.171 86.8523C120.93 87.0994 120.631 87.2926 120.276 87.4318C119.921 87.5682 119.522 87.6364 119.079 87.6364ZM127.955 82.4205L127.052 82.6761C126.995 82.5256 126.911 82.3793 126.8 82.2372C126.692 82.0923 126.545 81.973 126.357 81.8793C126.17 81.7855 125.93 81.7386 125.637 81.7386C125.237 81.7386 124.903 81.831 124.636 82.0156C124.371 82.1974 124.239 82.429 124.239 82.7102C124.239 82.9602 124.33 83.1577 124.512 83.3026C124.694 83.4474 124.978 83.5682 125.364 83.6648L126.336 83.9034C126.921 84.0455 127.357 84.2628 127.644 84.5554C127.931 84.8452 128.075 85.2187 128.075 85.6761C128.075 86.0511 127.967 86.3864 127.751 86.6818C127.538 86.9773 127.239 87.2102 126.856 87.3807C126.472 87.5511 126.026 87.6364 125.518 87.6364C124.85 87.6364 124.298 87.4915 123.86 87.2017C123.423 86.9119 123.146 86.4886 123.029 85.9318L123.984 85.6932C124.075 86.0455 124.246 86.3097 124.499 86.4858C124.755 86.6619 125.089 86.75 125.501 86.75C125.969 86.75 126.342 86.6506 126.617 86.4517C126.896 86.25 127.035 86.0085 127.035 85.7273C127.035 85.5 126.955 85.3097 126.796 85.1562C126.637 85 126.393 84.8835 126.063 84.8068L124.972 84.5511C124.373 84.4091 123.933 84.1889 123.651 83.8906C123.373 83.5895 123.234 83.2131 123.234 82.7614C123.234 82.392 123.337 82.0653 123.545 81.7812C123.755 81.4972 124.04 81.2741 124.401 81.1122C124.765 80.9503 125.177 80.8693 125.637 80.8693C126.285 80.8693 126.793 81.0114 127.163 81.2955C127.535 81.5795 127.799 81.9545 127.955 82.4205Z" fill="black" fill-opacity="0.7"/>
<path d="M19.964 119.239C19.3433 118.141 18.1176 117.532 16.8682 117.7C15.6187 117.867 14.5969 118.778 14.2871 120M28.3245 119.239C28.9452 118.141 30.1709 117.532 31.4203 117.7C32.6698 117.867 33.6916 118.778 34.0014 120M27.1443 111.857C26.7946 110.486 25.5595 109.526 24.1443 109.526C22.729 109.526 21.4939 110.486 21.1443 111.857M15.7871 115.5C15.7871 116.328 16.4587 117 17.2871 117C18.1155 117 18.7871 116.328 18.7871 115.5C18.7871 114.671 18.1155 114 17.2871 114C16.4587 114 15.7871 114.671 15.7871 115.5ZM29.5014 115.5C29.5014 116.328 30.173 117 31.0014 117C31.8298 117 32.5014 116.328 32.5014 115.5C32.5014 114.671 31.8298 114 31.0014 114C30.173 114 29.5014 114.671 29.5014 115.5ZM22.6443 107.357C22.6443 108.185 23.3158 108.857 24.1443 108.857C24.9727 108.857 25.6443 108.185 25.6443 107.357C25.6443 106.529 24.9727 105.857 24.1443 105.857C23.3158 105.857 22.6443 106.529 22.6443 107.357ZM29.072 122.828C29.1234 123.08 29.0589 123.342 28.8963 123.542C28.7337 123.741 28.4901 123.857 28.2328 123.857H20.0557C19.7984 123.857 19.5548 123.741 19.3922 123.542C19.2296 123.342 19.1651 123.08 19.2165 122.828L21.002 114.257C21.0834 113.858 21.4341 113.572 21.8411 113.571H26.4474C26.8544 113.572 27.2051 113.858 27.2865 114.257L29.072 122.828ZM26.2168 121.653C26.2345 121.776 26.1978 121.901 26.1164 121.995C26.035 122.089 25.9168 122.143 25.7925 122.143H22.496C22.3717 122.143 22.2535 122.089 22.1721 121.995C22.0907 121.901 22.054 121.776 22.0717 121.653L22.3777 119.51C22.408 119.299 22.5888 119.143 22.802 119.143H25.4865C25.6997 119.143 25.8805 119.299 25.9108 119.51L26.2168 121.653Z" stroke="#795EE3" stroke-width="1.14286" stroke-linecap="round" stroke-linejoin="round"/>
<path d="M45.0568 119.5V110.773H48.0057C48.6903 110.773 49.25 110.896 49.6847 111.143C50.1222 111.388 50.446 111.719 50.6562 112.136C50.8665 112.554 50.9716 113.02 50.9716 113.534C50.9716 114.048 50.8665 114.516 50.6562 114.936C50.4489 115.357 50.1278 115.692 49.6932 115.942C49.2585 116.189 48.7017 116.312 48.0227 116.312H45.9091V115.375H47.9886C48.4574 115.375 48.8338 115.294 49.1179 115.132C49.402 114.97 49.608 114.751 49.7358 114.476C49.8665 114.197 49.9318 113.884 49.9318 113.534C49.9318 113.185 49.8665 112.872 49.7358 112.597C49.608 112.321 49.4006 112.105 49.1136 111.949C48.8267 111.79 48.446 111.71 47.9716 111.71H46.1136V119.5H45.0568ZM52.5376 119.5V112.955H53.5092V113.943H53.5774C53.6967 113.619 53.9126 113.357 54.2251 113.155C54.5376 112.953 54.8899 112.852 55.282 112.852C55.3558 112.852 55.4482 112.854 55.5589 112.857C55.6697 112.859 55.7536 112.864 55.8104 112.869V113.892C55.7763 113.884 55.6982 113.871 55.576 113.854C55.4567 113.834 55.3303 113.824 55.1967 113.824C54.8786 113.824 54.5945 113.891 54.3445 114.024C54.0973 114.155 53.9013 114.337 53.7564 114.57C53.6143 114.8 53.5433 115.062 53.5433 115.358V119.5H52.5376ZM59.5476 119.636C58.9169 119.636 58.3729 119.497 57.9155 119.219C57.4609 118.938 57.1101 118.545 56.8629 118.043C56.6186 117.537 56.4964 116.949 56.4964 116.278C56.4964 115.608 56.6186 115.017 56.8629 114.506C57.1101 113.991 57.4538 113.591 57.8942 113.304C58.3374 113.014 58.8544 112.869 59.4453 112.869C59.7862 112.869 60.1229 112.926 60.4553 113.04C60.7876 113.153 61.0902 113.338 61.3629 113.594C61.6357 113.847 61.853 114.182 62.0149 114.599C62.1768 115.017 62.2578 115.531 62.2578 116.142V116.568H57.2124V115.699H61.2351C61.2351 115.33 61.1612 115 61.0135 114.71C60.8686 114.42 60.6612 114.192 60.3913 114.024C60.1243 113.857 59.8089 113.773 59.4453 113.773C59.0447 113.773 58.6982 113.872 58.4055 114.071C58.1158 114.267 57.8928 114.523 57.7365 114.838C57.5803 115.153 57.5021 115.491 57.5021 115.852V116.432C57.5021 116.926 57.5874 117.345 57.7578 117.689C57.9311 118.03 58.1712 118.29 58.478 118.469C58.7848 118.645 59.1413 118.733 59.5476 118.733C59.8118 118.733 60.0504 118.696 60.2635 118.622C60.4794 118.545 60.6655 118.432 60.8217 118.281C60.978 118.128 61.0987 117.937 61.1839 117.71L62.1555 117.983C62.0533 118.312 61.8814 118.602 61.6399 118.852C61.3984 119.099 61.1001 119.293 60.745 119.432C60.3899 119.568 59.9908 119.636 59.5476 119.636ZM68.424 114.42L67.5206 114.676C67.4638 114.526 67.38 114.379 67.2692 114.237C67.1612 114.092 67.0135 113.973 66.826 113.879C66.6385 113.786 66.3984 113.739 66.1058 113.739C65.7053 113.739 65.3714 113.831 65.1044 114.016C64.8402 114.197 64.7081 114.429 64.7081 114.71C64.7081 114.96 64.799 115.158 64.9808 115.303C65.1626 115.447 65.4467 115.568 65.8331 115.665L66.8047 115.903C67.3899 116.045 67.826 116.263 68.1129 116.555C68.3999 116.845 68.5433 117.219 68.5433 117.676C68.5433 118.051 68.4354 118.386 68.2195 118.682C68.0064 118.977 67.7081 119.21 67.3246 119.381C66.9411 119.551 66.495 119.636 65.9865 119.636C65.3189 119.636 64.7663 119.491 64.3288 119.202C63.8913 118.912 63.6143 118.489 63.4979 117.932L64.4524 117.693C64.5433 118.045 64.7152 118.31 64.968 118.486C65.2237 118.662 65.5575 118.75 65.9695 118.75C66.4382 118.75 66.8104 118.651 67.0859 118.452C67.3643 118.25 67.5036 118.009 67.5036 117.727C67.5036 117.5 67.424 117.31 67.2649 117.156C67.1058 117 66.8615 116.884 66.532 116.807L65.4411 116.551C64.8416 116.409 64.4013 116.189 64.12 115.891C63.8416 115.589 63.7024 115.213 63.7024 114.761C63.7024 114.392 63.8061 114.065 64.0135 113.781C64.2237 113.497 64.5092 113.274 64.87 113.112C65.2337 112.95 65.6456 112.869 66.1058 112.869C66.7536 112.869 67.2621 113.011 67.6314 113.295C68.0036 113.58 68.2678 113.955 68.424 114.42ZM72.8015 119.636C72.1708 119.636 71.6268 119.497 71.1694 119.219C70.7148 118.938 70.364 118.545 70.1168 118.043C69.8725 117.537 69.7504 116.949 69.7504 116.278C69.7504 115.608 69.8725 115.017 70.1168 114.506C70.364 113.991 70.7077 113.591 71.1481 113.304C71.5913 113.014 72.1083 112.869 72.6992 112.869C73.0401 112.869 73.3768 112.926 73.7092 113.04C74.0415 113.153 74.3441 113.338 74.6168 113.594C74.8896 113.847 75.1069 114.182 75.2688 114.599C75.4308 115.017 75.5117 115.531 75.5117 116.142V116.568H70.4663V115.699H74.489C74.489 115.33 74.4151 115 74.2674 114.71C74.1225 114.42 73.9151 114.192 73.6452 114.024C73.3782 113.857 73.0629 113.773 72.6992 113.773C72.2987 113.773 71.9521 113.872 71.6594 114.071C71.3697 114.267 71.1467 114.523 70.9904 114.838C70.8342 115.153 70.756 115.491 70.756 115.852V116.432C70.756 116.926 70.8413 117.345 71.0117 117.689C71.185 118.03 71.4251 118.29 71.7319 118.469C72.0387 118.645 72.3952 118.733 72.8015 118.733C73.0657 118.733 73.3043 118.696 73.5174 118.622C73.7333 118.545 73.9194 118.432 74.0756 118.281C74.2319 118.128 74.3526 117.937 74.4379 117.71L75.4094 117.983C75.3072 118.312 75.1353 118.602 74.8938 118.852C74.6523 119.099 74.354 119.293 73.9989 119.432C73.6438 119.568 73.2447 119.636 72.8015 119.636ZM78.0472 115.562V119.5H77.0415V112.955H78.0131V113.977H78.0984C78.2518 113.645 78.4847 113.378 78.7972 113.176C79.1097 112.972 79.5131 112.869 80.0075 112.869C80.4506 112.869 80.8384 112.96 81.1708 113.142C81.5032 113.321 81.7617 113.594 81.9464 113.96C82.131 114.324 82.2234 114.784 82.2234 115.341V119.5H81.2177V115.409C81.2177 114.895 81.0842 114.494 80.8171 114.207C80.5501 113.918 80.1836 113.773 79.7177 113.773C79.3967 113.773 79.1097 113.842 78.8569 113.982C78.6069 114.121 78.4094 114.324 78.2646 114.591C78.1197 114.858 78.0472 115.182 78.0472 115.562ZM86.9077 112.955V113.807H83.5156V112.955H86.9077ZM84.5043 111.386H85.5099V117.625C85.5099 117.909 85.5511 118.122 85.6335 118.264C85.7188 118.403 85.8267 118.497 85.9574 118.545C86.0909 118.591 86.2315 118.614 86.3793 118.614C86.4901 118.614 86.581 118.608 86.652 118.597C86.723 118.582 86.7798 118.571 86.8224 118.562L87.027 119.466C86.9588 119.491 86.8636 119.517 86.7415 119.543C86.6193 119.571 86.4645 119.585 86.277 119.585C85.9929 119.585 85.7145 119.524 85.4418 119.402C85.1719 119.28 84.9474 119.094 84.7685 118.844C84.5923 118.594 84.5043 118.278 84.5043 117.898V111.386ZM90.3466 119.653C89.9318 119.653 89.5554 119.575 89.2173 119.419C88.8793 119.26 88.6108 119.031 88.4119 118.733C88.2131 118.432 88.1136 118.068 88.1136 117.642C88.1136 117.267 88.1875 116.963 88.3352 116.73C88.483 116.494 88.6804 116.31 88.9276 116.176C89.1747 116.043 89.4474 115.943 89.7457 115.878C90.0469 115.81 90.3494 115.756 90.6534 115.716C91.0511 115.665 91.3736 115.626 91.6207 115.601C91.8707 115.572 92.0526 115.526 92.1662 115.46C92.2827 115.395 92.3409 115.281 92.3409 115.119V115.085C92.3409 114.665 92.2259 114.338 91.9957 114.105C91.7685 113.872 91.4233 113.756 90.9602 113.756C90.4801 113.756 90.1037 113.861 89.831 114.071C89.5582 114.281 89.3665 114.506 89.2557 114.744L88.3011 114.403C88.4716 114.006 88.6989 113.696 88.983 113.474C89.2699 113.25 89.5824 113.094 89.9205 113.006C90.2614 112.915 90.5966 112.869 90.9261 112.869C91.1364 112.869 91.3778 112.895 91.6506 112.946C91.9261 112.994 92.1918 113.095 92.4474 113.249C92.706 113.402 92.9205 113.634 93.0909 113.943C93.2614 114.253 93.3466 114.668 93.3466 115.188V119.5H92.3409V118.614H92.2898C92.2216 118.756 92.108 118.908 91.9489 119.07C91.7898 119.232 91.5781 119.369 91.3139 119.483C91.0497 119.597 90.7273 119.653 90.3466 119.653ZM90.5 118.75C90.8977 118.75 91.233 118.672 91.5057 118.516C91.7813 118.359 91.9886 118.158 92.1278 117.911C92.2699 117.663 92.3409 117.403 92.3409 117.131V116.21C92.2983 116.261 92.2045 116.308 92.0597 116.351C91.9176 116.391 91.7528 116.426 91.5653 116.457C91.3807 116.486 91.2003 116.511 91.0241 116.534C90.8509 116.554 90.7102 116.571 90.6023 116.585C90.3409 116.619 90.0966 116.675 89.8693 116.751C89.6449 116.825 89.4631 116.937 89.3239 117.088C89.1875 117.236 89.1193 117.437 89.1193 117.693C89.1193 118.043 89.2486 118.307 89.5071 118.486C89.7685 118.662 90.0994 118.75 90.5 118.75ZM98.0288 112.955V113.807H94.6367V112.955H98.0288ZM95.6254 111.386H96.631V117.625C96.631 117.909 96.6722 118.122 96.7546 118.264C96.8398 118.403 96.9478 118.497 97.0785 118.545C97.212 118.591 97.3526 118.614 97.5004 118.614C97.6112 118.614 97.7021 118.608 97.7731 118.597C97.8441 118.582 97.9009 118.571 97.9435 118.562L98.1481 119.466C98.0799 119.491 97.9847 119.517 97.8626 119.543C97.7404 119.571 97.5856 119.585 97.3981 119.585C97.114 119.585 96.8356 119.524 96.5629 119.402C96.293 119.28 96.0685 119.094 95.8896 118.844C95.7134 118.594 95.6254 118.278 95.6254 117.898V111.386ZM99.5415 119.5V112.955H100.547V119.5H99.5415ZM100.053 111.864C99.8569 111.864 99.6879 111.797 99.5458 111.663C99.4066 111.53 99.337 111.369 99.337 111.182C99.337 110.994 99.4066 110.834 99.5458 110.7C99.6879 110.567 99.8569 110.5 100.053 110.5C100.249 110.5 100.417 110.567 100.556 110.7C100.698 110.834 100.769 110.994 100.769 111.182C100.769 111.369 100.698 111.53 100.556 111.663C100.417 111.797 100.249 111.864 100.053 111.864ZM105.048 119.636C104.457 119.636 103.939 119.496 103.493 119.214C103.05 118.933 102.703 118.54 102.453 118.034C102.206 117.528 102.082 116.937 102.082 116.261C102.082 115.58 102.206 114.984 102.453 114.476C102.703 113.967 103.05 113.572 103.493 113.291C103.939 113.01 104.457 112.869 105.048 112.869C105.639 112.869 106.156 113.01 106.599 113.291C107.045 113.572 107.392 113.967 107.639 114.476C107.889 114.984 108.014 115.58 108.014 116.261C108.014 116.937 107.889 117.528 107.639 118.034C107.392 118.54 107.045 118.933 106.599 119.214C106.156 119.496 105.639 119.636 105.048 119.636ZM105.048 118.733C105.497 118.733 105.866 118.618 106.156 118.388C106.446 118.158 106.661 117.855 106.8 117.48C106.939 117.105 107.009 116.699 107.009 116.261C107.009 115.824 106.939 115.416 106.8 115.038C106.661 114.661 106.446 114.355 106.156 114.122C105.866 113.889 105.497 113.773 105.048 113.773C104.599 113.773 104.23 113.889 103.94 114.122C103.651 114.355 103.436 114.661 103.297 115.038C103.158 115.416 103.088 115.824 103.088 116.261C103.088 116.699 103.158 117.105 103.297 117.48C103.436 117.855 103.651 118.158 103.94 118.388C104.23 118.618 104.599 118.733 105.048 118.733ZM110.555 115.562V119.5H109.549V112.955H110.521V113.977H110.606C110.76 113.645 110.993 113.378 111.305 113.176C111.618 112.972 112.021 112.869 112.515 112.869C112.958 112.869 113.346 112.96 113.679 113.142C114.011 113.321 114.27 113.594 114.454 113.96C114.639 114.324 114.731 114.784 114.731 115.341V119.5H113.725V115.409C113.725 114.895 113.592 114.494 113.325 114.207C113.058 113.918 112.691 113.773 112.225 113.773C111.904 113.773 111.618 113.842 111.365 113.982C111.115 114.121 110.917 114.324 110.772 114.591C110.627 114.858 110.555 115.182 110.555 115.562ZM124.853 112.955C124.802 112.523 124.594 112.188 124.231 111.949C123.867 111.71 123.421 111.591 122.893 111.591C122.506 111.591 122.168 111.653 121.879 111.778C121.592 111.903 121.367 112.075 121.205 112.294C121.046 112.513 120.967 112.761 120.967 113.04C120.967 113.273 121.022 113.473 121.133 113.641C121.246 113.805 121.391 113.943 121.567 114.054C121.744 114.162 121.928 114.251 122.121 114.322C122.315 114.391 122.492 114.446 122.654 114.489L123.54 114.727C123.768 114.787 124.021 114.869 124.299 114.974C124.58 115.08 124.849 115.223 125.104 115.405C125.363 115.584 125.576 115.814 125.744 116.095C125.911 116.376 125.995 116.722 125.995 117.131C125.995 117.602 125.871 118.028 125.624 118.409C125.38 118.79 125.022 119.092 124.55 119.317C124.082 119.541 123.512 119.653 122.842 119.653C122.217 119.653 121.675 119.553 121.218 119.351C120.763 119.149 120.406 118.868 120.144 118.507C119.886 118.146 119.739 117.727 119.705 117.25H120.796C120.825 117.58 120.935 117.852 121.129 118.068C121.325 118.281 121.572 118.44 121.87 118.545C122.171 118.648 122.495 118.699 122.842 118.699C123.245 118.699 123.607 118.634 123.928 118.503C124.249 118.369 124.504 118.185 124.691 117.949C124.879 117.71 124.972 117.432 124.972 117.114C124.972 116.824 124.891 116.588 124.729 116.406C124.567 116.224 124.354 116.077 124.09 115.963C123.826 115.849 123.54 115.75 123.234 115.665L122.16 115.358C121.478 115.162 120.938 114.882 120.54 114.518C120.143 114.155 119.944 113.679 119.944 113.091C119.944 112.602 120.076 112.176 120.34 111.812C120.607 111.446 120.965 111.162 121.414 110.96C121.866 110.756 122.37 110.653 122.927 110.653C123.489 110.653 123.989 110.754 124.427 110.956C124.864 111.155 125.211 111.428 125.467 111.774C125.725 112.121 125.862 112.514 125.876 112.955H124.853ZM128.534 117.114L128.517 115.869H128.721L131.585 112.955H132.829L129.778 116.04H129.693L128.534 117.114ZM127.596 119.5V110.773H128.602V119.5H127.596ZM131.755 119.5L129.199 116.261L129.914 115.562L133.034 119.5H131.755ZM134.124 119.5V112.955H135.129V119.5H134.124ZM134.635 111.864C134.439 111.864 134.27 111.797 134.128 111.663C133.989 111.53 133.919 111.369 133.919 111.182C133.919 110.994 133.989 110.834 134.128 110.7C134.27 110.567 134.439 110.5 134.635 110.5C134.831 110.5 134.999 110.567 135.138 110.7C135.28 110.834 135.351 110.994 135.351 111.182C135.351 111.369 135.28 111.53 135.138 111.663C134.999 111.797 134.831 111.864 134.635 111.864ZM137.977 110.773V119.5H136.971V110.773H137.977ZM140.825 110.773V119.5H139.819V110.773H140.825ZM147.303 114.42L146.4 114.676C146.343 114.526 146.259 114.379 146.148 114.237C146.04 114.092 145.892 113.973 145.705 113.879C145.517 113.786 145.277 113.739 144.985 113.739C144.584 113.739 144.25 113.831 143.983 114.016C143.719 114.197 143.587 114.429 143.587 114.71C143.587 114.96 143.678 115.158 143.86 115.303C144.042 115.447 144.326 115.568 144.712 115.665L145.684 115.903C146.269 116.045 146.705 116.263 146.992 116.555C147.279 116.845 147.422 117.219 147.422 117.676C147.422 118.051 147.314 118.386 147.098 118.682C146.885 118.977 146.587 119.21 146.203 119.381C145.82 119.551 145.374 119.636 144.865 119.636C144.198 119.636 143.645 119.491 143.208 119.202C142.77 118.912 142.493 118.489 142.377 117.932L143.331 117.693C143.422 118.045 143.594 118.31 143.847 118.486C144.103 118.662 144.436 118.75 144.848 118.75C145.317 118.75 145.689 118.651 145.965 118.452C146.243 118.25 146.382 118.009 146.382 117.727C146.382 117.5 146.303 117.31 146.144 117.156C145.985 117 145.74 116.884 145.411 116.807L144.32 116.551C143.721 116.409 143.28 116.189 142.999 115.891C142.721 115.589 142.581 115.213 142.581 114.761C142.581 114.392 142.685 114.065 142.892 113.781C143.103 113.497 143.388 113.274 143.749 113.112C144.113 112.95 144.525 112.869 144.985 112.869C145.632 112.869 146.141 113.011 146.51 113.295C146.882 113.58 147.147 113.955 147.303 114.42Z" fill="black" fill-opacity="0.7"/>
<path d="M188.144 57.1826C186.221 56.4674 184.195 56.0708 182.144 56.0084C181.671 56.0084 181.287 55.6246 181.287 55.1512V42.7141C181.287 42.2407 181.671 41.8569 182.144 41.8569C186.781 42.0026 190.716 43.2798 190.716 44.8398C190.716 43.2798 194.624 42.0026 199.287 41.8569C199.76 41.8569 200.144 42.2407 200.144 42.7141V49.1341M190.716 44.8484V47.4198M189.001 46.3398C187.202 45.7307 185.327 45.3759 183.43 45.2855M189.001 48.9369C187.206 48.3109 185.329 47.9472 183.43 47.8569M187.716 51.0712C186.309 50.7302 184.875 50.515 183.43 50.4284M187.141 53.5055C185.918 53.2469 184.678 53.0779 183.43 52.9998M194.573 45.7226C195.705 45.5021 196.85 45.3561 198.001 45.2855M198.301 58.0055L201.001 60.7055M192.43 52.9998V51.7141C192.43 51.4774 192.622 51.2855 192.859 51.2855H196.287C196.524 51.2855 196.716 51.4774 196.716 51.7141V52.9998M194.573 51.2941V56.4369M193.287 56.4369H195.859M189.001 53.8655C189.001 56.9425 191.496 59.4369 194.573 59.4369C197.65 59.4369 200.144 56.9425 200.144 53.8655C200.144 50.7885 197.65 48.2941 194.573 48.2941C191.496 48.2941 189.001 50.7885 189.001 53.8655Z" stroke="#DD8433" stroke-width="1.14286" stroke-linecap="round" stroke-linejoin="round"/>
<path d="M212.057 55.5V46.7727H215.006C215.688 46.7727 216.247 46.8892 216.685 47.1222C217.122 47.3523 217.446 47.669 217.656 48.0724C217.866 48.4759 217.972 48.9347 217.972 49.4489C217.972 49.9631 217.866 50.419 217.656 50.8168C217.446 51.2145 217.124 51.527 216.689 51.7543C216.254 51.9787 215.699 52.0909 215.023 52.0909H212.636V51.1364H214.989C215.455 51.1364 215.83 51.0682 216.114 50.9318C216.401 50.7955 216.608 50.6023 216.736 50.3523C216.866 50.0994 216.932 49.7983 216.932 49.4489C216.932 49.0994 216.866 48.794 216.736 48.5327C216.605 48.2713 216.396 48.0696 216.109 47.9276C215.822 47.7827 215.443 47.7102 214.972 47.7102H213.114V55.5H212.057ZM216.165 51.5795L218.312 55.5H217.085L214.972 51.5795H216.165ZM222.27 55.6364C221.64 55.6364 221.096 55.4972 220.638 55.2188C220.184 54.9375 219.833 54.5455 219.586 54.0426C219.341 53.5369 219.219 52.9489 219.219 52.2784C219.219 51.608 219.341 51.017 219.586 50.5057C219.833 49.9915 220.176 49.5909 220.617 49.304C221.06 49.0142 221.577 48.8693 222.168 48.8693C222.509 48.8693 222.846 48.9261 223.178 49.0398C223.51 49.1534 223.813 49.3381 224.086 49.5938C224.358 49.8466 224.576 50.1818 224.738 50.5994C224.9 51.017 224.98 51.5312 224.98 52.142V52.5682H219.935V51.6989H223.958C223.958 51.3295 223.884 51 223.736 50.7102C223.591 50.4205 223.384 50.1918 223.114 50.0241C222.847 49.8565 222.532 49.7727 222.168 49.7727C221.767 49.7727 221.421 49.8722 221.128 50.071C220.838 50.267 220.615 50.5227 220.459 50.8381C220.303 51.1534 220.225 51.4915 220.225 51.8523V52.4318C220.225 52.9261 220.31 53.3452 220.48 53.6889C220.654 54.0298 220.894 54.2898 221.201 54.4688C221.507 54.6449 221.864 54.733 222.27 54.733C222.534 54.733 222.773 54.696 222.986 54.6222C223.202 54.5455 223.388 54.4318 223.544 54.2812C223.701 54.1278 223.821 53.9375 223.907 53.7102L224.878 53.983C224.776 54.3125 224.604 54.6023 224.363 54.8523C224.121 55.0994 223.823 55.2926 223.468 55.4318C223.113 55.5682 222.713 55.6364 222.27 55.6364ZM228.436 55.6534C228.022 55.6534 227.645 55.5753 227.307 55.419C226.969 55.2599 226.701 55.0312 226.502 54.733C226.303 54.4318 226.203 54.0682 226.203 53.642C226.203 53.267 226.277 52.9631 226.425 52.7301C226.573 52.4943 226.77 52.3097 227.017 52.1761C227.265 52.0426 227.537 51.9432 227.836 51.8778C228.137 51.8097 228.439 51.7557 228.743 51.7159C229.141 51.6648 229.463 51.6264 229.711 51.6009C229.961 51.5724 230.142 51.5256 230.256 51.4602C230.373 51.3949 230.431 51.2812 230.431 51.1193V51.0852C230.431 50.6648 230.316 50.3381 230.086 50.1051C229.858 49.8722 229.513 49.7557 229.05 49.7557C228.57 49.7557 228.194 49.8608 227.921 50.071C227.648 50.2812 227.456 50.5057 227.346 50.7443L226.391 50.4034C226.561 50.0057 226.789 49.696 227.073 49.4744C227.36 49.25 227.672 49.0937 228.01 49.0057C228.351 48.9148 228.686 48.8693 229.016 48.8693C229.226 48.8693 229.468 48.8949 229.74 48.946C230.016 48.9943 230.282 49.0952 230.537 49.2486C230.796 49.402 231.01 49.6335 231.181 49.9432C231.351 50.2528 231.436 50.6676 231.436 51.1875V55.5H230.431V54.6136H230.38C230.311 54.7557 230.198 54.9077 230.039 55.0696C229.88 55.2315 229.668 55.3693 229.404 55.483C229.14 55.5966 228.817 55.6534 228.436 55.6534ZM228.59 54.75C228.988 54.75 229.323 54.6719 229.596 54.5156C229.871 54.3594 230.078 54.1577 230.218 53.9105C230.36 53.6634 230.431 53.4034 230.431 53.1307V52.2102C230.388 52.2614 230.294 52.3082 230.15 52.3509C230.007 52.3906 229.843 52.4261 229.655 52.4574C229.471 52.4858 229.29 52.5114 229.114 52.5341C228.941 52.554 228.8 52.571 228.692 52.5852C228.431 52.6193 228.186 52.6747 227.959 52.7514C227.735 52.8253 227.553 52.9375 227.414 53.0881C227.277 53.2358 227.209 53.4375 227.209 53.6932C227.209 54.0426 227.338 54.3068 227.597 54.4858C227.858 54.6619 228.189 54.75 228.59 54.75ZM235.744 55.6364C235.198 55.6364 234.717 55.4986 234.299 55.223C233.881 54.9446 233.555 54.5526 233.319 54.0469C233.083 53.5384 232.965 52.9375 232.965 52.2443C232.965 51.5568 233.083 50.9602 233.319 50.4545C233.555 49.9489 233.883 49.5582 234.303 49.2827C234.724 49.0071 235.21 48.8693 235.761 48.8693C236.187 48.8693 236.523 48.9403 236.771 49.0824C237.021 49.2216 237.211 49.3807 237.342 49.5597C237.475 49.7358 237.579 49.8807 237.653 49.9943H237.738V46.7727H238.744V55.5H237.772V54.4943H237.653C237.579 54.6136 237.474 54.7642 237.337 54.946C237.201 55.125 237.006 55.2855 236.754 55.4276C236.501 55.5668 236.164 55.6364 235.744 55.6364ZM235.88 54.733C236.283 54.733 236.624 54.6278 236.903 54.4176C237.181 54.2045 237.393 53.9105 237.538 53.5355C237.683 53.1577 237.755 52.7216 237.755 52.2273C237.755 51.7386 237.684 51.3111 237.542 50.9446C237.4 50.5753 237.19 50.2884 236.911 50.0838C236.633 49.8764 236.289 49.7727 235.88 49.7727C235.454 49.7727 235.099 49.8821 234.815 50.1009C234.533 50.3168 234.322 50.6108 234.18 50.983C234.04 51.3523 233.971 51.767 233.971 52.2273C233.971 52.6932 234.042 53.1165 234.184 53.4972C234.329 53.875 234.542 54.1761 234.823 54.4006C235.107 54.6222 235.46 54.733 235.88 54.733ZM243.469 55.6364C242.839 55.6364 242.295 55.4972 241.837 55.2188C241.383 54.9375 241.032 54.5455 240.785 54.0426C240.54 53.5369 240.418 52.9489 240.418 52.2784C240.418 51.608 240.54 51.017 240.785 50.5057C241.032 49.9915 241.376 49.5909 241.816 49.304C242.259 49.0142 242.776 48.8693 243.367 48.8693C243.708 48.8693 244.045 48.9261 244.377 49.0398C244.71 49.1534 245.012 49.3381 245.285 49.5938C245.558 49.8466 245.775 50.1818 245.937 50.5994C246.099 51.017 246.18 51.5312 246.18 52.142V52.5682H241.134V51.6989H245.157C245.157 51.3295 245.083 51 244.935 50.7102C244.79 50.4205 244.583 50.1918 244.313 50.0241C244.046 49.8565 243.731 49.7727 243.367 49.7727C242.967 49.7727 242.62 49.8722 242.327 50.071C242.038 50.267 241.815 50.5227 241.658 50.8381C241.502 51.1534 241.424 51.4915 241.424 51.8523V52.4318C241.424 52.9261 241.509 53.3452 241.68 53.6889C241.853 54.0298 242.093 54.2898 242.4 54.4688C242.707 54.6449 243.063 54.733 243.469 54.733C243.734 54.733 243.972 54.696 244.185 54.6222C244.401 54.5455 244.587 54.4318 244.744 54.2812C244.9 54.1278 245.021 53.9375 245.106 53.7102L246.077 53.983C245.975 54.3125 245.803 54.6023 245.562 54.8523C245.32 55.0994 245.022 55.2926 244.667 55.4318C244.312 55.5682 243.913 55.6364 243.469 55.6364ZM247.71 55.5V48.9545H248.681V49.9432H248.749C248.869 49.6193 249.085 49.3565 249.397 49.1548C249.71 48.9531 250.062 48.8523 250.454 48.8523C250.528 48.8523 250.62 48.8537 250.731 48.8565C250.842 48.8594 250.925 48.8636 250.982 48.8693V49.892C250.948 49.8835 250.87 49.8707 250.748 49.8537C250.629 49.8338 250.502 49.8239 250.369 49.8239C250.05 49.8239 249.766 49.8906 249.516 50.0241C249.269 50.1548 249.073 50.3366 248.928 50.5696C248.786 50.7997 248.715 51.0625 248.715 51.358V55.5H247.71ZM256.811 50.4205L255.907 50.6761C255.85 50.5256 255.767 50.3793 255.656 50.2372C255.548 50.0923 255.4 49.973 255.213 49.8793C255.025 49.7855 254.785 49.7386 254.493 49.7386C254.092 49.7386 253.758 49.831 253.491 50.0156C253.227 50.1974 253.095 50.429 253.095 50.7102C253.095 50.9602 253.186 51.1577 253.368 51.3026C253.549 51.4474 253.833 51.5682 254.22 51.6648L255.191 51.9034C255.777 52.0455 256.213 52.2628 256.5 52.5554C256.787 52.8452 256.93 53.2187 256.93 53.6761C256.93 54.0511 256.822 54.3864 256.606 54.6818C256.393 54.9773 256.095 55.2102 255.711 55.3807C255.328 55.5511 254.882 55.6364 254.373 55.6364C253.706 55.6364 253.153 55.4915 252.716 55.2017C252.278 54.9119 252.001 54.4886 251.885 53.9318L252.839 53.6932C252.93 54.0455 253.102 54.3097 253.355 54.4858C253.61 54.6619 253.944 54.75 254.356 54.75C254.825 54.75 255.197 54.6506 255.473 54.4517C255.751 54.25 255.89 54.0085 255.89 53.7273C255.89 53.5 255.811 53.3097 255.652 53.1562C255.493 53 255.248 52.8835 254.919 52.8068L253.828 52.5511C253.228 52.4091 252.788 52.1889 252.507 51.8906C252.228 51.5895 252.089 51.2131 252.089 50.7614C252.089 50.392 252.193 50.0653 252.4 49.7812C252.61 49.4972 252.896 49.2741 253.257 49.1122C253.62 48.9503 254.032 48.8693 254.493 48.8693C255.14 48.8693 255.649 49.0114 256.018 49.2955C256.39 49.5795 256.654 49.9545 256.811 50.4205Z" fill="black" fill-opacity="0.7"/>
<path d="M195.43 86.7079C194.051 88.3627 191.843 89.0768 189.756 88.543M181.287 83.143C181.287 88.587 185.7 93.0002 191.144 93.0002C196.588 93.0002 201.001 88.587 201.001 83.143C201.001 77.6991 196.588 73.2859 191.144 73.2859C185.7 73.2859 181.287 77.6991 181.287 83.143ZM200.218 79.2859L199.428 81.7776C199.088 82.8472 198.095 83.5732 196.973 83.5716H193.344C193.043 83.5714 192.764 83.4132 192.609 83.155L191.793 81.7965C191.657 81.5682 191.41 81.4284 191.144 81.4284C190.878 81.4284 190.632 81.5682 190.495 81.7965L189.679 83.155C189.525 83.4132 189.246 83.5714 188.945 83.5716H185.316C184.195 83.5717 183.203 82.8459 182.864 81.7776L182.071 79.2859H200.218Z" stroke="#B65EDF" stroke-width="1.14286" stroke-linecap="round" stroke-linejoin="round"/>
<path d="M219.08 81.5H218.023C217.96 81.196 217.851 80.929 217.695 80.6989C217.541 80.4688 217.354 80.2756 217.132 80.1193C216.913 79.9602 216.67 79.8409 216.403 79.7614C216.136 79.6818 215.858 79.642 215.568 79.642C215.04 79.642 214.561 79.7756 214.132 80.0426C213.706 80.3097 213.366 80.7031 213.114 81.223C212.864 81.7429 212.739 82.3807 212.739 83.1364C212.739 83.892 212.864 84.5298 213.114 85.0497C213.366 85.5696 213.706 85.9631 214.132 86.2301C214.561 86.4972 215.04 86.6307 215.568 86.6307C215.858 86.6307 216.136 86.5909 216.403 86.5114C216.67 86.4318 216.913 86.3139 217.132 86.1577C217.354 85.9986 217.541 85.804 217.695 85.5739C217.851 85.3409 217.96 85.0739 218.023 84.7727H219.08C219 85.2187 218.855 85.6179 218.645 85.9702C218.435 86.3224 218.173 86.6222 217.861 86.8693C217.548 87.1136 217.197 87.2997 216.808 87.4276C216.422 87.5554 216.009 87.6193 215.568 87.6193C214.824 87.6193 214.162 87.4375 213.582 87.0739C213.003 86.7102 212.547 86.1932 212.214 85.5227C211.882 84.8523 211.716 84.0568 211.716 83.1364C211.716 82.2159 211.882 81.4205 212.214 80.75C212.547 80.0795 213.003 79.5625 213.582 79.1989C214.162 78.8352 214.824 78.6534 215.568 78.6534C216.009 78.6534 216.422 78.7173 216.808 78.8452C217.197 78.973 217.548 79.1605 217.861 79.4077C218.173 79.652 218.435 79.9503 218.645 80.3026C218.855 80.652 219 81.0511 219.08 81.5ZM223.31 87.6364C222.719 87.6364 222.201 87.4957 221.755 87.2145C221.311 86.9332 220.965 86.5398 220.715 86.0341C220.468 85.5284 220.344 84.9375 220.344 84.2614C220.344 83.5795 220.468 82.9844 220.715 82.4759C220.965 81.9673 221.311 81.5724 221.755 81.2912C222.201 81.0099 222.719 80.8693 223.31 80.8693C223.901 80.8693 224.418 81.0099 224.861 81.2912C225.307 81.5724 225.654 81.9673 225.901 82.4759C226.151 82.9844 226.276 83.5795 226.276 84.2614C226.276 84.9375 226.151 85.5284 225.901 86.0341C225.654 86.5398 225.307 86.9332 224.861 87.2145C224.418 87.4957 223.901 87.6364 223.31 87.6364ZM223.31 86.733C223.759 86.733 224.128 86.6179 224.418 86.3878C224.708 86.1577 224.922 85.8551 225.061 85.4801C225.201 85.1051 225.27 84.6989 225.27 84.2614C225.27 83.8239 225.201 83.4162 225.061 83.0384C224.922 82.6605 224.708 82.3551 224.418 82.1222C224.128 81.8892 223.759 81.7727 223.31 81.7727C222.861 81.7727 222.492 81.8892 222.202 82.1222C221.912 82.3551 221.698 82.6605 221.559 83.0384C221.419 83.4162 221.35 83.8239 221.35 84.2614C221.35 84.6989 221.419 85.1051 221.559 85.4801C221.698 85.8551 221.912 86.1577 222.202 86.3878C222.492 86.6179 222.861 86.733 223.31 86.733ZM228.817 83.5625V87.5H227.811V80.9545H228.783V81.9773H228.868C229.021 81.6449 229.254 81.3778 229.567 81.1761C229.879 80.9716 230.283 80.8693 230.777 80.8693C231.22 80.8693 231.608 80.9602 231.94 81.142C232.273 81.321 232.531 81.5938 232.716 81.9602C232.901 82.3239 232.993 82.7841 232.993 83.3409V87.5H231.987V83.4091C231.987 82.8949 231.854 82.4943 231.587 82.2074C231.32 81.9176 230.953 81.7727 230.487 81.7727C230.166 81.7727 229.879 81.8423 229.626 81.9815C229.376 82.1207 229.179 82.3239 229.034 82.5909C228.889 82.858 228.817 83.1818 228.817 83.5625ZM237.745 80.9545V81.8068H234.217V80.9545H237.745ZM235.274 87.5V80.0511C235.274 79.6761 235.362 79.3636 235.538 79.1136C235.714 78.8636 235.943 78.6761 236.224 78.5511C236.505 78.4261 236.802 78.3636 237.115 78.3636C237.362 78.3636 237.564 78.3835 237.72 78.4233C237.876 78.4631 237.993 78.5 238.069 78.5341L237.779 79.4034C237.728 79.3864 237.657 79.3651 237.566 79.3395C237.478 79.3139 237.362 79.3011 237.217 79.3011C236.885 79.3011 236.645 79.3849 236.497 79.5526C236.352 79.7202 236.279 79.9659 236.279 80.2898V87.5H235.274ZM239.155 87.5V80.9545H240.161V87.5H239.155ZM239.666 79.8636C239.47 79.8636 239.301 79.7969 239.159 79.6634C239.02 79.5298 238.95 79.3693 238.95 79.1818C238.95 78.9943 239.02 78.8338 239.159 78.7003C239.301 78.5668 239.47 78.5 239.666 78.5C239.862 78.5 240.03 78.5668 240.169 78.7003C240.311 78.8338 240.382 78.9943 240.382 79.1818C240.382 79.3693 240.311 79.5298 240.169 79.6634C240.03 79.7969 239.862 79.8636 239.666 79.8636ZM244.474 87.6364C243.929 87.6364 243.447 87.4986 243.029 87.223C242.612 86.9446 242.285 86.5526 242.049 86.0469C241.814 85.5384 241.696 84.9375 241.696 84.2443C241.696 83.5568 241.814 82.9602 242.049 82.4545C242.285 81.9489 242.613 81.5582 243.034 81.2827C243.454 81.0071 243.94 80.8693 244.491 80.8693C244.917 80.8693 245.254 80.9403 245.501 81.0824C245.751 81.2216 245.941 81.3807 246.072 81.5597C246.206 81.7358 246.309 81.8807 246.383 81.9943H246.468V78.7727H247.474V87.5H246.502V86.4943H246.383C246.309 86.6136 246.204 86.7642 246.068 86.946C245.931 87.125 245.737 87.2855 245.484 87.4276C245.231 87.5668 244.895 87.6364 244.474 87.6364ZM244.61 86.733C245.014 86.733 245.355 86.6278 245.633 86.4176C245.912 86.2045 246.123 85.9105 246.268 85.5355C246.413 85.1577 246.485 84.7216 246.485 84.2273C246.485 83.7386 246.414 83.3111 246.272 82.9446C246.13 82.5753 245.92 82.2884 245.642 82.0838C245.363 81.8764 245.02 81.7727 244.61 81.7727C244.184 81.7727 243.829 81.8821 243.545 82.1009C243.264 82.3168 243.052 82.6108 242.91 82.983C242.771 83.3523 242.701 83.767 242.701 84.2273C242.701 84.6932 242.772 85.1165 242.914 85.4972C243.059 85.875 243.272 86.1761 243.554 86.4006C243.838 86.6222 244.19 86.733 244.61 86.733ZM252.2 87.6364C251.569 87.6364 251.025 87.4972 250.568 87.2188C250.113 86.9375 249.762 86.5455 249.515 86.0426C249.271 85.5369 249.149 84.9489 249.149 84.2784C249.149 83.608 249.271 83.017 249.515 82.5057C249.762 81.9915 250.106 81.5909 250.547 81.304C250.99 81.0142 251.507 80.8693 252.098 80.8693C252.439 80.8693 252.775 80.9261 253.108 81.0398C253.44 81.1534 253.743 81.3381 254.015 81.5938C254.288 81.8466 254.505 82.1818 254.667 82.5994C254.829 83.017 254.91 83.5312 254.91 84.142V84.5682H249.865V83.6989H253.887C253.887 83.3295 253.814 83 253.666 82.7102C253.521 82.4205 253.314 82.1918 253.044 82.0241C252.777 81.8565 252.461 81.7727 252.098 81.7727C251.697 81.7727 251.35 81.8722 251.058 82.071C250.768 82.267 250.545 82.5227 250.389 82.8381C250.233 83.1534 250.154 83.4915 250.154 83.8523V84.4318C250.154 84.9261 250.24 85.3452 250.41 85.6889C250.583 86.0298 250.824 86.2898 251.13 86.4688C251.437 86.6449 251.794 86.733 252.2 86.733C252.464 86.733 252.703 86.696 252.916 86.6222C253.132 86.5455 253.318 86.4318 253.474 86.2812C253.63 86.1278 253.751 85.9375 253.836 85.7102L254.808 85.983C254.706 86.3125 254.534 86.6023 254.292 86.8523C254.051 87.0994 253.752 87.2926 253.397 87.4318C253.042 87.5682 252.643 87.6364 252.2 87.6364ZM257.446 83.5625V87.5H256.44V80.9545H257.412V81.9773H257.497C257.65 81.6449 257.883 81.3778 258.196 81.1761C258.508 80.9716 258.912 80.8693 259.406 80.8693C259.849 80.8693 260.237 80.9602 260.569 81.142C260.902 81.321 261.16 81.5938 261.345 81.9602C261.529 82.3239 261.622 82.7841 261.622 83.3409V87.5H260.616V83.4091C260.616 82.8949 260.483 82.4943 260.216 82.2074C259.949 81.9176 259.582 81.7727 259.116 81.7727C258.795 81.7727 258.508 81.8423 258.255 81.9815C258.005 82.1207 257.808 82.3239 257.663 82.5909C257.518 82.858 257.446 83.1818 257.446 83.5625ZM266.119 87.6364C265.505 87.6364 264.977 87.4915 264.533 87.2017C264.09 86.9119 263.749 86.5128 263.511 86.0043C263.272 85.4957 263.153 84.9148 263.153 84.2614C263.153 83.5966 263.275 83.0099 263.519 82.5014C263.766 81.9901 264.11 81.5909 264.55 81.304C264.994 81.0142 265.511 80.8693 266.102 80.8693C266.562 80.8693 266.977 80.9545 267.346 81.125C267.715 81.2955 268.018 81.5341 268.254 81.8409C268.489 82.1477 268.636 82.5057 268.692 82.9148H267.687C267.61 82.6165 267.44 82.3523 267.175 82.1222C266.914 81.8892 266.562 81.7727 266.119 81.7727C265.727 81.7727 265.383 81.875 265.087 82.0795C264.795 82.2812 264.566 82.5668 264.401 82.9361C264.239 83.3026 264.158 83.733 264.158 84.2273C264.158 84.733 264.238 85.1733 264.397 85.5483C264.559 85.9233 264.786 86.2145 265.079 86.4219C265.374 86.6293 265.721 86.733 266.119 86.733C266.38 86.733 266.617 86.6875 266.83 86.5966C267.043 86.5057 267.224 86.375 267.371 86.2045C267.519 86.0341 267.624 85.8295 267.687 85.5909H268.692C268.636 85.9773 268.495 86.3253 268.271 86.6349C268.049 86.9418 267.755 87.1861 267.388 87.3679C267.025 87.5469 266.602 87.6364 266.119 87.6364ZM272.907 87.6364C272.276 87.6364 271.732 87.4972 271.275 87.2188C270.82 86.9375 270.469 86.5455 270.222 86.0426C269.978 85.5369 269.856 84.9489 269.856 84.2784C269.856 83.608 269.978 83.017 270.222 82.5057C270.469 81.9915 270.813 81.5909 271.254 81.304C271.697 81.0142 272.214 80.8693 272.805 80.8693C273.146 80.8693 273.482 80.9261 273.815 81.0398C274.147 81.1534 274.45 81.3381 274.722 81.5938C274.995 81.8466 275.212 82.1818 275.374 82.5994C275.536 83.017 275.617 83.5312 275.617 84.142V84.5682H270.572V83.6989H274.594C274.594 83.3295 274.521 83 274.373 82.7102C274.228 82.4205 274.021 82.1918 273.751 82.0241C273.484 81.8565 273.168 81.7727 272.805 81.7727C272.404 81.7727 272.058 81.8722 271.765 82.071C271.475 82.267 271.252 82.5227 271.096 82.8381C270.94 83.1534 270.862 83.4915 270.862 83.8523V84.4318C270.862 84.9261 270.947 85.3452 271.117 85.6889C271.29 86.0298 271.531 86.2898 271.837 86.4688C272.144 86.6449 272.501 86.733 272.907 86.733C273.171 86.733 273.41 86.696 273.623 86.6222C273.839 86.5455 274.025 86.4318 274.181 86.2812C274.337 86.1278 274.458 85.9375 274.543 85.7102L275.515 85.983C275.413 86.3125 275.241 86.6023 274.999 86.8523C274.758 87.0994 274.46 87.2926 274.104 87.4318C273.749 87.5682 273.35 87.6364 272.907 87.6364Z" fill="black" fill-opacity="0.7"/>
<path d="M187.287 108.714L184.716 105.286M181.287 111.286L185.144 112.572M181.287 119.429L185.573 116.857M187.287 121.143L185.144 124.143M195.001 108.714L197.573 105.286M201.001 111.286L197.144 112.572M201.001 119.429L196.716 116.857M195.001 121.143L197.144 124.143M195.001 112.572C195.001 112.335 194.81 112.143 194.573 112.143H192.859C192.622 112.143 192.43 111.951 192.43 111.714V110C192.43 109.763 192.238 109.572 192.001 109.572H190.287C190.05 109.572 189.859 109.763 189.859 110V111.714C189.859 111.951 189.667 112.143 189.43 112.143H187.716C187.479 112.143 187.287 112.335 187.287 112.572V114.286C187.287 114.523 187.479 114.714 187.716 114.714H189.43C189.667 114.714 189.859 114.906 189.859 115.143V120.286C189.859 120.523 190.05 120.714 190.287 120.714H192.001C192.238 120.714 192.43 120.523 192.43 120.286V115.143C192.43 114.906 192.622 114.714 192.859 114.714H194.573C194.81 114.714 195.001 114.523 195.001 114.286V112.572Z" stroke="#4682E3" stroke-width="1.14286" stroke-linecap="round" stroke-linejoin="round"/>
<path d="M212.057 119.5V110.773H213.114V114.659H217.767V110.773H218.824V119.5H217.767V115.597H213.114V119.5H212.057ZM223.548 119.636C222.917 119.636 222.373 119.497 221.915 119.219C221.461 118.938 221.11 118.545 220.863 118.043C220.619 117.537 220.496 116.949 220.496 116.278C220.496 115.608 220.619 115.017 220.863 114.506C221.11 113.991 221.454 113.591 221.894 113.304C222.337 113.014 222.854 112.869 223.445 112.869C223.786 112.869 224.123 112.926 224.455 113.04C224.788 113.153 225.09 113.338 225.363 113.594C225.636 113.847 225.853 114.182 226.015 114.599C226.177 115.017 226.258 115.531 226.258 116.142V116.568H221.212V115.699H225.235C225.235 115.33 225.161 115 225.013 114.71C224.869 114.42 224.661 114.192 224.391 114.024C224.124 113.857 223.809 113.773 223.445 113.773C223.045 113.773 222.698 113.872 222.406 114.071C222.116 114.267 221.893 114.523 221.737 114.838C221.58 115.153 221.502 115.491 221.502 115.852V116.432C221.502 116.926 221.587 117.345 221.758 117.689C221.931 118.03 222.171 118.29 222.478 118.469C222.785 118.645 223.141 118.733 223.548 118.733C223.812 118.733 224.05 118.696 224.263 118.622C224.479 118.545 224.665 118.432 224.822 118.281C224.978 118.128 225.099 117.937 225.184 117.71L226.156 117.983C226.053 118.312 225.881 118.602 225.64 118.852C225.398 119.099 225.1 119.293 224.745 119.432C224.39 119.568 223.991 119.636 223.548 119.636ZM227.788 119.5V112.955H228.759V113.943H228.827C228.947 113.619 229.163 113.357 229.475 113.155C229.788 112.953 230.14 112.852 230.532 112.852C230.606 112.852 230.698 112.854 230.809 112.857C230.92 112.859 231.004 112.864 231.06 112.869V113.892C231.026 113.884 230.948 113.871 230.826 113.854C230.707 113.834 230.58 113.824 230.447 113.824C230.129 113.824 229.844 113.891 229.594 114.024C229.347 114.155 229.151 114.337 229.006 114.57C228.864 114.8 228.793 115.062 228.793 115.358V119.5H227.788ZM232.252 119.5V112.955H233.258V119.5H232.252ZM232.764 111.864C232.568 111.864 232.399 111.797 232.257 111.663C232.118 111.53 232.048 111.369 232.048 111.182C232.048 110.994 232.118 110.834 232.257 110.7C232.399 110.567 232.568 110.5 232.764 110.5C232.96 110.5 233.127 110.567 233.267 110.7C233.409 110.834 233.48 110.994 233.48 111.182C233.48 111.369 233.409 111.53 233.267 111.663C233.127 111.797 232.96 111.864 232.764 111.864ZM237.947 112.955V113.807H234.555V112.955H237.947ZM235.543 111.386H236.549V117.625C236.549 117.909 236.59 118.122 236.673 118.264C236.758 118.403 236.866 118.497 236.996 118.545C237.13 118.591 237.271 118.614 237.418 118.614C237.529 118.614 237.62 118.608 237.691 118.597C237.762 118.582 237.819 118.571 237.862 118.562L238.066 119.466C237.998 119.491 237.903 119.517 237.781 119.543C237.658 119.571 237.504 119.585 237.316 119.585C237.032 119.585 236.754 119.524 236.481 119.402C236.211 119.28 235.987 119.094 235.808 118.844C235.631 118.594 235.543 118.278 235.543 117.898V111.386ZM241.386 119.653C240.971 119.653 240.594 119.575 240.256 119.419C239.918 119.26 239.65 119.031 239.451 118.733C239.252 118.432 239.153 118.068 239.153 117.642C239.153 117.267 239.227 116.963 239.374 116.73C239.522 116.494 239.719 116.31 239.967 116.176C240.214 116.043 240.487 115.943 240.785 115.878C241.086 115.81 241.388 115.756 241.692 115.716C242.09 115.665 242.413 115.626 242.66 115.601C242.91 115.572 243.092 115.526 243.205 115.46C243.322 115.395 243.38 115.281 243.38 115.119V115.085C243.38 114.665 243.265 114.338 243.035 114.105C242.808 113.872 242.462 113.756 241.999 113.756C241.519 113.756 241.143 113.861 240.87 114.071C240.597 114.281 240.406 114.506 240.295 114.744L239.34 114.403C239.511 114.006 239.738 113.696 240.022 113.474C240.309 113.25 240.621 113.094 240.96 113.006C241.3 112.915 241.636 112.869 241.965 112.869C242.175 112.869 242.417 112.895 242.69 112.946C242.965 112.994 243.231 113.095 243.487 113.249C243.745 113.402 243.96 113.634 244.13 113.943C244.3 114.253 244.386 114.668 244.386 115.188V119.5H243.38V118.614H243.329C243.261 118.756 243.147 118.908 242.988 119.07C242.829 119.232 242.617 119.369 242.353 119.483C242.089 119.597 241.766 119.653 241.386 119.653ZM241.539 118.75C241.937 118.75 242.272 118.672 242.545 118.516C242.82 118.359 243.028 118.158 243.167 117.911C243.309 117.663 243.38 117.403 243.38 117.131V116.21C243.337 116.261 243.244 116.308 243.099 116.351C242.957 116.391 242.792 116.426 242.604 116.457C242.42 116.486 242.239 116.511 242.063 116.534C241.89 116.554 241.749 116.571 241.641 116.585C241.38 116.619 241.136 116.675 240.908 116.751C240.684 116.825 240.502 116.937 240.363 117.088C240.227 117.236 240.158 117.437 240.158 117.693C240.158 118.043 240.288 118.307 240.546 118.486C240.808 118.662 241.138 118.75 241.539 118.75ZM248.863 122.091C248.377 122.091 247.96 122.028 247.61 121.903C247.261 121.781 246.97 121.619 246.737 121.418C246.507 121.219 246.324 121.006 246.187 120.778L246.988 120.216C247.079 120.335 247.194 120.472 247.333 120.625C247.473 120.781 247.663 120.916 247.904 121.03C248.149 121.146 248.468 121.205 248.863 121.205C249.392 121.205 249.828 121.077 250.172 120.821C250.515 120.565 250.687 120.165 250.687 119.619V118.29H250.602C250.528 118.409 250.423 118.557 250.287 118.733C250.153 118.906 249.96 119.061 249.707 119.197C249.457 119.331 249.119 119.398 248.693 119.398C248.164 119.398 247.69 119.273 247.27 119.023C246.852 118.773 246.521 118.409 246.277 117.932C246.035 117.455 245.914 116.875 245.914 116.193C245.914 115.523 246.032 114.939 246.268 114.442C246.504 113.942 246.832 113.555 247.252 113.283C247.673 113.007 248.159 112.869 248.71 112.869C249.136 112.869 249.474 112.94 249.724 113.082C249.977 113.222 250.17 113.381 250.304 113.56C250.44 113.736 250.545 113.881 250.619 113.994H250.721V112.955H251.693V119.688C251.693 120.25 251.565 120.707 251.309 121.06C251.056 121.415 250.716 121.675 250.287 121.839C249.86 122.007 249.386 122.091 248.863 122.091ZM248.829 118.494C249.233 118.494 249.574 118.402 249.852 118.217C250.13 118.033 250.342 117.767 250.487 117.42C250.632 117.074 250.704 116.659 250.704 116.176C250.704 115.705 250.633 115.288 250.491 114.928C250.349 114.567 250.139 114.284 249.86 114.08C249.582 113.875 249.238 113.773 248.829 113.773C248.403 113.773 248.048 113.881 247.764 114.097C247.483 114.312 247.271 114.602 247.129 114.966C246.99 115.33 246.92 115.733 246.92 116.176C246.92 116.631 246.991 117.033 247.133 117.382C247.278 117.729 247.491 118.001 247.772 118.2C248.056 118.396 248.409 118.494 248.829 118.494ZM256.278 119.636C255.647 119.636 255.103 119.497 254.646 119.219C254.191 118.938 253.841 118.545 253.593 118.043C253.349 117.537 253.227 116.949 253.227 116.278C253.227 115.608 253.349 115.017 253.593 114.506C253.841 113.991 254.184 113.591 254.625 113.304C255.068 113.014 255.585 112.869 256.176 112.869C256.517 112.869 256.853 112.926 257.186 113.04C257.518 113.153 257.821 113.338 258.093 113.594C258.366 113.847 258.583 114.182 258.745 114.599C258.907 115.017 258.988 115.531 258.988 116.142V116.568H253.943V115.699H257.966C257.966 115.33 257.892 115 257.744 114.71C257.599 114.42 257.392 114.192 257.122 114.024C256.855 113.857 256.539 113.773 256.176 113.773C255.775 113.773 255.429 113.872 255.136 114.071C254.846 114.267 254.623 114.523 254.467 114.838C254.311 115.153 254.233 115.491 254.233 115.852V116.432C254.233 116.926 254.318 117.345 254.488 117.689C254.662 118.03 254.902 118.29 255.208 118.469C255.515 118.645 255.872 118.733 256.278 118.733C256.542 118.733 256.781 118.696 256.994 118.622C257.21 118.545 257.396 118.432 257.552 118.281C257.708 118.128 257.829 117.937 257.914 117.71L258.886 117.983C258.784 118.312 258.612 118.602 258.37 118.852C258.129 119.099 257.831 119.293 257.475 119.432C257.12 119.568 256.721 119.636 256.278 119.636Z" fill="black" fill-opacity="0.7"/>
</svg>
