<svg width="77" height="37" viewBox="0 0 77 37" fill="none" xmlns="http://www.w3.org/2000/svg">
<mask id="mask0_644_2741" style="mask-type:luminance" maskUnits="userSpaceOnUse" x="0" y="0" width="77" height="29">
<path d="M0.167969 0H76.9999V28.3779H0.167969V0Z" fill="white"/>
</mask>
<g mask="url(#mask0_644_2741)">
<mask id="mask1_644_2741" style="mask-type:luminance" maskUnits="userSpaceOnUse" x="0" y="0" width="77" height="29">
<path d="M73.7962 28.2642H3.26621C1.55976 28.2642 0.167969 26.9181 0.167969 25.2711V2.99815C0.167969 1.34775 1.55976 0 3.26621 0H73.7962C75.4975 0 76.8944 1.34775 76.8944 2.99815V25.2711C76.8944 26.9181 75.5027 28.2692 73.7962 28.2692" fill="white"/>
</mask>
<g mask="url(#mask1_644_2741)">
<path d="M0.167969 0H76.8858V28.2659H0.167969V0Z" fill="#E98B23"/>
</g>
</g>
<mask id="mask2_644_2741" style="mask-type:luminance" maskUnits="userSpaceOnUse" x="0" y="4" width="10" height="21">
<path d="M0 4.03003H9.05959V24.2278H0V4.03003Z" fill="white"/>
</mask>
<g mask="url(#mask2_644_2741)">
<mask id="mask3_644_2741" style="mask-type:luminance" maskUnits="userSpaceOnUse" x="0" y="4" width="10" height="21">
<path d="M0.71627 4.48056C0.747391 4.4722 2.09941 4.05249 3.68657 4.05249C5.71115 4.05249 8.53622 4.78489 8.99612 8.26796L9.00476 8.32815V20.9227L8.69528 21.2137C8.53968 21.3591 5.69732 23.9376 1.07935 24.2118C0.531275 24.2453 0.061006 23.8439 0.0264274 23.3139C-0.00815124 22.7838 0.406792 22.3307 0.954863 22.2955C4.87608 22.0614 7.29312 19.8509 7.32078 19.8241L8.01063 20.5181H7.01995V8.39169H8.01408L7.02859 8.51711C6.75888 6.46372 5.29966 5.97712 3.68657 5.97712C2.40544 5.97712 1.28682 6.32326 1.3214 6.30988C0.799259 6.47208 0.242543 6.19116 0.0748374 5.68617C-0.0928687 5.18118 0.19932 4.64276 0.719728 4.48056H0.71627Z" fill="white"/>
</mask>
<g mask="url(#mask3_644_2741)">
<path d="M-2.30371 0.615723H79.077V38.6335H-2.30371V0.615723Z" fill="#231F20"/>
</g>
</g>
<mask id="mask4_644_2741" style="mask-type:luminance" maskUnits="userSpaceOnUse" x="63" y="2" width="14" height="22">
<path d="M63.5693 2.69409H76.9288V23.6343H63.5693V2.69409Z" fill="white"/>
</mask>
<g mask="url(#mask4_644_2741)">
<mask id="mask5_644_2741" style="mask-type:luminance" maskUnits="userSpaceOnUse" x="63" y="2" width="14" height="22">
<path d="M75.9936 4.71881L66.3203 5.74049C66.0022 5.7756 65.7601 6.03646 65.7601 6.34748V14.668L65.7065 14.8219L65.6892 14.8386V15.0694C65.6892 15.7499 66.1405 18.9086 75.3781 21.7128C75.9003 21.8716 76.1925 22.4101 76.0282 22.9201C75.864 23.4284 75.3073 23.706 74.7817 23.5471C65.2518 20.6526 63.6992 17.0274 63.6992 15.0744C63.6992 14.5911 63.8012 14.2784 63.8272 14.1982L64.7642 14.5142H63.7701V6.34413C63.7701 5.05324 64.7729 3.96635 66.1042 3.82923L75.7758 2.80756C76.3204 2.75237 76.8114 3.13362 76.8719 3.65867C76.9342 4.1854 76.5365 4.65861 75.9936 4.71881Z" fill="white"/>
</mask>
<g mask="url(#mask5_644_2741)">
<path d="M-2.30273 0.61499H79.078V38.6328H-2.30273V0.61499Z" fill="#231F20"/>
</g>
</g>
<mask id="mask6_644_2741" style="mask-type:luminance" maskUnits="userSpaceOnUse" x="13" y="4" width="14" height="13">
<path d="M13.0518 4.03003H26.4095V16.8018H13.0518V4.03003Z" fill="white"/>
</mask>
<g mask="url(#mask6_644_2741)">
<mask id="mask7_644_2741" style="mask-type:luminance" maskUnits="userSpaceOnUse" x="13" y="4" width="14" height="13">
<path d="M14.1182 4.05249H24.4001L24.6301 4.69794C24.6266 4.68623 26.3538 9.51705 26.3538 13.3998C26.3538 14.3311 26.257 15.2625 25.9786 16.0835L25.7539 16.7457H13.124V8.51711C13.124 7.98704 13.5701 7.55395 14.1182 7.55395C14.6662 7.55395 15.1123 7.98704 15.1123 8.51711V15.7892H14.1182V14.8311H25.0364V15.7926L24.0958 15.4933C24.286 14.9331 24.3742 14.2241 24.3742 13.4031C24.3742 9.88826 22.7645 5.34338 22.7559 5.32666L23.693 5.01564V5.97712H14.1182C13.5701 5.97712 13.124 5.54571 13.124 5.01564C13.124 4.48557 13.5701 4.05249 14.1182 4.05249Z" fill="white"/>
</mask>
<g mask="url(#mask7_644_2741)">
<path d="M-2.30371 0.615723H79.077V38.6335H-2.30371V0.615723Z" fill="#231F20"/>
</g>
</g>
<mask id="mask8_644_2741" style="mask-type:luminance" maskUnits="userSpaceOnUse" x="46" y="3" width="15" height="11">
<path d="M46.3721 3.43604H60.0375V13.3853H46.3721V3.43604Z" fill="white"/>
</mask>
<g mask="url(#mask8_644_2741)">
<mask id="mask9_644_2741" style="mask-type:luminance" maskUnits="userSpaceOnUse" x="46" y="3" width="14" height="11">
<path d="M48.3645 5.06935C48.3645 5.06935 48.7708 8.59255 49.1736 12.3248L48.1864 12.4234V11.4603H58.3006L57.9082 11.6325L58.9023 11.8415H57.9082V5.00581L58.0793 5.37703L58.292 4.41555V5.37703H50.2075C49.6594 5.37703 49.2134 4.94561 49.2134 4.41555C49.2134 3.88548 49.6594 3.45239 50.2075 3.45239H58.292C59.1772 3.45239 59.893 4.14633 59.893 5.00079V11.8415C59.893 12.6926 59.1807 13.3799 58.3006 13.3799H47.2891L47.1974 12.5204C46.7946 8.79655 46.3883 5.27837 46.3883 5.27837C46.3261 4.75332 46.7203 4.27843 47.2631 4.21823C47.806 4.15804 48.297 4.53928 48.3593 5.06434L48.3645 5.06935Z" fill="white"/>
</mask>
<g mask="url(#mask9_644_2741)">
<path d="M-2.30273 0.614502H79.078V38.6323H-2.30273V0.614502Z" fill="#231F20"/>
</g>
</g>
<mask id="mask10_644_2741" style="mask-type:luminance" maskUnits="userSpaceOnUse" x="29" y="5" width="14" height="24">
<path d="M29.4814 5.86768H42.993V28.5335H29.4814V5.86768Z" fill="white"/>
</mask>
<g mask="url(#mask10_644_2741)">
<mask id="mask11_644_2741" style="mask-type:luminance" maskUnits="userSpaceOnUse" x="29" y="5" width="14" height="24">
<path d="M29.6048 27.4431V8.33219C29.6048 6.98445 30.7321 5.89087 32.129 5.89087H40.3899C41.7834 5.89087 42.9141 6.9811 42.9141 8.33219V27.4431C42.9141 27.9732 42.468 28.4046 41.92 28.4046C41.3719 28.4046 40.9258 27.9732 40.9258 27.4431V8.33219C40.9258 8.04459 40.6855 7.81383 40.3899 7.81383H32.1238C31.8282 7.81383 31.5896 8.04459 31.5896 8.33219V27.4431C31.5896 27.9732 31.1418 28.4046 30.5937 28.4046C30.0457 28.4046 29.5996 27.9732 29.5996 27.4431H29.6048Z" fill="white"/>
</mask>
<g mask="url(#mask11_644_2741)">
<path d="M-2.30273 0.61499H79.078V38.6328H-2.30273V0.61499Z" fill="#231F20"/>
</g>
</g>
<mask id="mask12_644_2741" style="mask-type:luminance" maskUnits="userSpaceOnUse" x="35" y="5" width="3" height="24">
<path d="M35.1631 5.86768H37.9259V28.5335H35.1631V5.86768Z" fill="white"/>
</mask>
<g mask="url(#mask12_644_2741)">
<mask id="mask13_644_2741" style="mask-type:luminance" maskUnits="userSpaceOnUse" x="35" y="5" width="3" height="24">
<path d="M37.8081 6.93408C37.8081 6.92906 37.2739 13.2782 37.2739 19.3397C37.2739 22.3847 37.4105 25.2875 37.7943 27.2673C37.8963 27.789 37.5436 28.289 37.0042 28.3876C36.4647 28.4846 35.9478 28.1435 35.8458 27.6218C35.4205 25.4547 35.2891 22.398 35.2891 19.3397C35.2891 13.1962 35.8319 6.78359 35.8319 6.78024C35.8769 6.25018 36.3541 5.85555 36.9022 5.89903C37.4502 5.94083 37.8565 6.40401 37.8133 6.93408H37.8081Z" fill="white"/>
</mask>
<g mask="url(#mask13_644_2741)">
<path d="M-2.30273 0.61499H79.078V38.6328H-2.30273V0.61499Z" fill="#231F20"/>
</g>
</g>
<mask id="mask14_644_2741" style="mask-type:luminance" maskUnits="userSpaceOnUse" x="7" y="20" width="19" height="17">
<path d="M7.37012 20.2178H25.1816V36.2569H7.37012V20.2178Z" fill="white"/>
</mask>
<g mask="url(#mask14_644_2741)">
<mask id="mask15_644_2741" style="mask-type:luminance" maskUnits="userSpaceOnUse" x="7" y="20" width="19" height="17">
<path d="M9.48959 28.7074C9.96677 31.6202 12.721 34.0699 15.7587 34.2923C18.7947 34.5147 21.8981 32.4881 22.8214 29.6789C23.3349 28.1188 23.1706 26.3864 22.2647 25.1674C20.802 23.201 16.165 22.0422 13.3313 22.2479C10.8693 22.4268 9.21987 25.4718 9.43599 28.2676L9.46711 28.5669L9.48959 28.7074ZM7.52725 29.0067C7.49613 28.811 7.4702 28.6104 7.45636 28.408C7.21258 25.2795 9.00721 20.6359 13.1809 20.3333C16.2393 20.1109 21.8013 21.2479 23.8795 24.0471L23.0703 24.6073L23.8743 24.0471C25.2229 25.8647 25.3681 28.2592 24.7094 30.2608C23.5112 33.9161 19.5641 36.4928 15.6083 36.2069C11.6507 35.921 8.14621 32.7991 7.52725 29.0067Z" fill="white"/>
</mask>
<g mask="url(#mask15_644_2741)">
<path d="M-2.30371 0.61499H79.077V38.6328H-2.30371V0.61499Z" fill="#231F20"/>
</g>
</g>
<mask id="mask16_644_2741" style="mask-type:luminance" maskUnits="userSpaceOnUse" x="12" y="25" width="8" height="7">
<path d="M12.9502 25.415H19.961V31.9498H12.9502V25.415Z" fill="white"/>
</mask>
<g mask="url(#mask16_644_2741)">
<mask id="mask17_644_2741" style="mask-type:luminance" maskUnits="userSpaceOnUse" x="13" y="25" width="7" height="7">
<path d="M15.2998 28.9901L15.3085 28.9951L15.1096 29.0452L15.0301 29.2091L15.0128 29.2593V29.2726C15.0024 29.4733 15.2324 29.8328 15.6612 29.9181C16.0726 30.0034 16.6121 29.8579 17.1031 29.495C17.8811 28.9182 17.9658 28.0888 17.7359 27.7895C17.5664 27.5704 17.1342 27.3915 16.5896 27.4717C16.0329 27.5503 15.4935 27.8229 14.7915 28.1991C14.3091 28.4566 13.7075 28.2844 13.4429 27.8229C13.1784 27.3614 13.3548 26.7761 13.832 26.5186C14.482 26.1725 15.3309 25.711 16.3026 25.5739C17.2846 25.4334 18.5744 25.6692 19.3265 26.6424C20.5333 28.2075 19.4458 30.184 18.3151 31.0217C17.5319 31.6019 16.4132 32.0384 15.2514 31.7992C14.1017 31.5635 12.9606 30.5334 13.0315 29.179C13.0453 28.8914 13.1196 28.6272 13.2355 28.3914C13.6072 27.6306 14.482 27.0102 15.4589 27.0838L15.9188 27.1557C16.6346 27.4818 16.8507 28.0537 16.6173 28.5336C16.3821 29.0118 15.7943 29.2175 15.2946 28.9951L15.2998 28.9901Z" fill="white"/>
</mask>
<g mask="url(#mask17_644_2741)">
<path d="M-2.30273 0.615234H79.078V38.633H-2.30273V0.615234Z" fill="#231F20"/>
</g>
</g>
<mask id="mask18_644_2741" style="mask-type:luminance" maskUnits="userSpaceOnUse" x="47" y="20" width="19" height="17">
<path d="M47.916 20.2178H65.7188V36.2569H47.916V20.2178Z" fill="white"/>
</mask>
<g mask="url(#mask18_644_2741)">
<mask id="mask19_644_2741" style="mask-type:luminance" maskUnits="userSpaceOnUse" x="48" y="20" width="18" height="17">
<path d="M50.0804 28.7074C50.5576 31.6202 53.3118 34.0699 56.3478 34.2923C59.3855 34.5147 62.4889 32.4881 63.4122 29.6789C63.9257 28.1188 63.7614 26.3864 62.8555 25.1674C61.3928 23.201 56.7541 22.0422 53.9221 22.2479C51.4584 22.4268 49.8107 25.4718 50.0268 28.2676L50.0579 28.5669L50.0804 28.7074ZM48.1163 29.0067C48.0869 28.811 48.0593 28.6104 48.0472 28.408C47.8034 25.2795 49.598 20.6359 53.7717 20.3333C56.8301 20.1109 62.3904 21.2479 64.4686 24.0471C65.8171 25.8647 65.9624 28.2592 65.3036 30.2608C64.102 33.9161 60.1583 36.4979 56.2025 36.2069C52.2468 35.921 48.7405 32.7991 48.1215 29.0067H48.1163Z" fill="white"/>
</mask>
<g mask="url(#mask19_644_2741)">
<path d="M-2.30273 0.61499H79.078V38.6328H-2.30273V0.61499Z" fill="#231F20"/>
</g>
</g>
<mask id="mask20_644_2741" style="mask-type:luminance" maskUnits="userSpaceOnUse" x="53" y="25" width="8" height="7">
<path d="M53.5889 25.4153H60.4994V31.95H53.5889V25.4153Z" fill="white"/>
</mask>
<g mask="url(#mask20_644_2741)">
<mask id="mask21_644_2741" style="mask-type:luminance" maskUnits="userSpaceOnUse" x="53" y="25" width="8" height="7">
<path d="M55.8879 28.9905L55.8966 28.9956L55.6978 29.0457L55.6182 29.2096L55.6009 29.2598V29.2731C55.5923 29.4738 55.8222 29.8333 56.251 29.9186C56.6625 30.0039 57.2019 29.8584 57.6912 29.4955C58.4692 28.9186 58.5539 28.0893 58.324 27.7899C58.1563 27.5709 57.7223 27.3953 57.1794 27.4722C56.6227 27.5508 56.0833 27.8234 55.3796 28.1996C54.899 28.4571 54.2973 28.2849 54.0311 27.8234C53.7665 27.3619 53.9429 26.7766 54.4201 26.5191C55.0702 26.173 55.9191 25.7115 56.8924 25.5744C57.8727 25.4339 59.1643 25.6697 59.9163 26.6429C61.1231 28.208 60.0356 30.1844 58.9032 31.0222C58.12 31.6024 57.0031 32.0389 55.8395 31.7997C54.6898 31.564 53.5504 30.5339 53.6213 29.1795C53.6334 28.8919 53.7095 28.6277 53.8236 28.3919C54.1953 27.6311 55.0702 27.0107 56.047 27.0843L56.5069 27.1562C57.2227 27.4823 57.4405 28.0541 57.2054 28.534C56.972 29.0123 56.3841 29.218 55.8845 28.9956L55.8879 28.9905Z" fill="white"/>
</mask>
<g mask="url(#mask21_644_2741)">
<path d="M-2.30371 0.615967H79.077V38.6338H-2.30371V0.615967Z" fill="#231F20"/>
</g>
</g>
</svg>
